G75*
%MOIN*%
%OFA0B0*%
%FSLAX25Y25*%
%IPPOS*%
%LPD*%
%AMOC8*
5,1,8,0,0,1.08239X$1,22.5*
%
%ADD10C,0.00800*%
%ADD11C,0.00000*%
D10*
X0002250Y0005060D02*
X0102250Y0005060D01*
X0202250Y0005060D01*
X0302250Y0005060D01*
X0302250Y0105060D01*
X0202250Y0105060D01*
X0202250Y0205060D01*
X0302250Y0205060D01*
X0302250Y0305060D01*
X0202250Y0305060D01*
X0202250Y0205060D01*
X0102250Y0205060D01*
X0102250Y0305060D01*
X0202250Y0305060D01*
X0202250Y0205060D01*
X0302250Y0205060D01*
X0302250Y0105060D01*
X0202250Y0105060D01*
X0102250Y0105060D01*
X0102250Y0205060D01*
X0002250Y0205060D01*
X0002250Y0305060D01*
X0102250Y0305060D01*
X0102250Y0205060D01*
X0202250Y0205060D01*
X0202250Y0105060D01*
X0202250Y0005060D01*
X0202250Y0105060D01*
X0102250Y0105060D01*
X0002250Y0105060D01*
X0002250Y0205060D01*
X0102250Y0205060D01*
X0102250Y0105060D01*
X0102250Y0005060D01*
X0102250Y0105060D01*
X0002250Y0105060D01*
X0002250Y0005060D01*
D11*
X0005750Y0095060D02*
X0005752Y0095221D01*
X0005758Y0095381D01*
X0005768Y0095542D01*
X0005782Y0095702D01*
X0005800Y0095862D01*
X0005821Y0096021D01*
X0005847Y0096180D01*
X0005877Y0096338D01*
X0005910Y0096495D01*
X0005948Y0096652D01*
X0005989Y0096807D01*
X0006034Y0096961D01*
X0006083Y0097114D01*
X0006136Y0097266D01*
X0006192Y0097417D01*
X0006253Y0097566D01*
X0006316Y0097714D01*
X0006384Y0097860D01*
X0006455Y0098004D01*
X0006529Y0098146D01*
X0006607Y0098287D01*
X0006689Y0098425D01*
X0006774Y0098562D01*
X0006862Y0098696D01*
X0006954Y0098828D01*
X0007049Y0098958D01*
X0007147Y0099086D01*
X0007248Y0099211D01*
X0007352Y0099333D01*
X0007459Y0099453D01*
X0007569Y0099570D01*
X0007682Y0099685D01*
X0007798Y0099796D01*
X0007917Y0099905D01*
X0008038Y0100010D01*
X0008162Y0100113D01*
X0008288Y0100213D01*
X0008416Y0100309D01*
X0008547Y0100402D01*
X0008681Y0100492D01*
X0008816Y0100579D01*
X0008954Y0100662D01*
X0009093Y0100742D01*
X0009235Y0100818D01*
X0009378Y0100891D01*
X0009523Y0100960D01*
X0009670Y0101026D01*
X0009818Y0101088D01*
X0009968Y0101146D01*
X0010119Y0101201D01*
X0010272Y0101252D01*
X0010426Y0101299D01*
X0010581Y0101342D01*
X0010737Y0101381D01*
X0010893Y0101417D01*
X0011051Y0101448D01*
X0011209Y0101476D01*
X0011368Y0101500D01*
X0011528Y0101520D01*
X0011688Y0101536D01*
X0011848Y0101548D01*
X0012009Y0101556D01*
X0012170Y0101560D01*
X0012330Y0101560D01*
X0012491Y0101556D01*
X0012652Y0101548D01*
X0012812Y0101536D01*
X0012972Y0101520D01*
X0013132Y0101500D01*
X0013291Y0101476D01*
X0013449Y0101448D01*
X0013607Y0101417D01*
X0013763Y0101381D01*
X0013919Y0101342D01*
X0014074Y0101299D01*
X0014228Y0101252D01*
X0014381Y0101201D01*
X0014532Y0101146D01*
X0014682Y0101088D01*
X0014830Y0101026D01*
X0014977Y0100960D01*
X0015122Y0100891D01*
X0015265Y0100818D01*
X0015407Y0100742D01*
X0015546Y0100662D01*
X0015684Y0100579D01*
X0015819Y0100492D01*
X0015953Y0100402D01*
X0016084Y0100309D01*
X0016212Y0100213D01*
X0016338Y0100113D01*
X0016462Y0100010D01*
X0016583Y0099905D01*
X0016702Y0099796D01*
X0016818Y0099685D01*
X0016931Y0099570D01*
X0017041Y0099453D01*
X0017148Y0099333D01*
X0017252Y0099211D01*
X0017353Y0099086D01*
X0017451Y0098958D01*
X0017546Y0098828D01*
X0017638Y0098696D01*
X0017726Y0098562D01*
X0017811Y0098425D01*
X0017893Y0098287D01*
X0017971Y0098146D01*
X0018045Y0098004D01*
X0018116Y0097860D01*
X0018184Y0097714D01*
X0018247Y0097566D01*
X0018308Y0097417D01*
X0018364Y0097266D01*
X0018417Y0097114D01*
X0018466Y0096961D01*
X0018511Y0096807D01*
X0018552Y0096652D01*
X0018590Y0096495D01*
X0018623Y0096338D01*
X0018653Y0096180D01*
X0018679Y0096021D01*
X0018700Y0095862D01*
X0018718Y0095702D01*
X0018732Y0095542D01*
X0018742Y0095381D01*
X0018748Y0095221D01*
X0018750Y0095060D01*
X0018748Y0094899D01*
X0018742Y0094739D01*
X0018732Y0094578D01*
X0018718Y0094418D01*
X0018700Y0094258D01*
X0018679Y0094099D01*
X0018653Y0093940D01*
X0018623Y0093782D01*
X0018590Y0093625D01*
X0018552Y0093468D01*
X0018511Y0093313D01*
X0018466Y0093159D01*
X0018417Y0093006D01*
X0018364Y0092854D01*
X0018308Y0092703D01*
X0018247Y0092554D01*
X0018184Y0092406D01*
X0018116Y0092260D01*
X0018045Y0092116D01*
X0017971Y0091974D01*
X0017893Y0091833D01*
X0017811Y0091695D01*
X0017726Y0091558D01*
X0017638Y0091424D01*
X0017546Y0091292D01*
X0017451Y0091162D01*
X0017353Y0091034D01*
X0017252Y0090909D01*
X0017148Y0090787D01*
X0017041Y0090667D01*
X0016931Y0090550D01*
X0016818Y0090435D01*
X0016702Y0090324D01*
X0016583Y0090215D01*
X0016462Y0090110D01*
X0016338Y0090007D01*
X0016212Y0089907D01*
X0016084Y0089811D01*
X0015953Y0089718D01*
X0015819Y0089628D01*
X0015684Y0089541D01*
X0015546Y0089458D01*
X0015407Y0089378D01*
X0015265Y0089302D01*
X0015122Y0089229D01*
X0014977Y0089160D01*
X0014830Y0089094D01*
X0014682Y0089032D01*
X0014532Y0088974D01*
X0014381Y0088919D01*
X0014228Y0088868D01*
X0014074Y0088821D01*
X0013919Y0088778D01*
X0013763Y0088739D01*
X0013607Y0088703D01*
X0013449Y0088672D01*
X0013291Y0088644D01*
X0013132Y0088620D01*
X0012972Y0088600D01*
X0012812Y0088584D01*
X0012652Y0088572D01*
X0012491Y0088564D01*
X0012330Y0088560D01*
X0012170Y0088560D01*
X0012009Y0088564D01*
X0011848Y0088572D01*
X0011688Y0088584D01*
X0011528Y0088600D01*
X0011368Y0088620D01*
X0011209Y0088644D01*
X0011051Y0088672D01*
X0010893Y0088703D01*
X0010737Y0088739D01*
X0010581Y0088778D01*
X0010426Y0088821D01*
X0010272Y0088868D01*
X0010119Y0088919D01*
X0009968Y0088974D01*
X0009818Y0089032D01*
X0009670Y0089094D01*
X0009523Y0089160D01*
X0009378Y0089229D01*
X0009235Y0089302D01*
X0009093Y0089378D01*
X0008954Y0089458D01*
X0008816Y0089541D01*
X0008681Y0089628D01*
X0008547Y0089718D01*
X0008416Y0089811D01*
X0008288Y0089907D01*
X0008162Y0090007D01*
X0008038Y0090110D01*
X0007917Y0090215D01*
X0007798Y0090324D01*
X0007682Y0090435D01*
X0007569Y0090550D01*
X0007459Y0090667D01*
X0007352Y0090787D01*
X0007248Y0090909D01*
X0007147Y0091034D01*
X0007049Y0091162D01*
X0006954Y0091292D01*
X0006862Y0091424D01*
X0006774Y0091558D01*
X0006689Y0091695D01*
X0006607Y0091833D01*
X0006529Y0091974D01*
X0006455Y0092116D01*
X0006384Y0092260D01*
X0006316Y0092406D01*
X0006253Y0092554D01*
X0006192Y0092703D01*
X0006136Y0092854D01*
X0006083Y0093006D01*
X0006034Y0093159D01*
X0005989Y0093313D01*
X0005948Y0093468D01*
X0005910Y0093625D01*
X0005877Y0093782D01*
X0005847Y0093940D01*
X0005821Y0094099D01*
X0005800Y0094258D01*
X0005782Y0094418D01*
X0005768Y0094578D01*
X0005758Y0094739D01*
X0005752Y0094899D01*
X0005750Y0095060D01*
X0085750Y0095060D02*
X0085752Y0095221D01*
X0085758Y0095381D01*
X0085768Y0095542D01*
X0085782Y0095702D01*
X0085800Y0095862D01*
X0085821Y0096021D01*
X0085847Y0096180D01*
X0085877Y0096338D01*
X0085910Y0096495D01*
X0085948Y0096652D01*
X0085989Y0096807D01*
X0086034Y0096961D01*
X0086083Y0097114D01*
X0086136Y0097266D01*
X0086192Y0097417D01*
X0086253Y0097566D01*
X0086316Y0097714D01*
X0086384Y0097860D01*
X0086455Y0098004D01*
X0086529Y0098146D01*
X0086607Y0098287D01*
X0086689Y0098425D01*
X0086774Y0098562D01*
X0086862Y0098696D01*
X0086954Y0098828D01*
X0087049Y0098958D01*
X0087147Y0099086D01*
X0087248Y0099211D01*
X0087352Y0099333D01*
X0087459Y0099453D01*
X0087569Y0099570D01*
X0087682Y0099685D01*
X0087798Y0099796D01*
X0087917Y0099905D01*
X0088038Y0100010D01*
X0088162Y0100113D01*
X0088288Y0100213D01*
X0088416Y0100309D01*
X0088547Y0100402D01*
X0088681Y0100492D01*
X0088816Y0100579D01*
X0088954Y0100662D01*
X0089093Y0100742D01*
X0089235Y0100818D01*
X0089378Y0100891D01*
X0089523Y0100960D01*
X0089670Y0101026D01*
X0089818Y0101088D01*
X0089968Y0101146D01*
X0090119Y0101201D01*
X0090272Y0101252D01*
X0090426Y0101299D01*
X0090581Y0101342D01*
X0090737Y0101381D01*
X0090893Y0101417D01*
X0091051Y0101448D01*
X0091209Y0101476D01*
X0091368Y0101500D01*
X0091528Y0101520D01*
X0091688Y0101536D01*
X0091848Y0101548D01*
X0092009Y0101556D01*
X0092170Y0101560D01*
X0092330Y0101560D01*
X0092491Y0101556D01*
X0092652Y0101548D01*
X0092812Y0101536D01*
X0092972Y0101520D01*
X0093132Y0101500D01*
X0093291Y0101476D01*
X0093449Y0101448D01*
X0093607Y0101417D01*
X0093763Y0101381D01*
X0093919Y0101342D01*
X0094074Y0101299D01*
X0094228Y0101252D01*
X0094381Y0101201D01*
X0094532Y0101146D01*
X0094682Y0101088D01*
X0094830Y0101026D01*
X0094977Y0100960D01*
X0095122Y0100891D01*
X0095265Y0100818D01*
X0095407Y0100742D01*
X0095546Y0100662D01*
X0095684Y0100579D01*
X0095819Y0100492D01*
X0095953Y0100402D01*
X0096084Y0100309D01*
X0096212Y0100213D01*
X0096338Y0100113D01*
X0096462Y0100010D01*
X0096583Y0099905D01*
X0096702Y0099796D01*
X0096818Y0099685D01*
X0096931Y0099570D01*
X0097041Y0099453D01*
X0097148Y0099333D01*
X0097252Y0099211D01*
X0097353Y0099086D01*
X0097451Y0098958D01*
X0097546Y0098828D01*
X0097638Y0098696D01*
X0097726Y0098562D01*
X0097811Y0098425D01*
X0097893Y0098287D01*
X0097971Y0098146D01*
X0098045Y0098004D01*
X0098116Y0097860D01*
X0098184Y0097714D01*
X0098247Y0097566D01*
X0098308Y0097417D01*
X0098364Y0097266D01*
X0098417Y0097114D01*
X0098466Y0096961D01*
X0098511Y0096807D01*
X0098552Y0096652D01*
X0098590Y0096495D01*
X0098623Y0096338D01*
X0098653Y0096180D01*
X0098679Y0096021D01*
X0098700Y0095862D01*
X0098718Y0095702D01*
X0098732Y0095542D01*
X0098742Y0095381D01*
X0098748Y0095221D01*
X0098750Y0095060D01*
X0098748Y0094899D01*
X0098742Y0094739D01*
X0098732Y0094578D01*
X0098718Y0094418D01*
X0098700Y0094258D01*
X0098679Y0094099D01*
X0098653Y0093940D01*
X0098623Y0093782D01*
X0098590Y0093625D01*
X0098552Y0093468D01*
X0098511Y0093313D01*
X0098466Y0093159D01*
X0098417Y0093006D01*
X0098364Y0092854D01*
X0098308Y0092703D01*
X0098247Y0092554D01*
X0098184Y0092406D01*
X0098116Y0092260D01*
X0098045Y0092116D01*
X0097971Y0091974D01*
X0097893Y0091833D01*
X0097811Y0091695D01*
X0097726Y0091558D01*
X0097638Y0091424D01*
X0097546Y0091292D01*
X0097451Y0091162D01*
X0097353Y0091034D01*
X0097252Y0090909D01*
X0097148Y0090787D01*
X0097041Y0090667D01*
X0096931Y0090550D01*
X0096818Y0090435D01*
X0096702Y0090324D01*
X0096583Y0090215D01*
X0096462Y0090110D01*
X0096338Y0090007D01*
X0096212Y0089907D01*
X0096084Y0089811D01*
X0095953Y0089718D01*
X0095819Y0089628D01*
X0095684Y0089541D01*
X0095546Y0089458D01*
X0095407Y0089378D01*
X0095265Y0089302D01*
X0095122Y0089229D01*
X0094977Y0089160D01*
X0094830Y0089094D01*
X0094682Y0089032D01*
X0094532Y0088974D01*
X0094381Y0088919D01*
X0094228Y0088868D01*
X0094074Y0088821D01*
X0093919Y0088778D01*
X0093763Y0088739D01*
X0093607Y0088703D01*
X0093449Y0088672D01*
X0093291Y0088644D01*
X0093132Y0088620D01*
X0092972Y0088600D01*
X0092812Y0088584D01*
X0092652Y0088572D01*
X0092491Y0088564D01*
X0092330Y0088560D01*
X0092170Y0088560D01*
X0092009Y0088564D01*
X0091848Y0088572D01*
X0091688Y0088584D01*
X0091528Y0088600D01*
X0091368Y0088620D01*
X0091209Y0088644D01*
X0091051Y0088672D01*
X0090893Y0088703D01*
X0090737Y0088739D01*
X0090581Y0088778D01*
X0090426Y0088821D01*
X0090272Y0088868D01*
X0090119Y0088919D01*
X0089968Y0088974D01*
X0089818Y0089032D01*
X0089670Y0089094D01*
X0089523Y0089160D01*
X0089378Y0089229D01*
X0089235Y0089302D01*
X0089093Y0089378D01*
X0088954Y0089458D01*
X0088816Y0089541D01*
X0088681Y0089628D01*
X0088547Y0089718D01*
X0088416Y0089811D01*
X0088288Y0089907D01*
X0088162Y0090007D01*
X0088038Y0090110D01*
X0087917Y0090215D01*
X0087798Y0090324D01*
X0087682Y0090435D01*
X0087569Y0090550D01*
X0087459Y0090667D01*
X0087352Y0090787D01*
X0087248Y0090909D01*
X0087147Y0091034D01*
X0087049Y0091162D01*
X0086954Y0091292D01*
X0086862Y0091424D01*
X0086774Y0091558D01*
X0086689Y0091695D01*
X0086607Y0091833D01*
X0086529Y0091974D01*
X0086455Y0092116D01*
X0086384Y0092260D01*
X0086316Y0092406D01*
X0086253Y0092554D01*
X0086192Y0092703D01*
X0086136Y0092854D01*
X0086083Y0093006D01*
X0086034Y0093159D01*
X0085989Y0093313D01*
X0085948Y0093468D01*
X0085910Y0093625D01*
X0085877Y0093782D01*
X0085847Y0093940D01*
X0085821Y0094099D01*
X0085800Y0094258D01*
X0085782Y0094418D01*
X0085768Y0094578D01*
X0085758Y0094739D01*
X0085752Y0094899D01*
X0085750Y0095060D01*
X0105750Y0095060D02*
X0105752Y0095221D01*
X0105758Y0095381D01*
X0105768Y0095542D01*
X0105782Y0095702D01*
X0105800Y0095862D01*
X0105821Y0096021D01*
X0105847Y0096180D01*
X0105877Y0096338D01*
X0105910Y0096495D01*
X0105948Y0096652D01*
X0105989Y0096807D01*
X0106034Y0096961D01*
X0106083Y0097114D01*
X0106136Y0097266D01*
X0106192Y0097417D01*
X0106253Y0097566D01*
X0106316Y0097714D01*
X0106384Y0097860D01*
X0106455Y0098004D01*
X0106529Y0098146D01*
X0106607Y0098287D01*
X0106689Y0098425D01*
X0106774Y0098562D01*
X0106862Y0098696D01*
X0106954Y0098828D01*
X0107049Y0098958D01*
X0107147Y0099086D01*
X0107248Y0099211D01*
X0107352Y0099333D01*
X0107459Y0099453D01*
X0107569Y0099570D01*
X0107682Y0099685D01*
X0107798Y0099796D01*
X0107917Y0099905D01*
X0108038Y0100010D01*
X0108162Y0100113D01*
X0108288Y0100213D01*
X0108416Y0100309D01*
X0108547Y0100402D01*
X0108681Y0100492D01*
X0108816Y0100579D01*
X0108954Y0100662D01*
X0109093Y0100742D01*
X0109235Y0100818D01*
X0109378Y0100891D01*
X0109523Y0100960D01*
X0109670Y0101026D01*
X0109818Y0101088D01*
X0109968Y0101146D01*
X0110119Y0101201D01*
X0110272Y0101252D01*
X0110426Y0101299D01*
X0110581Y0101342D01*
X0110737Y0101381D01*
X0110893Y0101417D01*
X0111051Y0101448D01*
X0111209Y0101476D01*
X0111368Y0101500D01*
X0111528Y0101520D01*
X0111688Y0101536D01*
X0111848Y0101548D01*
X0112009Y0101556D01*
X0112170Y0101560D01*
X0112330Y0101560D01*
X0112491Y0101556D01*
X0112652Y0101548D01*
X0112812Y0101536D01*
X0112972Y0101520D01*
X0113132Y0101500D01*
X0113291Y0101476D01*
X0113449Y0101448D01*
X0113607Y0101417D01*
X0113763Y0101381D01*
X0113919Y0101342D01*
X0114074Y0101299D01*
X0114228Y0101252D01*
X0114381Y0101201D01*
X0114532Y0101146D01*
X0114682Y0101088D01*
X0114830Y0101026D01*
X0114977Y0100960D01*
X0115122Y0100891D01*
X0115265Y0100818D01*
X0115407Y0100742D01*
X0115546Y0100662D01*
X0115684Y0100579D01*
X0115819Y0100492D01*
X0115953Y0100402D01*
X0116084Y0100309D01*
X0116212Y0100213D01*
X0116338Y0100113D01*
X0116462Y0100010D01*
X0116583Y0099905D01*
X0116702Y0099796D01*
X0116818Y0099685D01*
X0116931Y0099570D01*
X0117041Y0099453D01*
X0117148Y0099333D01*
X0117252Y0099211D01*
X0117353Y0099086D01*
X0117451Y0098958D01*
X0117546Y0098828D01*
X0117638Y0098696D01*
X0117726Y0098562D01*
X0117811Y0098425D01*
X0117893Y0098287D01*
X0117971Y0098146D01*
X0118045Y0098004D01*
X0118116Y0097860D01*
X0118184Y0097714D01*
X0118247Y0097566D01*
X0118308Y0097417D01*
X0118364Y0097266D01*
X0118417Y0097114D01*
X0118466Y0096961D01*
X0118511Y0096807D01*
X0118552Y0096652D01*
X0118590Y0096495D01*
X0118623Y0096338D01*
X0118653Y0096180D01*
X0118679Y0096021D01*
X0118700Y0095862D01*
X0118718Y0095702D01*
X0118732Y0095542D01*
X0118742Y0095381D01*
X0118748Y0095221D01*
X0118750Y0095060D01*
X0118748Y0094899D01*
X0118742Y0094739D01*
X0118732Y0094578D01*
X0118718Y0094418D01*
X0118700Y0094258D01*
X0118679Y0094099D01*
X0118653Y0093940D01*
X0118623Y0093782D01*
X0118590Y0093625D01*
X0118552Y0093468D01*
X0118511Y0093313D01*
X0118466Y0093159D01*
X0118417Y0093006D01*
X0118364Y0092854D01*
X0118308Y0092703D01*
X0118247Y0092554D01*
X0118184Y0092406D01*
X0118116Y0092260D01*
X0118045Y0092116D01*
X0117971Y0091974D01*
X0117893Y0091833D01*
X0117811Y0091695D01*
X0117726Y0091558D01*
X0117638Y0091424D01*
X0117546Y0091292D01*
X0117451Y0091162D01*
X0117353Y0091034D01*
X0117252Y0090909D01*
X0117148Y0090787D01*
X0117041Y0090667D01*
X0116931Y0090550D01*
X0116818Y0090435D01*
X0116702Y0090324D01*
X0116583Y0090215D01*
X0116462Y0090110D01*
X0116338Y0090007D01*
X0116212Y0089907D01*
X0116084Y0089811D01*
X0115953Y0089718D01*
X0115819Y0089628D01*
X0115684Y0089541D01*
X0115546Y0089458D01*
X0115407Y0089378D01*
X0115265Y0089302D01*
X0115122Y0089229D01*
X0114977Y0089160D01*
X0114830Y0089094D01*
X0114682Y0089032D01*
X0114532Y0088974D01*
X0114381Y0088919D01*
X0114228Y0088868D01*
X0114074Y0088821D01*
X0113919Y0088778D01*
X0113763Y0088739D01*
X0113607Y0088703D01*
X0113449Y0088672D01*
X0113291Y0088644D01*
X0113132Y0088620D01*
X0112972Y0088600D01*
X0112812Y0088584D01*
X0112652Y0088572D01*
X0112491Y0088564D01*
X0112330Y0088560D01*
X0112170Y0088560D01*
X0112009Y0088564D01*
X0111848Y0088572D01*
X0111688Y0088584D01*
X0111528Y0088600D01*
X0111368Y0088620D01*
X0111209Y0088644D01*
X0111051Y0088672D01*
X0110893Y0088703D01*
X0110737Y0088739D01*
X0110581Y0088778D01*
X0110426Y0088821D01*
X0110272Y0088868D01*
X0110119Y0088919D01*
X0109968Y0088974D01*
X0109818Y0089032D01*
X0109670Y0089094D01*
X0109523Y0089160D01*
X0109378Y0089229D01*
X0109235Y0089302D01*
X0109093Y0089378D01*
X0108954Y0089458D01*
X0108816Y0089541D01*
X0108681Y0089628D01*
X0108547Y0089718D01*
X0108416Y0089811D01*
X0108288Y0089907D01*
X0108162Y0090007D01*
X0108038Y0090110D01*
X0107917Y0090215D01*
X0107798Y0090324D01*
X0107682Y0090435D01*
X0107569Y0090550D01*
X0107459Y0090667D01*
X0107352Y0090787D01*
X0107248Y0090909D01*
X0107147Y0091034D01*
X0107049Y0091162D01*
X0106954Y0091292D01*
X0106862Y0091424D01*
X0106774Y0091558D01*
X0106689Y0091695D01*
X0106607Y0091833D01*
X0106529Y0091974D01*
X0106455Y0092116D01*
X0106384Y0092260D01*
X0106316Y0092406D01*
X0106253Y0092554D01*
X0106192Y0092703D01*
X0106136Y0092854D01*
X0106083Y0093006D01*
X0106034Y0093159D01*
X0105989Y0093313D01*
X0105948Y0093468D01*
X0105910Y0093625D01*
X0105877Y0093782D01*
X0105847Y0093940D01*
X0105821Y0094099D01*
X0105800Y0094258D01*
X0105782Y0094418D01*
X0105768Y0094578D01*
X0105758Y0094739D01*
X0105752Y0094899D01*
X0105750Y0095060D01*
X0185750Y0095060D02*
X0185752Y0095221D01*
X0185758Y0095381D01*
X0185768Y0095542D01*
X0185782Y0095702D01*
X0185800Y0095862D01*
X0185821Y0096021D01*
X0185847Y0096180D01*
X0185877Y0096338D01*
X0185910Y0096495D01*
X0185948Y0096652D01*
X0185989Y0096807D01*
X0186034Y0096961D01*
X0186083Y0097114D01*
X0186136Y0097266D01*
X0186192Y0097417D01*
X0186253Y0097566D01*
X0186316Y0097714D01*
X0186384Y0097860D01*
X0186455Y0098004D01*
X0186529Y0098146D01*
X0186607Y0098287D01*
X0186689Y0098425D01*
X0186774Y0098562D01*
X0186862Y0098696D01*
X0186954Y0098828D01*
X0187049Y0098958D01*
X0187147Y0099086D01*
X0187248Y0099211D01*
X0187352Y0099333D01*
X0187459Y0099453D01*
X0187569Y0099570D01*
X0187682Y0099685D01*
X0187798Y0099796D01*
X0187917Y0099905D01*
X0188038Y0100010D01*
X0188162Y0100113D01*
X0188288Y0100213D01*
X0188416Y0100309D01*
X0188547Y0100402D01*
X0188681Y0100492D01*
X0188816Y0100579D01*
X0188954Y0100662D01*
X0189093Y0100742D01*
X0189235Y0100818D01*
X0189378Y0100891D01*
X0189523Y0100960D01*
X0189670Y0101026D01*
X0189818Y0101088D01*
X0189968Y0101146D01*
X0190119Y0101201D01*
X0190272Y0101252D01*
X0190426Y0101299D01*
X0190581Y0101342D01*
X0190737Y0101381D01*
X0190893Y0101417D01*
X0191051Y0101448D01*
X0191209Y0101476D01*
X0191368Y0101500D01*
X0191528Y0101520D01*
X0191688Y0101536D01*
X0191848Y0101548D01*
X0192009Y0101556D01*
X0192170Y0101560D01*
X0192330Y0101560D01*
X0192491Y0101556D01*
X0192652Y0101548D01*
X0192812Y0101536D01*
X0192972Y0101520D01*
X0193132Y0101500D01*
X0193291Y0101476D01*
X0193449Y0101448D01*
X0193607Y0101417D01*
X0193763Y0101381D01*
X0193919Y0101342D01*
X0194074Y0101299D01*
X0194228Y0101252D01*
X0194381Y0101201D01*
X0194532Y0101146D01*
X0194682Y0101088D01*
X0194830Y0101026D01*
X0194977Y0100960D01*
X0195122Y0100891D01*
X0195265Y0100818D01*
X0195407Y0100742D01*
X0195546Y0100662D01*
X0195684Y0100579D01*
X0195819Y0100492D01*
X0195953Y0100402D01*
X0196084Y0100309D01*
X0196212Y0100213D01*
X0196338Y0100113D01*
X0196462Y0100010D01*
X0196583Y0099905D01*
X0196702Y0099796D01*
X0196818Y0099685D01*
X0196931Y0099570D01*
X0197041Y0099453D01*
X0197148Y0099333D01*
X0197252Y0099211D01*
X0197353Y0099086D01*
X0197451Y0098958D01*
X0197546Y0098828D01*
X0197638Y0098696D01*
X0197726Y0098562D01*
X0197811Y0098425D01*
X0197893Y0098287D01*
X0197971Y0098146D01*
X0198045Y0098004D01*
X0198116Y0097860D01*
X0198184Y0097714D01*
X0198247Y0097566D01*
X0198308Y0097417D01*
X0198364Y0097266D01*
X0198417Y0097114D01*
X0198466Y0096961D01*
X0198511Y0096807D01*
X0198552Y0096652D01*
X0198590Y0096495D01*
X0198623Y0096338D01*
X0198653Y0096180D01*
X0198679Y0096021D01*
X0198700Y0095862D01*
X0198718Y0095702D01*
X0198732Y0095542D01*
X0198742Y0095381D01*
X0198748Y0095221D01*
X0198750Y0095060D01*
X0198748Y0094899D01*
X0198742Y0094739D01*
X0198732Y0094578D01*
X0198718Y0094418D01*
X0198700Y0094258D01*
X0198679Y0094099D01*
X0198653Y0093940D01*
X0198623Y0093782D01*
X0198590Y0093625D01*
X0198552Y0093468D01*
X0198511Y0093313D01*
X0198466Y0093159D01*
X0198417Y0093006D01*
X0198364Y0092854D01*
X0198308Y0092703D01*
X0198247Y0092554D01*
X0198184Y0092406D01*
X0198116Y0092260D01*
X0198045Y0092116D01*
X0197971Y0091974D01*
X0197893Y0091833D01*
X0197811Y0091695D01*
X0197726Y0091558D01*
X0197638Y0091424D01*
X0197546Y0091292D01*
X0197451Y0091162D01*
X0197353Y0091034D01*
X0197252Y0090909D01*
X0197148Y0090787D01*
X0197041Y0090667D01*
X0196931Y0090550D01*
X0196818Y0090435D01*
X0196702Y0090324D01*
X0196583Y0090215D01*
X0196462Y0090110D01*
X0196338Y0090007D01*
X0196212Y0089907D01*
X0196084Y0089811D01*
X0195953Y0089718D01*
X0195819Y0089628D01*
X0195684Y0089541D01*
X0195546Y0089458D01*
X0195407Y0089378D01*
X0195265Y0089302D01*
X0195122Y0089229D01*
X0194977Y0089160D01*
X0194830Y0089094D01*
X0194682Y0089032D01*
X0194532Y0088974D01*
X0194381Y0088919D01*
X0194228Y0088868D01*
X0194074Y0088821D01*
X0193919Y0088778D01*
X0193763Y0088739D01*
X0193607Y0088703D01*
X0193449Y0088672D01*
X0193291Y0088644D01*
X0193132Y0088620D01*
X0192972Y0088600D01*
X0192812Y0088584D01*
X0192652Y0088572D01*
X0192491Y0088564D01*
X0192330Y0088560D01*
X0192170Y0088560D01*
X0192009Y0088564D01*
X0191848Y0088572D01*
X0191688Y0088584D01*
X0191528Y0088600D01*
X0191368Y0088620D01*
X0191209Y0088644D01*
X0191051Y0088672D01*
X0190893Y0088703D01*
X0190737Y0088739D01*
X0190581Y0088778D01*
X0190426Y0088821D01*
X0190272Y0088868D01*
X0190119Y0088919D01*
X0189968Y0088974D01*
X0189818Y0089032D01*
X0189670Y0089094D01*
X0189523Y0089160D01*
X0189378Y0089229D01*
X0189235Y0089302D01*
X0189093Y0089378D01*
X0188954Y0089458D01*
X0188816Y0089541D01*
X0188681Y0089628D01*
X0188547Y0089718D01*
X0188416Y0089811D01*
X0188288Y0089907D01*
X0188162Y0090007D01*
X0188038Y0090110D01*
X0187917Y0090215D01*
X0187798Y0090324D01*
X0187682Y0090435D01*
X0187569Y0090550D01*
X0187459Y0090667D01*
X0187352Y0090787D01*
X0187248Y0090909D01*
X0187147Y0091034D01*
X0187049Y0091162D01*
X0186954Y0091292D01*
X0186862Y0091424D01*
X0186774Y0091558D01*
X0186689Y0091695D01*
X0186607Y0091833D01*
X0186529Y0091974D01*
X0186455Y0092116D01*
X0186384Y0092260D01*
X0186316Y0092406D01*
X0186253Y0092554D01*
X0186192Y0092703D01*
X0186136Y0092854D01*
X0186083Y0093006D01*
X0186034Y0093159D01*
X0185989Y0093313D01*
X0185948Y0093468D01*
X0185910Y0093625D01*
X0185877Y0093782D01*
X0185847Y0093940D01*
X0185821Y0094099D01*
X0185800Y0094258D01*
X0185782Y0094418D01*
X0185768Y0094578D01*
X0185758Y0094739D01*
X0185752Y0094899D01*
X0185750Y0095060D01*
X0205750Y0095060D02*
X0205752Y0095221D01*
X0205758Y0095381D01*
X0205768Y0095542D01*
X0205782Y0095702D01*
X0205800Y0095862D01*
X0205821Y0096021D01*
X0205847Y0096180D01*
X0205877Y0096338D01*
X0205910Y0096495D01*
X0205948Y0096652D01*
X0205989Y0096807D01*
X0206034Y0096961D01*
X0206083Y0097114D01*
X0206136Y0097266D01*
X0206192Y0097417D01*
X0206253Y0097566D01*
X0206316Y0097714D01*
X0206384Y0097860D01*
X0206455Y0098004D01*
X0206529Y0098146D01*
X0206607Y0098287D01*
X0206689Y0098425D01*
X0206774Y0098562D01*
X0206862Y0098696D01*
X0206954Y0098828D01*
X0207049Y0098958D01*
X0207147Y0099086D01*
X0207248Y0099211D01*
X0207352Y0099333D01*
X0207459Y0099453D01*
X0207569Y0099570D01*
X0207682Y0099685D01*
X0207798Y0099796D01*
X0207917Y0099905D01*
X0208038Y0100010D01*
X0208162Y0100113D01*
X0208288Y0100213D01*
X0208416Y0100309D01*
X0208547Y0100402D01*
X0208681Y0100492D01*
X0208816Y0100579D01*
X0208954Y0100662D01*
X0209093Y0100742D01*
X0209235Y0100818D01*
X0209378Y0100891D01*
X0209523Y0100960D01*
X0209670Y0101026D01*
X0209818Y0101088D01*
X0209968Y0101146D01*
X0210119Y0101201D01*
X0210272Y0101252D01*
X0210426Y0101299D01*
X0210581Y0101342D01*
X0210737Y0101381D01*
X0210893Y0101417D01*
X0211051Y0101448D01*
X0211209Y0101476D01*
X0211368Y0101500D01*
X0211528Y0101520D01*
X0211688Y0101536D01*
X0211848Y0101548D01*
X0212009Y0101556D01*
X0212170Y0101560D01*
X0212330Y0101560D01*
X0212491Y0101556D01*
X0212652Y0101548D01*
X0212812Y0101536D01*
X0212972Y0101520D01*
X0213132Y0101500D01*
X0213291Y0101476D01*
X0213449Y0101448D01*
X0213607Y0101417D01*
X0213763Y0101381D01*
X0213919Y0101342D01*
X0214074Y0101299D01*
X0214228Y0101252D01*
X0214381Y0101201D01*
X0214532Y0101146D01*
X0214682Y0101088D01*
X0214830Y0101026D01*
X0214977Y0100960D01*
X0215122Y0100891D01*
X0215265Y0100818D01*
X0215407Y0100742D01*
X0215546Y0100662D01*
X0215684Y0100579D01*
X0215819Y0100492D01*
X0215953Y0100402D01*
X0216084Y0100309D01*
X0216212Y0100213D01*
X0216338Y0100113D01*
X0216462Y0100010D01*
X0216583Y0099905D01*
X0216702Y0099796D01*
X0216818Y0099685D01*
X0216931Y0099570D01*
X0217041Y0099453D01*
X0217148Y0099333D01*
X0217252Y0099211D01*
X0217353Y0099086D01*
X0217451Y0098958D01*
X0217546Y0098828D01*
X0217638Y0098696D01*
X0217726Y0098562D01*
X0217811Y0098425D01*
X0217893Y0098287D01*
X0217971Y0098146D01*
X0218045Y0098004D01*
X0218116Y0097860D01*
X0218184Y0097714D01*
X0218247Y0097566D01*
X0218308Y0097417D01*
X0218364Y0097266D01*
X0218417Y0097114D01*
X0218466Y0096961D01*
X0218511Y0096807D01*
X0218552Y0096652D01*
X0218590Y0096495D01*
X0218623Y0096338D01*
X0218653Y0096180D01*
X0218679Y0096021D01*
X0218700Y0095862D01*
X0218718Y0095702D01*
X0218732Y0095542D01*
X0218742Y0095381D01*
X0218748Y0095221D01*
X0218750Y0095060D01*
X0218748Y0094899D01*
X0218742Y0094739D01*
X0218732Y0094578D01*
X0218718Y0094418D01*
X0218700Y0094258D01*
X0218679Y0094099D01*
X0218653Y0093940D01*
X0218623Y0093782D01*
X0218590Y0093625D01*
X0218552Y0093468D01*
X0218511Y0093313D01*
X0218466Y0093159D01*
X0218417Y0093006D01*
X0218364Y0092854D01*
X0218308Y0092703D01*
X0218247Y0092554D01*
X0218184Y0092406D01*
X0218116Y0092260D01*
X0218045Y0092116D01*
X0217971Y0091974D01*
X0217893Y0091833D01*
X0217811Y0091695D01*
X0217726Y0091558D01*
X0217638Y0091424D01*
X0217546Y0091292D01*
X0217451Y0091162D01*
X0217353Y0091034D01*
X0217252Y0090909D01*
X0217148Y0090787D01*
X0217041Y0090667D01*
X0216931Y0090550D01*
X0216818Y0090435D01*
X0216702Y0090324D01*
X0216583Y0090215D01*
X0216462Y0090110D01*
X0216338Y0090007D01*
X0216212Y0089907D01*
X0216084Y0089811D01*
X0215953Y0089718D01*
X0215819Y0089628D01*
X0215684Y0089541D01*
X0215546Y0089458D01*
X0215407Y0089378D01*
X0215265Y0089302D01*
X0215122Y0089229D01*
X0214977Y0089160D01*
X0214830Y0089094D01*
X0214682Y0089032D01*
X0214532Y0088974D01*
X0214381Y0088919D01*
X0214228Y0088868D01*
X0214074Y0088821D01*
X0213919Y0088778D01*
X0213763Y0088739D01*
X0213607Y0088703D01*
X0213449Y0088672D01*
X0213291Y0088644D01*
X0213132Y0088620D01*
X0212972Y0088600D01*
X0212812Y0088584D01*
X0212652Y0088572D01*
X0212491Y0088564D01*
X0212330Y0088560D01*
X0212170Y0088560D01*
X0212009Y0088564D01*
X0211848Y0088572D01*
X0211688Y0088584D01*
X0211528Y0088600D01*
X0211368Y0088620D01*
X0211209Y0088644D01*
X0211051Y0088672D01*
X0210893Y0088703D01*
X0210737Y0088739D01*
X0210581Y0088778D01*
X0210426Y0088821D01*
X0210272Y0088868D01*
X0210119Y0088919D01*
X0209968Y0088974D01*
X0209818Y0089032D01*
X0209670Y0089094D01*
X0209523Y0089160D01*
X0209378Y0089229D01*
X0209235Y0089302D01*
X0209093Y0089378D01*
X0208954Y0089458D01*
X0208816Y0089541D01*
X0208681Y0089628D01*
X0208547Y0089718D01*
X0208416Y0089811D01*
X0208288Y0089907D01*
X0208162Y0090007D01*
X0208038Y0090110D01*
X0207917Y0090215D01*
X0207798Y0090324D01*
X0207682Y0090435D01*
X0207569Y0090550D01*
X0207459Y0090667D01*
X0207352Y0090787D01*
X0207248Y0090909D01*
X0207147Y0091034D01*
X0207049Y0091162D01*
X0206954Y0091292D01*
X0206862Y0091424D01*
X0206774Y0091558D01*
X0206689Y0091695D01*
X0206607Y0091833D01*
X0206529Y0091974D01*
X0206455Y0092116D01*
X0206384Y0092260D01*
X0206316Y0092406D01*
X0206253Y0092554D01*
X0206192Y0092703D01*
X0206136Y0092854D01*
X0206083Y0093006D01*
X0206034Y0093159D01*
X0205989Y0093313D01*
X0205948Y0093468D01*
X0205910Y0093625D01*
X0205877Y0093782D01*
X0205847Y0093940D01*
X0205821Y0094099D01*
X0205800Y0094258D01*
X0205782Y0094418D01*
X0205768Y0094578D01*
X0205758Y0094739D01*
X0205752Y0094899D01*
X0205750Y0095060D01*
X0285750Y0095060D02*
X0285752Y0095221D01*
X0285758Y0095381D01*
X0285768Y0095542D01*
X0285782Y0095702D01*
X0285800Y0095862D01*
X0285821Y0096021D01*
X0285847Y0096180D01*
X0285877Y0096338D01*
X0285910Y0096495D01*
X0285948Y0096652D01*
X0285989Y0096807D01*
X0286034Y0096961D01*
X0286083Y0097114D01*
X0286136Y0097266D01*
X0286192Y0097417D01*
X0286253Y0097566D01*
X0286316Y0097714D01*
X0286384Y0097860D01*
X0286455Y0098004D01*
X0286529Y0098146D01*
X0286607Y0098287D01*
X0286689Y0098425D01*
X0286774Y0098562D01*
X0286862Y0098696D01*
X0286954Y0098828D01*
X0287049Y0098958D01*
X0287147Y0099086D01*
X0287248Y0099211D01*
X0287352Y0099333D01*
X0287459Y0099453D01*
X0287569Y0099570D01*
X0287682Y0099685D01*
X0287798Y0099796D01*
X0287917Y0099905D01*
X0288038Y0100010D01*
X0288162Y0100113D01*
X0288288Y0100213D01*
X0288416Y0100309D01*
X0288547Y0100402D01*
X0288681Y0100492D01*
X0288816Y0100579D01*
X0288954Y0100662D01*
X0289093Y0100742D01*
X0289235Y0100818D01*
X0289378Y0100891D01*
X0289523Y0100960D01*
X0289670Y0101026D01*
X0289818Y0101088D01*
X0289968Y0101146D01*
X0290119Y0101201D01*
X0290272Y0101252D01*
X0290426Y0101299D01*
X0290581Y0101342D01*
X0290737Y0101381D01*
X0290893Y0101417D01*
X0291051Y0101448D01*
X0291209Y0101476D01*
X0291368Y0101500D01*
X0291528Y0101520D01*
X0291688Y0101536D01*
X0291848Y0101548D01*
X0292009Y0101556D01*
X0292170Y0101560D01*
X0292330Y0101560D01*
X0292491Y0101556D01*
X0292652Y0101548D01*
X0292812Y0101536D01*
X0292972Y0101520D01*
X0293132Y0101500D01*
X0293291Y0101476D01*
X0293449Y0101448D01*
X0293607Y0101417D01*
X0293763Y0101381D01*
X0293919Y0101342D01*
X0294074Y0101299D01*
X0294228Y0101252D01*
X0294381Y0101201D01*
X0294532Y0101146D01*
X0294682Y0101088D01*
X0294830Y0101026D01*
X0294977Y0100960D01*
X0295122Y0100891D01*
X0295265Y0100818D01*
X0295407Y0100742D01*
X0295546Y0100662D01*
X0295684Y0100579D01*
X0295819Y0100492D01*
X0295953Y0100402D01*
X0296084Y0100309D01*
X0296212Y0100213D01*
X0296338Y0100113D01*
X0296462Y0100010D01*
X0296583Y0099905D01*
X0296702Y0099796D01*
X0296818Y0099685D01*
X0296931Y0099570D01*
X0297041Y0099453D01*
X0297148Y0099333D01*
X0297252Y0099211D01*
X0297353Y0099086D01*
X0297451Y0098958D01*
X0297546Y0098828D01*
X0297638Y0098696D01*
X0297726Y0098562D01*
X0297811Y0098425D01*
X0297893Y0098287D01*
X0297971Y0098146D01*
X0298045Y0098004D01*
X0298116Y0097860D01*
X0298184Y0097714D01*
X0298247Y0097566D01*
X0298308Y0097417D01*
X0298364Y0097266D01*
X0298417Y0097114D01*
X0298466Y0096961D01*
X0298511Y0096807D01*
X0298552Y0096652D01*
X0298590Y0096495D01*
X0298623Y0096338D01*
X0298653Y0096180D01*
X0298679Y0096021D01*
X0298700Y0095862D01*
X0298718Y0095702D01*
X0298732Y0095542D01*
X0298742Y0095381D01*
X0298748Y0095221D01*
X0298750Y0095060D01*
X0298748Y0094899D01*
X0298742Y0094739D01*
X0298732Y0094578D01*
X0298718Y0094418D01*
X0298700Y0094258D01*
X0298679Y0094099D01*
X0298653Y0093940D01*
X0298623Y0093782D01*
X0298590Y0093625D01*
X0298552Y0093468D01*
X0298511Y0093313D01*
X0298466Y0093159D01*
X0298417Y0093006D01*
X0298364Y0092854D01*
X0298308Y0092703D01*
X0298247Y0092554D01*
X0298184Y0092406D01*
X0298116Y0092260D01*
X0298045Y0092116D01*
X0297971Y0091974D01*
X0297893Y0091833D01*
X0297811Y0091695D01*
X0297726Y0091558D01*
X0297638Y0091424D01*
X0297546Y0091292D01*
X0297451Y0091162D01*
X0297353Y0091034D01*
X0297252Y0090909D01*
X0297148Y0090787D01*
X0297041Y0090667D01*
X0296931Y0090550D01*
X0296818Y0090435D01*
X0296702Y0090324D01*
X0296583Y0090215D01*
X0296462Y0090110D01*
X0296338Y0090007D01*
X0296212Y0089907D01*
X0296084Y0089811D01*
X0295953Y0089718D01*
X0295819Y0089628D01*
X0295684Y0089541D01*
X0295546Y0089458D01*
X0295407Y0089378D01*
X0295265Y0089302D01*
X0295122Y0089229D01*
X0294977Y0089160D01*
X0294830Y0089094D01*
X0294682Y0089032D01*
X0294532Y0088974D01*
X0294381Y0088919D01*
X0294228Y0088868D01*
X0294074Y0088821D01*
X0293919Y0088778D01*
X0293763Y0088739D01*
X0293607Y0088703D01*
X0293449Y0088672D01*
X0293291Y0088644D01*
X0293132Y0088620D01*
X0292972Y0088600D01*
X0292812Y0088584D01*
X0292652Y0088572D01*
X0292491Y0088564D01*
X0292330Y0088560D01*
X0292170Y0088560D01*
X0292009Y0088564D01*
X0291848Y0088572D01*
X0291688Y0088584D01*
X0291528Y0088600D01*
X0291368Y0088620D01*
X0291209Y0088644D01*
X0291051Y0088672D01*
X0290893Y0088703D01*
X0290737Y0088739D01*
X0290581Y0088778D01*
X0290426Y0088821D01*
X0290272Y0088868D01*
X0290119Y0088919D01*
X0289968Y0088974D01*
X0289818Y0089032D01*
X0289670Y0089094D01*
X0289523Y0089160D01*
X0289378Y0089229D01*
X0289235Y0089302D01*
X0289093Y0089378D01*
X0288954Y0089458D01*
X0288816Y0089541D01*
X0288681Y0089628D01*
X0288547Y0089718D01*
X0288416Y0089811D01*
X0288288Y0089907D01*
X0288162Y0090007D01*
X0288038Y0090110D01*
X0287917Y0090215D01*
X0287798Y0090324D01*
X0287682Y0090435D01*
X0287569Y0090550D01*
X0287459Y0090667D01*
X0287352Y0090787D01*
X0287248Y0090909D01*
X0287147Y0091034D01*
X0287049Y0091162D01*
X0286954Y0091292D01*
X0286862Y0091424D01*
X0286774Y0091558D01*
X0286689Y0091695D01*
X0286607Y0091833D01*
X0286529Y0091974D01*
X0286455Y0092116D01*
X0286384Y0092260D01*
X0286316Y0092406D01*
X0286253Y0092554D01*
X0286192Y0092703D01*
X0286136Y0092854D01*
X0286083Y0093006D01*
X0286034Y0093159D01*
X0285989Y0093313D01*
X0285948Y0093468D01*
X0285910Y0093625D01*
X0285877Y0093782D01*
X0285847Y0093940D01*
X0285821Y0094099D01*
X0285800Y0094258D01*
X0285782Y0094418D01*
X0285768Y0094578D01*
X0285758Y0094739D01*
X0285752Y0094899D01*
X0285750Y0095060D01*
X0285750Y0195060D02*
X0285752Y0195221D01*
X0285758Y0195381D01*
X0285768Y0195542D01*
X0285782Y0195702D01*
X0285800Y0195862D01*
X0285821Y0196021D01*
X0285847Y0196180D01*
X0285877Y0196338D01*
X0285910Y0196495D01*
X0285948Y0196652D01*
X0285989Y0196807D01*
X0286034Y0196961D01*
X0286083Y0197114D01*
X0286136Y0197266D01*
X0286192Y0197417D01*
X0286253Y0197566D01*
X0286316Y0197714D01*
X0286384Y0197860D01*
X0286455Y0198004D01*
X0286529Y0198146D01*
X0286607Y0198287D01*
X0286689Y0198425D01*
X0286774Y0198562D01*
X0286862Y0198696D01*
X0286954Y0198828D01*
X0287049Y0198958D01*
X0287147Y0199086D01*
X0287248Y0199211D01*
X0287352Y0199333D01*
X0287459Y0199453D01*
X0287569Y0199570D01*
X0287682Y0199685D01*
X0287798Y0199796D01*
X0287917Y0199905D01*
X0288038Y0200010D01*
X0288162Y0200113D01*
X0288288Y0200213D01*
X0288416Y0200309D01*
X0288547Y0200402D01*
X0288681Y0200492D01*
X0288816Y0200579D01*
X0288954Y0200662D01*
X0289093Y0200742D01*
X0289235Y0200818D01*
X0289378Y0200891D01*
X0289523Y0200960D01*
X0289670Y0201026D01*
X0289818Y0201088D01*
X0289968Y0201146D01*
X0290119Y0201201D01*
X0290272Y0201252D01*
X0290426Y0201299D01*
X0290581Y0201342D01*
X0290737Y0201381D01*
X0290893Y0201417D01*
X0291051Y0201448D01*
X0291209Y0201476D01*
X0291368Y0201500D01*
X0291528Y0201520D01*
X0291688Y0201536D01*
X0291848Y0201548D01*
X0292009Y0201556D01*
X0292170Y0201560D01*
X0292330Y0201560D01*
X0292491Y0201556D01*
X0292652Y0201548D01*
X0292812Y0201536D01*
X0292972Y0201520D01*
X0293132Y0201500D01*
X0293291Y0201476D01*
X0293449Y0201448D01*
X0293607Y0201417D01*
X0293763Y0201381D01*
X0293919Y0201342D01*
X0294074Y0201299D01*
X0294228Y0201252D01*
X0294381Y0201201D01*
X0294532Y0201146D01*
X0294682Y0201088D01*
X0294830Y0201026D01*
X0294977Y0200960D01*
X0295122Y0200891D01*
X0295265Y0200818D01*
X0295407Y0200742D01*
X0295546Y0200662D01*
X0295684Y0200579D01*
X0295819Y0200492D01*
X0295953Y0200402D01*
X0296084Y0200309D01*
X0296212Y0200213D01*
X0296338Y0200113D01*
X0296462Y0200010D01*
X0296583Y0199905D01*
X0296702Y0199796D01*
X0296818Y0199685D01*
X0296931Y0199570D01*
X0297041Y0199453D01*
X0297148Y0199333D01*
X0297252Y0199211D01*
X0297353Y0199086D01*
X0297451Y0198958D01*
X0297546Y0198828D01*
X0297638Y0198696D01*
X0297726Y0198562D01*
X0297811Y0198425D01*
X0297893Y0198287D01*
X0297971Y0198146D01*
X0298045Y0198004D01*
X0298116Y0197860D01*
X0298184Y0197714D01*
X0298247Y0197566D01*
X0298308Y0197417D01*
X0298364Y0197266D01*
X0298417Y0197114D01*
X0298466Y0196961D01*
X0298511Y0196807D01*
X0298552Y0196652D01*
X0298590Y0196495D01*
X0298623Y0196338D01*
X0298653Y0196180D01*
X0298679Y0196021D01*
X0298700Y0195862D01*
X0298718Y0195702D01*
X0298732Y0195542D01*
X0298742Y0195381D01*
X0298748Y0195221D01*
X0298750Y0195060D01*
X0298748Y0194899D01*
X0298742Y0194739D01*
X0298732Y0194578D01*
X0298718Y0194418D01*
X0298700Y0194258D01*
X0298679Y0194099D01*
X0298653Y0193940D01*
X0298623Y0193782D01*
X0298590Y0193625D01*
X0298552Y0193468D01*
X0298511Y0193313D01*
X0298466Y0193159D01*
X0298417Y0193006D01*
X0298364Y0192854D01*
X0298308Y0192703D01*
X0298247Y0192554D01*
X0298184Y0192406D01*
X0298116Y0192260D01*
X0298045Y0192116D01*
X0297971Y0191974D01*
X0297893Y0191833D01*
X0297811Y0191695D01*
X0297726Y0191558D01*
X0297638Y0191424D01*
X0297546Y0191292D01*
X0297451Y0191162D01*
X0297353Y0191034D01*
X0297252Y0190909D01*
X0297148Y0190787D01*
X0297041Y0190667D01*
X0296931Y0190550D01*
X0296818Y0190435D01*
X0296702Y0190324D01*
X0296583Y0190215D01*
X0296462Y0190110D01*
X0296338Y0190007D01*
X0296212Y0189907D01*
X0296084Y0189811D01*
X0295953Y0189718D01*
X0295819Y0189628D01*
X0295684Y0189541D01*
X0295546Y0189458D01*
X0295407Y0189378D01*
X0295265Y0189302D01*
X0295122Y0189229D01*
X0294977Y0189160D01*
X0294830Y0189094D01*
X0294682Y0189032D01*
X0294532Y0188974D01*
X0294381Y0188919D01*
X0294228Y0188868D01*
X0294074Y0188821D01*
X0293919Y0188778D01*
X0293763Y0188739D01*
X0293607Y0188703D01*
X0293449Y0188672D01*
X0293291Y0188644D01*
X0293132Y0188620D01*
X0292972Y0188600D01*
X0292812Y0188584D01*
X0292652Y0188572D01*
X0292491Y0188564D01*
X0292330Y0188560D01*
X0292170Y0188560D01*
X0292009Y0188564D01*
X0291848Y0188572D01*
X0291688Y0188584D01*
X0291528Y0188600D01*
X0291368Y0188620D01*
X0291209Y0188644D01*
X0291051Y0188672D01*
X0290893Y0188703D01*
X0290737Y0188739D01*
X0290581Y0188778D01*
X0290426Y0188821D01*
X0290272Y0188868D01*
X0290119Y0188919D01*
X0289968Y0188974D01*
X0289818Y0189032D01*
X0289670Y0189094D01*
X0289523Y0189160D01*
X0289378Y0189229D01*
X0289235Y0189302D01*
X0289093Y0189378D01*
X0288954Y0189458D01*
X0288816Y0189541D01*
X0288681Y0189628D01*
X0288547Y0189718D01*
X0288416Y0189811D01*
X0288288Y0189907D01*
X0288162Y0190007D01*
X0288038Y0190110D01*
X0287917Y0190215D01*
X0287798Y0190324D01*
X0287682Y0190435D01*
X0287569Y0190550D01*
X0287459Y0190667D01*
X0287352Y0190787D01*
X0287248Y0190909D01*
X0287147Y0191034D01*
X0287049Y0191162D01*
X0286954Y0191292D01*
X0286862Y0191424D01*
X0286774Y0191558D01*
X0286689Y0191695D01*
X0286607Y0191833D01*
X0286529Y0191974D01*
X0286455Y0192116D01*
X0286384Y0192260D01*
X0286316Y0192406D01*
X0286253Y0192554D01*
X0286192Y0192703D01*
X0286136Y0192854D01*
X0286083Y0193006D01*
X0286034Y0193159D01*
X0285989Y0193313D01*
X0285948Y0193468D01*
X0285910Y0193625D01*
X0285877Y0193782D01*
X0285847Y0193940D01*
X0285821Y0194099D01*
X0285800Y0194258D01*
X0285782Y0194418D01*
X0285768Y0194578D01*
X0285758Y0194739D01*
X0285752Y0194899D01*
X0285750Y0195060D01*
X0205750Y0195060D02*
X0205752Y0195221D01*
X0205758Y0195381D01*
X0205768Y0195542D01*
X0205782Y0195702D01*
X0205800Y0195862D01*
X0205821Y0196021D01*
X0205847Y0196180D01*
X0205877Y0196338D01*
X0205910Y0196495D01*
X0205948Y0196652D01*
X0205989Y0196807D01*
X0206034Y0196961D01*
X0206083Y0197114D01*
X0206136Y0197266D01*
X0206192Y0197417D01*
X0206253Y0197566D01*
X0206316Y0197714D01*
X0206384Y0197860D01*
X0206455Y0198004D01*
X0206529Y0198146D01*
X0206607Y0198287D01*
X0206689Y0198425D01*
X0206774Y0198562D01*
X0206862Y0198696D01*
X0206954Y0198828D01*
X0207049Y0198958D01*
X0207147Y0199086D01*
X0207248Y0199211D01*
X0207352Y0199333D01*
X0207459Y0199453D01*
X0207569Y0199570D01*
X0207682Y0199685D01*
X0207798Y0199796D01*
X0207917Y0199905D01*
X0208038Y0200010D01*
X0208162Y0200113D01*
X0208288Y0200213D01*
X0208416Y0200309D01*
X0208547Y0200402D01*
X0208681Y0200492D01*
X0208816Y0200579D01*
X0208954Y0200662D01*
X0209093Y0200742D01*
X0209235Y0200818D01*
X0209378Y0200891D01*
X0209523Y0200960D01*
X0209670Y0201026D01*
X0209818Y0201088D01*
X0209968Y0201146D01*
X0210119Y0201201D01*
X0210272Y0201252D01*
X0210426Y0201299D01*
X0210581Y0201342D01*
X0210737Y0201381D01*
X0210893Y0201417D01*
X0211051Y0201448D01*
X0211209Y0201476D01*
X0211368Y0201500D01*
X0211528Y0201520D01*
X0211688Y0201536D01*
X0211848Y0201548D01*
X0212009Y0201556D01*
X0212170Y0201560D01*
X0212330Y0201560D01*
X0212491Y0201556D01*
X0212652Y0201548D01*
X0212812Y0201536D01*
X0212972Y0201520D01*
X0213132Y0201500D01*
X0213291Y0201476D01*
X0213449Y0201448D01*
X0213607Y0201417D01*
X0213763Y0201381D01*
X0213919Y0201342D01*
X0214074Y0201299D01*
X0214228Y0201252D01*
X0214381Y0201201D01*
X0214532Y0201146D01*
X0214682Y0201088D01*
X0214830Y0201026D01*
X0214977Y0200960D01*
X0215122Y0200891D01*
X0215265Y0200818D01*
X0215407Y0200742D01*
X0215546Y0200662D01*
X0215684Y0200579D01*
X0215819Y0200492D01*
X0215953Y0200402D01*
X0216084Y0200309D01*
X0216212Y0200213D01*
X0216338Y0200113D01*
X0216462Y0200010D01*
X0216583Y0199905D01*
X0216702Y0199796D01*
X0216818Y0199685D01*
X0216931Y0199570D01*
X0217041Y0199453D01*
X0217148Y0199333D01*
X0217252Y0199211D01*
X0217353Y0199086D01*
X0217451Y0198958D01*
X0217546Y0198828D01*
X0217638Y0198696D01*
X0217726Y0198562D01*
X0217811Y0198425D01*
X0217893Y0198287D01*
X0217971Y0198146D01*
X0218045Y0198004D01*
X0218116Y0197860D01*
X0218184Y0197714D01*
X0218247Y0197566D01*
X0218308Y0197417D01*
X0218364Y0197266D01*
X0218417Y0197114D01*
X0218466Y0196961D01*
X0218511Y0196807D01*
X0218552Y0196652D01*
X0218590Y0196495D01*
X0218623Y0196338D01*
X0218653Y0196180D01*
X0218679Y0196021D01*
X0218700Y0195862D01*
X0218718Y0195702D01*
X0218732Y0195542D01*
X0218742Y0195381D01*
X0218748Y0195221D01*
X0218750Y0195060D01*
X0218748Y0194899D01*
X0218742Y0194739D01*
X0218732Y0194578D01*
X0218718Y0194418D01*
X0218700Y0194258D01*
X0218679Y0194099D01*
X0218653Y0193940D01*
X0218623Y0193782D01*
X0218590Y0193625D01*
X0218552Y0193468D01*
X0218511Y0193313D01*
X0218466Y0193159D01*
X0218417Y0193006D01*
X0218364Y0192854D01*
X0218308Y0192703D01*
X0218247Y0192554D01*
X0218184Y0192406D01*
X0218116Y0192260D01*
X0218045Y0192116D01*
X0217971Y0191974D01*
X0217893Y0191833D01*
X0217811Y0191695D01*
X0217726Y0191558D01*
X0217638Y0191424D01*
X0217546Y0191292D01*
X0217451Y0191162D01*
X0217353Y0191034D01*
X0217252Y0190909D01*
X0217148Y0190787D01*
X0217041Y0190667D01*
X0216931Y0190550D01*
X0216818Y0190435D01*
X0216702Y0190324D01*
X0216583Y0190215D01*
X0216462Y0190110D01*
X0216338Y0190007D01*
X0216212Y0189907D01*
X0216084Y0189811D01*
X0215953Y0189718D01*
X0215819Y0189628D01*
X0215684Y0189541D01*
X0215546Y0189458D01*
X0215407Y0189378D01*
X0215265Y0189302D01*
X0215122Y0189229D01*
X0214977Y0189160D01*
X0214830Y0189094D01*
X0214682Y0189032D01*
X0214532Y0188974D01*
X0214381Y0188919D01*
X0214228Y0188868D01*
X0214074Y0188821D01*
X0213919Y0188778D01*
X0213763Y0188739D01*
X0213607Y0188703D01*
X0213449Y0188672D01*
X0213291Y0188644D01*
X0213132Y0188620D01*
X0212972Y0188600D01*
X0212812Y0188584D01*
X0212652Y0188572D01*
X0212491Y0188564D01*
X0212330Y0188560D01*
X0212170Y0188560D01*
X0212009Y0188564D01*
X0211848Y0188572D01*
X0211688Y0188584D01*
X0211528Y0188600D01*
X0211368Y0188620D01*
X0211209Y0188644D01*
X0211051Y0188672D01*
X0210893Y0188703D01*
X0210737Y0188739D01*
X0210581Y0188778D01*
X0210426Y0188821D01*
X0210272Y0188868D01*
X0210119Y0188919D01*
X0209968Y0188974D01*
X0209818Y0189032D01*
X0209670Y0189094D01*
X0209523Y0189160D01*
X0209378Y0189229D01*
X0209235Y0189302D01*
X0209093Y0189378D01*
X0208954Y0189458D01*
X0208816Y0189541D01*
X0208681Y0189628D01*
X0208547Y0189718D01*
X0208416Y0189811D01*
X0208288Y0189907D01*
X0208162Y0190007D01*
X0208038Y0190110D01*
X0207917Y0190215D01*
X0207798Y0190324D01*
X0207682Y0190435D01*
X0207569Y0190550D01*
X0207459Y0190667D01*
X0207352Y0190787D01*
X0207248Y0190909D01*
X0207147Y0191034D01*
X0207049Y0191162D01*
X0206954Y0191292D01*
X0206862Y0191424D01*
X0206774Y0191558D01*
X0206689Y0191695D01*
X0206607Y0191833D01*
X0206529Y0191974D01*
X0206455Y0192116D01*
X0206384Y0192260D01*
X0206316Y0192406D01*
X0206253Y0192554D01*
X0206192Y0192703D01*
X0206136Y0192854D01*
X0206083Y0193006D01*
X0206034Y0193159D01*
X0205989Y0193313D01*
X0205948Y0193468D01*
X0205910Y0193625D01*
X0205877Y0193782D01*
X0205847Y0193940D01*
X0205821Y0194099D01*
X0205800Y0194258D01*
X0205782Y0194418D01*
X0205768Y0194578D01*
X0205758Y0194739D01*
X0205752Y0194899D01*
X0205750Y0195060D01*
X0185750Y0195060D02*
X0185752Y0195221D01*
X0185758Y0195381D01*
X0185768Y0195542D01*
X0185782Y0195702D01*
X0185800Y0195862D01*
X0185821Y0196021D01*
X0185847Y0196180D01*
X0185877Y0196338D01*
X0185910Y0196495D01*
X0185948Y0196652D01*
X0185989Y0196807D01*
X0186034Y0196961D01*
X0186083Y0197114D01*
X0186136Y0197266D01*
X0186192Y0197417D01*
X0186253Y0197566D01*
X0186316Y0197714D01*
X0186384Y0197860D01*
X0186455Y0198004D01*
X0186529Y0198146D01*
X0186607Y0198287D01*
X0186689Y0198425D01*
X0186774Y0198562D01*
X0186862Y0198696D01*
X0186954Y0198828D01*
X0187049Y0198958D01*
X0187147Y0199086D01*
X0187248Y0199211D01*
X0187352Y0199333D01*
X0187459Y0199453D01*
X0187569Y0199570D01*
X0187682Y0199685D01*
X0187798Y0199796D01*
X0187917Y0199905D01*
X0188038Y0200010D01*
X0188162Y0200113D01*
X0188288Y0200213D01*
X0188416Y0200309D01*
X0188547Y0200402D01*
X0188681Y0200492D01*
X0188816Y0200579D01*
X0188954Y0200662D01*
X0189093Y0200742D01*
X0189235Y0200818D01*
X0189378Y0200891D01*
X0189523Y0200960D01*
X0189670Y0201026D01*
X0189818Y0201088D01*
X0189968Y0201146D01*
X0190119Y0201201D01*
X0190272Y0201252D01*
X0190426Y0201299D01*
X0190581Y0201342D01*
X0190737Y0201381D01*
X0190893Y0201417D01*
X0191051Y0201448D01*
X0191209Y0201476D01*
X0191368Y0201500D01*
X0191528Y0201520D01*
X0191688Y0201536D01*
X0191848Y0201548D01*
X0192009Y0201556D01*
X0192170Y0201560D01*
X0192330Y0201560D01*
X0192491Y0201556D01*
X0192652Y0201548D01*
X0192812Y0201536D01*
X0192972Y0201520D01*
X0193132Y0201500D01*
X0193291Y0201476D01*
X0193449Y0201448D01*
X0193607Y0201417D01*
X0193763Y0201381D01*
X0193919Y0201342D01*
X0194074Y0201299D01*
X0194228Y0201252D01*
X0194381Y0201201D01*
X0194532Y0201146D01*
X0194682Y0201088D01*
X0194830Y0201026D01*
X0194977Y0200960D01*
X0195122Y0200891D01*
X0195265Y0200818D01*
X0195407Y0200742D01*
X0195546Y0200662D01*
X0195684Y0200579D01*
X0195819Y0200492D01*
X0195953Y0200402D01*
X0196084Y0200309D01*
X0196212Y0200213D01*
X0196338Y0200113D01*
X0196462Y0200010D01*
X0196583Y0199905D01*
X0196702Y0199796D01*
X0196818Y0199685D01*
X0196931Y0199570D01*
X0197041Y0199453D01*
X0197148Y0199333D01*
X0197252Y0199211D01*
X0197353Y0199086D01*
X0197451Y0198958D01*
X0197546Y0198828D01*
X0197638Y0198696D01*
X0197726Y0198562D01*
X0197811Y0198425D01*
X0197893Y0198287D01*
X0197971Y0198146D01*
X0198045Y0198004D01*
X0198116Y0197860D01*
X0198184Y0197714D01*
X0198247Y0197566D01*
X0198308Y0197417D01*
X0198364Y0197266D01*
X0198417Y0197114D01*
X0198466Y0196961D01*
X0198511Y0196807D01*
X0198552Y0196652D01*
X0198590Y0196495D01*
X0198623Y0196338D01*
X0198653Y0196180D01*
X0198679Y0196021D01*
X0198700Y0195862D01*
X0198718Y0195702D01*
X0198732Y0195542D01*
X0198742Y0195381D01*
X0198748Y0195221D01*
X0198750Y0195060D01*
X0198748Y0194899D01*
X0198742Y0194739D01*
X0198732Y0194578D01*
X0198718Y0194418D01*
X0198700Y0194258D01*
X0198679Y0194099D01*
X0198653Y0193940D01*
X0198623Y0193782D01*
X0198590Y0193625D01*
X0198552Y0193468D01*
X0198511Y0193313D01*
X0198466Y0193159D01*
X0198417Y0193006D01*
X0198364Y0192854D01*
X0198308Y0192703D01*
X0198247Y0192554D01*
X0198184Y0192406D01*
X0198116Y0192260D01*
X0198045Y0192116D01*
X0197971Y0191974D01*
X0197893Y0191833D01*
X0197811Y0191695D01*
X0197726Y0191558D01*
X0197638Y0191424D01*
X0197546Y0191292D01*
X0197451Y0191162D01*
X0197353Y0191034D01*
X0197252Y0190909D01*
X0197148Y0190787D01*
X0197041Y0190667D01*
X0196931Y0190550D01*
X0196818Y0190435D01*
X0196702Y0190324D01*
X0196583Y0190215D01*
X0196462Y0190110D01*
X0196338Y0190007D01*
X0196212Y0189907D01*
X0196084Y0189811D01*
X0195953Y0189718D01*
X0195819Y0189628D01*
X0195684Y0189541D01*
X0195546Y0189458D01*
X0195407Y0189378D01*
X0195265Y0189302D01*
X0195122Y0189229D01*
X0194977Y0189160D01*
X0194830Y0189094D01*
X0194682Y0189032D01*
X0194532Y0188974D01*
X0194381Y0188919D01*
X0194228Y0188868D01*
X0194074Y0188821D01*
X0193919Y0188778D01*
X0193763Y0188739D01*
X0193607Y0188703D01*
X0193449Y0188672D01*
X0193291Y0188644D01*
X0193132Y0188620D01*
X0192972Y0188600D01*
X0192812Y0188584D01*
X0192652Y0188572D01*
X0192491Y0188564D01*
X0192330Y0188560D01*
X0192170Y0188560D01*
X0192009Y0188564D01*
X0191848Y0188572D01*
X0191688Y0188584D01*
X0191528Y0188600D01*
X0191368Y0188620D01*
X0191209Y0188644D01*
X0191051Y0188672D01*
X0190893Y0188703D01*
X0190737Y0188739D01*
X0190581Y0188778D01*
X0190426Y0188821D01*
X0190272Y0188868D01*
X0190119Y0188919D01*
X0189968Y0188974D01*
X0189818Y0189032D01*
X0189670Y0189094D01*
X0189523Y0189160D01*
X0189378Y0189229D01*
X0189235Y0189302D01*
X0189093Y0189378D01*
X0188954Y0189458D01*
X0188816Y0189541D01*
X0188681Y0189628D01*
X0188547Y0189718D01*
X0188416Y0189811D01*
X0188288Y0189907D01*
X0188162Y0190007D01*
X0188038Y0190110D01*
X0187917Y0190215D01*
X0187798Y0190324D01*
X0187682Y0190435D01*
X0187569Y0190550D01*
X0187459Y0190667D01*
X0187352Y0190787D01*
X0187248Y0190909D01*
X0187147Y0191034D01*
X0187049Y0191162D01*
X0186954Y0191292D01*
X0186862Y0191424D01*
X0186774Y0191558D01*
X0186689Y0191695D01*
X0186607Y0191833D01*
X0186529Y0191974D01*
X0186455Y0192116D01*
X0186384Y0192260D01*
X0186316Y0192406D01*
X0186253Y0192554D01*
X0186192Y0192703D01*
X0186136Y0192854D01*
X0186083Y0193006D01*
X0186034Y0193159D01*
X0185989Y0193313D01*
X0185948Y0193468D01*
X0185910Y0193625D01*
X0185877Y0193782D01*
X0185847Y0193940D01*
X0185821Y0194099D01*
X0185800Y0194258D01*
X0185782Y0194418D01*
X0185768Y0194578D01*
X0185758Y0194739D01*
X0185752Y0194899D01*
X0185750Y0195060D01*
X0105750Y0195060D02*
X0105752Y0195221D01*
X0105758Y0195381D01*
X0105768Y0195542D01*
X0105782Y0195702D01*
X0105800Y0195862D01*
X0105821Y0196021D01*
X0105847Y0196180D01*
X0105877Y0196338D01*
X0105910Y0196495D01*
X0105948Y0196652D01*
X0105989Y0196807D01*
X0106034Y0196961D01*
X0106083Y0197114D01*
X0106136Y0197266D01*
X0106192Y0197417D01*
X0106253Y0197566D01*
X0106316Y0197714D01*
X0106384Y0197860D01*
X0106455Y0198004D01*
X0106529Y0198146D01*
X0106607Y0198287D01*
X0106689Y0198425D01*
X0106774Y0198562D01*
X0106862Y0198696D01*
X0106954Y0198828D01*
X0107049Y0198958D01*
X0107147Y0199086D01*
X0107248Y0199211D01*
X0107352Y0199333D01*
X0107459Y0199453D01*
X0107569Y0199570D01*
X0107682Y0199685D01*
X0107798Y0199796D01*
X0107917Y0199905D01*
X0108038Y0200010D01*
X0108162Y0200113D01*
X0108288Y0200213D01*
X0108416Y0200309D01*
X0108547Y0200402D01*
X0108681Y0200492D01*
X0108816Y0200579D01*
X0108954Y0200662D01*
X0109093Y0200742D01*
X0109235Y0200818D01*
X0109378Y0200891D01*
X0109523Y0200960D01*
X0109670Y0201026D01*
X0109818Y0201088D01*
X0109968Y0201146D01*
X0110119Y0201201D01*
X0110272Y0201252D01*
X0110426Y0201299D01*
X0110581Y0201342D01*
X0110737Y0201381D01*
X0110893Y0201417D01*
X0111051Y0201448D01*
X0111209Y0201476D01*
X0111368Y0201500D01*
X0111528Y0201520D01*
X0111688Y0201536D01*
X0111848Y0201548D01*
X0112009Y0201556D01*
X0112170Y0201560D01*
X0112330Y0201560D01*
X0112491Y0201556D01*
X0112652Y0201548D01*
X0112812Y0201536D01*
X0112972Y0201520D01*
X0113132Y0201500D01*
X0113291Y0201476D01*
X0113449Y0201448D01*
X0113607Y0201417D01*
X0113763Y0201381D01*
X0113919Y0201342D01*
X0114074Y0201299D01*
X0114228Y0201252D01*
X0114381Y0201201D01*
X0114532Y0201146D01*
X0114682Y0201088D01*
X0114830Y0201026D01*
X0114977Y0200960D01*
X0115122Y0200891D01*
X0115265Y0200818D01*
X0115407Y0200742D01*
X0115546Y0200662D01*
X0115684Y0200579D01*
X0115819Y0200492D01*
X0115953Y0200402D01*
X0116084Y0200309D01*
X0116212Y0200213D01*
X0116338Y0200113D01*
X0116462Y0200010D01*
X0116583Y0199905D01*
X0116702Y0199796D01*
X0116818Y0199685D01*
X0116931Y0199570D01*
X0117041Y0199453D01*
X0117148Y0199333D01*
X0117252Y0199211D01*
X0117353Y0199086D01*
X0117451Y0198958D01*
X0117546Y0198828D01*
X0117638Y0198696D01*
X0117726Y0198562D01*
X0117811Y0198425D01*
X0117893Y0198287D01*
X0117971Y0198146D01*
X0118045Y0198004D01*
X0118116Y0197860D01*
X0118184Y0197714D01*
X0118247Y0197566D01*
X0118308Y0197417D01*
X0118364Y0197266D01*
X0118417Y0197114D01*
X0118466Y0196961D01*
X0118511Y0196807D01*
X0118552Y0196652D01*
X0118590Y0196495D01*
X0118623Y0196338D01*
X0118653Y0196180D01*
X0118679Y0196021D01*
X0118700Y0195862D01*
X0118718Y0195702D01*
X0118732Y0195542D01*
X0118742Y0195381D01*
X0118748Y0195221D01*
X0118750Y0195060D01*
X0118748Y0194899D01*
X0118742Y0194739D01*
X0118732Y0194578D01*
X0118718Y0194418D01*
X0118700Y0194258D01*
X0118679Y0194099D01*
X0118653Y0193940D01*
X0118623Y0193782D01*
X0118590Y0193625D01*
X0118552Y0193468D01*
X0118511Y0193313D01*
X0118466Y0193159D01*
X0118417Y0193006D01*
X0118364Y0192854D01*
X0118308Y0192703D01*
X0118247Y0192554D01*
X0118184Y0192406D01*
X0118116Y0192260D01*
X0118045Y0192116D01*
X0117971Y0191974D01*
X0117893Y0191833D01*
X0117811Y0191695D01*
X0117726Y0191558D01*
X0117638Y0191424D01*
X0117546Y0191292D01*
X0117451Y0191162D01*
X0117353Y0191034D01*
X0117252Y0190909D01*
X0117148Y0190787D01*
X0117041Y0190667D01*
X0116931Y0190550D01*
X0116818Y0190435D01*
X0116702Y0190324D01*
X0116583Y0190215D01*
X0116462Y0190110D01*
X0116338Y0190007D01*
X0116212Y0189907D01*
X0116084Y0189811D01*
X0115953Y0189718D01*
X0115819Y0189628D01*
X0115684Y0189541D01*
X0115546Y0189458D01*
X0115407Y0189378D01*
X0115265Y0189302D01*
X0115122Y0189229D01*
X0114977Y0189160D01*
X0114830Y0189094D01*
X0114682Y0189032D01*
X0114532Y0188974D01*
X0114381Y0188919D01*
X0114228Y0188868D01*
X0114074Y0188821D01*
X0113919Y0188778D01*
X0113763Y0188739D01*
X0113607Y0188703D01*
X0113449Y0188672D01*
X0113291Y0188644D01*
X0113132Y0188620D01*
X0112972Y0188600D01*
X0112812Y0188584D01*
X0112652Y0188572D01*
X0112491Y0188564D01*
X0112330Y0188560D01*
X0112170Y0188560D01*
X0112009Y0188564D01*
X0111848Y0188572D01*
X0111688Y0188584D01*
X0111528Y0188600D01*
X0111368Y0188620D01*
X0111209Y0188644D01*
X0111051Y0188672D01*
X0110893Y0188703D01*
X0110737Y0188739D01*
X0110581Y0188778D01*
X0110426Y0188821D01*
X0110272Y0188868D01*
X0110119Y0188919D01*
X0109968Y0188974D01*
X0109818Y0189032D01*
X0109670Y0189094D01*
X0109523Y0189160D01*
X0109378Y0189229D01*
X0109235Y0189302D01*
X0109093Y0189378D01*
X0108954Y0189458D01*
X0108816Y0189541D01*
X0108681Y0189628D01*
X0108547Y0189718D01*
X0108416Y0189811D01*
X0108288Y0189907D01*
X0108162Y0190007D01*
X0108038Y0190110D01*
X0107917Y0190215D01*
X0107798Y0190324D01*
X0107682Y0190435D01*
X0107569Y0190550D01*
X0107459Y0190667D01*
X0107352Y0190787D01*
X0107248Y0190909D01*
X0107147Y0191034D01*
X0107049Y0191162D01*
X0106954Y0191292D01*
X0106862Y0191424D01*
X0106774Y0191558D01*
X0106689Y0191695D01*
X0106607Y0191833D01*
X0106529Y0191974D01*
X0106455Y0192116D01*
X0106384Y0192260D01*
X0106316Y0192406D01*
X0106253Y0192554D01*
X0106192Y0192703D01*
X0106136Y0192854D01*
X0106083Y0193006D01*
X0106034Y0193159D01*
X0105989Y0193313D01*
X0105948Y0193468D01*
X0105910Y0193625D01*
X0105877Y0193782D01*
X0105847Y0193940D01*
X0105821Y0194099D01*
X0105800Y0194258D01*
X0105782Y0194418D01*
X0105768Y0194578D01*
X0105758Y0194739D01*
X0105752Y0194899D01*
X0105750Y0195060D01*
X0085750Y0195060D02*
X0085752Y0195221D01*
X0085758Y0195381D01*
X0085768Y0195542D01*
X0085782Y0195702D01*
X0085800Y0195862D01*
X0085821Y0196021D01*
X0085847Y0196180D01*
X0085877Y0196338D01*
X0085910Y0196495D01*
X0085948Y0196652D01*
X0085989Y0196807D01*
X0086034Y0196961D01*
X0086083Y0197114D01*
X0086136Y0197266D01*
X0086192Y0197417D01*
X0086253Y0197566D01*
X0086316Y0197714D01*
X0086384Y0197860D01*
X0086455Y0198004D01*
X0086529Y0198146D01*
X0086607Y0198287D01*
X0086689Y0198425D01*
X0086774Y0198562D01*
X0086862Y0198696D01*
X0086954Y0198828D01*
X0087049Y0198958D01*
X0087147Y0199086D01*
X0087248Y0199211D01*
X0087352Y0199333D01*
X0087459Y0199453D01*
X0087569Y0199570D01*
X0087682Y0199685D01*
X0087798Y0199796D01*
X0087917Y0199905D01*
X0088038Y0200010D01*
X0088162Y0200113D01*
X0088288Y0200213D01*
X0088416Y0200309D01*
X0088547Y0200402D01*
X0088681Y0200492D01*
X0088816Y0200579D01*
X0088954Y0200662D01*
X0089093Y0200742D01*
X0089235Y0200818D01*
X0089378Y0200891D01*
X0089523Y0200960D01*
X0089670Y0201026D01*
X0089818Y0201088D01*
X0089968Y0201146D01*
X0090119Y0201201D01*
X0090272Y0201252D01*
X0090426Y0201299D01*
X0090581Y0201342D01*
X0090737Y0201381D01*
X0090893Y0201417D01*
X0091051Y0201448D01*
X0091209Y0201476D01*
X0091368Y0201500D01*
X0091528Y0201520D01*
X0091688Y0201536D01*
X0091848Y0201548D01*
X0092009Y0201556D01*
X0092170Y0201560D01*
X0092330Y0201560D01*
X0092491Y0201556D01*
X0092652Y0201548D01*
X0092812Y0201536D01*
X0092972Y0201520D01*
X0093132Y0201500D01*
X0093291Y0201476D01*
X0093449Y0201448D01*
X0093607Y0201417D01*
X0093763Y0201381D01*
X0093919Y0201342D01*
X0094074Y0201299D01*
X0094228Y0201252D01*
X0094381Y0201201D01*
X0094532Y0201146D01*
X0094682Y0201088D01*
X0094830Y0201026D01*
X0094977Y0200960D01*
X0095122Y0200891D01*
X0095265Y0200818D01*
X0095407Y0200742D01*
X0095546Y0200662D01*
X0095684Y0200579D01*
X0095819Y0200492D01*
X0095953Y0200402D01*
X0096084Y0200309D01*
X0096212Y0200213D01*
X0096338Y0200113D01*
X0096462Y0200010D01*
X0096583Y0199905D01*
X0096702Y0199796D01*
X0096818Y0199685D01*
X0096931Y0199570D01*
X0097041Y0199453D01*
X0097148Y0199333D01*
X0097252Y0199211D01*
X0097353Y0199086D01*
X0097451Y0198958D01*
X0097546Y0198828D01*
X0097638Y0198696D01*
X0097726Y0198562D01*
X0097811Y0198425D01*
X0097893Y0198287D01*
X0097971Y0198146D01*
X0098045Y0198004D01*
X0098116Y0197860D01*
X0098184Y0197714D01*
X0098247Y0197566D01*
X0098308Y0197417D01*
X0098364Y0197266D01*
X0098417Y0197114D01*
X0098466Y0196961D01*
X0098511Y0196807D01*
X0098552Y0196652D01*
X0098590Y0196495D01*
X0098623Y0196338D01*
X0098653Y0196180D01*
X0098679Y0196021D01*
X0098700Y0195862D01*
X0098718Y0195702D01*
X0098732Y0195542D01*
X0098742Y0195381D01*
X0098748Y0195221D01*
X0098750Y0195060D01*
X0098748Y0194899D01*
X0098742Y0194739D01*
X0098732Y0194578D01*
X0098718Y0194418D01*
X0098700Y0194258D01*
X0098679Y0194099D01*
X0098653Y0193940D01*
X0098623Y0193782D01*
X0098590Y0193625D01*
X0098552Y0193468D01*
X0098511Y0193313D01*
X0098466Y0193159D01*
X0098417Y0193006D01*
X0098364Y0192854D01*
X0098308Y0192703D01*
X0098247Y0192554D01*
X0098184Y0192406D01*
X0098116Y0192260D01*
X0098045Y0192116D01*
X0097971Y0191974D01*
X0097893Y0191833D01*
X0097811Y0191695D01*
X0097726Y0191558D01*
X0097638Y0191424D01*
X0097546Y0191292D01*
X0097451Y0191162D01*
X0097353Y0191034D01*
X0097252Y0190909D01*
X0097148Y0190787D01*
X0097041Y0190667D01*
X0096931Y0190550D01*
X0096818Y0190435D01*
X0096702Y0190324D01*
X0096583Y0190215D01*
X0096462Y0190110D01*
X0096338Y0190007D01*
X0096212Y0189907D01*
X0096084Y0189811D01*
X0095953Y0189718D01*
X0095819Y0189628D01*
X0095684Y0189541D01*
X0095546Y0189458D01*
X0095407Y0189378D01*
X0095265Y0189302D01*
X0095122Y0189229D01*
X0094977Y0189160D01*
X0094830Y0189094D01*
X0094682Y0189032D01*
X0094532Y0188974D01*
X0094381Y0188919D01*
X0094228Y0188868D01*
X0094074Y0188821D01*
X0093919Y0188778D01*
X0093763Y0188739D01*
X0093607Y0188703D01*
X0093449Y0188672D01*
X0093291Y0188644D01*
X0093132Y0188620D01*
X0092972Y0188600D01*
X0092812Y0188584D01*
X0092652Y0188572D01*
X0092491Y0188564D01*
X0092330Y0188560D01*
X0092170Y0188560D01*
X0092009Y0188564D01*
X0091848Y0188572D01*
X0091688Y0188584D01*
X0091528Y0188600D01*
X0091368Y0188620D01*
X0091209Y0188644D01*
X0091051Y0188672D01*
X0090893Y0188703D01*
X0090737Y0188739D01*
X0090581Y0188778D01*
X0090426Y0188821D01*
X0090272Y0188868D01*
X0090119Y0188919D01*
X0089968Y0188974D01*
X0089818Y0189032D01*
X0089670Y0189094D01*
X0089523Y0189160D01*
X0089378Y0189229D01*
X0089235Y0189302D01*
X0089093Y0189378D01*
X0088954Y0189458D01*
X0088816Y0189541D01*
X0088681Y0189628D01*
X0088547Y0189718D01*
X0088416Y0189811D01*
X0088288Y0189907D01*
X0088162Y0190007D01*
X0088038Y0190110D01*
X0087917Y0190215D01*
X0087798Y0190324D01*
X0087682Y0190435D01*
X0087569Y0190550D01*
X0087459Y0190667D01*
X0087352Y0190787D01*
X0087248Y0190909D01*
X0087147Y0191034D01*
X0087049Y0191162D01*
X0086954Y0191292D01*
X0086862Y0191424D01*
X0086774Y0191558D01*
X0086689Y0191695D01*
X0086607Y0191833D01*
X0086529Y0191974D01*
X0086455Y0192116D01*
X0086384Y0192260D01*
X0086316Y0192406D01*
X0086253Y0192554D01*
X0086192Y0192703D01*
X0086136Y0192854D01*
X0086083Y0193006D01*
X0086034Y0193159D01*
X0085989Y0193313D01*
X0085948Y0193468D01*
X0085910Y0193625D01*
X0085877Y0193782D01*
X0085847Y0193940D01*
X0085821Y0194099D01*
X0085800Y0194258D01*
X0085782Y0194418D01*
X0085768Y0194578D01*
X0085758Y0194739D01*
X0085752Y0194899D01*
X0085750Y0195060D01*
X0005750Y0195060D02*
X0005752Y0195221D01*
X0005758Y0195381D01*
X0005768Y0195542D01*
X0005782Y0195702D01*
X0005800Y0195862D01*
X0005821Y0196021D01*
X0005847Y0196180D01*
X0005877Y0196338D01*
X0005910Y0196495D01*
X0005948Y0196652D01*
X0005989Y0196807D01*
X0006034Y0196961D01*
X0006083Y0197114D01*
X0006136Y0197266D01*
X0006192Y0197417D01*
X0006253Y0197566D01*
X0006316Y0197714D01*
X0006384Y0197860D01*
X0006455Y0198004D01*
X0006529Y0198146D01*
X0006607Y0198287D01*
X0006689Y0198425D01*
X0006774Y0198562D01*
X0006862Y0198696D01*
X0006954Y0198828D01*
X0007049Y0198958D01*
X0007147Y0199086D01*
X0007248Y0199211D01*
X0007352Y0199333D01*
X0007459Y0199453D01*
X0007569Y0199570D01*
X0007682Y0199685D01*
X0007798Y0199796D01*
X0007917Y0199905D01*
X0008038Y0200010D01*
X0008162Y0200113D01*
X0008288Y0200213D01*
X0008416Y0200309D01*
X0008547Y0200402D01*
X0008681Y0200492D01*
X0008816Y0200579D01*
X0008954Y0200662D01*
X0009093Y0200742D01*
X0009235Y0200818D01*
X0009378Y0200891D01*
X0009523Y0200960D01*
X0009670Y0201026D01*
X0009818Y0201088D01*
X0009968Y0201146D01*
X0010119Y0201201D01*
X0010272Y0201252D01*
X0010426Y0201299D01*
X0010581Y0201342D01*
X0010737Y0201381D01*
X0010893Y0201417D01*
X0011051Y0201448D01*
X0011209Y0201476D01*
X0011368Y0201500D01*
X0011528Y0201520D01*
X0011688Y0201536D01*
X0011848Y0201548D01*
X0012009Y0201556D01*
X0012170Y0201560D01*
X0012330Y0201560D01*
X0012491Y0201556D01*
X0012652Y0201548D01*
X0012812Y0201536D01*
X0012972Y0201520D01*
X0013132Y0201500D01*
X0013291Y0201476D01*
X0013449Y0201448D01*
X0013607Y0201417D01*
X0013763Y0201381D01*
X0013919Y0201342D01*
X0014074Y0201299D01*
X0014228Y0201252D01*
X0014381Y0201201D01*
X0014532Y0201146D01*
X0014682Y0201088D01*
X0014830Y0201026D01*
X0014977Y0200960D01*
X0015122Y0200891D01*
X0015265Y0200818D01*
X0015407Y0200742D01*
X0015546Y0200662D01*
X0015684Y0200579D01*
X0015819Y0200492D01*
X0015953Y0200402D01*
X0016084Y0200309D01*
X0016212Y0200213D01*
X0016338Y0200113D01*
X0016462Y0200010D01*
X0016583Y0199905D01*
X0016702Y0199796D01*
X0016818Y0199685D01*
X0016931Y0199570D01*
X0017041Y0199453D01*
X0017148Y0199333D01*
X0017252Y0199211D01*
X0017353Y0199086D01*
X0017451Y0198958D01*
X0017546Y0198828D01*
X0017638Y0198696D01*
X0017726Y0198562D01*
X0017811Y0198425D01*
X0017893Y0198287D01*
X0017971Y0198146D01*
X0018045Y0198004D01*
X0018116Y0197860D01*
X0018184Y0197714D01*
X0018247Y0197566D01*
X0018308Y0197417D01*
X0018364Y0197266D01*
X0018417Y0197114D01*
X0018466Y0196961D01*
X0018511Y0196807D01*
X0018552Y0196652D01*
X0018590Y0196495D01*
X0018623Y0196338D01*
X0018653Y0196180D01*
X0018679Y0196021D01*
X0018700Y0195862D01*
X0018718Y0195702D01*
X0018732Y0195542D01*
X0018742Y0195381D01*
X0018748Y0195221D01*
X0018750Y0195060D01*
X0018748Y0194899D01*
X0018742Y0194739D01*
X0018732Y0194578D01*
X0018718Y0194418D01*
X0018700Y0194258D01*
X0018679Y0194099D01*
X0018653Y0193940D01*
X0018623Y0193782D01*
X0018590Y0193625D01*
X0018552Y0193468D01*
X0018511Y0193313D01*
X0018466Y0193159D01*
X0018417Y0193006D01*
X0018364Y0192854D01*
X0018308Y0192703D01*
X0018247Y0192554D01*
X0018184Y0192406D01*
X0018116Y0192260D01*
X0018045Y0192116D01*
X0017971Y0191974D01*
X0017893Y0191833D01*
X0017811Y0191695D01*
X0017726Y0191558D01*
X0017638Y0191424D01*
X0017546Y0191292D01*
X0017451Y0191162D01*
X0017353Y0191034D01*
X0017252Y0190909D01*
X0017148Y0190787D01*
X0017041Y0190667D01*
X0016931Y0190550D01*
X0016818Y0190435D01*
X0016702Y0190324D01*
X0016583Y0190215D01*
X0016462Y0190110D01*
X0016338Y0190007D01*
X0016212Y0189907D01*
X0016084Y0189811D01*
X0015953Y0189718D01*
X0015819Y0189628D01*
X0015684Y0189541D01*
X0015546Y0189458D01*
X0015407Y0189378D01*
X0015265Y0189302D01*
X0015122Y0189229D01*
X0014977Y0189160D01*
X0014830Y0189094D01*
X0014682Y0189032D01*
X0014532Y0188974D01*
X0014381Y0188919D01*
X0014228Y0188868D01*
X0014074Y0188821D01*
X0013919Y0188778D01*
X0013763Y0188739D01*
X0013607Y0188703D01*
X0013449Y0188672D01*
X0013291Y0188644D01*
X0013132Y0188620D01*
X0012972Y0188600D01*
X0012812Y0188584D01*
X0012652Y0188572D01*
X0012491Y0188564D01*
X0012330Y0188560D01*
X0012170Y0188560D01*
X0012009Y0188564D01*
X0011848Y0188572D01*
X0011688Y0188584D01*
X0011528Y0188600D01*
X0011368Y0188620D01*
X0011209Y0188644D01*
X0011051Y0188672D01*
X0010893Y0188703D01*
X0010737Y0188739D01*
X0010581Y0188778D01*
X0010426Y0188821D01*
X0010272Y0188868D01*
X0010119Y0188919D01*
X0009968Y0188974D01*
X0009818Y0189032D01*
X0009670Y0189094D01*
X0009523Y0189160D01*
X0009378Y0189229D01*
X0009235Y0189302D01*
X0009093Y0189378D01*
X0008954Y0189458D01*
X0008816Y0189541D01*
X0008681Y0189628D01*
X0008547Y0189718D01*
X0008416Y0189811D01*
X0008288Y0189907D01*
X0008162Y0190007D01*
X0008038Y0190110D01*
X0007917Y0190215D01*
X0007798Y0190324D01*
X0007682Y0190435D01*
X0007569Y0190550D01*
X0007459Y0190667D01*
X0007352Y0190787D01*
X0007248Y0190909D01*
X0007147Y0191034D01*
X0007049Y0191162D01*
X0006954Y0191292D01*
X0006862Y0191424D01*
X0006774Y0191558D01*
X0006689Y0191695D01*
X0006607Y0191833D01*
X0006529Y0191974D01*
X0006455Y0192116D01*
X0006384Y0192260D01*
X0006316Y0192406D01*
X0006253Y0192554D01*
X0006192Y0192703D01*
X0006136Y0192854D01*
X0006083Y0193006D01*
X0006034Y0193159D01*
X0005989Y0193313D01*
X0005948Y0193468D01*
X0005910Y0193625D01*
X0005877Y0193782D01*
X0005847Y0193940D01*
X0005821Y0194099D01*
X0005800Y0194258D01*
X0005782Y0194418D01*
X0005768Y0194578D01*
X0005758Y0194739D01*
X0005752Y0194899D01*
X0005750Y0195060D01*
X0005750Y0295060D02*
X0005752Y0295221D01*
X0005758Y0295381D01*
X0005768Y0295542D01*
X0005782Y0295702D01*
X0005800Y0295862D01*
X0005821Y0296021D01*
X0005847Y0296180D01*
X0005877Y0296338D01*
X0005910Y0296495D01*
X0005948Y0296652D01*
X0005989Y0296807D01*
X0006034Y0296961D01*
X0006083Y0297114D01*
X0006136Y0297266D01*
X0006192Y0297417D01*
X0006253Y0297566D01*
X0006316Y0297714D01*
X0006384Y0297860D01*
X0006455Y0298004D01*
X0006529Y0298146D01*
X0006607Y0298287D01*
X0006689Y0298425D01*
X0006774Y0298562D01*
X0006862Y0298696D01*
X0006954Y0298828D01*
X0007049Y0298958D01*
X0007147Y0299086D01*
X0007248Y0299211D01*
X0007352Y0299333D01*
X0007459Y0299453D01*
X0007569Y0299570D01*
X0007682Y0299685D01*
X0007798Y0299796D01*
X0007917Y0299905D01*
X0008038Y0300010D01*
X0008162Y0300113D01*
X0008288Y0300213D01*
X0008416Y0300309D01*
X0008547Y0300402D01*
X0008681Y0300492D01*
X0008816Y0300579D01*
X0008954Y0300662D01*
X0009093Y0300742D01*
X0009235Y0300818D01*
X0009378Y0300891D01*
X0009523Y0300960D01*
X0009670Y0301026D01*
X0009818Y0301088D01*
X0009968Y0301146D01*
X0010119Y0301201D01*
X0010272Y0301252D01*
X0010426Y0301299D01*
X0010581Y0301342D01*
X0010737Y0301381D01*
X0010893Y0301417D01*
X0011051Y0301448D01*
X0011209Y0301476D01*
X0011368Y0301500D01*
X0011528Y0301520D01*
X0011688Y0301536D01*
X0011848Y0301548D01*
X0012009Y0301556D01*
X0012170Y0301560D01*
X0012330Y0301560D01*
X0012491Y0301556D01*
X0012652Y0301548D01*
X0012812Y0301536D01*
X0012972Y0301520D01*
X0013132Y0301500D01*
X0013291Y0301476D01*
X0013449Y0301448D01*
X0013607Y0301417D01*
X0013763Y0301381D01*
X0013919Y0301342D01*
X0014074Y0301299D01*
X0014228Y0301252D01*
X0014381Y0301201D01*
X0014532Y0301146D01*
X0014682Y0301088D01*
X0014830Y0301026D01*
X0014977Y0300960D01*
X0015122Y0300891D01*
X0015265Y0300818D01*
X0015407Y0300742D01*
X0015546Y0300662D01*
X0015684Y0300579D01*
X0015819Y0300492D01*
X0015953Y0300402D01*
X0016084Y0300309D01*
X0016212Y0300213D01*
X0016338Y0300113D01*
X0016462Y0300010D01*
X0016583Y0299905D01*
X0016702Y0299796D01*
X0016818Y0299685D01*
X0016931Y0299570D01*
X0017041Y0299453D01*
X0017148Y0299333D01*
X0017252Y0299211D01*
X0017353Y0299086D01*
X0017451Y0298958D01*
X0017546Y0298828D01*
X0017638Y0298696D01*
X0017726Y0298562D01*
X0017811Y0298425D01*
X0017893Y0298287D01*
X0017971Y0298146D01*
X0018045Y0298004D01*
X0018116Y0297860D01*
X0018184Y0297714D01*
X0018247Y0297566D01*
X0018308Y0297417D01*
X0018364Y0297266D01*
X0018417Y0297114D01*
X0018466Y0296961D01*
X0018511Y0296807D01*
X0018552Y0296652D01*
X0018590Y0296495D01*
X0018623Y0296338D01*
X0018653Y0296180D01*
X0018679Y0296021D01*
X0018700Y0295862D01*
X0018718Y0295702D01*
X0018732Y0295542D01*
X0018742Y0295381D01*
X0018748Y0295221D01*
X0018750Y0295060D01*
X0018748Y0294899D01*
X0018742Y0294739D01*
X0018732Y0294578D01*
X0018718Y0294418D01*
X0018700Y0294258D01*
X0018679Y0294099D01*
X0018653Y0293940D01*
X0018623Y0293782D01*
X0018590Y0293625D01*
X0018552Y0293468D01*
X0018511Y0293313D01*
X0018466Y0293159D01*
X0018417Y0293006D01*
X0018364Y0292854D01*
X0018308Y0292703D01*
X0018247Y0292554D01*
X0018184Y0292406D01*
X0018116Y0292260D01*
X0018045Y0292116D01*
X0017971Y0291974D01*
X0017893Y0291833D01*
X0017811Y0291695D01*
X0017726Y0291558D01*
X0017638Y0291424D01*
X0017546Y0291292D01*
X0017451Y0291162D01*
X0017353Y0291034D01*
X0017252Y0290909D01*
X0017148Y0290787D01*
X0017041Y0290667D01*
X0016931Y0290550D01*
X0016818Y0290435D01*
X0016702Y0290324D01*
X0016583Y0290215D01*
X0016462Y0290110D01*
X0016338Y0290007D01*
X0016212Y0289907D01*
X0016084Y0289811D01*
X0015953Y0289718D01*
X0015819Y0289628D01*
X0015684Y0289541D01*
X0015546Y0289458D01*
X0015407Y0289378D01*
X0015265Y0289302D01*
X0015122Y0289229D01*
X0014977Y0289160D01*
X0014830Y0289094D01*
X0014682Y0289032D01*
X0014532Y0288974D01*
X0014381Y0288919D01*
X0014228Y0288868D01*
X0014074Y0288821D01*
X0013919Y0288778D01*
X0013763Y0288739D01*
X0013607Y0288703D01*
X0013449Y0288672D01*
X0013291Y0288644D01*
X0013132Y0288620D01*
X0012972Y0288600D01*
X0012812Y0288584D01*
X0012652Y0288572D01*
X0012491Y0288564D01*
X0012330Y0288560D01*
X0012170Y0288560D01*
X0012009Y0288564D01*
X0011848Y0288572D01*
X0011688Y0288584D01*
X0011528Y0288600D01*
X0011368Y0288620D01*
X0011209Y0288644D01*
X0011051Y0288672D01*
X0010893Y0288703D01*
X0010737Y0288739D01*
X0010581Y0288778D01*
X0010426Y0288821D01*
X0010272Y0288868D01*
X0010119Y0288919D01*
X0009968Y0288974D01*
X0009818Y0289032D01*
X0009670Y0289094D01*
X0009523Y0289160D01*
X0009378Y0289229D01*
X0009235Y0289302D01*
X0009093Y0289378D01*
X0008954Y0289458D01*
X0008816Y0289541D01*
X0008681Y0289628D01*
X0008547Y0289718D01*
X0008416Y0289811D01*
X0008288Y0289907D01*
X0008162Y0290007D01*
X0008038Y0290110D01*
X0007917Y0290215D01*
X0007798Y0290324D01*
X0007682Y0290435D01*
X0007569Y0290550D01*
X0007459Y0290667D01*
X0007352Y0290787D01*
X0007248Y0290909D01*
X0007147Y0291034D01*
X0007049Y0291162D01*
X0006954Y0291292D01*
X0006862Y0291424D01*
X0006774Y0291558D01*
X0006689Y0291695D01*
X0006607Y0291833D01*
X0006529Y0291974D01*
X0006455Y0292116D01*
X0006384Y0292260D01*
X0006316Y0292406D01*
X0006253Y0292554D01*
X0006192Y0292703D01*
X0006136Y0292854D01*
X0006083Y0293006D01*
X0006034Y0293159D01*
X0005989Y0293313D01*
X0005948Y0293468D01*
X0005910Y0293625D01*
X0005877Y0293782D01*
X0005847Y0293940D01*
X0005821Y0294099D01*
X0005800Y0294258D01*
X0005782Y0294418D01*
X0005768Y0294578D01*
X0005758Y0294739D01*
X0005752Y0294899D01*
X0005750Y0295060D01*
X0085750Y0295060D02*
X0085752Y0295221D01*
X0085758Y0295381D01*
X0085768Y0295542D01*
X0085782Y0295702D01*
X0085800Y0295862D01*
X0085821Y0296021D01*
X0085847Y0296180D01*
X0085877Y0296338D01*
X0085910Y0296495D01*
X0085948Y0296652D01*
X0085989Y0296807D01*
X0086034Y0296961D01*
X0086083Y0297114D01*
X0086136Y0297266D01*
X0086192Y0297417D01*
X0086253Y0297566D01*
X0086316Y0297714D01*
X0086384Y0297860D01*
X0086455Y0298004D01*
X0086529Y0298146D01*
X0086607Y0298287D01*
X0086689Y0298425D01*
X0086774Y0298562D01*
X0086862Y0298696D01*
X0086954Y0298828D01*
X0087049Y0298958D01*
X0087147Y0299086D01*
X0087248Y0299211D01*
X0087352Y0299333D01*
X0087459Y0299453D01*
X0087569Y0299570D01*
X0087682Y0299685D01*
X0087798Y0299796D01*
X0087917Y0299905D01*
X0088038Y0300010D01*
X0088162Y0300113D01*
X0088288Y0300213D01*
X0088416Y0300309D01*
X0088547Y0300402D01*
X0088681Y0300492D01*
X0088816Y0300579D01*
X0088954Y0300662D01*
X0089093Y0300742D01*
X0089235Y0300818D01*
X0089378Y0300891D01*
X0089523Y0300960D01*
X0089670Y0301026D01*
X0089818Y0301088D01*
X0089968Y0301146D01*
X0090119Y0301201D01*
X0090272Y0301252D01*
X0090426Y0301299D01*
X0090581Y0301342D01*
X0090737Y0301381D01*
X0090893Y0301417D01*
X0091051Y0301448D01*
X0091209Y0301476D01*
X0091368Y0301500D01*
X0091528Y0301520D01*
X0091688Y0301536D01*
X0091848Y0301548D01*
X0092009Y0301556D01*
X0092170Y0301560D01*
X0092330Y0301560D01*
X0092491Y0301556D01*
X0092652Y0301548D01*
X0092812Y0301536D01*
X0092972Y0301520D01*
X0093132Y0301500D01*
X0093291Y0301476D01*
X0093449Y0301448D01*
X0093607Y0301417D01*
X0093763Y0301381D01*
X0093919Y0301342D01*
X0094074Y0301299D01*
X0094228Y0301252D01*
X0094381Y0301201D01*
X0094532Y0301146D01*
X0094682Y0301088D01*
X0094830Y0301026D01*
X0094977Y0300960D01*
X0095122Y0300891D01*
X0095265Y0300818D01*
X0095407Y0300742D01*
X0095546Y0300662D01*
X0095684Y0300579D01*
X0095819Y0300492D01*
X0095953Y0300402D01*
X0096084Y0300309D01*
X0096212Y0300213D01*
X0096338Y0300113D01*
X0096462Y0300010D01*
X0096583Y0299905D01*
X0096702Y0299796D01*
X0096818Y0299685D01*
X0096931Y0299570D01*
X0097041Y0299453D01*
X0097148Y0299333D01*
X0097252Y0299211D01*
X0097353Y0299086D01*
X0097451Y0298958D01*
X0097546Y0298828D01*
X0097638Y0298696D01*
X0097726Y0298562D01*
X0097811Y0298425D01*
X0097893Y0298287D01*
X0097971Y0298146D01*
X0098045Y0298004D01*
X0098116Y0297860D01*
X0098184Y0297714D01*
X0098247Y0297566D01*
X0098308Y0297417D01*
X0098364Y0297266D01*
X0098417Y0297114D01*
X0098466Y0296961D01*
X0098511Y0296807D01*
X0098552Y0296652D01*
X0098590Y0296495D01*
X0098623Y0296338D01*
X0098653Y0296180D01*
X0098679Y0296021D01*
X0098700Y0295862D01*
X0098718Y0295702D01*
X0098732Y0295542D01*
X0098742Y0295381D01*
X0098748Y0295221D01*
X0098750Y0295060D01*
X0098748Y0294899D01*
X0098742Y0294739D01*
X0098732Y0294578D01*
X0098718Y0294418D01*
X0098700Y0294258D01*
X0098679Y0294099D01*
X0098653Y0293940D01*
X0098623Y0293782D01*
X0098590Y0293625D01*
X0098552Y0293468D01*
X0098511Y0293313D01*
X0098466Y0293159D01*
X0098417Y0293006D01*
X0098364Y0292854D01*
X0098308Y0292703D01*
X0098247Y0292554D01*
X0098184Y0292406D01*
X0098116Y0292260D01*
X0098045Y0292116D01*
X0097971Y0291974D01*
X0097893Y0291833D01*
X0097811Y0291695D01*
X0097726Y0291558D01*
X0097638Y0291424D01*
X0097546Y0291292D01*
X0097451Y0291162D01*
X0097353Y0291034D01*
X0097252Y0290909D01*
X0097148Y0290787D01*
X0097041Y0290667D01*
X0096931Y0290550D01*
X0096818Y0290435D01*
X0096702Y0290324D01*
X0096583Y0290215D01*
X0096462Y0290110D01*
X0096338Y0290007D01*
X0096212Y0289907D01*
X0096084Y0289811D01*
X0095953Y0289718D01*
X0095819Y0289628D01*
X0095684Y0289541D01*
X0095546Y0289458D01*
X0095407Y0289378D01*
X0095265Y0289302D01*
X0095122Y0289229D01*
X0094977Y0289160D01*
X0094830Y0289094D01*
X0094682Y0289032D01*
X0094532Y0288974D01*
X0094381Y0288919D01*
X0094228Y0288868D01*
X0094074Y0288821D01*
X0093919Y0288778D01*
X0093763Y0288739D01*
X0093607Y0288703D01*
X0093449Y0288672D01*
X0093291Y0288644D01*
X0093132Y0288620D01*
X0092972Y0288600D01*
X0092812Y0288584D01*
X0092652Y0288572D01*
X0092491Y0288564D01*
X0092330Y0288560D01*
X0092170Y0288560D01*
X0092009Y0288564D01*
X0091848Y0288572D01*
X0091688Y0288584D01*
X0091528Y0288600D01*
X0091368Y0288620D01*
X0091209Y0288644D01*
X0091051Y0288672D01*
X0090893Y0288703D01*
X0090737Y0288739D01*
X0090581Y0288778D01*
X0090426Y0288821D01*
X0090272Y0288868D01*
X0090119Y0288919D01*
X0089968Y0288974D01*
X0089818Y0289032D01*
X0089670Y0289094D01*
X0089523Y0289160D01*
X0089378Y0289229D01*
X0089235Y0289302D01*
X0089093Y0289378D01*
X0088954Y0289458D01*
X0088816Y0289541D01*
X0088681Y0289628D01*
X0088547Y0289718D01*
X0088416Y0289811D01*
X0088288Y0289907D01*
X0088162Y0290007D01*
X0088038Y0290110D01*
X0087917Y0290215D01*
X0087798Y0290324D01*
X0087682Y0290435D01*
X0087569Y0290550D01*
X0087459Y0290667D01*
X0087352Y0290787D01*
X0087248Y0290909D01*
X0087147Y0291034D01*
X0087049Y0291162D01*
X0086954Y0291292D01*
X0086862Y0291424D01*
X0086774Y0291558D01*
X0086689Y0291695D01*
X0086607Y0291833D01*
X0086529Y0291974D01*
X0086455Y0292116D01*
X0086384Y0292260D01*
X0086316Y0292406D01*
X0086253Y0292554D01*
X0086192Y0292703D01*
X0086136Y0292854D01*
X0086083Y0293006D01*
X0086034Y0293159D01*
X0085989Y0293313D01*
X0085948Y0293468D01*
X0085910Y0293625D01*
X0085877Y0293782D01*
X0085847Y0293940D01*
X0085821Y0294099D01*
X0085800Y0294258D01*
X0085782Y0294418D01*
X0085768Y0294578D01*
X0085758Y0294739D01*
X0085752Y0294899D01*
X0085750Y0295060D01*
X0105750Y0295060D02*
X0105752Y0295221D01*
X0105758Y0295381D01*
X0105768Y0295542D01*
X0105782Y0295702D01*
X0105800Y0295862D01*
X0105821Y0296021D01*
X0105847Y0296180D01*
X0105877Y0296338D01*
X0105910Y0296495D01*
X0105948Y0296652D01*
X0105989Y0296807D01*
X0106034Y0296961D01*
X0106083Y0297114D01*
X0106136Y0297266D01*
X0106192Y0297417D01*
X0106253Y0297566D01*
X0106316Y0297714D01*
X0106384Y0297860D01*
X0106455Y0298004D01*
X0106529Y0298146D01*
X0106607Y0298287D01*
X0106689Y0298425D01*
X0106774Y0298562D01*
X0106862Y0298696D01*
X0106954Y0298828D01*
X0107049Y0298958D01*
X0107147Y0299086D01*
X0107248Y0299211D01*
X0107352Y0299333D01*
X0107459Y0299453D01*
X0107569Y0299570D01*
X0107682Y0299685D01*
X0107798Y0299796D01*
X0107917Y0299905D01*
X0108038Y0300010D01*
X0108162Y0300113D01*
X0108288Y0300213D01*
X0108416Y0300309D01*
X0108547Y0300402D01*
X0108681Y0300492D01*
X0108816Y0300579D01*
X0108954Y0300662D01*
X0109093Y0300742D01*
X0109235Y0300818D01*
X0109378Y0300891D01*
X0109523Y0300960D01*
X0109670Y0301026D01*
X0109818Y0301088D01*
X0109968Y0301146D01*
X0110119Y0301201D01*
X0110272Y0301252D01*
X0110426Y0301299D01*
X0110581Y0301342D01*
X0110737Y0301381D01*
X0110893Y0301417D01*
X0111051Y0301448D01*
X0111209Y0301476D01*
X0111368Y0301500D01*
X0111528Y0301520D01*
X0111688Y0301536D01*
X0111848Y0301548D01*
X0112009Y0301556D01*
X0112170Y0301560D01*
X0112330Y0301560D01*
X0112491Y0301556D01*
X0112652Y0301548D01*
X0112812Y0301536D01*
X0112972Y0301520D01*
X0113132Y0301500D01*
X0113291Y0301476D01*
X0113449Y0301448D01*
X0113607Y0301417D01*
X0113763Y0301381D01*
X0113919Y0301342D01*
X0114074Y0301299D01*
X0114228Y0301252D01*
X0114381Y0301201D01*
X0114532Y0301146D01*
X0114682Y0301088D01*
X0114830Y0301026D01*
X0114977Y0300960D01*
X0115122Y0300891D01*
X0115265Y0300818D01*
X0115407Y0300742D01*
X0115546Y0300662D01*
X0115684Y0300579D01*
X0115819Y0300492D01*
X0115953Y0300402D01*
X0116084Y0300309D01*
X0116212Y0300213D01*
X0116338Y0300113D01*
X0116462Y0300010D01*
X0116583Y0299905D01*
X0116702Y0299796D01*
X0116818Y0299685D01*
X0116931Y0299570D01*
X0117041Y0299453D01*
X0117148Y0299333D01*
X0117252Y0299211D01*
X0117353Y0299086D01*
X0117451Y0298958D01*
X0117546Y0298828D01*
X0117638Y0298696D01*
X0117726Y0298562D01*
X0117811Y0298425D01*
X0117893Y0298287D01*
X0117971Y0298146D01*
X0118045Y0298004D01*
X0118116Y0297860D01*
X0118184Y0297714D01*
X0118247Y0297566D01*
X0118308Y0297417D01*
X0118364Y0297266D01*
X0118417Y0297114D01*
X0118466Y0296961D01*
X0118511Y0296807D01*
X0118552Y0296652D01*
X0118590Y0296495D01*
X0118623Y0296338D01*
X0118653Y0296180D01*
X0118679Y0296021D01*
X0118700Y0295862D01*
X0118718Y0295702D01*
X0118732Y0295542D01*
X0118742Y0295381D01*
X0118748Y0295221D01*
X0118750Y0295060D01*
X0118748Y0294899D01*
X0118742Y0294739D01*
X0118732Y0294578D01*
X0118718Y0294418D01*
X0118700Y0294258D01*
X0118679Y0294099D01*
X0118653Y0293940D01*
X0118623Y0293782D01*
X0118590Y0293625D01*
X0118552Y0293468D01*
X0118511Y0293313D01*
X0118466Y0293159D01*
X0118417Y0293006D01*
X0118364Y0292854D01*
X0118308Y0292703D01*
X0118247Y0292554D01*
X0118184Y0292406D01*
X0118116Y0292260D01*
X0118045Y0292116D01*
X0117971Y0291974D01*
X0117893Y0291833D01*
X0117811Y0291695D01*
X0117726Y0291558D01*
X0117638Y0291424D01*
X0117546Y0291292D01*
X0117451Y0291162D01*
X0117353Y0291034D01*
X0117252Y0290909D01*
X0117148Y0290787D01*
X0117041Y0290667D01*
X0116931Y0290550D01*
X0116818Y0290435D01*
X0116702Y0290324D01*
X0116583Y0290215D01*
X0116462Y0290110D01*
X0116338Y0290007D01*
X0116212Y0289907D01*
X0116084Y0289811D01*
X0115953Y0289718D01*
X0115819Y0289628D01*
X0115684Y0289541D01*
X0115546Y0289458D01*
X0115407Y0289378D01*
X0115265Y0289302D01*
X0115122Y0289229D01*
X0114977Y0289160D01*
X0114830Y0289094D01*
X0114682Y0289032D01*
X0114532Y0288974D01*
X0114381Y0288919D01*
X0114228Y0288868D01*
X0114074Y0288821D01*
X0113919Y0288778D01*
X0113763Y0288739D01*
X0113607Y0288703D01*
X0113449Y0288672D01*
X0113291Y0288644D01*
X0113132Y0288620D01*
X0112972Y0288600D01*
X0112812Y0288584D01*
X0112652Y0288572D01*
X0112491Y0288564D01*
X0112330Y0288560D01*
X0112170Y0288560D01*
X0112009Y0288564D01*
X0111848Y0288572D01*
X0111688Y0288584D01*
X0111528Y0288600D01*
X0111368Y0288620D01*
X0111209Y0288644D01*
X0111051Y0288672D01*
X0110893Y0288703D01*
X0110737Y0288739D01*
X0110581Y0288778D01*
X0110426Y0288821D01*
X0110272Y0288868D01*
X0110119Y0288919D01*
X0109968Y0288974D01*
X0109818Y0289032D01*
X0109670Y0289094D01*
X0109523Y0289160D01*
X0109378Y0289229D01*
X0109235Y0289302D01*
X0109093Y0289378D01*
X0108954Y0289458D01*
X0108816Y0289541D01*
X0108681Y0289628D01*
X0108547Y0289718D01*
X0108416Y0289811D01*
X0108288Y0289907D01*
X0108162Y0290007D01*
X0108038Y0290110D01*
X0107917Y0290215D01*
X0107798Y0290324D01*
X0107682Y0290435D01*
X0107569Y0290550D01*
X0107459Y0290667D01*
X0107352Y0290787D01*
X0107248Y0290909D01*
X0107147Y0291034D01*
X0107049Y0291162D01*
X0106954Y0291292D01*
X0106862Y0291424D01*
X0106774Y0291558D01*
X0106689Y0291695D01*
X0106607Y0291833D01*
X0106529Y0291974D01*
X0106455Y0292116D01*
X0106384Y0292260D01*
X0106316Y0292406D01*
X0106253Y0292554D01*
X0106192Y0292703D01*
X0106136Y0292854D01*
X0106083Y0293006D01*
X0106034Y0293159D01*
X0105989Y0293313D01*
X0105948Y0293468D01*
X0105910Y0293625D01*
X0105877Y0293782D01*
X0105847Y0293940D01*
X0105821Y0294099D01*
X0105800Y0294258D01*
X0105782Y0294418D01*
X0105768Y0294578D01*
X0105758Y0294739D01*
X0105752Y0294899D01*
X0105750Y0295060D01*
X0185750Y0295060D02*
X0185752Y0295221D01*
X0185758Y0295381D01*
X0185768Y0295542D01*
X0185782Y0295702D01*
X0185800Y0295862D01*
X0185821Y0296021D01*
X0185847Y0296180D01*
X0185877Y0296338D01*
X0185910Y0296495D01*
X0185948Y0296652D01*
X0185989Y0296807D01*
X0186034Y0296961D01*
X0186083Y0297114D01*
X0186136Y0297266D01*
X0186192Y0297417D01*
X0186253Y0297566D01*
X0186316Y0297714D01*
X0186384Y0297860D01*
X0186455Y0298004D01*
X0186529Y0298146D01*
X0186607Y0298287D01*
X0186689Y0298425D01*
X0186774Y0298562D01*
X0186862Y0298696D01*
X0186954Y0298828D01*
X0187049Y0298958D01*
X0187147Y0299086D01*
X0187248Y0299211D01*
X0187352Y0299333D01*
X0187459Y0299453D01*
X0187569Y0299570D01*
X0187682Y0299685D01*
X0187798Y0299796D01*
X0187917Y0299905D01*
X0188038Y0300010D01*
X0188162Y0300113D01*
X0188288Y0300213D01*
X0188416Y0300309D01*
X0188547Y0300402D01*
X0188681Y0300492D01*
X0188816Y0300579D01*
X0188954Y0300662D01*
X0189093Y0300742D01*
X0189235Y0300818D01*
X0189378Y0300891D01*
X0189523Y0300960D01*
X0189670Y0301026D01*
X0189818Y0301088D01*
X0189968Y0301146D01*
X0190119Y0301201D01*
X0190272Y0301252D01*
X0190426Y0301299D01*
X0190581Y0301342D01*
X0190737Y0301381D01*
X0190893Y0301417D01*
X0191051Y0301448D01*
X0191209Y0301476D01*
X0191368Y0301500D01*
X0191528Y0301520D01*
X0191688Y0301536D01*
X0191848Y0301548D01*
X0192009Y0301556D01*
X0192170Y0301560D01*
X0192330Y0301560D01*
X0192491Y0301556D01*
X0192652Y0301548D01*
X0192812Y0301536D01*
X0192972Y0301520D01*
X0193132Y0301500D01*
X0193291Y0301476D01*
X0193449Y0301448D01*
X0193607Y0301417D01*
X0193763Y0301381D01*
X0193919Y0301342D01*
X0194074Y0301299D01*
X0194228Y0301252D01*
X0194381Y0301201D01*
X0194532Y0301146D01*
X0194682Y0301088D01*
X0194830Y0301026D01*
X0194977Y0300960D01*
X0195122Y0300891D01*
X0195265Y0300818D01*
X0195407Y0300742D01*
X0195546Y0300662D01*
X0195684Y0300579D01*
X0195819Y0300492D01*
X0195953Y0300402D01*
X0196084Y0300309D01*
X0196212Y0300213D01*
X0196338Y0300113D01*
X0196462Y0300010D01*
X0196583Y0299905D01*
X0196702Y0299796D01*
X0196818Y0299685D01*
X0196931Y0299570D01*
X0197041Y0299453D01*
X0197148Y0299333D01*
X0197252Y0299211D01*
X0197353Y0299086D01*
X0197451Y0298958D01*
X0197546Y0298828D01*
X0197638Y0298696D01*
X0197726Y0298562D01*
X0197811Y0298425D01*
X0197893Y0298287D01*
X0197971Y0298146D01*
X0198045Y0298004D01*
X0198116Y0297860D01*
X0198184Y0297714D01*
X0198247Y0297566D01*
X0198308Y0297417D01*
X0198364Y0297266D01*
X0198417Y0297114D01*
X0198466Y0296961D01*
X0198511Y0296807D01*
X0198552Y0296652D01*
X0198590Y0296495D01*
X0198623Y0296338D01*
X0198653Y0296180D01*
X0198679Y0296021D01*
X0198700Y0295862D01*
X0198718Y0295702D01*
X0198732Y0295542D01*
X0198742Y0295381D01*
X0198748Y0295221D01*
X0198750Y0295060D01*
X0198748Y0294899D01*
X0198742Y0294739D01*
X0198732Y0294578D01*
X0198718Y0294418D01*
X0198700Y0294258D01*
X0198679Y0294099D01*
X0198653Y0293940D01*
X0198623Y0293782D01*
X0198590Y0293625D01*
X0198552Y0293468D01*
X0198511Y0293313D01*
X0198466Y0293159D01*
X0198417Y0293006D01*
X0198364Y0292854D01*
X0198308Y0292703D01*
X0198247Y0292554D01*
X0198184Y0292406D01*
X0198116Y0292260D01*
X0198045Y0292116D01*
X0197971Y0291974D01*
X0197893Y0291833D01*
X0197811Y0291695D01*
X0197726Y0291558D01*
X0197638Y0291424D01*
X0197546Y0291292D01*
X0197451Y0291162D01*
X0197353Y0291034D01*
X0197252Y0290909D01*
X0197148Y0290787D01*
X0197041Y0290667D01*
X0196931Y0290550D01*
X0196818Y0290435D01*
X0196702Y0290324D01*
X0196583Y0290215D01*
X0196462Y0290110D01*
X0196338Y0290007D01*
X0196212Y0289907D01*
X0196084Y0289811D01*
X0195953Y0289718D01*
X0195819Y0289628D01*
X0195684Y0289541D01*
X0195546Y0289458D01*
X0195407Y0289378D01*
X0195265Y0289302D01*
X0195122Y0289229D01*
X0194977Y0289160D01*
X0194830Y0289094D01*
X0194682Y0289032D01*
X0194532Y0288974D01*
X0194381Y0288919D01*
X0194228Y0288868D01*
X0194074Y0288821D01*
X0193919Y0288778D01*
X0193763Y0288739D01*
X0193607Y0288703D01*
X0193449Y0288672D01*
X0193291Y0288644D01*
X0193132Y0288620D01*
X0192972Y0288600D01*
X0192812Y0288584D01*
X0192652Y0288572D01*
X0192491Y0288564D01*
X0192330Y0288560D01*
X0192170Y0288560D01*
X0192009Y0288564D01*
X0191848Y0288572D01*
X0191688Y0288584D01*
X0191528Y0288600D01*
X0191368Y0288620D01*
X0191209Y0288644D01*
X0191051Y0288672D01*
X0190893Y0288703D01*
X0190737Y0288739D01*
X0190581Y0288778D01*
X0190426Y0288821D01*
X0190272Y0288868D01*
X0190119Y0288919D01*
X0189968Y0288974D01*
X0189818Y0289032D01*
X0189670Y0289094D01*
X0189523Y0289160D01*
X0189378Y0289229D01*
X0189235Y0289302D01*
X0189093Y0289378D01*
X0188954Y0289458D01*
X0188816Y0289541D01*
X0188681Y0289628D01*
X0188547Y0289718D01*
X0188416Y0289811D01*
X0188288Y0289907D01*
X0188162Y0290007D01*
X0188038Y0290110D01*
X0187917Y0290215D01*
X0187798Y0290324D01*
X0187682Y0290435D01*
X0187569Y0290550D01*
X0187459Y0290667D01*
X0187352Y0290787D01*
X0187248Y0290909D01*
X0187147Y0291034D01*
X0187049Y0291162D01*
X0186954Y0291292D01*
X0186862Y0291424D01*
X0186774Y0291558D01*
X0186689Y0291695D01*
X0186607Y0291833D01*
X0186529Y0291974D01*
X0186455Y0292116D01*
X0186384Y0292260D01*
X0186316Y0292406D01*
X0186253Y0292554D01*
X0186192Y0292703D01*
X0186136Y0292854D01*
X0186083Y0293006D01*
X0186034Y0293159D01*
X0185989Y0293313D01*
X0185948Y0293468D01*
X0185910Y0293625D01*
X0185877Y0293782D01*
X0185847Y0293940D01*
X0185821Y0294099D01*
X0185800Y0294258D01*
X0185782Y0294418D01*
X0185768Y0294578D01*
X0185758Y0294739D01*
X0185752Y0294899D01*
X0185750Y0295060D01*
X0205750Y0295060D02*
X0205752Y0295221D01*
X0205758Y0295381D01*
X0205768Y0295542D01*
X0205782Y0295702D01*
X0205800Y0295862D01*
X0205821Y0296021D01*
X0205847Y0296180D01*
X0205877Y0296338D01*
X0205910Y0296495D01*
X0205948Y0296652D01*
X0205989Y0296807D01*
X0206034Y0296961D01*
X0206083Y0297114D01*
X0206136Y0297266D01*
X0206192Y0297417D01*
X0206253Y0297566D01*
X0206316Y0297714D01*
X0206384Y0297860D01*
X0206455Y0298004D01*
X0206529Y0298146D01*
X0206607Y0298287D01*
X0206689Y0298425D01*
X0206774Y0298562D01*
X0206862Y0298696D01*
X0206954Y0298828D01*
X0207049Y0298958D01*
X0207147Y0299086D01*
X0207248Y0299211D01*
X0207352Y0299333D01*
X0207459Y0299453D01*
X0207569Y0299570D01*
X0207682Y0299685D01*
X0207798Y0299796D01*
X0207917Y0299905D01*
X0208038Y0300010D01*
X0208162Y0300113D01*
X0208288Y0300213D01*
X0208416Y0300309D01*
X0208547Y0300402D01*
X0208681Y0300492D01*
X0208816Y0300579D01*
X0208954Y0300662D01*
X0209093Y0300742D01*
X0209235Y0300818D01*
X0209378Y0300891D01*
X0209523Y0300960D01*
X0209670Y0301026D01*
X0209818Y0301088D01*
X0209968Y0301146D01*
X0210119Y0301201D01*
X0210272Y0301252D01*
X0210426Y0301299D01*
X0210581Y0301342D01*
X0210737Y0301381D01*
X0210893Y0301417D01*
X0211051Y0301448D01*
X0211209Y0301476D01*
X0211368Y0301500D01*
X0211528Y0301520D01*
X0211688Y0301536D01*
X0211848Y0301548D01*
X0212009Y0301556D01*
X0212170Y0301560D01*
X0212330Y0301560D01*
X0212491Y0301556D01*
X0212652Y0301548D01*
X0212812Y0301536D01*
X0212972Y0301520D01*
X0213132Y0301500D01*
X0213291Y0301476D01*
X0213449Y0301448D01*
X0213607Y0301417D01*
X0213763Y0301381D01*
X0213919Y0301342D01*
X0214074Y0301299D01*
X0214228Y0301252D01*
X0214381Y0301201D01*
X0214532Y0301146D01*
X0214682Y0301088D01*
X0214830Y0301026D01*
X0214977Y0300960D01*
X0215122Y0300891D01*
X0215265Y0300818D01*
X0215407Y0300742D01*
X0215546Y0300662D01*
X0215684Y0300579D01*
X0215819Y0300492D01*
X0215953Y0300402D01*
X0216084Y0300309D01*
X0216212Y0300213D01*
X0216338Y0300113D01*
X0216462Y0300010D01*
X0216583Y0299905D01*
X0216702Y0299796D01*
X0216818Y0299685D01*
X0216931Y0299570D01*
X0217041Y0299453D01*
X0217148Y0299333D01*
X0217252Y0299211D01*
X0217353Y0299086D01*
X0217451Y0298958D01*
X0217546Y0298828D01*
X0217638Y0298696D01*
X0217726Y0298562D01*
X0217811Y0298425D01*
X0217893Y0298287D01*
X0217971Y0298146D01*
X0218045Y0298004D01*
X0218116Y0297860D01*
X0218184Y0297714D01*
X0218247Y0297566D01*
X0218308Y0297417D01*
X0218364Y0297266D01*
X0218417Y0297114D01*
X0218466Y0296961D01*
X0218511Y0296807D01*
X0218552Y0296652D01*
X0218590Y0296495D01*
X0218623Y0296338D01*
X0218653Y0296180D01*
X0218679Y0296021D01*
X0218700Y0295862D01*
X0218718Y0295702D01*
X0218732Y0295542D01*
X0218742Y0295381D01*
X0218748Y0295221D01*
X0218750Y0295060D01*
X0218748Y0294899D01*
X0218742Y0294739D01*
X0218732Y0294578D01*
X0218718Y0294418D01*
X0218700Y0294258D01*
X0218679Y0294099D01*
X0218653Y0293940D01*
X0218623Y0293782D01*
X0218590Y0293625D01*
X0218552Y0293468D01*
X0218511Y0293313D01*
X0218466Y0293159D01*
X0218417Y0293006D01*
X0218364Y0292854D01*
X0218308Y0292703D01*
X0218247Y0292554D01*
X0218184Y0292406D01*
X0218116Y0292260D01*
X0218045Y0292116D01*
X0217971Y0291974D01*
X0217893Y0291833D01*
X0217811Y0291695D01*
X0217726Y0291558D01*
X0217638Y0291424D01*
X0217546Y0291292D01*
X0217451Y0291162D01*
X0217353Y0291034D01*
X0217252Y0290909D01*
X0217148Y0290787D01*
X0217041Y0290667D01*
X0216931Y0290550D01*
X0216818Y0290435D01*
X0216702Y0290324D01*
X0216583Y0290215D01*
X0216462Y0290110D01*
X0216338Y0290007D01*
X0216212Y0289907D01*
X0216084Y0289811D01*
X0215953Y0289718D01*
X0215819Y0289628D01*
X0215684Y0289541D01*
X0215546Y0289458D01*
X0215407Y0289378D01*
X0215265Y0289302D01*
X0215122Y0289229D01*
X0214977Y0289160D01*
X0214830Y0289094D01*
X0214682Y0289032D01*
X0214532Y0288974D01*
X0214381Y0288919D01*
X0214228Y0288868D01*
X0214074Y0288821D01*
X0213919Y0288778D01*
X0213763Y0288739D01*
X0213607Y0288703D01*
X0213449Y0288672D01*
X0213291Y0288644D01*
X0213132Y0288620D01*
X0212972Y0288600D01*
X0212812Y0288584D01*
X0212652Y0288572D01*
X0212491Y0288564D01*
X0212330Y0288560D01*
X0212170Y0288560D01*
X0212009Y0288564D01*
X0211848Y0288572D01*
X0211688Y0288584D01*
X0211528Y0288600D01*
X0211368Y0288620D01*
X0211209Y0288644D01*
X0211051Y0288672D01*
X0210893Y0288703D01*
X0210737Y0288739D01*
X0210581Y0288778D01*
X0210426Y0288821D01*
X0210272Y0288868D01*
X0210119Y0288919D01*
X0209968Y0288974D01*
X0209818Y0289032D01*
X0209670Y0289094D01*
X0209523Y0289160D01*
X0209378Y0289229D01*
X0209235Y0289302D01*
X0209093Y0289378D01*
X0208954Y0289458D01*
X0208816Y0289541D01*
X0208681Y0289628D01*
X0208547Y0289718D01*
X0208416Y0289811D01*
X0208288Y0289907D01*
X0208162Y0290007D01*
X0208038Y0290110D01*
X0207917Y0290215D01*
X0207798Y0290324D01*
X0207682Y0290435D01*
X0207569Y0290550D01*
X0207459Y0290667D01*
X0207352Y0290787D01*
X0207248Y0290909D01*
X0207147Y0291034D01*
X0207049Y0291162D01*
X0206954Y0291292D01*
X0206862Y0291424D01*
X0206774Y0291558D01*
X0206689Y0291695D01*
X0206607Y0291833D01*
X0206529Y0291974D01*
X0206455Y0292116D01*
X0206384Y0292260D01*
X0206316Y0292406D01*
X0206253Y0292554D01*
X0206192Y0292703D01*
X0206136Y0292854D01*
X0206083Y0293006D01*
X0206034Y0293159D01*
X0205989Y0293313D01*
X0205948Y0293468D01*
X0205910Y0293625D01*
X0205877Y0293782D01*
X0205847Y0293940D01*
X0205821Y0294099D01*
X0205800Y0294258D01*
X0205782Y0294418D01*
X0205768Y0294578D01*
X0205758Y0294739D01*
X0205752Y0294899D01*
X0205750Y0295060D01*
X0285750Y0295060D02*
X0285752Y0295221D01*
X0285758Y0295381D01*
X0285768Y0295542D01*
X0285782Y0295702D01*
X0285800Y0295862D01*
X0285821Y0296021D01*
X0285847Y0296180D01*
X0285877Y0296338D01*
X0285910Y0296495D01*
X0285948Y0296652D01*
X0285989Y0296807D01*
X0286034Y0296961D01*
X0286083Y0297114D01*
X0286136Y0297266D01*
X0286192Y0297417D01*
X0286253Y0297566D01*
X0286316Y0297714D01*
X0286384Y0297860D01*
X0286455Y0298004D01*
X0286529Y0298146D01*
X0286607Y0298287D01*
X0286689Y0298425D01*
X0286774Y0298562D01*
X0286862Y0298696D01*
X0286954Y0298828D01*
X0287049Y0298958D01*
X0287147Y0299086D01*
X0287248Y0299211D01*
X0287352Y0299333D01*
X0287459Y0299453D01*
X0287569Y0299570D01*
X0287682Y0299685D01*
X0287798Y0299796D01*
X0287917Y0299905D01*
X0288038Y0300010D01*
X0288162Y0300113D01*
X0288288Y0300213D01*
X0288416Y0300309D01*
X0288547Y0300402D01*
X0288681Y0300492D01*
X0288816Y0300579D01*
X0288954Y0300662D01*
X0289093Y0300742D01*
X0289235Y0300818D01*
X0289378Y0300891D01*
X0289523Y0300960D01*
X0289670Y0301026D01*
X0289818Y0301088D01*
X0289968Y0301146D01*
X0290119Y0301201D01*
X0290272Y0301252D01*
X0290426Y0301299D01*
X0290581Y0301342D01*
X0290737Y0301381D01*
X0290893Y0301417D01*
X0291051Y0301448D01*
X0291209Y0301476D01*
X0291368Y0301500D01*
X0291528Y0301520D01*
X0291688Y0301536D01*
X0291848Y0301548D01*
X0292009Y0301556D01*
X0292170Y0301560D01*
X0292330Y0301560D01*
X0292491Y0301556D01*
X0292652Y0301548D01*
X0292812Y0301536D01*
X0292972Y0301520D01*
X0293132Y0301500D01*
X0293291Y0301476D01*
X0293449Y0301448D01*
X0293607Y0301417D01*
X0293763Y0301381D01*
X0293919Y0301342D01*
X0294074Y0301299D01*
X0294228Y0301252D01*
X0294381Y0301201D01*
X0294532Y0301146D01*
X0294682Y0301088D01*
X0294830Y0301026D01*
X0294977Y0300960D01*
X0295122Y0300891D01*
X0295265Y0300818D01*
X0295407Y0300742D01*
X0295546Y0300662D01*
X0295684Y0300579D01*
X0295819Y0300492D01*
X0295953Y0300402D01*
X0296084Y0300309D01*
X0296212Y0300213D01*
X0296338Y0300113D01*
X0296462Y0300010D01*
X0296583Y0299905D01*
X0296702Y0299796D01*
X0296818Y0299685D01*
X0296931Y0299570D01*
X0297041Y0299453D01*
X0297148Y0299333D01*
X0297252Y0299211D01*
X0297353Y0299086D01*
X0297451Y0298958D01*
X0297546Y0298828D01*
X0297638Y0298696D01*
X0297726Y0298562D01*
X0297811Y0298425D01*
X0297893Y0298287D01*
X0297971Y0298146D01*
X0298045Y0298004D01*
X0298116Y0297860D01*
X0298184Y0297714D01*
X0298247Y0297566D01*
X0298308Y0297417D01*
X0298364Y0297266D01*
X0298417Y0297114D01*
X0298466Y0296961D01*
X0298511Y0296807D01*
X0298552Y0296652D01*
X0298590Y0296495D01*
X0298623Y0296338D01*
X0298653Y0296180D01*
X0298679Y0296021D01*
X0298700Y0295862D01*
X0298718Y0295702D01*
X0298732Y0295542D01*
X0298742Y0295381D01*
X0298748Y0295221D01*
X0298750Y0295060D01*
X0298748Y0294899D01*
X0298742Y0294739D01*
X0298732Y0294578D01*
X0298718Y0294418D01*
X0298700Y0294258D01*
X0298679Y0294099D01*
X0298653Y0293940D01*
X0298623Y0293782D01*
X0298590Y0293625D01*
X0298552Y0293468D01*
X0298511Y0293313D01*
X0298466Y0293159D01*
X0298417Y0293006D01*
X0298364Y0292854D01*
X0298308Y0292703D01*
X0298247Y0292554D01*
X0298184Y0292406D01*
X0298116Y0292260D01*
X0298045Y0292116D01*
X0297971Y0291974D01*
X0297893Y0291833D01*
X0297811Y0291695D01*
X0297726Y0291558D01*
X0297638Y0291424D01*
X0297546Y0291292D01*
X0297451Y0291162D01*
X0297353Y0291034D01*
X0297252Y0290909D01*
X0297148Y0290787D01*
X0297041Y0290667D01*
X0296931Y0290550D01*
X0296818Y0290435D01*
X0296702Y0290324D01*
X0296583Y0290215D01*
X0296462Y0290110D01*
X0296338Y0290007D01*
X0296212Y0289907D01*
X0296084Y0289811D01*
X0295953Y0289718D01*
X0295819Y0289628D01*
X0295684Y0289541D01*
X0295546Y0289458D01*
X0295407Y0289378D01*
X0295265Y0289302D01*
X0295122Y0289229D01*
X0294977Y0289160D01*
X0294830Y0289094D01*
X0294682Y0289032D01*
X0294532Y0288974D01*
X0294381Y0288919D01*
X0294228Y0288868D01*
X0294074Y0288821D01*
X0293919Y0288778D01*
X0293763Y0288739D01*
X0293607Y0288703D01*
X0293449Y0288672D01*
X0293291Y0288644D01*
X0293132Y0288620D01*
X0292972Y0288600D01*
X0292812Y0288584D01*
X0292652Y0288572D01*
X0292491Y0288564D01*
X0292330Y0288560D01*
X0292170Y0288560D01*
X0292009Y0288564D01*
X0291848Y0288572D01*
X0291688Y0288584D01*
X0291528Y0288600D01*
X0291368Y0288620D01*
X0291209Y0288644D01*
X0291051Y0288672D01*
X0290893Y0288703D01*
X0290737Y0288739D01*
X0290581Y0288778D01*
X0290426Y0288821D01*
X0290272Y0288868D01*
X0290119Y0288919D01*
X0289968Y0288974D01*
X0289818Y0289032D01*
X0289670Y0289094D01*
X0289523Y0289160D01*
X0289378Y0289229D01*
X0289235Y0289302D01*
X0289093Y0289378D01*
X0288954Y0289458D01*
X0288816Y0289541D01*
X0288681Y0289628D01*
X0288547Y0289718D01*
X0288416Y0289811D01*
X0288288Y0289907D01*
X0288162Y0290007D01*
X0288038Y0290110D01*
X0287917Y0290215D01*
X0287798Y0290324D01*
X0287682Y0290435D01*
X0287569Y0290550D01*
X0287459Y0290667D01*
X0287352Y0290787D01*
X0287248Y0290909D01*
X0287147Y0291034D01*
X0287049Y0291162D01*
X0286954Y0291292D01*
X0286862Y0291424D01*
X0286774Y0291558D01*
X0286689Y0291695D01*
X0286607Y0291833D01*
X0286529Y0291974D01*
X0286455Y0292116D01*
X0286384Y0292260D01*
X0286316Y0292406D01*
X0286253Y0292554D01*
X0286192Y0292703D01*
X0286136Y0292854D01*
X0286083Y0293006D01*
X0286034Y0293159D01*
X0285989Y0293313D01*
X0285948Y0293468D01*
X0285910Y0293625D01*
X0285877Y0293782D01*
X0285847Y0293940D01*
X0285821Y0294099D01*
X0285800Y0294258D01*
X0285782Y0294418D01*
X0285768Y0294578D01*
X0285758Y0294739D01*
X0285752Y0294899D01*
X0285750Y0295060D01*
M02*
