%
M48
M72
T01C0.0150
T02C0.0200
T03C0.0320
T04C0.0400
T05C0.1300
%
T01
X4675Y3006
X5225Y2506
X4675Y4006
X5875Y4156
X6325Y4606
X7225Y2506
X8725Y4506
X9725Y5506
X9475Y6006
X10725Y5506
X8975Y7756
X8225Y6506
X6825Y6606
X6225Y6856
X6775Y8006
X5375Y8306
X3975Y9206
X3725Y6756
X3725Y6006
X3225Y5206
X725Y5506
X5225Y12506
X4675Y13006
X4675Y14006
X5875Y14156
X6325Y14606
X7225Y12506
X8725Y14506
X9725Y15506
X9475Y16006
X10725Y15506
X8975Y17756
X8225Y16506
X6825Y16606
X6225Y16856
X6775Y18006
X5375Y18306
X3975Y19206
X3725Y16756
X3725Y16006
X3225Y15206
X725Y15506
X5225Y22506
X4675Y23006
X4675Y24006
X5875Y24156
X6325Y24606
X7225Y22506
X8725Y24506
X9725Y25506
X9475Y26006
X10725Y25506
X13225Y25206
X13725Y26006
X13725Y26756
X15375Y28306
X16225Y26856
X16825Y26606
X16775Y28006
X18225Y26506
X19475Y26006
X19725Y25506
X18725Y24506
X17225Y22506
X15875Y24156
X16325Y24606
X14675Y24006
X14675Y23006
X15225Y22506
X13975Y19206
X15375Y18306
X16225Y16856
X16825Y16606
X16775Y18006
X18225Y16506
X19475Y16006
X19725Y15506
X18725Y14506
X17225Y12506
X15875Y14156
X16325Y14606
X14675Y14006
X14675Y13006
X15225Y12506
X13225Y15206
X13725Y16006
X13725Y16756
X18975Y17756
X20725Y15506
X23225Y15206
X23725Y16006
X23725Y16756
X25375Y18306
X26775Y18006
X26225Y16856
X26825Y16606
X28225Y16506
X29475Y16006
X29725Y15506
X28725Y14506
X27225Y12506
X25875Y14156
X26325Y14606
X24675Y14006
X24675Y13006
X25225Y12506
X23975Y9206
X25375Y8306
X26775Y8006
X26225Y6856
X26825Y6606
X28225Y6506
X29475Y6006
X29725Y5506
X28725Y4506
X27225Y2506
X25875Y4156
X26325Y4606
X24675Y4006
X24675Y3006
X25225Y2506
X23225Y5206
X23725Y6006
X23725Y6756
X20725Y5506
X19725Y5506
X19475Y6006
X18225Y6506
X16825Y6606
X16225Y6856
X16775Y8006
X15375Y8306
X13975Y9206
X13725Y6756
X13725Y6006
X13225Y5206
X14675Y4006
X14675Y3006
X15225Y2506
X15875Y4156
X16325Y4606
X17225Y2506
X18725Y4506
X18975Y7756
X28975Y7756
X28975Y17756
X27225Y22506
X25875Y24156
X26325Y24606
X24675Y24006
X24675Y23006
X25225Y22506
X23225Y25206
X23725Y26006
X23725Y26756
X25375Y28306
X26775Y28006
X26225Y26856
X26825Y26606
X28225Y26506
X29475Y26006
X29725Y25506
X28725Y24506
X28975Y27756
X23975Y29206
X20725Y25506
X18975Y27756
X13975Y29206
X8975Y27756
X8225Y26506
X6825Y26606
X6225Y26856
X6775Y28006
X5375Y28306
X3975Y29206
X3725Y26756
X3725Y26006
X3225Y25206
X725Y25506
X23975Y19206
T02
X24725Y19006
X25725Y19006
X25725Y18006
X24725Y18006
X24725Y17006
X25725Y17006
X25725Y9006
X24725Y9006
X24725Y8006
X25725Y8006
X25725Y7006
X24725Y7006
X15725Y7006
X15725Y8006
X15725Y9006
X14725Y9006
X14725Y8006
X14725Y7006
X5725Y7006
X5725Y8006
X5725Y9006
X4725Y9006
X4725Y8006
X4725Y7006
X4725Y17006
X4725Y18006
X5725Y18006
X5725Y17006
X5725Y19006
X4725Y19006
X4725Y27006
X4725Y28006
X5725Y28006
X5725Y27006
X5725Y29006
X4725Y29006
X14725Y29006
X15725Y29006
X15725Y28006
X14725Y28006
X14725Y27006
X15725Y27006
X15725Y19006
X14725Y19006
X14725Y18006
X15725Y18006
X15725Y17006
X14725Y17006
X24725Y27006
X24725Y28006
X25725Y28006
X25725Y27006
X25725Y29006
X24725Y29006
T03
X28475Y27306
X29475Y27306
X29475Y17306
X28475Y17306
X19475Y17306
X18475Y17306
X9475Y17306
X8475Y17306
X8475Y27306
X9475Y27306
X18475Y27306
X19475Y27306
X19475Y7306
X18475Y7306
X9475Y7306
X8475Y7306
X28475Y7306
X29475Y7306
T04
X2725Y1006
X3725Y1006
X4725Y1006
X5725Y1006
X6725Y1006
X7725Y1006
X12725Y1006
X13725Y1006
X14725Y1006
X15725Y1006
X16725Y1006
X17725Y1006
X22725Y1006
X23725Y1006
X24725Y1006
X25725Y1006
X26725Y1006
X27725Y1006
X27725Y10006
X27725Y11006
X26725Y11006
X25725Y11006
X24725Y11006
X24725Y10006
X25725Y10006
X26725Y10006
X23725Y10006
X23725Y11006
X22725Y11006
X22725Y10006
X17725Y10006
X17725Y11006
X16725Y11006
X15725Y11006
X14725Y11006
X13725Y11006
X13725Y10006
X14725Y10006
X15725Y10006
X16725Y10006
X12725Y10006
X12725Y11006
X7725Y11006
X6725Y11006
X6725Y10006
X7725Y10006
X5725Y10006
X5725Y11006
X4725Y11006
X3725Y11006
X3725Y10006
X4725Y10006
X2725Y10006
X2725Y11006
X2725Y20006
X2725Y21006
X3725Y21006
X4725Y21006
X5725Y21006
X5725Y20006
X4725Y20006
X3725Y20006
X6725Y20006
X6725Y21006
X7725Y21006
X7725Y20006
X12725Y20006
X12725Y21006
X13725Y21006
X14725Y21006
X15725Y21006
X16725Y21006
X16725Y20006
X15725Y20006
X14725Y20006
X13725Y20006
X17725Y20006
X17725Y21006
X22725Y21006
X23725Y21006
X23725Y20006
X22725Y20006
X24725Y20006
X24725Y21006
X25725Y21006
X26725Y21006
X26725Y20006
X25725Y20006
X27725Y20006
X27725Y21006
X27725Y30006
X26725Y30006
X25725Y30006
X24725Y30006
X23725Y30006
X22725Y30006
X17725Y30006
X16725Y30006
X15725Y30006
X14725Y30006
X13725Y30006
X12725Y30006
X7725Y30006
X6725Y30006
X5725Y30006
X4725Y30006
X3725Y30006
X2725Y30006
T05
X1225Y29506
X9225Y29506
X11225Y29506
X19225Y29506
X21225Y29506
X29225Y29506
X29225Y19506
X21225Y19506
X19225Y19506
X11225Y19506
X9225Y19506
X1225Y19506
X1225Y9506
X9225Y9506
X11225Y9506
X19225Y9506
X21225Y9506
X29225Y9506
M30
