G75*
%MOIN*%
%OFA0B0*%
%FSLAX25Y25*%
%IPPOS*%
%LPD*%
%AMOC8*
5,1,8,0,0,1.08239X$1,22.5*
%
%ADD10C,0.00800*%
%ADD11C,0.01100*%
%ADD12C,0.00000*%
D10*
X0073333Y0038333D02*
X0173333Y0038333D01*
X0173333Y0138333D01*
X0073333Y0138333D01*
X0073333Y0038333D01*
X0175333Y0038333D02*
X0275333Y0038333D01*
X0275333Y0138333D01*
X0175333Y0138333D01*
X0175333Y0038333D01*
X0174333Y0017333D02*
X0174333Y0368333D01*
X0173333Y0342333D02*
X0173333Y0242333D01*
X0073333Y0242333D01*
X0073333Y0342333D01*
X0173333Y0342333D01*
X0175333Y0342333D02*
X0275333Y0342333D01*
X0275333Y0242333D01*
X0175333Y0242333D01*
X0175333Y0342333D01*
X0277333Y0342333D02*
X0377333Y0342333D01*
X0377333Y0242333D01*
X0277333Y0242333D01*
X0277333Y0342333D01*
X0276333Y0367333D02*
X0276333Y0016333D01*
X0277333Y0038333D02*
X0377333Y0038333D01*
X0377333Y0138333D01*
X0277333Y0138333D01*
X0277333Y0038333D01*
X0277333Y0140333D02*
X0377333Y0140333D01*
X0377333Y0240333D01*
X0277333Y0240333D01*
X0277333Y0140333D01*
X0275333Y0140333D02*
X0175333Y0140333D01*
X0175333Y0240333D01*
X0275333Y0240333D01*
X0275333Y0140333D01*
X0173333Y0140333D02*
X0073333Y0140333D01*
X0073333Y0240333D01*
X0173333Y0240333D01*
X0173333Y0140333D01*
X0046333Y0139333D02*
X0402333Y0139333D01*
X0400333Y0241333D02*
X0044333Y0241333D01*
D11*
X0038973Y0240852D02*
X0035037Y0240852D01*
X0035037Y0241836D02*
X0036021Y0242820D01*
X0037989Y0242820D01*
X0038973Y0241836D01*
X0038973Y0240852D01*
X0037989Y0238883D02*
X0036021Y0238883D01*
X0035037Y0239867D01*
X0035037Y0241836D01*
X0032618Y0242820D02*
X0031634Y0242820D01*
X0029665Y0240852D01*
X0029665Y0242820D02*
X0029665Y0238883D01*
X0027157Y0239867D02*
X0027157Y0241836D01*
X0026172Y0242820D01*
X0024204Y0242820D01*
X0023220Y0241836D01*
X0023220Y0239867D01*
X0024204Y0238883D01*
X0026172Y0238883D01*
X0027157Y0239867D01*
X0020711Y0238883D02*
X0017758Y0238883D01*
X0016774Y0239867D01*
X0016774Y0241836D01*
X0017758Y0242820D01*
X0020711Y0242820D01*
X0014266Y0242820D02*
X0011313Y0242820D01*
X0010329Y0241836D01*
X0011313Y0240852D01*
X0013281Y0240852D01*
X0014266Y0239867D01*
X0013281Y0238883D01*
X0010329Y0238883D01*
X0005852Y0238883D02*
X0007820Y0242820D01*
X0003883Y0242820D02*
X0005852Y0238883D01*
X0007820Y0142820D02*
X0005852Y0138883D01*
X0003883Y0142820D01*
X0010329Y0141836D02*
X0011313Y0142820D01*
X0014266Y0142820D01*
X0013281Y0140852D02*
X0011313Y0140852D01*
X0010329Y0141836D01*
X0010329Y0138883D02*
X0013281Y0138883D01*
X0014266Y0139867D01*
X0013281Y0140852D01*
X0016774Y0141836D02*
X0016774Y0139867D01*
X0017758Y0138883D01*
X0020711Y0138883D01*
X0023220Y0139867D02*
X0024204Y0138883D01*
X0026172Y0138883D01*
X0027157Y0139867D01*
X0027157Y0141836D01*
X0026172Y0142820D01*
X0024204Y0142820D01*
X0023220Y0141836D01*
X0023220Y0139867D01*
X0020711Y0142820D02*
X0017758Y0142820D01*
X0016774Y0141836D01*
X0029665Y0142820D02*
X0029665Y0138883D01*
X0029665Y0140852D02*
X0031634Y0142820D01*
X0032618Y0142820D01*
X0035037Y0141836D02*
X0036021Y0142820D01*
X0037989Y0142820D01*
X0038973Y0141836D01*
X0038973Y0140852D01*
X0035037Y0140852D01*
X0035037Y0141836D02*
X0035037Y0139867D01*
X0036021Y0138883D01*
X0037989Y0138883D01*
X0153883Y0007820D02*
X0155852Y0003883D01*
X0157820Y0007820D01*
X0160329Y0006836D02*
X0161313Y0007820D01*
X0164266Y0007820D01*
X0163281Y0005852D02*
X0161313Y0005852D01*
X0160329Y0006836D01*
X0160329Y0003883D02*
X0163281Y0003883D01*
X0164266Y0004867D01*
X0163281Y0005852D01*
X0166774Y0006836D02*
X0167758Y0007820D01*
X0170711Y0007820D01*
X0173220Y0006836D02*
X0173220Y0004867D01*
X0174204Y0003883D01*
X0176172Y0003883D01*
X0177157Y0004867D01*
X0177157Y0006836D01*
X0176172Y0007820D01*
X0174204Y0007820D01*
X0173220Y0006836D01*
X0170711Y0003883D02*
X0167758Y0003883D01*
X0166774Y0004867D01*
X0166774Y0006836D01*
X0179665Y0007820D02*
X0179665Y0003883D01*
X0179665Y0005852D02*
X0181634Y0007820D01*
X0182618Y0007820D01*
X0185037Y0006836D02*
X0186021Y0007820D01*
X0187989Y0007820D01*
X0188973Y0006836D01*
X0188973Y0005852D01*
X0185037Y0005852D01*
X0185037Y0006836D02*
X0185037Y0004867D01*
X0186021Y0003883D01*
X0187989Y0003883D01*
X0258883Y0007820D02*
X0260852Y0003883D01*
X0262820Y0007820D01*
X0265329Y0006836D02*
X0266313Y0007820D01*
X0269266Y0007820D01*
X0268281Y0005852D02*
X0266313Y0005852D01*
X0265329Y0006836D01*
X0265329Y0003883D02*
X0268281Y0003883D01*
X0269266Y0004867D01*
X0268281Y0005852D01*
X0271774Y0006836D02*
X0272758Y0007820D01*
X0275711Y0007820D01*
X0278220Y0006836D02*
X0278220Y0004867D01*
X0279204Y0003883D01*
X0281172Y0003883D01*
X0282157Y0004867D01*
X0282157Y0006836D01*
X0281172Y0007820D01*
X0279204Y0007820D01*
X0278220Y0006836D01*
X0275711Y0003883D02*
X0272758Y0003883D01*
X0271774Y0004867D01*
X0271774Y0006836D01*
X0284665Y0007820D02*
X0284665Y0003883D01*
X0284665Y0005852D02*
X0286634Y0007820D01*
X0287618Y0007820D01*
X0290037Y0006836D02*
X0291021Y0007820D01*
X0292989Y0007820D01*
X0293973Y0006836D01*
X0293973Y0005852D01*
X0290037Y0005852D01*
X0290037Y0006836D02*
X0290037Y0004867D01*
X0291021Y0003883D01*
X0292989Y0003883D01*
D12*
X0280833Y0128333D02*
X0280835Y0128494D01*
X0280841Y0128654D01*
X0280851Y0128815D01*
X0280865Y0128975D01*
X0280883Y0129135D01*
X0280904Y0129294D01*
X0280930Y0129453D01*
X0280960Y0129611D01*
X0280993Y0129768D01*
X0281031Y0129925D01*
X0281072Y0130080D01*
X0281117Y0130234D01*
X0281166Y0130387D01*
X0281219Y0130539D01*
X0281275Y0130690D01*
X0281336Y0130839D01*
X0281399Y0130987D01*
X0281467Y0131133D01*
X0281538Y0131277D01*
X0281612Y0131419D01*
X0281690Y0131560D01*
X0281772Y0131698D01*
X0281857Y0131835D01*
X0281945Y0131969D01*
X0282037Y0132101D01*
X0282132Y0132231D01*
X0282230Y0132359D01*
X0282331Y0132484D01*
X0282435Y0132606D01*
X0282542Y0132726D01*
X0282652Y0132843D01*
X0282765Y0132958D01*
X0282881Y0133069D01*
X0283000Y0133178D01*
X0283121Y0133283D01*
X0283245Y0133386D01*
X0283371Y0133486D01*
X0283499Y0133582D01*
X0283630Y0133675D01*
X0283764Y0133765D01*
X0283899Y0133852D01*
X0284037Y0133935D01*
X0284176Y0134015D01*
X0284318Y0134091D01*
X0284461Y0134164D01*
X0284606Y0134233D01*
X0284753Y0134299D01*
X0284901Y0134361D01*
X0285051Y0134419D01*
X0285202Y0134474D01*
X0285355Y0134525D01*
X0285509Y0134572D01*
X0285664Y0134615D01*
X0285820Y0134654D01*
X0285976Y0134690D01*
X0286134Y0134721D01*
X0286292Y0134749D01*
X0286451Y0134773D01*
X0286611Y0134793D01*
X0286771Y0134809D01*
X0286931Y0134821D01*
X0287092Y0134829D01*
X0287253Y0134833D01*
X0287413Y0134833D01*
X0287574Y0134829D01*
X0287735Y0134821D01*
X0287895Y0134809D01*
X0288055Y0134793D01*
X0288215Y0134773D01*
X0288374Y0134749D01*
X0288532Y0134721D01*
X0288690Y0134690D01*
X0288846Y0134654D01*
X0289002Y0134615D01*
X0289157Y0134572D01*
X0289311Y0134525D01*
X0289464Y0134474D01*
X0289615Y0134419D01*
X0289765Y0134361D01*
X0289913Y0134299D01*
X0290060Y0134233D01*
X0290205Y0134164D01*
X0290348Y0134091D01*
X0290490Y0134015D01*
X0290629Y0133935D01*
X0290767Y0133852D01*
X0290902Y0133765D01*
X0291036Y0133675D01*
X0291167Y0133582D01*
X0291295Y0133486D01*
X0291421Y0133386D01*
X0291545Y0133283D01*
X0291666Y0133178D01*
X0291785Y0133069D01*
X0291901Y0132958D01*
X0292014Y0132843D01*
X0292124Y0132726D01*
X0292231Y0132606D01*
X0292335Y0132484D01*
X0292436Y0132359D01*
X0292534Y0132231D01*
X0292629Y0132101D01*
X0292721Y0131969D01*
X0292809Y0131835D01*
X0292894Y0131698D01*
X0292976Y0131560D01*
X0293054Y0131419D01*
X0293128Y0131277D01*
X0293199Y0131133D01*
X0293267Y0130987D01*
X0293330Y0130839D01*
X0293391Y0130690D01*
X0293447Y0130539D01*
X0293500Y0130387D01*
X0293549Y0130234D01*
X0293594Y0130080D01*
X0293635Y0129925D01*
X0293673Y0129768D01*
X0293706Y0129611D01*
X0293736Y0129453D01*
X0293762Y0129294D01*
X0293783Y0129135D01*
X0293801Y0128975D01*
X0293815Y0128815D01*
X0293825Y0128654D01*
X0293831Y0128494D01*
X0293833Y0128333D01*
X0293831Y0128172D01*
X0293825Y0128012D01*
X0293815Y0127851D01*
X0293801Y0127691D01*
X0293783Y0127531D01*
X0293762Y0127372D01*
X0293736Y0127213D01*
X0293706Y0127055D01*
X0293673Y0126898D01*
X0293635Y0126741D01*
X0293594Y0126586D01*
X0293549Y0126432D01*
X0293500Y0126279D01*
X0293447Y0126127D01*
X0293391Y0125976D01*
X0293330Y0125827D01*
X0293267Y0125679D01*
X0293199Y0125533D01*
X0293128Y0125389D01*
X0293054Y0125247D01*
X0292976Y0125106D01*
X0292894Y0124968D01*
X0292809Y0124831D01*
X0292721Y0124697D01*
X0292629Y0124565D01*
X0292534Y0124435D01*
X0292436Y0124307D01*
X0292335Y0124182D01*
X0292231Y0124060D01*
X0292124Y0123940D01*
X0292014Y0123823D01*
X0291901Y0123708D01*
X0291785Y0123597D01*
X0291666Y0123488D01*
X0291545Y0123383D01*
X0291421Y0123280D01*
X0291295Y0123180D01*
X0291167Y0123084D01*
X0291036Y0122991D01*
X0290902Y0122901D01*
X0290767Y0122814D01*
X0290629Y0122731D01*
X0290490Y0122651D01*
X0290348Y0122575D01*
X0290205Y0122502D01*
X0290060Y0122433D01*
X0289913Y0122367D01*
X0289765Y0122305D01*
X0289615Y0122247D01*
X0289464Y0122192D01*
X0289311Y0122141D01*
X0289157Y0122094D01*
X0289002Y0122051D01*
X0288846Y0122012D01*
X0288690Y0121976D01*
X0288532Y0121945D01*
X0288374Y0121917D01*
X0288215Y0121893D01*
X0288055Y0121873D01*
X0287895Y0121857D01*
X0287735Y0121845D01*
X0287574Y0121837D01*
X0287413Y0121833D01*
X0287253Y0121833D01*
X0287092Y0121837D01*
X0286931Y0121845D01*
X0286771Y0121857D01*
X0286611Y0121873D01*
X0286451Y0121893D01*
X0286292Y0121917D01*
X0286134Y0121945D01*
X0285976Y0121976D01*
X0285820Y0122012D01*
X0285664Y0122051D01*
X0285509Y0122094D01*
X0285355Y0122141D01*
X0285202Y0122192D01*
X0285051Y0122247D01*
X0284901Y0122305D01*
X0284753Y0122367D01*
X0284606Y0122433D01*
X0284461Y0122502D01*
X0284318Y0122575D01*
X0284176Y0122651D01*
X0284037Y0122731D01*
X0283899Y0122814D01*
X0283764Y0122901D01*
X0283630Y0122991D01*
X0283499Y0123084D01*
X0283371Y0123180D01*
X0283245Y0123280D01*
X0283121Y0123383D01*
X0283000Y0123488D01*
X0282881Y0123597D01*
X0282765Y0123708D01*
X0282652Y0123823D01*
X0282542Y0123940D01*
X0282435Y0124060D01*
X0282331Y0124182D01*
X0282230Y0124307D01*
X0282132Y0124435D01*
X0282037Y0124565D01*
X0281945Y0124697D01*
X0281857Y0124831D01*
X0281772Y0124968D01*
X0281690Y0125106D01*
X0281612Y0125247D01*
X0281538Y0125389D01*
X0281467Y0125533D01*
X0281399Y0125679D01*
X0281336Y0125827D01*
X0281275Y0125976D01*
X0281219Y0126127D01*
X0281166Y0126279D01*
X0281117Y0126432D01*
X0281072Y0126586D01*
X0281031Y0126741D01*
X0280993Y0126898D01*
X0280960Y0127055D01*
X0280930Y0127213D01*
X0280904Y0127372D01*
X0280883Y0127531D01*
X0280865Y0127691D01*
X0280851Y0127851D01*
X0280841Y0128012D01*
X0280835Y0128172D01*
X0280833Y0128333D01*
X0258833Y0128333D02*
X0258835Y0128494D01*
X0258841Y0128654D01*
X0258851Y0128815D01*
X0258865Y0128975D01*
X0258883Y0129135D01*
X0258904Y0129294D01*
X0258930Y0129453D01*
X0258960Y0129611D01*
X0258993Y0129768D01*
X0259031Y0129925D01*
X0259072Y0130080D01*
X0259117Y0130234D01*
X0259166Y0130387D01*
X0259219Y0130539D01*
X0259275Y0130690D01*
X0259336Y0130839D01*
X0259399Y0130987D01*
X0259467Y0131133D01*
X0259538Y0131277D01*
X0259612Y0131419D01*
X0259690Y0131560D01*
X0259772Y0131698D01*
X0259857Y0131835D01*
X0259945Y0131969D01*
X0260037Y0132101D01*
X0260132Y0132231D01*
X0260230Y0132359D01*
X0260331Y0132484D01*
X0260435Y0132606D01*
X0260542Y0132726D01*
X0260652Y0132843D01*
X0260765Y0132958D01*
X0260881Y0133069D01*
X0261000Y0133178D01*
X0261121Y0133283D01*
X0261245Y0133386D01*
X0261371Y0133486D01*
X0261499Y0133582D01*
X0261630Y0133675D01*
X0261764Y0133765D01*
X0261899Y0133852D01*
X0262037Y0133935D01*
X0262176Y0134015D01*
X0262318Y0134091D01*
X0262461Y0134164D01*
X0262606Y0134233D01*
X0262753Y0134299D01*
X0262901Y0134361D01*
X0263051Y0134419D01*
X0263202Y0134474D01*
X0263355Y0134525D01*
X0263509Y0134572D01*
X0263664Y0134615D01*
X0263820Y0134654D01*
X0263976Y0134690D01*
X0264134Y0134721D01*
X0264292Y0134749D01*
X0264451Y0134773D01*
X0264611Y0134793D01*
X0264771Y0134809D01*
X0264931Y0134821D01*
X0265092Y0134829D01*
X0265253Y0134833D01*
X0265413Y0134833D01*
X0265574Y0134829D01*
X0265735Y0134821D01*
X0265895Y0134809D01*
X0266055Y0134793D01*
X0266215Y0134773D01*
X0266374Y0134749D01*
X0266532Y0134721D01*
X0266690Y0134690D01*
X0266846Y0134654D01*
X0267002Y0134615D01*
X0267157Y0134572D01*
X0267311Y0134525D01*
X0267464Y0134474D01*
X0267615Y0134419D01*
X0267765Y0134361D01*
X0267913Y0134299D01*
X0268060Y0134233D01*
X0268205Y0134164D01*
X0268348Y0134091D01*
X0268490Y0134015D01*
X0268629Y0133935D01*
X0268767Y0133852D01*
X0268902Y0133765D01*
X0269036Y0133675D01*
X0269167Y0133582D01*
X0269295Y0133486D01*
X0269421Y0133386D01*
X0269545Y0133283D01*
X0269666Y0133178D01*
X0269785Y0133069D01*
X0269901Y0132958D01*
X0270014Y0132843D01*
X0270124Y0132726D01*
X0270231Y0132606D01*
X0270335Y0132484D01*
X0270436Y0132359D01*
X0270534Y0132231D01*
X0270629Y0132101D01*
X0270721Y0131969D01*
X0270809Y0131835D01*
X0270894Y0131698D01*
X0270976Y0131560D01*
X0271054Y0131419D01*
X0271128Y0131277D01*
X0271199Y0131133D01*
X0271267Y0130987D01*
X0271330Y0130839D01*
X0271391Y0130690D01*
X0271447Y0130539D01*
X0271500Y0130387D01*
X0271549Y0130234D01*
X0271594Y0130080D01*
X0271635Y0129925D01*
X0271673Y0129768D01*
X0271706Y0129611D01*
X0271736Y0129453D01*
X0271762Y0129294D01*
X0271783Y0129135D01*
X0271801Y0128975D01*
X0271815Y0128815D01*
X0271825Y0128654D01*
X0271831Y0128494D01*
X0271833Y0128333D01*
X0271831Y0128172D01*
X0271825Y0128012D01*
X0271815Y0127851D01*
X0271801Y0127691D01*
X0271783Y0127531D01*
X0271762Y0127372D01*
X0271736Y0127213D01*
X0271706Y0127055D01*
X0271673Y0126898D01*
X0271635Y0126741D01*
X0271594Y0126586D01*
X0271549Y0126432D01*
X0271500Y0126279D01*
X0271447Y0126127D01*
X0271391Y0125976D01*
X0271330Y0125827D01*
X0271267Y0125679D01*
X0271199Y0125533D01*
X0271128Y0125389D01*
X0271054Y0125247D01*
X0270976Y0125106D01*
X0270894Y0124968D01*
X0270809Y0124831D01*
X0270721Y0124697D01*
X0270629Y0124565D01*
X0270534Y0124435D01*
X0270436Y0124307D01*
X0270335Y0124182D01*
X0270231Y0124060D01*
X0270124Y0123940D01*
X0270014Y0123823D01*
X0269901Y0123708D01*
X0269785Y0123597D01*
X0269666Y0123488D01*
X0269545Y0123383D01*
X0269421Y0123280D01*
X0269295Y0123180D01*
X0269167Y0123084D01*
X0269036Y0122991D01*
X0268902Y0122901D01*
X0268767Y0122814D01*
X0268629Y0122731D01*
X0268490Y0122651D01*
X0268348Y0122575D01*
X0268205Y0122502D01*
X0268060Y0122433D01*
X0267913Y0122367D01*
X0267765Y0122305D01*
X0267615Y0122247D01*
X0267464Y0122192D01*
X0267311Y0122141D01*
X0267157Y0122094D01*
X0267002Y0122051D01*
X0266846Y0122012D01*
X0266690Y0121976D01*
X0266532Y0121945D01*
X0266374Y0121917D01*
X0266215Y0121893D01*
X0266055Y0121873D01*
X0265895Y0121857D01*
X0265735Y0121845D01*
X0265574Y0121837D01*
X0265413Y0121833D01*
X0265253Y0121833D01*
X0265092Y0121837D01*
X0264931Y0121845D01*
X0264771Y0121857D01*
X0264611Y0121873D01*
X0264451Y0121893D01*
X0264292Y0121917D01*
X0264134Y0121945D01*
X0263976Y0121976D01*
X0263820Y0122012D01*
X0263664Y0122051D01*
X0263509Y0122094D01*
X0263355Y0122141D01*
X0263202Y0122192D01*
X0263051Y0122247D01*
X0262901Y0122305D01*
X0262753Y0122367D01*
X0262606Y0122433D01*
X0262461Y0122502D01*
X0262318Y0122575D01*
X0262176Y0122651D01*
X0262037Y0122731D01*
X0261899Y0122814D01*
X0261764Y0122901D01*
X0261630Y0122991D01*
X0261499Y0123084D01*
X0261371Y0123180D01*
X0261245Y0123280D01*
X0261121Y0123383D01*
X0261000Y0123488D01*
X0260881Y0123597D01*
X0260765Y0123708D01*
X0260652Y0123823D01*
X0260542Y0123940D01*
X0260435Y0124060D01*
X0260331Y0124182D01*
X0260230Y0124307D01*
X0260132Y0124435D01*
X0260037Y0124565D01*
X0259945Y0124697D01*
X0259857Y0124831D01*
X0259772Y0124968D01*
X0259690Y0125106D01*
X0259612Y0125247D01*
X0259538Y0125389D01*
X0259467Y0125533D01*
X0259399Y0125679D01*
X0259336Y0125827D01*
X0259275Y0125976D01*
X0259219Y0126127D01*
X0259166Y0126279D01*
X0259117Y0126432D01*
X0259072Y0126586D01*
X0259031Y0126741D01*
X0258993Y0126898D01*
X0258960Y0127055D01*
X0258930Y0127213D01*
X0258904Y0127372D01*
X0258883Y0127531D01*
X0258865Y0127691D01*
X0258851Y0127851D01*
X0258841Y0128012D01*
X0258835Y0128172D01*
X0258833Y0128333D01*
X0178833Y0128333D02*
X0178835Y0128494D01*
X0178841Y0128654D01*
X0178851Y0128815D01*
X0178865Y0128975D01*
X0178883Y0129135D01*
X0178904Y0129294D01*
X0178930Y0129453D01*
X0178960Y0129611D01*
X0178993Y0129768D01*
X0179031Y0129925D01*
X0179072Y0130080D01*
X0179117Y0130234D01*
X0179166Y0130387D01*
X0179219Y0130539D01*
X0179275Y0130690D01*
X0179336Y0130839D01*
X0179399Y0130987D01*
X0179467Y0131133D01*
X0179538Y0131277D01*
X0179612Y0131419D01*
X0179690Y0131560D01*
X0179772Y0131698D01*
X0179857Y0131835D01*
X0179945Y0131969D01*
X0180037Y0132101D01*
X0180132Y0132231D01*
X0180230Y0132359D01*
X0180331Y0132484D01*
X0180435Y0132606D01*
X0180542Y0132726D01*
X0180652Y0132843D01*
X0180765Y0132958D01*
X0180881Y0133069D01*
X0181000Y0133178D01*
X0181121Y0133283D01*
X0181245Y0133386D01*
X0181371Y0133486D01*
X0181499Y0133582D01*
X0181630Y0133675D01*
X0181764Y0133765D01*
X0181899Y0133852D01*
X0182037Y0133935D01*
X0182176Y0134015D01*
X0182318Y0134091D01*
X0182461Y0134164D01*
X0182606Y0134233D01*
X0182753Y0134299D01*
X0182901Y0134361D01*
X0183051Y0134419D01*
X0183202Y0134474D01*
X0183355Y0134525D01*
X0183509Y0134572D01*
X0183664Y0134615D01*
X0183820Y0134654D01*
X0183976Y0134690D01*
X0184134Y0134721D01*
X0184292Y0134749D01*
X0184451Y0134773D01*
X0184611Y0134793D01*
X0184771Y0134809D01*
X0184931Y0134821D01*
X0185092Y0134829D01*
X0185253Y0134833D01*
X0185413Y0134833D01*
X0185574Y0134829D01*
X0185735Y0134821D01*
X0185895Y0134809D01*
X0186055Y0134793D01*
X0186215Y0134773D01*
X0186374Y0134749D01*
X0186532Y0134721D01*
X0186690Y0134690D01*
X0186846Y0134654D01*
X0187002Y0134615D01*
X0187157Y0134572D01*
X0187311Y0134525D01*
X0187464Y0134474D01*
X0187615Y0134419D01*
X0187765Y0134361D01*
X0187913Y0134299D01*
X0188060Y0134233D01*
X0188205Y0134164D01*
X0188348Y0134091D01*
X0188490Y0134015D01*
X0188629Y0133935D01*
X0188767Y0133852D01*
X0188902Y0133765D01*
X0189036Y0133675D01*
X0189167Y0133582D01*
X0189295Y0133486D01*
X0189421Y0133386D01*
X0189545Y0133283D01*
X0189666Y0133178D01*
X0189785Y0133069D01*
X0189901Y0132958D01*
X0190014Y0132843D01*
X0190124Y0132726D01*
X0190231Y0132606D01*
X0190335Y0132484D01*
X0190436Y0132359D01*
X0190534Y0132231D01*
X0190629Y0132101D01*
X0190721Y0131969D01*
X0190809Y0131835D01*
X0190894Y0131698D01*
X0190976Y0131560D01*
X0191054Y0131419D01*
X0191128Y0131277D01*
X0191199Y0131133D01*
X0191267Y0130987D01*
X0191330Y0130839D01*
X0191391Y0130690D01*
X0191447Y0130539D01*
X0191500Y0130387D01*
X0191549Y0130234D01*
X0191594Y0130080D01*
X0191635Y0129925D01*
X0191673Y0129768D01*
X0191706Y0129611D01*
X0191736Y0129453D01*
X0191762Y0129294D01*
X0191783Y0129135D01*
X0191801Y0128975D01*
X0191815Y0128815D01*
X0191825Y0128654D01*
X0191831Y0128494D01*
X0191833Y0128333D01*
X0191831Y0128172D01*
X0191825Y0128012D01*
X0191815Y0127851D01*
X0191801Y0127691D01*
X0191783Y0127531D01*
X0191762Y0127372D01*
X0191736Y0127213D01*
X0191706Y0127055D01*
X0191673Y0126898D01*
X0191635Y0126741D01*
X0191594Y0126586D01*
X0191549Y0126432D01*
X0191500Y0126279D01*
X0191447Y0126127D01*
X0191391Y0125976D01*
X0191330Y0125827D01*
X0191267Y0125679D01*
X0191199Y0125533D01*
X0191128Y0125389D01*
X0191054Y0125247D01*
X0190976Y0125106D01*
X0190894Y0124968D01*
X0190809Y0124831D01*
X0190721Y0124697D01*
X0190629Y0124565D01*
X0190534Y0124435D01*
X0190436Y0124307D01*
X0190335Y0124182D01*
X0190231Y0124060D01*
X0190124Y0123940D01*
X0190014Y0123823D01*
X0189901Y0123708D01*
X0189785Y0123597D01*
X0189666Y0123488D01*
X0189545Y0123383D01*
X0189421Y0123280D01*
X0189295Y0123180D01*
X0189167Y0123084D01*
X0189036Y0122991D01*
X0188902Y0122901D01*
X0188767Y0122814D01*
X0188629Y0122731D01*
X0188490Y0122651D01*
X0188348Y0122575D01*
X0188205Y0122502D01*
X0188060Y0122433D01*
X0187913Y0122367D01*
X0187765Y0122305D01*
X0187615Y0122247D01*
X0187464Y0122192D01*
X0187311Y0122141D01*
X0187157Y0122094D01*
X0187002Y0122051D01*
X0186846Y0122012D01*
X0186690Y0121976D01*
X0186532Y0121945D01*
X0186374Y0121917D01*
X0186215Y0121893D01*
X0186055Y0121873D01*
X0185895Y0121857D01*
X0185735Y0121845D01*
X0185574Y0121837D01*
X0185413Y0121833D01*
X0185253Y0121833D01*
X0185092Y0121837D01*
X0184931Y0121845D01*
X0184771Y0121857D01*
X0184611Y0121873D01*
X0184451Y0121893D01*
X0184292Y0121917D01*
X0184134Y0121945D01*
X0183976Y0121976D01*
X0183820Y0122012D01*
X0183664Y0122051D01*
X0183509Y0122094D01*
X0183355Y0122141D01*
X0183202Y0122192D01*
X0183051Y0122247D01*
X0182901Y0122305D01*
X0182753Y0122367D01*
X0182606Y0122433D01*
X0182461Y0122502D01*
X0182318Y0122575D01*
X0182176Y0122651D01*
X0182037Y0122731D01*
X0181899Y0122814D01*
X0181764Y0122901D01*
X0181630Y0122991D01*
X0181499Y0123084D01*
X0181371Y0123180D01*
X0181245Y0123280D01*
X0181121Y0123383D01*
X0181000Y0123488D01*
X0180881Y0123597D01*
X0180765Y0123708D01*
X0180652Y0123823D01*
X0180542Y0123940D01*
X0180435Y0124060D01*
X0180331Y0124182D01*
X0180230Y0124307D01*
X0180132Y0124435D01*
X0180037Y0124565D01*
X0179945Y0124697D01*
X0179857Y0124831D01*
X0179772Y0124968D01*
X0179690Y0125106D01*
X0179612Y0125247D01*
X0179538Y0125389D01*
X0179467Y0125533D01*
X0179399Y0125679D01*
X0179336Y0125827D01*
X0179275Y0125976D01*
X0179219Y0126127D01*
X0179166Y0126279D01*
X0179117Y0126432D01*
X0179072Y0126586D01*
X0179031Y0126741D01*
X0178993Y0126898D01*
X0178960Y0127055D01*
X0178930Y0127213D01*
X0178904Y0127372D01*
X0178883Y0127531D01*
X0178865Y0127691D01*
X0178851Y0127851D01*
X0178841Y0128012D01*
X0178835Y0128172D01*
X0178833Y0128333D01*
X0156833Y0128333D02*
X0156835Y0128494D01*
X0156841Y0128654D01*
X0156851Y0128815D01*
X0156865Y0128975D01*
X0156883Y0129135D01*
X0156904Y0129294D01*
X0156930Y0129453D01*
X0156960Y0129611D01*
X0156993Y0129768D01*
X0157031Y0129925D01*
X0157072Y0130080D01*
X0157117Y0130234D01*
X0157166Y0130387D01*
X0157219Y0130539D01*
X0157275Y0130690D01*
X0157336Y0130839D01*
X0157399Y0130987D01*
X0157467Y0131133D01*
X0157538Y0131277D01*
X0157612Y0131419D01*
X0157690Y0131560D01*
X0157772Y0131698D01*
X0157857Y0131835D01*
X0157945Y0131969D01*
X0158037Y0132101D01*
X0158132Y0132231D01*
X0158230Y0132359D01*
X0158331Y0132484D01*
X0158435Y0132606D01*
X0158542Y0132726D01*
X0158652Y0132843D01*
X0158765Y0132958D01*
X0158881Y0133069D01*
X0159000Y0133178D01*
X0159121Y0133283D01*
X0159245Y0133386D01*
X0159371Y0133486D01*
X0159499Y0133582D01*
X0159630Y0133675D01*
X0159764Y0133765D01*
X0159899Y0133852D01*
X0160037Y0133935D01*
X0160176Y0134015D01*
X0160318Y0134091D01*
X0160461Y0134164D01*
X0160606Y0134233D01*
X0160753Y0134299D01*
X0160901Y0134361D01*
X0161051Y0134419D01*
X0161202Y0134474D01*
X0161355Y0134525D01*
X0161509Y0134572D01*
X0161664Y0134615D01*
X0161820Y0134654D01*
X0161976Y0134690D01*
X0162134Y0134721D01*
X0162292Y0134749D01*
X0162451Y0134773D01*
X0162611Y0134793D01*
X0162771Y0134809D01*
X0162931Y0134821D01*
X0163092Y0134829D01*
X0163253Y0134833D01*
X0163413Y0134833D01*
X0163574Y0134829D01*
X0163735Y0134821D01*
X0163895Y0134809D01*
X0164055Y0134793D01*
X0164215Y0134773D01*
X0164374Y0134749D01*
X0164532Y0134721D01*
X0164690Y0134690D01*
X0164846Y0134654D01*
X0165002Y0134615D01*
X0165157Y0134572D01*
X0165311Y0134525D01*
X0165464Y0134474D01*
X0165615Y0134419D01*
X0165765Y0134361D01*
X0165913Y0134299D01*
X0166060Y0134233D01*
X0166205Y0134164D01*
X0166348Y0134091D01*
X0166490Y0134015D01*
X0166629Y0133935D01*
X0166767Y0133852D01*
X0166902Y0133765D01*
X0167036Y0133675D01*
X0167167Y0133582D01*
X0167295Y0133486D01*
X0167421Y0133386D01*
X0167545Y0133283D01*
X0167666Y0133178D01*
X0167785Y0133069D01*
X0167901Y0132958D01*
X0168014Y0132843D01*
X0168124Y0132726D01*
X0168231Y0132606D01*
X0168335Y0132484D01*
X0168436Y0132359D01*
X0168534Y0132231D01*
X0168629Y0132101D01*
X0168721Y0131969D01*
X0168809Y0131835D01*
X0168894Y0131698D01*
X0168976Y0131560D01*
X0169054Y0131419D01*
X0169128Y0131277D01*
X0169199Y0131133D01*
X0169267Y0130987D01*
X0169330Y0130839D01*
X0169391Y0130690D01*
X0169447Y0130539D01*
X0169500Y0130387D01*
X0169549Y0130234D01*
X0169594Y0130080D01*
X0169635Y0129925D01*
X0169673Y0129768D01*
X0169706Y0129611D01*
X0169736Y0129453D01*
X0169762Y0129294D01*
X0169783Y0129135D01*
X0169801Y0128975D01*
X0169815Y0128815D01*
X0169825Y0128654D01*
X0169831Y0128494D01*
X0169833Y0128333D01*
X0169831Y0128172D01*
X0169825Y0128012D01*
X0169815Y0127851D01*
X0169801Y0127691D01*
X0169783Y0127531D01*
X0169762Y0127372D01*
X0169736Y0127213D01*
X0169706Y0127055D01*
X0169673Y0126898D01*
X0169635Y0126741D01*
X0169594Y0126586D01*
X0169549Y0126432D01*
X0169500Y0126279D01*
X0169447Y0126127D01*
X0169391Y0125976D01*
X0169330Y0125827D01*
X0169267Y0125679D01*
X0169199Y0125533D01*
X0169128Y0125389D01*
X0169054Y0125247D01*
X0168976Y0125106D01*
X0168894Y0124968D01*
X0168809Y0124831D01*
X0168721Y0124697D01*
X0168629Y0124565D01*
X0168534Y0124435D01*
X0168436Y0124307D01*
X0168335Y0124182D01*
X0168231Y0124060D01*
X0168124Y0123940D01*
X0168014Y0123823D01*
X0167901Y0123708D01*
X0167785Y0123597D01*
X0167666Y0123488D01*
X0167545Y0123383D01*
X0167421Y0123280D01*
X0167295Y0123180D01*
X0167167Y0123084D01*
X0167036Y0122991D01*
X0166902Y0122901D01*
X0166767Y0122814D01*
X0166629Y0122731D01*
X0166490Y0122651D01*
X0166348Y0122575D01*
X0166205Y0122502D01*
X0166060Y0122433D01*
X0165913Y0122367D01*
X0165765Y0122305D01*
X0165615Y0122247D01*
X0165464Y0122192D01*
X0165311Y0122141D01*
X0165157Y0122094D01*
X0165002Y0122051D01*
X0164846Y0122012D01*
X0164690Y0121976D01*
X0164532Y0121945D01*
X0164374Y0121917D01*
X0164215Y0121893D01*
X0164055Y0121873D01*
X0163895Y0121857D01*
X0163735Y0121845D01*
X0163574Y0121837D01*
X0163413Y0121833D01*
X0163253Y0121833D01*
X0163092Y0121837D01*
X0162931Y0121845D01*
X0162771Y0121857D01*
X0162611Y0121873D01*
X0162451Y0121893D01*
X0162292Y0121917D01*
X0162134Y0121945D01*
X0161976Y0121976D01*
X0161820Y0122012D01*
X0161664Y0122051D01*
X0161509Y0122094D01*
X0161355Y0122141D01*
X0161202Y0122192D01*
X0161051Y0122247D01*
X0160901Y0122305D01*
X0160753Y0122367D01*
X0160606Y0122433D01*
X0160461Y0122502D01*
X0160318Y0122575D01*
X0160176Y0122651D01*
X0160037Y0122731D01*
X0159899Y0122814D01*
X0159764Y0122901D01*
X0159630Y0122991D01*
X0159499Y0123084D01*
X0159371Y0123180D01*
X0159245Y0123280D01*
X0159121Y0123383D01*
X0159000Y0123488D01*
X0158881Y0123597D01*
X0158765Y0123708D01*
X0158652Y0123823D01*
X0158542Y0123940D01*
X0158435Y0124060D01*
X0158331Y0124182D01*
X0158230Y0124307D01*
X0158132Y0124435D01*
X0158037Y0124565D01*
X0157945Y0124697D01*
X0157857Y0124831D01*
X0157772Y0124968D01*
X0157690Y0125106D01*
X0157612Y0125247D01*
X0157538Y0125389D01*
X0157467Y0125533D01*
X0157399Y0125679D01*
X0157336Y0125827D01*
X0157275Y0125976D01*
X0157219Y0126127D01*
X0157166Y0126279D01*
X0157117Y0126432D01*
X0157072Y0126586D01*
X0157031Y0126741D01*
X0156993Y0126898D01*
X0156960Y0127055D01*
X0156930Y0127213D01*
X0156904Y0127372D01*
X0156883Y0127531D01*
X0156865Y0127691D01*
X0156851Y0127851D01*
X0156841Y0128012D01*
X0156835Y0128172D01*
X0156833Y0128333D01*
X0076833Y0128333D02*
X0076835Y0128494D01*
X0076841Y0128654D01*
X0076851Y0128815D01*
X0076865Y0128975D01*
X0076883Y0129135D01*
X0076904Y0129294D01*
X0076930Y0129453D01*
X0076960Y0129611D01*
X0076993Y0129768D01*
X0077031Y0129925D01*
X0077072Y0130080D01*
X0077117Y0130234D01*
X0077166Y0130387D01*
X0077219Y0130539D01*
X0077275Y0130690D01*
X0077336Y0130839D01*
X0077399Y0130987D01*
X0077467Y0131133D01*
X0077538Y0131277D01*
X0077612Y0131419D01*
X0077690Y0131560D01*
X0077772Y0131698D01*
X0077857Y0131835D01*
X0077945Y0131969D01*
X0078037Y0132101D01*
X0078132Y0132231D01*
X0078230Y0132359D01*
X0078331Y0132484D01*
X0078435Y0132606D01*
X0078542Y0132726D01*
X0078652Y0132843D01*
X0078765Y0132958D01*
X0078881Y0133069D01*
X0079000Y0133178D01*
X0079121Y0133283D01*
X0079245Y0133386D01*
X0079371Y0133486D01*
X0079499Y0133582D01*
X0079630Y0133675D01*
X0079764Y0133765D01*
X0079899Y0133852D01*
X0080037Y0133935D01*
X0080176Y0134015D01*
X0080318Y0134091D01*
X0080461Y0134164D01*
X0080606Y0134233D01*
X0080753Y0134299D01*
X0080901Y0134361D01*
X0081051Y0134419D01*
X0081202Y0134474D01*
X0081355Y0134525D01*
X0081509Y0134572D01*
X0081664Y0134615D01*
X0081820Y0134654D01*
X0081976Y0134690D01*
X0082134Y0134721D01*
X0082292Y0134749D01*
X0082451Y0134773D01*
X0082611Y0134793D01*
X0082771Y0134809D01*
X0082931Y0134821D01*
X0083092Y0134829D01*
X0083253Y0134833D01*
X0083413Y0134833D01*
X0083574Y0134829D01*
X0083735Y0134821D01*
X0083895Y0134809D01*
X0084055Y0134793D01*
X0084215Y0134773D01*
X0084374Y0134749D01*
X0084532Y0134721D01*
X0084690Y0134690D01*
X0084846Y0134654D01*
X0085002Y0134615D01*
X0085157Y0134572D01*
X0085311Y0134525D01*
X0085464Y0134474D01*
X0085615Y0134419D01*
X0085765Y0134361D01*
X0085913Y0134299D01*
X0086060Y0134233D01*
X0086205Y0134164D01*
X0086348Y0134091D01*
X0086490Y0134015D01*
X0086629Y0133935D01*
X0086767Y0133852D01*
X0086902Y0133765D01*
X0087036Y0133675D01*
X0087167Y0133582D01*
X0087295Y0133486D01*
X0087421Y0133386D01*
X0087545Y0133283D01*
X0087666Y0133178D01*
X0087785Y0133069D01*
X0087901Y0132958D01*
X0088014Y0132843D01*
X0088124Y0132726D01*
X0088231Y0132606D01*
X0088335Y0132484D01*
X0088436Y0132359D01*
X0088534Y0132231D01*
X0088629Y0132101D01*
X0088721Y0131969D01*
X0088809Y0131835D01*
X0088894Y0131698D01*
X0088976Y0131560D01*
X0089054Y0131419D01*
X0089128Y0131277D01*
X0089199Y0131133D01*
X0089267Y0130987D01*
X0089330Y0130839D01*
X0089391Y0130690D01*
X0089447Y0130539D01*
X0089500Y0130387D01*
X0089549Y0130234D01*
X0089594Y0130080D01*
X0089635Y0129925D01*
X0089673Y0129768D01*
X0089706Y0129611D01*
X0089736Y0129453D01*
X0089762Y0129294D01*
X0089783Y0129135D01*
X0089801Y0128975D01*
X0089815Y0128815D01*
X0089825Y0128654D01*
X0089831Y0128494D01*
X0089833Y0128333D01*
X0089831Y0128172D01*
X0089825Y0128012D01*
X0089815Y0127851D01*
X0089801Y0127691D01*
X0089783Y0127531D01*
X0089762Y0127372D01*
X0089736Y0127213D01*
X0089706Y0127055D01*
X0089673Y0126898D01*
X0089635Y0126741D01*
X0089594Y0126586D01*
X0089549Y0126432D01*
X0089500Y0126279D01*
X0089447Y0126127D01*
X0089391Y0125976D01*
X0089330Y0125827D01*
X0089267Y0125679D01*
X0089199Y0125533D01*
X0089128Y0125389D01*
X0089054Y0125247D01*
X0088976Y0125106D01*
X0088894Y0124968D01*
X0088809Y0124831D01*
X0088721Y0124697D01*
X0088629Y0124565D01*
X0088534Y0124435D01*
X0088436Y0124307D01*
X0088335Y0124182D01*
X0088231Y0124060D01*
X0088124Y0123940D01*
X0088014Y0123823D01*
X0087901Y0123708D01*
X0087785Y0123597D01*
X0087666Y0123488D01*
X0087545Y0123383D01*
X0087421Y0123280D01*
X0087295Y0123180D01*
X0087167Y0123084D01*
X0087036Y0122991D01*
X0086902Y0122901D01*
X0086767Y0122814D01*
X0086629Y0122731D01*
X0086490Y0122651D01*
X0086348Y0122575D01*
X0086205Y0122502D01*
X0086060Y0122433D01*
X0085913Y0122367D01*
X0085765Y0122305D01*
X0085615Y0122247D01*
X0085464Y0122192D01*
X0085311Y0122141D01*
X0085157Y0122094D01*
X0085002Y0122051D01*
X0084846Y0122012D01*
X0084690Y0121976D01*
X0084532Y0121945D01*
X0084374Y0121917D01*
X0084215Y0121893D01*
X0084055Y0121873D01*
X0083895Y0121857D01*
X0083735Y0121845D01*
X0083574Y0121837D01*
X0083413Y0121833D01*
X0083253Y0121833D01*
X0083092Y0121837D01*
X0082931Y0121845D01*
X0082771Y0121857D01*
X0082611Y0121873D01*
X0082451Y0121893D01*
X0082292Y0121917D01*
X0082134Y0121945D01*
X0081976Y0121976D01*
X0081820Y0122012D01*
X0081664Y0122051D01*
X0081509Y0122094D01*
X0081355Y0122141D01*
X0081202Y0122192D01*
X0081051Y0122247D01*
X0080901Y0122305D01*
X0080753Y0122367D01*
X0080606Y0122433D01*
X0080461Y0122502D01*
X0080318Y0122575D01*
X0080176Y0122651D01*
X0080037Y0122731D01*
X0079899Y0122814D01*
X0079764Y0122901D01*
X0079630Y0122991D01*
X0079499Y0123084D01*
X0079371Y0123180D01*
X0079245Y0123280D01*
X0079121Y0123383D01*
X0079000Y0123488D01*
X0078881Y0123597D01*
X0078765Y0123708D01*
X0078652Y0123823D01*
X0078542Y0123940D01*
X0078435Y0124060D01*
X0078331Y0124182D01*
X0078230Y0124307D01*
X0078132Y0124435D01*
X0078037Y0124565D01*
X0077945Y0124697D01*
X0077857Y0124831D01*
X0077772Y0124968D01*
X0077690Y0125106D01*
X0077612Y0125247D01*
X0077538Y0125389D01*
X0077467Y0125533D01*
X0077399Y0125679D01*
X0077336Y0125827D01*
X0077275Y0125976D01*
X0077219Y0126127D01*
X0077166Y0126279D01*
X0077117Y0126432D01*
X0077072Y0126586D01*
X0077031Y0126741D01*
X0076993Y0126898D01*
X0076960Y0127055D01*
X0076930Y0127213D01*
X0076904Y0127372D01*
X0076883Y0127531D01*
X0076865Y0127691D01*
X0076851Y0127851D01*
X0076841Y0128012D01*
X0076835Y0128172D01*
X0076833Y0128333D01*
X0076833Y0230333D02*
X0076835Y0230494D01*
X0076841Y0230654D01*
X0076851Y0230815D01*
X0076865Y0230975D01*
X0076883Y0231135D01*
X0076904Y0231294D01*
X0076930Y0231453D01*
X0076960Y0231611D01*
X0076993Y0231768D01*
X0077031Y0231925D01*
X0077072Y0232080D01*
X0077117Y0232234D01*
X0077166Y0232387D01*
X0077219Y0232539D01*
X0077275Y0232690D01*
X0077336Y0232839D01*
X0077399Y0232987D01*
X0077467Y0233133D01*
X0077538Y0233277D01*
X0077612Y0233419D01*
X0077690Y0233560D01*
X0077772Y0233698D01*
X0077857Y0233835D01*
X0077945Y0233969D01*
X0078037Y0234101D01*
X0078132Y0234231D01*
X0078230Y0234359D01*
X0078331Y0234484D01*
X0078435Y0234606D01*
X0078542Y0234726D01*
X0078652Y0234843D01*
X0078765Y0234958D01*
X0078881Y0235069D01*
X0079000Y0235178D01*
X0079121Y0235283D01*
X0079245Y0235386D01*
X0079371Y0235486D01*
X0079499Y0235582D01*
X0079630Y0235675D01*
X0079764Y0235765D01*
X0079899Y0235852D01*
X0080037Y0235935D01*
X0080176Y0236015D01*
X0080318Y0236091D01*
X0080461Y0236164D01*
X0080606Y0236233D01*
X0080753Y0236299D01*
X0080901Y0236361D01*
X0081051Y0236419D01*
X0081202Y0236474D01*
X0081355Y0236525D01*
X0081509Y0236572D01*
X0081664Y0236615D01*
X0081820Y0236654D01*
X0081976Y0236690D01*
X0082134Y0236721D01*
X0082292Y0236749D01*
X0082451Y0236773D01*
X0082611Y0236793D01*
X0082771Y0236809D01*
X0082931Y0236821D01*
X0083092Y0236829D01*
X0083253Y0236833D01*
X0083413Y0236833D01*
X0083574Y0236829D01*
X0083735Y0236821D01*
X0083895Y0236809D01*
X0084055Y0236793D01*
X0084215Y0236773D01*
X0084374Y0236749D01*
X0084532Y0236721D01*
X0084690Y0236690D01*
X0084846Y0236654D01*
X0085002Y0236615D01*
X0085157Y0236572D01*
X0085311Y0236525D01*
X0085464Y0236474D01*
X0085615Y0236419D01*
X0085765Y0236361D01*
X0085913Y0236299D01*
X0086060Y0236233D01*
X0086205Y0236164D01*
X0086348Y0236091D01*
X0086490Y0236015D01*
X0086629Y0235935D01*
X0086767Y0235852D01*
X0086902Y0235765D01*
X0087036Y0235675D01*
X0087167Y0235582D01*
X0087295Y0235486D01*
X0087421Y0235386D01*
X0087545Y0235283D01*
X0087666Y0235178D01*
X0087785Y0235069D01*
X0087901Y0234958D01*
X0088014Y0234843D01*
X0088124Y0234726D01*
X0088231Y0234606D01*
X0088335Y0234484D01*
X0088436Y0234359D01*
X0088534Y0234231D01*
X0088629Y0234101D01*
X0088721Y0233969D01*
X0088809Y0233835D01*
X0088894Y0233698D01*
X0088976Y0233560D01*
X0089054Y0233419D01*
X0089128Y0233277D01*
X0089199Y0233133D01*
X0089267Y0232987D01*
X0089330Y0232839D01*
X0089391Y0232690D01*
X0089447Y0232539D01*
X0089500Y0232387D01*
X0089549Y0232234D01*
X0089594Y0232080D01*
X0089635Y0231925D01*
X0089673Y0231768D01*
X0089706Y0231611D01*
X0089736Y0231453D01*
X0089762Y0231294D01*
X0089783Y0231135D01*
X0089801Y0230975D01*
X0089815Y0230815D01*
X0089825Y0230654D01*
X0089831Y0230494D01*
X0089833Y0230333D01*
X0089831Y0230172D01*
X0089825Y0230012D01*
X0089815Y0229851D01*
X0089801Y0229691D01*
X0089783Y0229531D01*
X0089762Y0229372D01*
X0089736Y0229213D01*
X0089706Y0229055D01*
X0089673Y0228898D01*
X0089635Y0228741D01*
X0089594Y0228586D01*
X0089549Y0228432D01*
X0089500Y0228279D01*
X0089447Y0228127D01*
X0089391Y0227976D01*
X0089330Y0227827D01*
X0089267Y0227679D01*
X0089199Y0227533D01*
X0089128Y0227389D01*
X0089054Y0227247D01*
X0088976Y0227106D01*
X0088894Y0226968D01*
X0088809Y0226831D01*
X0088721Y0226697D01*
X0088629Y0226565D01*
X0088534Y0226435D01*
X0088436Y0226307D01*
X0088335Y0226182D01*
X0088231Y0226060D01*
X0088124Y0225940D01*
X0088014Y0225823D01*
X0087901Y0225708D01*
X0087785Y0225597D01*
X0087666Y0225488D01*
X0087545Y0225383D01*
X0087421Y0225280D01*
X0087295Y0225180D01*
X0087167Y0225084D01*
X0087036Y0224991D01*
X0086902Y0224901D01*
X0086767Y0224814D01*
X0086629Y0224731D01*
X0086490Y0224651D01*
X0086348Y0224575D01*
X0086205Y0224502D01*
X0086060Y0224433D01*
X0085913Y0224367D01*
X0085765Y0224305D01*
X0085615Y0224247D01*
X0085464Y0224192D01*
X0085311Y0224141D01*
X0085157Y0224094D01*
X0085002Y0224051D01*
X0084846Y0224012D01*
X0084690Y0223976D01*
X0084532Y0223945D01*
X0084374Y0223917D01*
X0084215Y0223893D01*
X0084055Y0223873D01*
X0083895Y0223857D01*
X0083735Y0223845D01*
X0083574Y0223837D01*
X0083413Y0223833D01*
X0083253Y0223833D01*
X0083092Y0223837D01*
X0082931Y0223845D01*
X0082771Y0223857D01*
X0082611Y0223873D01*
X0082451Y0223893D01*
X0082292Y0223917D01*
X0082134Y0223945D01*
X0081976Y0223976D01*
X0081820Y0224012D01*
X0081664Y0224051D01*
X0081509Y0224094D01*
X0081355Y0224141D01*
X0081202Y0224192D01*
X0081051Y0224247D01*
X0080901Y0224305D01*
X0080753Y0224367D01*
X0080606Y0224433D01*
X0080461Y0224502D01*
X0080318Y0224575D01*
X0080176Y0224651D01*
X0080037Y0224731D01*
X0079899Y0224814D01*
X0079764Y0224901D01*
X0079630Y0224991D01*
X0079499Y0225084D01*
X0079371Y0225180D01*
X0079245Y0225280D01*
X0079121Y0225383D01*
X0079000Y0225488D01*
X0078881Y0225597D01*
X0078765Y0225708D01*
X0078652Y0225823D01*
X0078542Y0225940D01*
X0078435Y0226060D01*
X0078331Y0226182D01*
X0078230Y0226307D01*
X0078132Y0226435D01*
X0078037Y0226565D01*
X0077945Y0226697D01*
X0077857Y0226831D01*
X0077772Y0226968D01*
X0077690Y0227106D01*
X0077612Y0227247D01*
X0077538Y0227389D01*
X0077467Y0227533D01*
X0077399Y0227679D01*
X0077336Y0227827D01*
X0077275Y0227976D01*
X0077219Y0228127D01*
X0077166Y0228279D01*
X0077117Y0228432D01*
X0077072Y0228586D01*
X0077031Y0228741D01*
X0076993Y0228898D01*
X0076960Y0229055D01*
X0076930Y0229213D01*
X0076904Y0229372D01*
X0076883Y0229531D01*
X0076865Y0229691D01*
X0076851Y0229851D01*
X0076841Y0230012D01*
X0076835Y0230172D01*
X0076833Y0230333D01*
X0156833Y0230333D02*
X0156835Y0230494D01*
X0156841Y0230654D01*
X0156851Y0230815D01*
X0156865Y0230975D01*
X0156883Y0231135D01*
X0156904Y0231294D01*
X0156930Y0231453D01*
X0156960Y0231611D01*
X0156993Y0231768D01*
X0157031Y0231925D01*
X0157072Y0232080D01*
X0157117Y0232234D01*
X0157166Y0232387D01*
X0157219Y0232539D01*
X0157275Y0232690D01*
X0157336Y0232839D01*
X0157399Y0232987D01*
X0157467Y0233133D01*
X0157538Y0233277D01*
X0157612Y0233419D01*
X0157690Y0233560D01*
X0157772Y0233698D01*
X0157857Y0233835D01*
X0157945Y0233969D01*
X0158037Y0234101D01*
X0158132Y0234231D01*
X0158230Y0234359D01*
X0158331Y0234484D01*
X0158435Y0234606D01*
X0158542Y0234726D01*
X0158652Y0234843D01*
X0158765Y0234958D01*
X0158881Y0235069D01*
X0159000Y0235178D01*
X0159121Y0235283D01*
X0159245Y0235386D01*
X0159371Y0235486D01*
X0159499Y0235582D01*
X0159630Y0235675D01*
X0159764Y0235765D01*
X0159899Y0235852D01*
X0160037Y0235935D01*
X0160176Y0236015D01*
X0160318Y0236091D01*
X0160461Y0236164D01*
X0160606Y0236233D01*
X0160753Y0236299D01*
X0160901Y0236361D01*
X0161051Y0236419D01*
X0161202Y0236474D01*
X0161355Y0236525D01*
X0161509Y0236572D01*
X0161664Y0236615D01*
X0161820Y0236654D01*
X0161976Y0236690D01*
X0162134Y0236721D01*
X0162292Y0236749D01*
X0162451Y0236773D01*
X0162611Y0236793D01*
X0162771Y0236809D01*
X0162931Y0236821D01*
X0163092Y0236829D01*
X0163253Y0236833D01*
X0163413Y0236833D01*
X0163574Y0236829D01*
X0163735Y0236821D01*
X0163895Y0236809D01*
X0164055Y0236793D01*
X0164215Y0236773D01*
X0164374Y0236749D01*
X0164532Y0236721D01*
X0164690Y0236690D01*
X0164846Y0236654D01*
X0165002Y0236615D01*
X0165157Y0236572D01*
X0165311Y0236525D01*
X0165464Y0236474D01*
X0165615Y0236419D01*
X0165765Y0236361D01*
X0165913Y0236299D01*
X0166060Y0236233D01*
X0166205Y0236164D01*
X0166348Y0236091D01*
X0166490Y0236015D01*
X0166629Y0235935D01*
X0166767Y0235852D01*
X0166902Y0235765D01*
X0167036Y0235675D01*
X0167167Y0235582D01*
X0167295Y0235486D01*
X0167421Y0235386D01*
X0167545Y0235283D01*
X0167666Y0235178D01*
X0167785Y0235069D01*
X0167901Y0234958D01*
X0168014Y0234843D01*
X0168124Y0234726D01*
X0168231Y0234606D01*
X0168335Y0234484D01*
X0168436Y0234359D01*
X0168534Y0234231D01*
X0168629Y0234101D01*
X0168721Y0233969D01*
X0168809Y0233835D01*
X0168894Y0233698D01*
X0168976Y0233560D01*
X0169054Y0233419D01*
X0169128Y0233277D01*
X0169199Y0233133D01*
X0169267Y0232987D01*
X0169330Y0232839D01*
X0169391Y0232690D01*
X0169447Y0232539D01*
X0169500Y0232387D01*
X0169549Y0232234D01*
X0169594Y0232080D01*
X0169635Y0231925D01*
X0169673Y0231768D01*
X0169706Y0231611D01*
X0169736Y0231453D01*
X0169762Y0231294D01*
X0169783Y0231135D01*
X0169801Y0230975D01*
X0169815Y0230815D01*
X0169825Y0230654D01*
X0169831Y0230494D01*
X0169833Y0230333D01*
X0169831Y0230172D01*
X0169825Y0230012D01*
X0169815Y0229851D01*
X0169801Y0229691D01*
X0169783Y0229531D01*
X0169762Y0229372D01*
X0169736Y0229213D01*
X0169706Y0229055D01*
X0169673Y0228898D01*
X0169635Y0228741D01*
X0169594Y0228586D01*
X0169549Y0228432D01*
X0169500Y0228279D01*
X0169447Y0228127D01*
X0169391Y0227976D01*
X0169330Y0227827D01*
X0169267Y0227679D01*
X0169199Y0227533D01*
X0169128Y0227389D01*
X0169054Y0227247D01*
X0168976Y0227106D01*
X0168894Y0226968D01*
X0168809Y0226831D01*
X0168721Y0226697D01*
X0168629Y0226565D01*
X0168534Y0226435D01*
X0168436Y0226307D01*
X0168335Y0226182D01*
X0168231Y0226060D01*
X0168124Y0225940D01*
X0168014Y0225823D01*
X0167901Y0225708D01*
X0167785Y0225597D01*
X0167666Y0225488D01*
X0167545Y0225383D01*
X0167421Y0225280D01*
X0167295Y0225180D01*
X0167167Y0225084D01*
X0167036Y0224991D01*
X0166902Y0224901D01*
X0166767Y0224814D01*
X0166629Y0224731D01*
X0166490Y0224651D01*
X0166348Y0224575D01*
X0166205Y0224502D01*
X0166060Y0224433D01*
X0165913Y0224367D01*
X0165765Y0224305D01*
X0165615Y0224247D01*
X0165464Y0224192D01*
X0165311Y0224141D01*
X0165157Y0224094D01*
X0165002Y0224051D01*
X0164846Y0224012D01*
X0164690Y0223976D01*
X0164532Y0223945D01*
X0164374Y0223917D01*
X0164215Y0223893D01*
X0164055Y0223873D01*
X0163895Y0223857D01*
X0163735Y0223845D01*
X0163574Y0223837D01*
X0163413Y0223833D01*
X0163253Y0223833D01*
X0163092Y0223837D01*
X0162931Y0223845D01*
X0162771Y0223857D01*
X0162611Y0223873D01*
X0162451Y0223893D01*
X0162292Y0223917D01*
X0162134Y0223945D01*
X0161976Y0223976D01*
X0161820Y0224012D01*
X0161664Y0224051D01*
X0161509Y0224094D01*
X0161355Y0224141D01*
X0161202Y0224192D01*
X0161051Y0224247D01*
X0160901Y0224305D01*
X0160753Y0224367D01*
X0160606Y0224433D01*
X0160461Y0224502D01*
X0160318Y0224575D01*
X0160176Y0224651D01*
X0160037Y0224731D01*
X0159899Y0224814D01*
X0159764Y0224901D01*
X0159630Y0224991D01*
X0159499Y0225084D01*
X0159371Y0225180D01*
X0159245Y0225280D01*
X0159121Y0225383D01*
X0159000Y0225488D01*
X0158881Y0225597D01*
X0158765Y0225708D01*
X0158652Y0225823D01*
X0158542Y0225940D01*
X0158435Y0226060D01*
X0158331Y0226182D01*
X0158230Y0226307D01*
X0158132Y0226435D01*
X0158037Y0226565D01*
X0157945Y0226697D01*
X0157857Y0226831D01*
X0157772Y0226968D01*
X0157690Y0227106D01*
X0157612Y0227247D01*
X0157538Y0227389D01*
X0157467Y0227533D01*
X0157399Y0227679D01*
X0157336Y0227827D01*
X0157275Y0227976D01*
X0157219Y0228127D01*
X0157166Y0228279D01*
X0157117Y0228432D01*
X0157072Y0228586D01*
X0157031Y0228741D01*
X0156993Y0228898D01*
X0156960Y0229055D01*
X0156930Y0229213D01*
X0156904Y0229372D01*
X0156883Y0229531D01*
X0156865Y0229691D01*
X0156851Y0229851D01*
X0156841Y0230012D01*
X0156835Y0230172D01*
X0156833Y0230333D01*
X0178833Y0230333D02*
X0178835Y0230494D01*
X0178841Y0230654D01*
X0178851Y0230815D01*
X0178865Y0230975D01*
X0178883Y0231135D01*
X0178904Y0231294D01*
X0178930Y0231453D01*
X0178960Y0231611D01*
X0178993Y0231768D01*
X0179031Y0231925D01*
X0179072Y0232080D01*
X0179117Y0232234D01*
X0179166Y0232387D01*
X0179219Y0232539D01*
X0179275Y0232690D01*
X0179336Y0232839D01*
X0179399Y0232987D01*
X0179467Y0233133D01*
X0179538Y0233277D01*
X0179612Y0233419D01*
X0179690Y0233560D01*
X0179772Y0233698D01*
X0179857Y0233835D01*
X0179945Y0233969D01*
X0180037Y0234101D01*
X0180132Y0234231D01*
X0180230Y0234359D01*
X0180331Y0234484D01*
X0180435Y0234606D01*
X0180542Y0234726D01*
X0180652Y0234843D01*
X0180765Y0234958D01*
X0180881Y0235069D01*
X0181000Y0235178D01*
X0181121Y0235283D01*
X0181245Y0235386D01*
X0181371Y0235486D01*
X0181499Y0235582D01*
X0181630Y0235675D01*
X0181764Y0235765D01*
X0181899Y0235852D01*
X0182037Y0235935D01*
X0182176Y0236015D01*
X0182318Y0236091D01*
X0182461Y0236164D01*
X0182606Y0236233D01*
X0182753Y0236299D01*
X0182901Y0236361D01*
X0183051Y0236419D01*
X0183202Y0236474D01*
X0183355Y0236525D01*
X0183509Y0236572D01*
X0183664Y0236615D01*
X0183820Y0236654D01*
X0183976Y0236690D01*
X0184134Y0236721D01*
X0184292Y0236749D01*
X0184451Y0236773D01*
X0184611Y0236793D01*
X0184771Y0236809D01*
X0184931Y0236821D01*
X0185092Y0236829D01*
X0185253Y0236833D01*
X0185413Y0236833D01*
X0185574Y0236829D01*
X0185735Y0236821D01*
X0185895Y0236809D01*
X0186055Y0236793D01*
X0186215Y0236773D01*
X0186374Y0236749D01*
X0186532Y0236721D01*
X0186690Y0236690D01*
X0186846Y0236654D01*
X0187002Y0236615D01*
X0187157Y0236572D01*
X0187311Y0236525D01*
X0187464Y0236474D01*
X0187615Y0236419D01*
X0187765Y0236361D01*
X0187913Y0236299D01*
X0188060Y0236233D01*
X0188205Y0236164D01*
X0188348Y0236091D01*
X0188490Y0236015D01*
X0188629Y0235935D01*
X0188767Y0235852D01*
X0188902Y0235765D01*
X0189036Y0235675D01*
X0189167Y0235582D01*
X0189295Y0235486D01*
X0189421Y0235386D01*
X0189545Y0235283D01*
X0189666Y0235178D01*
X0189785Y0235069D01*
X0189901Y0234958D01*
X0190014Y0234843D01*
X0190124Y0234726D01*
X0190231Y0234606D01*
X0190335Y0234484D01*
X0190436Y0234359D01*
X0190534Y0234231D01*
X0190629Y0234101D01*
X0190721Y0233969D01*
X0190809Y0233835D01*
X0190894Y0233698D01*
X0190976Y0233560D01*
X0191054Y0233419D01*
X0191128Y0233277D01*
X0191199Y0233133D01*
X0191267Y0232987D01*
X0191330Y0232839D01*
X0191391Y0232690D01*
X0191447Y0232539D01*
X0191500Y0232387D01*
X0191549Y0232234D01*
X0191594Y0232080D01*
X0191635Y0231925D01*
X0191673Y0231768D01*
X0191706Y0231611D01*
X0191736Y0231453D01*
X0191762Y0231294D01*
X0191783Y0231135D01*
X0191801Y0230975D01*
X0191815Y0230815D01*
X0191825Y0230654D01*
X0191831Y0230494D01*
X0191833Y0230333D01*
X0191831Y0230172D01*
X0191825Y0230012D01*
X0191815Y0229851D01*
X0191801Y0229691D01*
X0191783Y0229531D01*
X0191762Y0229372D01*
X0191736Y0229213D01*
X0191706Y0229055D01*
X0191673Y0228898D01*
X0191635Y0228741D01*
X0191594Y0228586D01*
X0191549Y0228432D01*
X0191500Y0228279D01*
X0191447Y0228127D01*
X0191391Y0227976D01*
X0191330Y0227827D01*
X0191267Y0227679D01*
X0191199Y0227533D01*
X0191128Y0227389D01*
X0191054Y0227247D01*
X0190976Y0227106D01*
X0190894Y0226968D01*
X0190809Y0226831D01*
X0190721Y0226697D01*
X0190629Y0226565D01*
X0190534Y0226435D01*
X0190436Y0226307D01*
X0190335Y0226182D01*
X0190231Y0226060D01*
X0190124Y0225940D01*
X0190014Y0225823D01*
X0189901Y0225708D01*
X0189785Y0225597D01*
X0189666Y0225488D01*
X0189545Y0225383D01*
X0189421Y0225280D01*
X0189295Y0225180D01*
X0189167Y0225084D01*
X0189036Y0224991D01*
X0188902Y0224901D01*
X0188767Y0224814D01*
X0188629Y0224731D01*
X0188490Y0224651D01*
X0188348Y0224575D01*
X0188205Y0224502D01*
X0188060Y0224433D01*
X0187913Y0224367D01*
X0187765Y0224305D01*
X0187615Y0224247D01*
X0187464Y0224192D01*
X0187311Y0224141D01*
X0187157Y0224094D01*
X0187002Y0224051D01*
X0186846Y0224012D01*
X0186690Y0223976D01*
X0186532Y0223945D01*
X0186374Y0223917D01*
X0186215Y0223893D01*
X0186055Y0223873D01*
X0185895Y0223857D01*
X0185735Y0223845D01*
X0185574Y0223837D01*
X0185413Y0223833D01*
X0185253Y0223833D01*
X0185092Y0223837D01*
X0184931Y0223845D01*
X0184771Y0223857D01*
X0184611Y0223873D01*
X0184451Y0223893D01*
X0184292Y0223917D01*
X0184134Y0223945D01*
X0183976Y0223976D01*
X0183820Y0224012D01*
X0183664Y0224051D01*
X0183509Y0224094D01*
X0183355Y0224141D01*
X0183202Y0224192D01*
X0183051Y0224247D01*
X0182901Y0224305D01*
X0182753Y0224367D01*
X0182606Y0224433D01*
X0182461Y0224502D01*
X0182318Y0224575D01*
X0182176Y0224651D01*
X0182037Y0224731D01*
X0181899Y0224814D01*
X0181764Y0224901D01*
X0181630Y0224991D01*
X0181499Y0225084D01*
X0181371Y0225180D01*
X0181245Y0225280D01*
X0181121Y0225383D01*
X0181000Y0225488D01*
X0180881Y0225597D01*
X0180765Y0225708D01*
X0180652Y0225823D01*
X0180542Y0225940D01*
X0180435Y0226060D01*
X0180331Y0226182D01*
X0180230Y0226307D01*
X0180132Y0226435D01*
X0180037Y0226565D01*
X0179945Y0226697D01*
X0179857Y0226831D01*
X0179772Y0226968D01*
X0179690Y0227106D01*
X0179612Y0227247D01*
X0179538Y0227389D01*
X0179467Y0227533D01*
X0179399Y0227679D01*
X0179336Y0227827D01*
X0179275Y0227976D01*
X0179219Y0228127D01*
X0179166Y0228279D01*
X0179117Y0228432D01*
X0179072Y0228586D01*
X0179031Y0228741D01*
X0178993Y0228898D01*
X0178960Y0229055D01*
X0178930Y0229213D01*
X0178904Y0229372D01*
X0178883Y0229531D01*
X0178865Y0229691D01*
X0178851Y0229851D01*
X0178841Y0230012D01*
X0178835Y0230172D01*
X0178833Y0230333D01*
X0258833Y0230333D02*
X0258835Y0230494D01*
X0258841Y0230654D01*
X0258851Y0230815D01*
X0258865Y0230975D01*
X0258883Y0231135D01*
X0258904Y0231294D01*
X0258930Y0231453D01*
X0258960Y0231611D01*
X0258993Y0231768D01*
X0259031Y0231925D01*
X0259072Y0232080D01*
X0259117Y0232234D01*
X0259166Y0232387D01*
X0259219Y0232539D01*
X0259275Y0232690D01*
X0259336Y0232839D01*
X0259399Y0232987D01*
X0259467Y0233133D01*
X0259538Y0233277D01*
X0259612Y0233419D01*
X0259690Y0233560D01*
X0259772Y0233698D01*
X0259857Y0233835D01*
X0259945Y0233969D01*
X0260037Y0234101D01*
X0260132Y0234231D01*
X0260230Y0234359D01*
X0260331Y0234484D01*
X0260435Y0234606D01*
X0260542Y0234726D01*
X0260652Y0234843D01*
X0260765Y0234958D01*
X0260881Y0235069D01*
X0261000Y0235178D01*
X0261121Y0235283D01*
X0261245Y0235386D01*
X0261371Y0235486D01*
X0261499Y0235582D01*
X0261630Y0235675D01*
X0261764Y0235765D01*
X0261899Y0235852D01*
X0262037Y0235935D01*
X0262176Y0236015D01*
X0262318Y0236091D01*
X0262461Y0236164D01*
X0262606Y0236233D01*
X0262753Y0236299D01*
X0262901Y0236361D01*
X0263051Y0236419D01*
X0263202Y0236474D01*
X0263355Y0236525D01*
X0263509Y0236572D01*
X0263664Y0236615D01*
X0263820Y0236654D01*
X0263976Y0236690D01*
X0264134Y0236721D01*
X0264292Y0236749D01*
X0264451Y0236773D01*
X0264611Y0236793D01*
X0264771Y0236809D01*
X0264931Y0236821D01*
X0265092Y0236829D01*
X0265253Y0236833D01*
X0265413Y0236833D01*
X0265574Y0236829D01*
X0265735Y0236821D01*
X0265895Y0236809D01*
X0266055Y0236793D01*
X0266215Y0236773D01*
X0266374Y0236749D01*
X0266532Y0236721D01*
X0266690Y0236690D01*
X0266846Y0236654D01*
X0267002Y0236615D01*
X0267157Y0236572D01*
X0267311Y0236525D01*
X0267464Y0236474D01*
X0267615Y0236419D01*
X0267765Y0236361D01*
X0267913Y0236299D01*
X0268060Y0236233D01*
X0268205Y0236164D01*
X0268348Y0236091D01*
X0268490Y0236015D01*
X0268629Y0235935D01*
X0268767Y0235852D01*
X0268902Y0235765D01*
X0269036Y0235675D01*
X0269167Y0235582D01*
X0269295Y0235486D01*
X0269421Y0235386D01*
X0269545Y0235283D01*
X0269666Y0235178D01*
X0269785Y0235069D01*
X0269901Y0234958D01*
X0270014Y0234843D01*
X0270124Y0234726D01*
X0270231Y0234606D01*
X0270335Y0234484D01*
X0270436Y0234359D01*
X0270534Y0234231D01*
X0270629Y0234101D01*
X0270721Y0233969D01*
X0270809Y0233835D01*
X0270894Y0233698D01*
X0270976Y0233560D01*
X0271054Y0233419D01*
X0271128Y0233277D01*
X0271199Y0233133D01*
X0271267Y0232987D01*
X0271330Y0232839D01*
X0271391Y0232690D01*
X0271447Y0232539D01*
X0271500Y0232387D01*
X0271549Y0232234D01*
X0271594Y0232080D01*
X0271635Y0231925D01*
X0271673Y0231768D01*
X0271706Y0231611D01*
X0271736Y0231453D01*
X0271762Y0231294D01*
X0271783Y0231135D01*
X0271801Y0230975D01*
X0271815Y0230815D01*
X0271825Y0230654D01*
X0271831Y0230494D01*
X0271833Y0230333D01*
X0271831Y0230172D01*
X0271825Y0230012D01*
X0271815Y0229851D01*
X0271801Y0229691D01*
X0271783Y0229531D01*
X0271762Y0229372D01*
X0271736Y0229213D01*
X0271706Y0229055D01*
X0271673Y0228898D01*
X0271635Y0228741D01*
X0271594Y0228586D01*
X0271549Y0228432D01*
X0271500Y0228279D01*
X0271447Y0228127D01*
X0271391Y0227976D01*
X0271330Y0227827D01*
X0271267Y0227679D01*
X0271199Y0227533D01*
X0271128Y0227389D01*
X0271054Y0227247D01*
X0270976Y0227106D01*
X0270894Y0226968D01*
X0270809Y0226831D01*
X0270721Y0226697D01*
X0270629Y0226565D01*
X0270534Y0226435D01*
X0270436Y0226307D01*
X0270335Y0226182D01*
X0270231Y0226060D01*
X0270124Y0225940D01*
X0270014Y0225823D01*
X0269901Y0225708D01*
X0269785Y0225597D01*
X0269666Y0225488D01*
X0269545Y0225383D01*
X0269421Y0225280D01*
X0269295Y0225180D01*
X0269167Y0225084D01*
X0269036Y0224991D01*
X0268902Y0224901D01*
X0268767Y0224814D01*
X0268629Y0224731D01*
X0268490Y0224651D01*
X0268348Y0224575D01*
X0268205Y0224502D01*
X0268060Y0224433D01*
X0267913Y0224367D01*
X0267765Y0224305D01*
X0267615Y0224247D01*
X0267464Y0224192D01*
X0267311Y0224141D01*
X0267157Y0224094D01*
X0267002Y0224051D01*
X0266846Y0224012D01*
X0266690Y0223976D01*
X0266532Y0223945D01*
X0266374Y0223917D01*
X0266215Y0223893D01*
X0266055Y0223873D01*
X0265895Y0223857D01*
X0265735Y0223845D01*
X0265574Y0223837D01*
X0265413Y0223833D01*
X0265253Y0223833D01*
X0265092Y0223837D01*
X0264931Y0223845D01*
X0264771Y0223857D01*
X0264611Y0223873D01*
X0264451Y0223893D01*
X0264292Y0223917D01*
X0264134Y0223945D01*
X0263976Y0223976D01*
X0263820Y0224012D01*
X0263664Y0224051D01*
X0263509Y0224094D01*
X0263355Y0224141D01*
X0263202Y0224192D01*
X0263051Y0224247D01*
X0262901Y0224305D01*
X0262753Y0224367D01*
X0262606Y0224433D01*
X0262461Y0224502D01*
X0262318Y0224575D01*
X0262176Y0224651D01*
X0262037Y0224731D01*
X0261899Y0224814D01*
X0261764Y0224901D01*
X0261630Y0224991D01*
X0261499Y0225084D01*
X0261371Y0225180D01*
X0261245Y0225280D01*
X0261121Y0225383D01*
X0261000Y0225488D01*
X0260881Y0225597D01*
X0260765Y0225708D01*
X0260652Y0225823D01*
X0260542Y0225940D01*
X0260435Y0226060D01*
X0260331Y0226182D01*
X0260230Y0226307D01*
X0260132Y0226435D01*
X0260037Y0226565D01*
X0259945Y0226697D01*
X0259857Y0226831D01*
X0259772Y0226968D01*
X0259690Y0227106D01*
X0259612Y0227247D01*
X0259538Y0227389D01*
X0259467Y0227533D01*
X0259399Y0227679D01*
X0259336Y0227827D01*
X0259275Y0227976D01*
X0259219Y0228127D01*
X0259166Y0228279D01*
X0259117Y0228432D01*
X0259072Y0228586D01*
X0259031Y0228741D01*
X0258993Y0228898D01*
X0258960Y0229055D01*
X0258930Y0229213D01*
X0258904Y0229372D01*
X0258883Y0229531D01*
X0258865Y0229691D01*
X0258851Y0229851D01*
X0258841Y0230012D01*
X0258835Y0230172D01*
X0258833Y0230333D01*
X0280833Y0230333D02*
X0280835Y0230494D01*
X0280841Y0230654D01*
X0280851Y0230815D01*
X0280865Y0230975D01*
X0280883Y0231135D01*
X0280904Y0231294D01*
X0280930Y0231453D01*
X0280960Y0231611D01*
X0280993Y0231768D01*
X0281031Y0231925D01*
X0281072Y0232080D01*
X0281117Y0232234D01*
X0281166Y0232387D01*
X0281219Y0232539D01*
X0281275Y0232690D01*
X0281336Y0232839D01*
X0281399Y0232987D01*
X0281467Y0233133D01*
X0281538Y0233277D01*
X0281612Y0233419D01*
X0281690Y0233560D01*
X0281772Y0233698D01*
X0281857Y0233835D01*
X0281945Y0233969D01*
X0282037Y0234101D01*
X0282132Y0234231D01*
X0282230Y0234359D01*
X0282331Y0234484D01*
X0282435Y0234606D01*
X0282542Y0234726D01*
X0282652Y0234843D01*
X0282765Y0234958D01*
X0282881Y0235069D01*
X0283000Y0235178D01*
X0283121Y0235283D01*
X0283245Y0235386D01*
X0283371Y0235486D01*
X0283499Y0235582D01*
X0283630Y0235675D01*
X0283764Y0235765D01*
X0283899Y0235852D01*
X0284037Y0235935D01*
X0284176Y0236015D01*
X0284318Y0236091D01*
X0284461Y0236164D01*
X0284606Y0236233D01*
X0284753Y0236299D01*
X0284901Y0236361D01*
X0285051Y0236419D01*
X0285202Y0236474D01*
X0285355Y0236525D01*
X0285509Y0236572D01*
X0285664Y0236615D01*
X0285820Y0236654D01*
X0285976Y0236690D01*
X0286134Y0236721D01*
X0286292Y0236749D01*
X0286451Y0236773D01*
X0286611Y0236793D01*
X0286771Y0236809D01*
X0286931Y0236821D01*
X0287092Y0236829D01*
X0287253Y0236833D01*
X0287413Y0236833D01*
X0287574Y0236829D01*
X0287735Y0236821D01*
X0287895Y0236809D01*
X0288055Y0236793D01*
X0288215Y0236773D01*
X0288374Y0236749D01*
X0288532Y0236721D01*
X0288690Y0236690D01*
X0288846Y0236654D01*
X0289002Y0236615D01*
X0289157Y0236572D01*
X0289311Y0236525D01*
X0289464Y0236474D01*
X0289615Y0236419D01*
X0289765Y0236361D01*
X0289913Y0236299D01*
X0290060Y0236233D01*
X0290205Y0236164D01*
X0290348Y0236091D01*
X0290490Y0236015D01*
X0290629Y0235935D01*
X0290767Y0235852D01*
X0290902Y0235765D01*
X0291036Y0235675D01*
X0291167Y0235582D01*
X0291295Y0235486D01*
X0291421Y0235386D01*
X0291545Y0235283D01*
X0291666Y0235178D01*
X0291785Y0235069D01*
X0291901Y0234958D01*
X0292014Y0234843D01*
X0292124Y0234726D01*
X0292231Y0234606D01*
X0292335Y0234484D01*
X0292436Y0234359D01*
X0292534Y0234231D01*
X0292629Y0234101D01*
X0292721Y0233969D01*
X0292809Y0233835D01*
X0292894Y0233698D01*
X0292976Y0233560D01*
X0293054Y0233419D01*
X0293128Y0233277D01*
X0293199Y0233133D01*
X0293267Y0232987D01*
X0293330Y0232839D01*
X0293391Y0232690D01*
X0293447Y0232539D01*
X0293500Y0232387D01*
X0293549Y0232234D01*
X0293594Y0232080D01*
X0293635Y0231925D01*
X0293673Y0231768D01*
X0293706Y0231611D01*
X0293736Y0231453D01*
X0293762Y0231294D01*
X0293783Y0231135D01*
X0293801Y0230975D01*
X0293815Y0230815D01*
X0293825Y0230654D01*
X0293831Y0230494D01*
X0293833Y0230333D01*
X0293831Y0230172D01*
X0293825Y0230012D01*
X0293815Y0229851D01*
X0293801Y0229691D01*
X0293783Y0229531D01*
X0293762Y0229372D01*
X0293736Y0229213D01*
X0293706Y0229055D01*
X0293673Y0228898D01*
X0293635Y0228741D01*
X0293594Y0228586D01*
X0293549Y0228432D01*
X0293500Y0228279D01*
X0293447Y0228127D01*
X0293391Y0227976D01*
X0293330Y0227827D01*
X0293267Y0227679D01*
X0293199Y0227533D01*
X0293128Y0227389D01*
X0293054Y0227247D01*
X0292976Y0227106D01*
X0292894Y0226968D01*
X0292809Y0226831D01*
X0292721Y0226697D01*
X0292629Y0226565D01*
X0292534Y0226435D01*
X0292436Y0226307D01*
X0292335Y0226182D01*
X0292231Y0226060D01*
X0292124Y0225940D01*
X0292014Y0225823D01*
X0291901Y0225708D01*
X0291785Y0225597D01*
X0291666Y0225488D01*
X0291545Y0225383D01*
X0291421Y0225280D01*
X0291295Y0225180D01*
X0291167Y0225084D01*
X0291036Y0224991D01*
X0290902Y0224901D01*
X0290767Y0224814D01*
X0290629Y0224731D01*
X0290490Y0224651D01*
X0290348Y0224575D01*
X0290205Y0224502D01*
X0290060Y0224433D01*
X0289913Y0224367D01*
X0289765Y0224305D01*
X0289615Y0224247D01*
X0289464Y0224192D01*
X0289311Y0224141D01*
X0289157Y0224094D01*
X0289002Y0224051D01*
X0288846Y0224012D01*
X0288690Y0223976D01*
X0288532Y0223945D01*
X0288374Y0223917D01*
X0288215Y0223893D01*
X0288055Y0223873D01*
X0287895Y0223857D01*
X0287735Y0223845D01*
X0287574Y0223837D01*
X0287413Y0223833D01*
X0287253Y0223833D01*
X0287092Y0223837D01*
X0286931Y0223845D01*
X0286771Y0223857D01*
X0286611Y0223873D01*
X0286451Y0223893D01*
X0286292Y0223917D01*
X0286134Y0223945D01*
X0285976Y0223976D01*
X0285820Y0224012D01*
X0285664Y0224051D01*
X0285509Y0224094D01*
X0285355Y0224141D01*
X0285202Y0224192D01*
X0285051Y0224247D01*
X0284901Y0224305D01*
X0284753Y0224367D01*
X0284606Y0224433D01*
X0284461Y0224502D01*
X0284318Y0224575D01*
X0284176Y0224651D01*
X0284037Y0224731D01*
X0283899Y0224814D01*
X0283764Y0224901D01*
X0283630Y0224991D01*
X0283499Y0225084D01*
X0283371Y0225180D01*
X0283245Y0225280D01*
X0283121Y0225383D01*
X0283000Y0225488D01*
X0282881Y0225597D01*
X0282765Y0225708D01*
X0282652Y0225823D01*
X0282542Y0225940D01*
X0282435Y0226060D01*
X0282331Y0226182D01*
X0282230Y0226307D01*
X0282132Y0226435D01*
X0282037Y0226565D01*
X0281945Y0226697D01*
X0281857Y0226831D01*
X0281772Y0226968D01*
X0281690Y0227106D01*
X0281612Y0227247D01*
X0281538Y0227389D01*
X0281467Y0227533D01*
X0281399Y0227679D01*
X0281336Y0227827D01*
X0281275Y0227976D01*
X0281219Y0228127D01*
X0281166Y0228279D01*
X0281117Y0228432D01*
X0281072Y0228586D01*
X0281031Y0228741D01*
X0280993Y0228898D01*
X0280960Y0229055D01*
X0280930Y0229213D01*
X0280904Y0229372D01*
X0280883Y0229531D01*
X0280865Y0229691D01*
X0280851Y0229851D01*
X0280841Y0230012D01*
X0280835Y0230172D01*
X0280833Y0230333D01*
X0360833Y0230333D02*
X0360835Y0230494D01*
X0360841Y0230654D01*
X0360851Y0230815D01*
X0360865Y0230975D01*
X0360883Y0231135D01*
X0360904Y0231294D01*
X0360930Y0231453D01*
X0360960Y0231611D01*
X0360993Y0231768D01*
X0361031Y0231925D01*
X0361072Y0232080D01*
X0361117Y0232234D01*
X0361166Y0232387D01*
X0361219Y0232539D01*
X0361275Y0232690D01*
X0361336Y0232839D01*
X0361399Y0232987D01*
X0361467Y0233133D01*
X0361538Y0233277D01*
X0361612Y0233419D01*
X0361690Y0233560D01*
X0361772Y0233698D01*
X0361857Y0233835D01*
X0361945Y0233969D01*
X0362037Y0234101D01*
X0362132Y0234231D01*
X0362230Y0234359D01*
X0362331Y0234484D01*
X0362435Y0234606D01*
X0362542Y0234726D01*
X0362652Y0234843D01*
X0362765Y0234958D01*
X0362881Y0235069D01*
X0363000Y0235178D01*
X0363121Y0235283D01*
X0363245Y0235386D01*
X0363371Y0235486D01*
X0363499Y0235582D01*
X0363630Y0235675D01*
X0363764Y0235765D01*
X0363899Y0235852D01*
X0364037Y0235935D01*
X0364176Y0236015D01*
X0364318Y0236091D01*
X0364461Y0236164D01*
X0364606Y0236233D01*
X0364753Y0236299D01*
X0364901Y0236361D01*
X0365051Y0236419D01*
X0365202Y0236474D01*
X0365355Y0236525D01*
X0365509Y0236572D01*
X0365664Y0236615D01*
X0365820Y0236654D01*
X0365976Y0236690D01*
X0366134Y0236721D01*
X0366292Y0236749D01*
X0366451Y0236773D01*
X0366611Y0236793D01*
X0366771Y0236809D01*
X0366931Y0236821D01*
X0367092Y0236829D01*
X0367253Y0236833D01*
X0367413Y0236833D01*
X0367574Y0236829D01*
X0367735Y0236821D01*
X0367895Y0236809D01*
X0368055Y0236793D01*
X0368215Y0236773D01*
X0368374Y0236749D01*
X0368532Y0236721D01*
X0368690Y0236690D01*
X0368846Y0236654D01*
X0369002Y0236615D01*
X0369157Y0236572D01*
X0369311Y0236525D01*
X0369464Y0236474D01*
X0369615Y0236419D01*
X0369765Y0236361D01*
X0369913Y0236299D01*
X0370060Y0236233D01*
X0370205Y0236164D01*
X0370348Y0236091D01*
X0370490Y0236015D01*
X0370629Y0235935D01*
X0370767Y0235852D01*
X0370902Y0235765D01*
X0371036Y0235675D01*
X0371167Y0235582D01*
X0371295Y0235486D01*
X0371421Y0235386D01*
X0371545Y0235283D01*
X0371666Y0235178D01*
X0371785Y0235069D01*
X0371901Y0234958D01*
X0372014Y0234843D01*
X0372124Y0234726D01*
X0372231Y0234606D01*
X0372335Y0234484D01*
X0372436Y0234359D01*
X0372534Y0234231D01*
X0372629Y0234101D01*
X0372721Y0233969D01*
X0372809Y0233835D01*
X0372894Y0233698D01*
X0372976Y0233560D01*
X0373054Y0233419D01*
X0373128Y0233277D01*
X0373199Y0233133D01*
X0373267Y0232987D01*
X0373330Y0232839D01*
X0373391Y0232690D01*
X0373447Y0232539D01*
X0373500Y0232387D01*
X0373549Y0232234D01*
X0373594Y0232080D01*
X0373635Y0231925D01*
X0373673Y0231768D01*
X0373706Y0231611D01*
X0373736Y0231453D01*
X0373762Y0231294D01*
X0373783Y0231135D01*
X0373801Y0230975D01*
X0373815Y0230815D01*
X0373825Y0230654D01*
X0373831Y0230494D01*
X0373833Y0230333D01*
X0373831Y0230172D01*
X0373825Y0230012D01*
X0373815Y0229851D01*
X0373801Y0229691D01*
X0373783Y0229531D01*
X0373762Y0229372D01*
X0373736Y0229213D01*
X0373706Y0229055D01*
X0373673Y0228898D01*
X0373635Y0228741D01*
X0373594Y0228586D01*
X0373549Y0228432D01*
X0373500Y0228279D01*
X0373447Y0228127D01*
X0373391Y0227976D01*
X0373330Y0227827D01*
X0373267Y0227679D01*
X0373199Y0227533D01*
X0373128Y0227389D01*
X0373054Y0227247D01*
X0372976Y0227106D01*
X0372894Y0226968D01*
X0372809Y0226831D01*
X0372721Y0226697D01*
X0372629Y0226565D01*
X0372534Y0226435D01*
X0372436Y0226307D01*
X0372335Y0226182D01*
X0372231Y0226060D01*
X0372124Y0225940D01*
X0372014Y0225823D01*
X0371901Y0225708D01*
X0371785Y0225597D01*
X0371666Y0225488D01*
X0371545Y0225383D01*
X0371421Y0225280D01*
X0371295Y0225180D01*
X0371167Y0225084D01*
X0371036Y0224991D01*
X0370902Y0224901D01*
X0370767Y0224814D01*
X0370629Y0224731D01*
X0370490Y0224651D01*
X0370348Y0224575D01*
X0370205Y0224502D01*
X0370060Y0224433D01*
X0369913Y0224367D01*
X0369765Y0224305D01*
X0369615Y0224247D01*
X0369464Y0224192D01*
X0369311Y0224141D01*
X0369157Y0224094D01*
X0369002Y0224051D01*
X0368846Y0224012D01*
X0368690Y0223976D01*
X0368532Y0223945D01*
X0368374Y0223917D01*
X0368215Y0223893D01*
X0368055Y0223873D01*
X0367895Y0223857D01*
X0367735Y0223845D01*
X0367574Y0223837D01*
X0367413Y0223833D01*
X0367253Y0223833D01*
X0367092Y0223837D01*
X0366931Y0223845D01*
X0366771Y0223857D01*
X0366611Y0223873D01*
X0366451Y0223893D01*
X0366292Y0223917D01*
X0366134Y0223945D01*
X0365976Y0223976D01*
X0365820Y0224012D01*
X0365664Y0224051D01*
X0365509Y0224094D01*
X0365355Y0224141D01*
X0365202Y0224192D01*
X0365051Y0224247D01*
X0364901Y0224305D01*
X0364753Y0224367D01*
X0364606Y0224433D01*
X0364461Y0224502D01*
X0364318Y0224575D01*
X0364176Y0224651D01*
X0364037Y0224731D01*
X0363899Y0224814D01*
X0363764Y0224901D01*
X0363630Y0224991D01*
X0363499Y0225084D01*
X0363371Y0225180D01*
X0363245Y0225280D01*
X0363121Y0225383D01*
X0363000Y0225488D01*
X0362881Y0225597D01*
X0362765Y0225708D01*
X0362652Y0225823D01*
X0362542Y0225940D01*
X0362435Y0226060D01*
X0362331Y0226182D01*
X0362230Y0226307D01*
X0362132Y0226435D01*
X0362037Y0226565D01*
X0361945Y0226697D01*
X0361857Y0226831D01*
X0361772Y0226968D01*
X0361690Y0227106D01*
X0361612Y0227247D01*
X0361538Y0227389D01*
X0361467Y0227533D01*
X0361399Y0227679D01*
X0361336Y0227827D01*
X0361275Y0227976D01*
X0361219Y0228127D01*
X0361166Y0228279D01*
X0361117Y0228432D01*
X0361072Y0228586D01*
X0361031Y0228741D01*
X0360993Y0228898D01*
X0360960Y0229055D01*
X0360930Y0229213D01*
X0360904Y0229372D01*
X0360883Y0229531D01*
X0360865Y0229691D01*
X0360851Y0229851D01*
X0360841Y0230012D01*
X0360835Y0230172D01*
X0360833Y0230333D01*
X0360833Y0332333D02*
X0360835Y0332494D01*
X0360841Y0332654D01*
X0360851Y0332815D01*
X0360865Y0332975D01*
X0360883Y0333135D01*
X0360904Y0333294D01*
X0360930Y0333453D01*
X0360960Y0333611D01*
X0360993Y0333768D01*
X0361031Y0333925D01*
X0361072Y0334080D01*
X0361117Y0334234D01*
X0361166Y0334387D01*
X0361219Y0334539D01*
X0361275Y0334690D01*
X0361336Y0334839D01*
X0361399Y0334987D01*
X0361467Y0335133D01*
X0361538Y0335277D01*
X0361612Y0335419D01*
X0361690Y0335560D01*
X0361772Y0335698D01*
X0361857Y0335835D01*
X0361945Y0335969D01*
X0362037Y0336101D01*
X0362132Y0336231D01*
X0362230Y0336359D01*
X0362331Y0336484D01*
X0362435Y0336606D01*
X0362542Y0336726D01*
X0362652Y0336843D01*
X0362765Y0336958D01*
X0362881Y0337069D01*
X0363000Y0337178D01*
X0363121Y0337283D01*
X0363245Y0337386D01*
X0363371Y0337486D01*
X0363499Y0337582D01*
X0363630Y0337675D01*
X0363764Y0337765D01*
X0363899Y0337852D01*
X0364037Y0337935D01*
X0364176Y0338015D01*
X0364318Y0338091D01*
X0364461Y0338164D01*
X0364606Y0338233D01*
X0364753Y0338299D01*
X0364901Y0338361D01*
X0365051Y0338419D01*
X0365202Y0338474D01*
X0365355Y0338525D01*
X0365509Y0338572D01*
X0365664Y0338615D01*
X0365820Y0338654D01*
X0365976Y0338690D01*
X0366134Y0338721D01*
X0366292Y0338749D01*
X0366451Y0338773D01*
X0366611Y0338793D01*
X0366771Y0338809D01*
X0366931Y0338821D01*
X0367092Y0338829D01*
X0367253Y0338833D01*
X0367413Y0338833D01*
X0367574Y0338829D01*
X0367735Y0338821D01*
X0367895Y0338809D01*
X0368055Y0338793D01*
X0368215Y0338773D01*
X0368374Y0338749D01*
X0368532Y0338721D01*
X0368690Y0338690D01*
X0368846Y0338654D01*
X0369002Y0338615D01*
X0369157Y0338572D01*
X0369311Y0338525D01*
X0369464Y0338474D01*
X0369615Y0338419D01*
X0369765Y0338361D01*
X0369913Y0338299D01*
X0370060Y0338233D01*
X0370205Y0338164D01*
X0370348Y0338091D01*
X0370490Y0338015D01*
X0370629Y0337935D01*
X0370767Y0337852D01*
X0370902Y0337765D01*
X0371036Y0337675D01*
X0371167Y0337582D01*
X0371295Y0337486D01*
X0371421Y0337386D01*
X0371545Y0337283D01*
X0371666Y0337178D01*
X0371785Y0337069D01*
X0371901Y0336958D01*
X0372014Y0336843D01*
X0372124Y0336726D01*
X0372231Y0336606D01*
X0372335Y0336484D01*
X0372436Y0336359D01*
X0372534Y0336231D01*
X0372629Y0336101D01*
X0372721Y0335969D01*
X0372809Y0335835D01*
X0372894Y0335698D01*
X0372976Y0335560D01*
X0373054Y0335419D01*
X0373128Y0335277D01*
X0373199Y0335133D01*
X0373267Y0334987D01*
X0373330Y0334839D01*
X0373391Y0334690D01*
X0373447Y0334539D01*
X0373500Y0334387D01*
X0373549Y0334234D01*
X0373594Y0334080D01*
X0373635Y0333925D01*
X0373673Y0333768D01*
X0373706Y0333611D01*
X0373736Y0333453D01*
X0373762Y0333294D01*
X0373783Y0333135D01*
X0373801Y0332975D01*
X0373815Y0332815D01*
X0373825Y0332654D01*
X0373831Y0332494D01*
X0373833Y0332333D01*
X0373831Y0332172D01*
X0373825Y0332012D01*
X0373815Y0331851D01*
X0373801Y0331691D01*
X0373783Y0331531D01*
X0373762Y0331372D01*
X0373736Y0331213D01*
X0373706Y0331055D01*
X0373673Y0330898D01*
X0373635Y0330741D01*
X0373594Y0330586D01*
X0373549Y0330432D01*
X0373500Y0330279D01*
X0373447Y0330127D01*
X0373391Y0329976D01*
X0373330Y0329827D01*
X0373267Y0329679D01*
X0373199Y0329533D01*
X0373128Y0329389D01*
X0373054Y0329247D01*
X0372976Y0329106D01*
X0372894Y0328968D01*
X0372809Y0328831D01*
X0372721Y0328697D01*
X0372629Y0328565D01*
X0372534Y0328435D01*
X0372436Y0328307D01*
X0372335Y0328182D01*
X0372231Y0328060D01*
X0372124Y0327940D01*
X0372014Y0327823D01*
X0371901Y0327708D01*
X0371785Y0327597D01*
X0371666Y0327488D01*
X0371545Y0327383D01*
X0371421Y0327280D01*
X0371295Y0327180D01*
X0371167Y0327084D01*
X0371036Y0326991D01*
X0370902Y0326901D01*
X0370767Y0326814D01*
X0370629Y0326731D01*
X0370490Y0326651D01*
X0370348Y0326575D01*
X0370205Y0326502D01*
X0370060Y0326433D01*
X0369913Y0326367D01*
X0369765Y0326305D01*
X0369615Y0326247D01*
X0369464Y0326192D01*
X0369311Y0326141D01*
X0369157Y0326094D01*
X0369002Y0326051D01*
X0368846Y0326012D01*
X0368690Y0325976D01*
X0368532Y0325945D01*
X0368374Y0325917D01*
X0368215Y0325893D01*
X0368055Y0325873D01*
X0367895Y0325857D01*
X0367735Y0325845D01*
X0367574Y0325837D01*
X0367413Y0325833D01*
X0367253Y0325833D01*
X0367092Y0325837D01*
X0366931Y0325845D01*
X0366771Y0325857D01*
X0366611Y0325873D01*
X0366451Y0325893D01*
X0366292Y0325917D01*
X0366134Y0325945D01*
X0365976Y0325976D01*
X0365820Y0326012D01*
X0365664Y0326051D01*
X0365509Y0326094D01*
X0365355Y0326141D01*
X0365202Y0326192D01*
X0365051Y0326247D01*
X0364901Y0326305D01*
X0364753Y0326367D01*
X0364606Y0326433D01*
X0364461Y0326502D01*
X0364318Y0326575D01*
X0364176Y0326651D01*
X0364037Y0326731D01*
X0363899Y0326814D01*
X0363764Y0326901D01*
X0363630Y0326991D01*
X0363499Y0327084D01*
X0363371Y0327180D01*
X0363245Y0327280D01*
X0363121Y0327383D01*
X0363000Y0327488D01*
X0362881Y0327597D01*
X0362765Y0327708D01*
X0362652Y0327823D01*
X0362542Y0327940D01*
X0362435Y0328060D01*
X0362331Y0328182D01*
X0362230Y0328307D01*
X0362132Y0328435D01*
X0362037Y0328565D01*
X0361945Y0328697D01*
X0361857Y0328831D01*
X0361772Y0328968D01*
X0361690Y0329106D01*
X0361612Y0329247D01*
X0361538Y0329389D01*
X0361467Y0329533D01*
X0361399Y0329679D01*
X0361336Y0329827D01*
X0361275Y0329976D01*
X0361219Y0330127D01*
X0361166Y0330279D01*
X0361117Y0330432D01*
X0361072Y0330586D01*
X0361031Y0330741D01*
X0360993Y0330898D01*
X0360960Y0331055D01*
X0360930Y0331213D01*
X0360904Y0331372D01*
X0360883Y0331531D01*
X0360865Y0331691D01*
X0360851Y0331851D01*
X0360841Y0332012D01*
X0360835Y0332172D01*
X0360833Y0332333D01*
X0280833Y0332333D02*
X0280835Y0332494D01*
X0280841Y0332654D01*
X0280851Y0332815D01*
X0280865Y0332975D01*
X0280883Y0333135D01*
X0280904Y0333294D01*
X0280930Y0333453D01*
X0280960Y0333611D01*
X0280993Y0333768D01*
X0281031Y0333925D01*
X0281072Y0334080D01*
X0281117Y0334234D01*
X0281166Y0334387D01*
X0281219Y0334539D01*
X0281275Y0334690D01*
X0281336Y0334839D01*
X0281399Y0334987D01*
X0281467Y0335133D01*
X0281538Y0335277D01*
X0281612Y0335419D01*
X0281690Y0335560D01*
X0281772Y0335698D01*
X0281857Y0335835D01*
X0281945Y0335969D01*
X0282037Y0336101D01*
X0282132Y0336231D01*
X0282230Y0336359D01*
X0282331Y0336484D01*
X0282435Y0336606D01*
X0282542Y0336726D01*
X0282652Y0336843D01*
X0282765Y0336958D01*
X0282881Y0337069D01*
X0283000Y0337178D01*
X0283121Y0337283D01*
X0283245Y0337386D01*
X0283371Y0337486D01*
X0283499Y0337582D01*
X0283630Y0337675D01*
X0283764Y0337765D01*
X0283899Y0337852D01*
X0284037Y0337935D01*
X0284176Y0338015D01*
X0284318Y0338091D01*
X0284461Y0338164D01*
X0284606Y0338233D01*
X0284753Y0338299D01*
X0284901Y0338361D01*
X0285051Y0338419D01*
X0285202Y0338474D01*
X0285355Y0338525D01*
X0285509Y0338572D01*
X0285664Y0338615D01*
X0285820Y0338654D01*
X0285976Y0338690D01*
X0286134Y0338721D01*
X0286292Y0338749D01*
X0286451Y0338773D01*
X0286611Y0338793D01*
X0286771Y0338809D01*
X0286931Y0338821D01*
X0287092Y0338829D01*
X0287253Y0338833D01*
X0287413Y0338833D01*
X0287574Y0338829D01*
X0287735Y0338821D01*
X0287895Y0338809D01*
X0288055Y0338793D01*
X0288215Y0338773D01*
X0288374Y0338749D01*
X0288532Y0338721D01*
X0288690Y0338690D01*
X0288846Y0338654D01*
X0289002Y0338615D01*
X0289157Y0338572D01*
X0289311Y0338525D01*
X0289464Y0338474D01*
X0289615Y0338419D01*
X0289765Y0338361D01*
X0289913Y0338299D01*
X0290060Y0338233D01*
X0290205Y0338164D01*
X0290348Y0338091D01*
X0290490Y0338015D01*
X0290629Y0337935D01*
X0290767Y0337852D01*
X0290902Y0337765D01*
X0291036Y0337675D01*
X0291167Y0337582D01*
X0291295Y0337486D01*
X0291421Y0337386D01*
X0291545Y0337283D01*
X0291666Y0337178D01*
X0291785Y0337069D01*
X0291901Y0336958D01*
X0292014Y0336843D01*
X0292124Y0336726D01*
X0292231Y0336606D01*
X0292335Y0336484D01*
X0292436Y0336359D01*
X0292534Y0336231D01*
X0292629Y0336101D01*
X0292721Y0335969D01*
X0292809Y0335835D01*
X0292894Y0335698D01*
X0292976Y0335560D01*
X0293054Y0335419D01*
X0293128Y0335277D01*
X0293199Y0335133D01*
X0293267Y0334987D01*
X0293330Y0334839D01*
X0293391Y0334690D01*
X0293447Y0334539D01*
X0293500Y0334387D01*
X0293549Y0334234D01*
X0293594Y0334080D01*
X0293635Y0333925D01*
X0293673Y0333768D01*
X0293706Y0333611D01*
X0293736Y0333453D01*
X0293762Y0333294D01*
X0293783Y0333135D01*
X0293801Y0332975D01*
X0293815Y0332815D01*
X0293825Y0332654D01*
X0293831Y0332494D01*
X0293833Y0332333D01*
X0293831Y0332172D01*
X0293825Y0332012D01*
X0293815Y0331851D01*
X0293801Y0331691D01*
X0293783Y0331531D01*
X0293762Y0331372D01*
X0293736Y0331213D01*
X0293706Y0331055D01*
X0293673Y0330898D01*
X0293635Y0330741D01*
X0293594Y0330586D01*
X0293549Y0330432D01*
X0293500Y0330279D01*
X0293447Y0330127D01*
X0293391Y0329976D01*
X0293330Y0329827D01*
X0293267Y0329679D01*
X0293199Y0329533D01*
X0293128Y0329389D01*
X0293054Y0329247D01*
X0292976Y0329106D01*
X0292894Y0328968D01*
X0292809Y0328831D01*
X0292721Y0328697D01*
X0292629Y0328565D01*
X0292534Y0328435D01*
X0292436Y0328307D01*
X0292335Y0328182D01*
X0292231Y0328060D01*
X0292124Y0327940D01*
X0292014Y0327823D01*
X0291901Y0327708D01*
X0291785Y0327597D01*
X0291666Y0327488D01*
X0291545Y0327383D01*
X0291421Y0327280D01*
X0291295Y0327180D01*
X0291167Y0327084D01*
X0291036Y0326991D01*
X0290902Y0326901D01*
X0290767Y0326814D01*
X0290629Y0326731D01*
X0290490Y0326651D01*
X0290348Y0326575D01*
X0290205Y0326502D01*
X0290060Y0326433D01*
X0289913Y0326367D01*
X0289765Y0326305D01*
X0289615Y0326247D01*
X0289464Y0326192D01*
X0289311Y0326141D01*
X0289157Y0326094D01*
X0289002Y0326051D01*
X0288846Y0326012D01*
X0288690Y0325976D01*
X0288532Y0325945D01*
X0288374Y0325917D01*
X0288215Y0325893D01*
X0288055Y0325873D01*
X0287895Y0325857D01*
X0287735Y0325845D01*
X0287574Y0325837D01*
X0287413Y0325833D01*
X0287253Y0325833D01*
X0287092Y0325837D01*
X0286931Y0325845D01*
X0286771Y0325857D01*
X0286611Y0325873D01*
X0286451Y0325893D01*
X0286292Y0325917D01*
X0286134Y0325945D01*
X0285976Y0325976D01*
X0285820Y0326012D01*
X0285664Y0326051D01*
X0285509Y0326094D01*
X0285355Y0326141D01*
X0285202Y0326192D01*
X0285051Y0326247D01*
X0284901Y0326305D01*
X0284753Y0326367D01*
X0284606Y0326433D01*
X0284461Y0326502D01*
X0284318Y0326575D01*
X0284176Y0326651D01*
X0284037Y0326731D01*
X0283899Y0326814D01*
X0283764Y0326901D01*
X0283630Y0326991D01*
X0283499Y0327084D01*
X0283371Y0327180D01*
X0283245Y0327280D01*
X0283121Y0327383D01*
X0283000Y0327488D01*
X0282881Y0327597D01*
X0282765Y0327708D01*
X0282652Y0327823D01*
X0282542Y0327940D01*
X0282435Y0328060D01*
X0282331Y0328182D01*
X0282230Y0328307D01*
X0282132Y0328435D01*
X0282037Y0328565D01*
X0281945Y0328697D01*
X0281857Y0328831D01*
X0281772Y0328968D01*
X0281690Y0329106D01*
X0281612Y0329247D01*
X0281538Y0329389D01*
X0281467Y0329533D01*
X0281399Y0329679D01*
X0281336Y0329827D01*
X0281275Y0329976D01*
X0281219Y0330127D01*
X0281166Y0330279D01*
X0281117Y0330432D01*
X0281072Y0330586D01*
X0281031Y0330741D01*
X0280993Y0330898D01*
X0280960Y0331055D01*
X0280930Y0331213D01*
X0280904Y0331372D01*
X0280883Y0331531D01*
X0280865Y0331691D01*
X0280851Y0331851D01*
X0280841Y0332012D01*
X0280835Y0332172D01*
X0280833Y0332333D01*
X0258833Y0332333D02*
X0258835Y0332494D01*
X0258841Y0332654D01*
X0258851Y0332815D01*
X0258865Y0332975D01*
X0258883Y0333135D01*
X0258904Y0333294D01*
X0258930Y0333453D01*
X0258960Y0333611D01*
X0258993Y0333768D01*
X0259031Y0333925D01*
X0259072Y0334080D01*
X0259117Y0334234D01*
X0259166Y0334387D01*
X0259219Y0334539D01*
X0259275Y0334690D01*
X0259336Y0334839D01*
X0259399Y0334987D01*
X0259467Y0335133D01*
X0259538Y0335277D01*
X0259612Y0335419D01*
X0259690Y0335560D01*
X0259772Y0335698D01*
X0259857Y0335835D01*
X0259945Y0335969D01*
X0260037Y0336101D01*
X0260132Y0336231D01*
X0260230Y0336359D01*
X0260331Y0336484D01*
X0260435Y0336606D01*
X0260542Y0336726D01*
X0260652Y0336843D01*
X0260765Y0336958D01*
X0260881Y0337069D01*
X0261000Y0337178D01*
X0261121Y0337283D01*
X0261245Y0337386D01*
X0261371Y0337486D01*
X0261499Y0337582D01*
X0261630Y0337675D01*
X0261764Y0337765D01*
X0261899Y0337852D01*
X0262037Y0337935D01*
X0262176Y0338015D01*
X0262318Y0338091D01*
X0262461Y0338164D01*
X0262606Y0338233D01*
X0262753Y0338299D01*
X0262901Y0338361D01*
X0263051Y0338419D01*
X0263202Y0338474D01*
X0263355Y0338525D01*
X0263509Y0338572D01*
X0263664Y0338615D01*
X0263820Y0338654D01*
X0263976Y0338690D01*
X0264134Y0338721D01*
X0264292Y0338749D01*
X0264451Y0338773D01*
X0264611Y0338793D01*
X0264771Y0338809D01*
X0264931Y0338821D01*
X0265092Y0338829D01*
X0265253Y0338833D01*
X0265413Y0338833D01*
X0265574Y0338829D01*
X0265735Y0338821D01*
X0265895Y0338809D01*
X0266055Y0338793D01*
X0266215Y0338773D01*
X0266374Y0338749D01*
X0266532Y0338721D01*
X0266690Y0338690D01*
X0266846Y0338654D01*
X0267002Y0338615D01*
X0267157Y0338572D01*
X0267311Y0338525D01*
X0267464Y0338474D01*
X0267615Y0338419D01*
X0267765Y0338361D01*
X0267913Y0338299D01*
X0268060Y0338233D01*
X0268205Y0338164D01*
X0268348Y0338091D01*
X0268490Y0338015D01*
X0268629Y0337935D01*
X0268767Y0337852D01*
X0268902Y0337765D01*
X0269036Y0337675D01*
X0269167Y0337582D01*
X0269295Y0337486D01*
X0269421Y0337386D01*
X0269545Y0337283D01*
X0269666Y0337178D01*
X0269785Y0337069D01*
X0269901Y0336958D01*
X0270014Y0336843D01*
X0270124Y0336726D01*
X0270231Y0336606D01*
X0270335Y0336484D01*
X0270436Y0336359D01*
X0270534Y0336231D01*
X0270629Y0336101D01*
X0270721Y0335969D01*
X0270809Y0335835D01*
X0270894Y0335698D01*
X0270976Y0335560D01*
X0271054Y0335419D01*
X0271128Y0335277D01*
X0271199Y0335133D01*
X0271267Y0334987D01*
X0271330Y0334839D01*
X0271391Y0334690D01*
X0271447Y0334539D01*
X0271500Y0334387D01*
X0271549Y0334234D01*
X0271594Y0334080D01*
X0271635Y0333925D01*
X0271673Y0333768D01*
X0271706Y0333611D01*
X0271736Y0333453D01*
X0271762Y0333294D01*
X0271783Y0333135D01*
X0271801Y0332975D01*
X0271815Y0332815D01*
X0271825Y0332654D01*
X0271831Y0332494D01*
X0271833Y0332333D01*
X0271831Y0332172D01*
X0271825Y0332012D01*
X0271815Y0331851D01*
X0271801Y0331691D01*
X0271783Y0331531D01*
X0271762Y0331372D01*
X0271736Y0331213D01*
X0271706Y0331055D01*
X0271673Y0330898D01*
X0271635Y0330741D01*
X0271594Y0330586D01*
X0271549Y0330432D01*
X0271500Y0330279D01*
X0271447Y0330127D01*
X0271391Y0329976D01*
X0271330Y0329827D01*
X0271267Y0329679D01*
X0271199Y0329533D01*
X0271128Y0329389D01*
X0271054Y0329247D01*
X0270976Y0329106D01*
X0270894Y0328968D01*
X0270809Y0328831D01*
X0270721Y0328697D01*
X0270629Y0328565D01*
X0270534Y0328435D01*
X0270436Y0328307D01*
X0270335Y0328182D01*
X0270231Y0328060D01*
X0270124Y0327940D01*
X0270014Y0327823D01*
X0269901Y0327708D01*
X0269785Y0327597D01*
X0269666Y0327488D01*
X0269545Y0327383D01*
X0269421Y0327280D01*
X0269295Y0327180D01*
X0269167Y0327084D01*
X0269036Y0326991D01*
X0268902Y0326901D01*
X0268767Y0326814D01*
X0268629Y0326731D01*
X0268490Y0326651D01*
X0268348Y0326575D01*
X0268205Y0326502D01*
X0268060Y0326433D01*
X0267913Y0326367D01*
X0267765Y0326305D01*
X0267615Y0326247D01*
X0267464Y0326192D01*
X0267311Y0326141D01*
X0267157Y0326094D01*
X0267002Y0326051D01*
X0266846Y0326012D01*
X0266690Y0325976D01*
X0266532Y0325945D01*
X0266374Y0325917D01*
X0266215Y0325893D01*
X0266055Y0325873D01*
X0265895Y0325857D01*
X0265735Y0325845D01*
X0265574Y0325837D01*
X0265413Y0325833D01*
X0265253Y0325833D01*
X0265092Y0325837D01*
X0264931Y0325845D01*
X0264771Y0325857D01*
X0264611Y0325873D01*
X0264451Y0325893D01*
X0264292Y0325917D01*
X0264134Y0325945D01*
X0263976Y0325976D01*
X0263820Y0326012D01*
X0263664Y0326051D01*
X0263509Y0326094D01*
X0263355Y0326141D01*
X0263202Y0326192D01*
X0263051Y0326247D01*
X0262901Y0326305D01*
X0262753Y0326367D01*
X0262606Y0326433D01*
X0262461Y0326502D01*
X0262318Y0326575D01*
X0262176Y0326651D01*
X0262037Y0326731D01*
X0261899Y0326814D01*
X0261764Y0326901D01*
X0261630Y0326991D01*
X0261499Y0327084D01*
X0261371Y0327180D01*
X0261245Y0327280D01*
X0261121Y0327383D01*
X0261000Y0327488D01*
X0260881Y0327597D01*
X0260765Y0327708D01*
X0260652Y0327823D01*
X0260542Y0327940D01*
X0260435Y0328060D01*
X0260331Y0328182D01*
X0260230Y0328307D01*
X0260132Y0328435D01*
X0260037Y0328565D01*
X0259945Y0328697D01*
X0259857Y0328831D01*
X0259772Y0328968D01*
X0259690Y0329106D01*
X0259612Y0329247D01*
X0259538Y0329389D01*
X0259467Y0329533D01*
X0259399Y0329679D01*
X0259336Y0329827D01*
X0259275Y0329976D01*
X0259219Y0330127D01*
X0259166Y0330279D01*
X0259117Y0330432D01*
X0259072Y0330586D01*
X0259031Y0330741D01*
X0258993Y0330898D01*
X0258960Y0331055D01*
X0258930Y0331213D01*
X0258904Y0331372D01*
X0258883Y0331531D01*
X0258865Y0331691D01*
X0258851Y0331851D01*
X0258841Y0332012D01*
X0258835Y0332172D01*
X0258833Y0332333D01*
X0178833Y0332333D02*
X0178835Y0332494D01*
X0178841Y0332654D01*
X0178851Y0332815D01*
X0178865Y0332975D01*
X0178883Y0333135D01*
X0178904Y0333294D01*
X0178930Y0333453D01*
X0178960Y0333611D01*
X0178993Y0333768D01*
X0179031Y0333925D01*
X0179072Y0334080D01*
X0179117Y0334234D01*
X0179166Y0334387D01*
X0179219Y0334539D01*
X0179275Y0334690D01*
X0179336Y0334839D01*
X0179399Y0334987D01*
X0179467Y0335133D01*
X0179538Y0335277D01*
X0179612Y0335419D01*
X0179690Y0335560D01*
X0179772Y0335698D01*
X0179857Y0335835D01*
X0179945Y0335969D01*
X0180037Y0336101D01*
X0180132Y0336231D01*
X0180230Y0336359D01*
X0180331Y0336484D01*
X0180435Y0336606D01*
X0180542Y0336726D01*
X0180652Y0336843D01*
X0180765Y0336958D01*
X0180881Y0337069D01*
X0181000Y0337178D01*
X0181121Y0337283D01*
X0181245Y0337386D01*
X0181371Y0337486D01*
X0181499Y0337582D01*
X0181630Y0337675D01*
X0181764Y0337765D01*
X0181899Y0337852D01*
X0182037Y0337935D01*
X0182176Y0338015D01*
X0182318Y0338091D01*
X0182461Y0338164D01*
X0182606Y0338233D01*
X0182753Y0338299D01*
X0182901Y0338361D01*
X0183051Y0338419D01*
X0183202Y0338474D01*
X0183355Y0338525D01*
X0183509Y0338572D01*
X0183664Y0338615D01*
X0183820Y0338654D01*
X0183976Y0338690D01*
X0184134Y0338721D01*
X0184292Y0338749D01*
X0184451Y0338773D01*
X0184611Y0338793D01*
X0184771Y0338809D01*
X0184931Y0338821D01*
X0185092Y0338829D01*
X0185253Y0338833D01*
X0185413Y0338833D01*
X0185574Y0338829D01*
X0185735Y0338821D01*
X0185895Y0338809D01*
X0186055Y0338793D01*
X0186215Y0338773D01*
X0186374Y0338749D01*
X0186532Y0338721D01*
X0186690Y0338690D01*
X0186846Y0338654D01*
X0187002Y0338615D01*
X0187157Y0338572D01*
X0187311Y0338525D01*
X0187464Y0338474D01*
X0187615Y0338419D01*
X0187765Y0338361D01*
X0187913Y0338299D01*
X0188060Y0338233D01*
X0188205Y0338164D01*
X0188348Y0338091D01*
X0188490Y0338015D01*
X0188629Y0337935D01*
X0188767Y0337852D01*
X0188902Y0337765D01*
X0189036Y0337675D01*
X0189167Y0337582D01*
X0189295Y0337486D01*
X0189421Y0337386D01*
X0189545Y0337283D01*
X0189666Y0337178D01*
X0189785Y0337069D01*
X0189901Y0336958D01*
X0190014Y0336843D01*
X0190124Y0336726D01*
X0190231Y0336606D01*
X0190335Y0336484D01*
X0190436Y0336359D01*
X0190534Y0336231D01*
X0190629Y0336101D01*
X0190721Y0335969D01*
X0190809Y0335835D01*
X0190894Y0335698D01*
X0190976Y0335560D01*
X0191054Y0335419D01*
X0191128Y0335277D01*
X0191199Y0335133D01*
X0191267Y0334987D01*
X0191330Y0334839D01*
X0191391Y0334690D01*
X0191447Y0334539D01*
X0191500Y0334387D01*
X0191549Y0334234D01*
X0191594Y0334080D01*
X0191635Y0333925D01*
X0191673Y0333768D01*
X0191706Y0333611D01*
X0191736Y0333453D01*
X0191762Y0333294D01*
X0191783Y0333135D01*
X0191801Y0332975D01*
X0191815Y0332815D01*
X0191825Y0332654D01*
X0191831Y0332494D01*
X0191833Y0332333D01*
X0191831Y0332172D01*
X0191825Y0332012D01*
X0191815Y0331851D01*
X0191801Y0331691D01*
X0191783Y0331531D01*
X0191762Y0331372D01*
X0191736Y0331213D01*
X0191706Y0331055D01*
X0191673Y0330898D01*
X0191635Y0330741D01*
X0191594Y0330586D01*
X0191549Y0330432D01*
X0191500Y0330279D01*
X0191447Y0330127D01*
X0191391Y0329976D01*
X0191330Y0329827D01*
X0191267Y0329679D01*
X0191199Y0329533D01*
X0191128Y0329389D01*
X0191054Y0329247D01*
X0190976Y0329106D01*
X0190894Y0328968D01*
X0190809Y0328831D01*
X0190721Y0328697D01*
X0190629Y0328565D01*
X0190534Y0328435D01*
X0190436Y0328307D01*
X0190335Y0328182D01*
X0190231Y0328060D01*
X0190124Y0327940D01*
X0190014Y0327823D01*
X0189901Y0327708D01*
X0189785Y0327597D01*
X0189666Y0327488D01*
X0189545Y0327383D01*
X0189421Y0327280D01*
X0189295Y0327180D01*
X0189167Y0327084D01*
X0189036Y0326991D01*
X0188902Y0326901D01*
X0188767Y0326814D01*
X0188629Y0326731D01*
X0188490Y0326651D01*
X0188348Y0326575D01*
X0188205Y0326502D01*
X0188060Y0326433D01*
X0187913Y0326367D01*
X0187765Y0326305D01*
X0187615Y0326247D01*
X0187464Y0326192D01*
X0187311Y0326141D01*
X0187157Y0326094D01*
X0187002Y0326051D01*
X0186846Y0326012D01*
X0186690Y0325976D01*
X0186532Y0325945D01*
X0186374Y0325917D01*
X0186215Y0325893D01*
X0186055Y0325873D01*
X0185895Y0325857D01*
X0185735Y0325845D01*
X0185574Y0325837D01*
X0185413Y0325833D01*
X0185253Y0325833D01*
X0185092Y0325837D01*
X0184931Y0325845D01*
X0184771Y0325857D01*
X0184611Y0325873D01*
X0184451Y0325893D01*
X0184292Y0325917D01*
X0184134Y0325945D01*
X0183976Y0325976D01*
X0183820Y0326012D01*
X0183664Y0326051D01*
X0183509Y0326094D01*
X0183355Y0326141D01*
X0183202Y0326192D01*
X0183051Y0326247D01*
X0182901Y0326305D01*
X0182753Y0326367D01*
X0182606Y0326433D01*
X0182461Y0326502D01*
X0182318Y0326575D01*
X0182176Y0326651D01*
X0182037Y0326731D01*
X0181899Y0326814D01*
X0181764Y0326901D01*
X0181630Y0326991D01*
X0181499Y0327084D01*
X0181371Y0327180D01*
X0181245Y0327280D01*
X0181121Y0327383D01*
X0181000Y0327488D01*
X0180881Y0327597D01*
X0180765Y0327708D01*
X0180652Y0327823D01*
X0180542Y0327940D01*
X0180435Y0328060D01*
X0180331Y0328182D01*
X0180230Y0328307D01*
X0180132Y0328435D01*
X0180037Y0328565D01*
X0179945Y0328697D01*
X0179857Y0328831D01*
X0179772Y0328968D01*
X0179690Y0329106D01*
X0179612Y0329247D01*
X0179538Y0329389D01*
X0179467Y0329533D01*
X0179399Y0329679D01*
X0179336Y0329827D01*
X0179275Y0329976D01*
X0179219Y0330127D01*
X0179166Y0330279D01*
X0179117Y0330432D01*
X0179072Y0330586D01*
X0179031Y0330741D01*
X0178993Y0330898D01*
X0178960Y0331055D01*
X0178930Y0331213D01*
X0178904Y0331372D01*
X0178883Y0331531D01*
X0178865Y0331691D01*
X0178851Y0331851D01*
X0178841Y0332012D01*
X0178835Y0332172D01*
X0178833Y0332333D01*
X0156833Y0332333D02*
X0156835Y0332494D01*
X0156841Y0332654D01*
X0156851Y0332815D01*
X0156865Y0332975D01*
X0156883Y0333135D01*
X0156904Y0333294D01*
X0156930Y0333453D01*
X0156960Y0333611D01*
X0156993Y0333768D01*
X0157031Y0333925D01*
X0157072Y0334080D01*
X0157117Y0334234D01*
X0157166Y0334387D01*
X0157219Y0334539D01*
X0157275Y0334690D01*
X0157336Y0334839D01*
X0157399Y0334987D01*
X0157467Y0335133D01*
X0157538Y0335277D01*
X0157612Y0335419D01*
X0157690Y0335560D01*
X0157772Y0335698D01*
X0157857Y0335835D01*
X0157945Y0335969D01*
X0158037Y0336101D01*
X0158132Y0336231D01*
X0158230Y0336359D01*
X0158331Y0336484D01*
X0158435Y0336606D01*
X0158542Y0336726D01*
X0158652Y0336843D01*
X0158765Y0336958D01*
X0158881Y0337069D01*
X0159000Y0337178D01*
X0159121Y0337283D01*
X0159245Y0337386D01*
X0159371Y0337486D01*
X0159499Y0337582D01*
X0159630Y0337675D01*
X0159764Y0337765D01*
X0159899Y0337852D01*
X0160037Y0337935D01*
X0160176Y0338015D01*
X0160318Y0338091D01*
X0160461Y0338164D01*
X0160606Y0338233D01*
X0160753Y0338299D01*
X0160901Y0338361D01*
X0161051Y0338419D01*
X0161202Y0338474D01*
X0161355Y0338525D01*
X0161509Y0338572D01*
X0161664Y0338615D01*
X0161820Y0338654D01*
X0161976Y0338690D01*
X0162134Y0338721D01*
X0162292Y0338749D01*
X0162451Y0338773D01*
X0162611Y0338793D01*
X0162771Y0338809D01*
X0162931Y0338821D01*
X0163092Y0338829D01*
X0163253Y0338833D01*
X0163413Y0338833D01*
X0163574Y0338829D01*
X0163735Y0338821D01*
X0163895Y0338809D01*
X0164055Y0338793D01*
X0164215Y0338773D01*
X0164374Y0338749D01*
X0164532Y0338721D01*
X0164690Y0338690D01*
X0164846Y0338654D01*
X0165002Y0338615D01*
X0165157Y0338572D01*
X0165311Y0338525D01*
X0165464Y0338474D01*
X0165615Y0338419D01*
X0165765Y0338361D01*
X0165913Y0338299D01*
X0166060Y0338233D01*
X0166205Y0338164D01*
X0166348Y0338091D01*
X0166490Y0338015D01*
X0166629Y0337935D01*
X0166767Y0337852D01*
X0166902Y0337765D01*
X0167036Y0337675D01*
X0167167Y0337582D01*
X0167295Y0337486D01*
X0167421Y0337386D01*
X0167545Y0337283D01*
X0167666Y0337178D01*
X0167785Y0337069D01*
X0167901Y0336958D01*
X0168014Y0336843D01*
X0168124Y0336726D01*
X0168231Y0336606D01*
X0168335Y0336484D01*
X0168436Y0336359D01*
X0168534Y0336231D01*
X0168629Y0336101D01*
X0168721Y0335969D01*
X0168809Y0335835D01*
X0168894Y0335698D01*
X0168976Y0335560D01*
X0169054Y0335419D01*
X0169128Y0335277D01*
X0169199Y0335133D01*
X0169267Y0334987D01*
X0169330Y0334839D01*
X0169391Y0334690D01*
X0169447Y0334539D01*
X0169500Y0334387D01*
X0169549Y0334234D01*
X0169594Y0334080D01*
X0169635Y0333925D01*
X0169673Y0333768D01*
X0169706Y0333611D01*
X0169736Y0333453D01*
X0169762Y0333294D01*
X0169783Y0333135D01*
X0169801Y0332975D01*
X0169815Y0332815D01*
X0169825Y0332654D01*
X0169831Y0332494D01*
X0169833Y0332333D01*
X0169831Y0332172D01*
X0169825Y0332012D01*
X0169815Y0331851D01*
X0169801Y0331691D01*
X0169783Y0331531D01*
X0169762Y0331372D01*
X0169736Y0331213D01*
X0169706Y0331055D01*
X0169673Y0330898D01*
X0169635Y0330741D01*
X0169594Y0330586D01*
X0169549Y0330432D01*
X0169500Y0330279D01*
X0169447Y0330127D01*
X0169391Y0329976D01*
X0169330Y0329827D01*
X0169267Y0329679D01*
X0169199Y0329533D01*
X0169128Y0329389D01*
X0169054Y0329247D01*
X0168976Y0329106D01*
X0168894Y0328968D01*
X0168809Y0328831D01*
X0168721Y0328697D01*
X0168629Y0328565D01*
X0168534Y0328435D01*
X0168436Y0328307D01*
X0168335Y0328182D01*
X0168231Y0328060D01*
X0168124Y0327940D01*
X0168014Y0327823D01*
X0167901Y0327708D01*
X0167785Y0327597D01*
X0167666Y0327488D01*
X0167545Y0327383D01*
X0167421Y0327280D01*
X0167295Y0327180D01*
X0167167Y0327084D01*
X0167036Y0326991D01*
X0166902Y0326901D01*
X0166767Y0326814D01*
X0166629Y0326731D01*
X0166490Y0326651D01*
X0166348Y0326575D01*
X0166205Y0326502D01*
X0166060Y0326433D01*
X0165913Y0326367D01*
X0165765Y0326305D01*
X0165615Y0326247D01*
X0165464Y0326192D01*
X0165311Y0326141D01*
X0165157Y0326094D01*
X0165002Y0326051D01*
X0164846Y0326012D01*
X0164690Y0325976D01*
X0164532Y0325945D01*
X0164374Y0325917D01*
X0164215Y0325893D01*
X0164055Y0325873D01*
X0163895Y0325857D01*
X0163735Y0325845D01*
X0163574Y0325837D01*
X0163413Y0325833D01*
X0163253Y0325833D01*
X0163092Y0325837D01*
X0162931Y0325845D01*
X0162771Y0325857D01*
X0162611Y0325873D01*
X0162451Y0325893D01*
X0162292Y0325917D01*
X0162134Y0325945D01*
X0161976Y0325976D01*
X0161820Y0326012D01*
X0161664Y0326051D01*
X0161509Y0326094D01*
X0161355Y0326141D01*
X0161202Y0326192D01*
X0161051Y0326247D01*
X0160901Y0326305D01*
X0160753Y0326367D01*
X0160606Y0326433D01*
X0160461Y0326502D01*
X0160318Y0326575D01*
X0160176Y0326651D01*
X0160037Y0326731D01*
X0159899Y0326814D01*
X0159764Y0326901D01*
X0159630Y0326991D01*
X0159499Y0327084D01*
X0159371Y0327180D01*
X0159245Y0327280D01*
X0159121Y0327383D01*
X0159000Y0327488D01*
X0158881Y0327597D01*
X0158765Y0327708D01*
X0158652Y0327823D01*
X0158542Y0327940D01*
X0158435Y0328060D01*
X0158331Y0328182D01*
X0158230Y0328307D01*
X0158132Y0328435D01*
X0158037Y0328565D01*
X0157945Y0328697D01*
X0157857Y0328831D01*
X0157772Y0328968D01*
X0157690Y0329106D01*
X0157612Y0329247D01*
X0157538Y0329389D01*
X0157467Y0329533D01*
X0157399Y0329679D01*
X0157336Y0329827D01*
X0157275Y0329976D01*
X0157219Y0330127D01*
X0157166Y0330279D01*
X0157117Y0330432D01*
X0157072Y0330586D01*
X0157031Y0330741D01*
X0156993Y0330898D01*
X0156960Y0331055D01*
X0156930Y0331213D01*
X0156904Y0331372D01*
X0156883Y0331531D01*
X0156865Y0331691D01*
X0156851Y0331851D01*
X0156841Y0332012D01*
X0156835Y0332172D01*
X0156833Y0332333D01*
X0076833Y0332333D02*
X0076835Y0332494D01*
X0076841Y0332654D01*
X0076851Y0332815D01*
X0076865Y0332975D01*
X0076883Y0333135D01*
X0076904Y0333294D01*
X0076930Y0333453D01*
X0076960Y0333611D01*
X0076993Y0333768D01*
X0077031Y0333925D01*
X0077072Y0334080D01*
X0077117Y0334234D01*
X0077166Y0334387D01*
X0077219Y0334539D01*
X0077275Y0334690D01*
X0077336Y0334839D01*
X0077399Y0334987D01*
X0077467Y0335133D01*
X0077538Y0335277D01*
X0077612Y0335419D01*
X0077690Y0335560D01*
X0077772Y0335698D01*
X0077857Y0335835D01*
X0077945Y0335969D01*
X0078037Y0336101D01*
X0078132Y0336231D01*
X0078230Y0336359D01*
X0078331Y0336484D01*
X0078435Y0336606D01*
X0078542Y0336726D01*
X0078652Y0336843D01*
X0078765Y0336958D01*
X0078881Y0337069D01*
X0079000Y0337178D01*
X0079121Y0337283D01*
X0079245Y0337386D01*
X0079371Y0337486D01*
X0079499Y0337582D01*
X0079630Y0337675D01*
X0079764Y0337765D01*
X0079899Y0337852D01*
X0080037Y0337935D01*
X0080176Y0338015D01*
X0080318Y0338091D01*
X0080461Y0338164D01*
X0080606Y0338233D01*
X0080753Y0338299D01*
X0080901Y0338361D01*
X0081051Y0338419D01*
X0081202Y0338474D01*
X0081355Y0338525D01*
X0081509Y0338572D01*
X0081664Y0338615D01*
X0081820Y0338654D01*
X0081976Y0338690D01*
X0082134Y0338721D01*
X0082292Y0338749D01*
X0082451Y0338773D01*
X0082611Y0338793D01*
X0082771Y0338809D01*
X0082931Y0338821D01*
X0083092Y0338829D01*
X0083253Y0338833D01*
X0083413Y0338833D01*
X0083574Y0338829D01*
X0083735Y0338821D01*
X0083895Y0338809D01*
X0084055Y0338793D01*
X0084215Y0338773D01*
X0084374Y0338749D01*
X0084532Y0338721D01*
X0084690Y0338690D01*
X0084846Y0338654D01*
X0085002Y0338615D01*
X0085157Y0338572D01*
X0085311Y0338525D01*
X0085464Y0338474D01*
X0085615Y0338419D01*
X0085765Y0338361D01*
X0085913Y0338299D01*
X0086060Y0338233D01*
X0086205Y0338164D01*
X0086348Y0338091D01*
X0086490Y0338015D01*
X0086629Y0337935D01*
X0086767Y0337852D01*
X0086902Y0337765D01*
X0087036Y0337675D01*
X0087167Y0337582D01*
X0087295Y0337486D01*
X0087421Y0337386D01*
X0087545Y0337283D01*
X0087666Y0337178D01*
X0087785Y0337069D01*
X0087901Y0336958D01*
X0088014Y0336843D01*
X0088124Y0336726D01*
X0088231Y0336606D01*
X0088335Y0336484D01*
X0088436Y0336359D01*
X0088534Y0336231D01*
X0088629Y0336101D01*
X0088721Y0335969D01*
X0088809Y0335835D01*
X0088894Y0335698D01*
X0088976Y0335560D01*
X0089054Y0335419D01*
X0089128Y0335277D01*
X0089199Y0335133D01*
X0089267Y0334987D01*
X0089330Y0334839D01*
X0089391Y0334690D01*
X0089447Y0334539D01*
X0089500Y0334387D01*
X0089549Y0334234D01*
X0089594Y0334080D01*
X0089635Y0333925D01*
X0089673Y0333768D01*
X0089706Y0333611D01*
X0089736Y0333453D01*
X0089762Y0333294D01*
X0089783Y0333135D01*
X0089801Y0332975D01*
X0089815Y0332815D01*
X0089825Y0332654D01*
X0089831Y0332494D01*
X0089833Y0332333D01*
X0089831Y0332172D01*
X0089825Y0332012D01*
X0089815Y0331851D01*
X0089801Y0331691D01*
X0089783Y0331531D01*
X0089762Y0331372D01*
X0089736Y0331213D01*
X0089706Y0331055D01*
X0089673Y0330898D01*
X0089635Y0330741D01*
X0089594Y0330586D01*
X0089549Y0330432D01*
X0089500Y0330279D01*
X0089447Y0330127D01*
X0089391Y0329976D01*
X0089330Y0329827D01*
X0089267Y0329679D01*
X0089199Y0329533D01*
X0089128Y0329389D01*
X0089054Y0329247D01*
X0088976Y0329106D01*
X0088894Y0328968D01*
X0088809Y0328831D01*
X0088721Y0328697D01*
X0088629Y0328565D01*
X0088534Y0328435D01*
X0088436Y0328307D01*
X0088335Y0328182D01*
X0088231Y0328060D01*
X0088124Y0327940D01*
X0088014Y0327823D01*
X0087901Y0327708D01*
X0087785Y0327597D01*
X0087666Y0327488D01*
X0087545Y0327383D01*
X0087421Y0327280D01*
X0087295Y0327180D01*
X0087167Y0327084D01*
X0087036Y0326991D01*
X0086902Y0326901D01*
X0086767Y0326814D01*
X0086629Y0326731D01*
X0086490Y0326651D01*
X0086348Y0326575D01*
X0086205Y0326502D01*
X0086060Y0326433D01*
X0085913Y0326367D01*
X0085765Y0326305D01*
X0085615Y0326247D01*
X0085464Y0326192D01*
X0085311Y0326141D01*
X0085157Y0326094D01*
X0085002Y0326051D01*
X0084846Y0326012D01*
X0084690Y0325976D01*
X0084532Y0325945D01*
X0084374Y0325917D01*
X0084215Y0325893D01*
X0084055Y0325873D01*
X0083895Y0325857D01*
X0083735Y0325845D01*
X0083574Y0325837D01*
X0083413Y0325833D01*
X0083253Y0325833D01*
X0083092Y0325837D01*
X0082931Y0325845D01*
X0082771Y0325857D01*
X0082611Y0325873D01*
X0082451Y0325893D01*
X0082292Y0325917D01*
X0082134Y0325945D01*
X0081976Y0325976D01*
X0081820Y0326012D01*
X0081664Y0326051D01*
X0081509Y0326094D01*
X0081355Y0326141D01*
X0081202Y0326192D01*
X0081051Y0326247D01*
X0080901Y0326305D01*
X0080753Y0326367D01*
X0080606Y0326433D01*
X0080461Y0326502D01*
X0080318Y0326575D01*
X0080176Y0326651D01*
X0080037Y0326731D01*
X0079899Y0326814D01*
X0079764Y0326901D01*
X0079630Y0326991D01*
X0079499Y0327084D01*
X0079371Y0327180D01*
X0079245Y0327280D01*
X0079121Y0327383D01*
X0079000Y0327488D01*
X0078881Y0327597D01*
X0078765Y0327708D01*
X0078652Y0327823D01*
X0078542Y0327940D01*
X0078435Y0328060D01*
X0078331Y0328182D01*
X0078230Y0328307D01*
X0078132Y0328435D01*
X0078037Y0328565D01*
X0077945Y0328697D01*
X0077857Y0328831D01*
X0077772Y0328968D01*
X0077690Y0329106D01*
X0077612Y0329247D01*
X0077538Y0329389D01*
X0077467Y0329533D01*
X0077399Y0329679D01*
X0077336Y0329827D01*
X0077275Y0329976D01*
X0077219Y0330127D01*
X0077166Y0330279D01*
X0077117Y0330432D01*
X0077072Y0330586D01*
X0077031Y0330741D01*
X0076993Y0330898D01*
X0076960Y0331055D01*
X0076930Y0331213D01*
X0076904Y0331372D01*
X0076883Y0331531D01*
X0076865Y0331691D01*
X0076851Y0331851D01*
X0076841Y0332012D01*
X0076835Y0332172D01*
X0076833Y0332333D01*
X0360833Y0128333D02*
X0360835Y0128494D01*
X0360841Y0128654D01*
X0360851Y0128815D01*
X0360865Y0128975D01*
X0360883Y0129135D01*
X0360904Y0129294D01*
X0360930Y0129453D01*
X0360960Y0129611D01*
X0360993Y0129768D01*
X0361031Y0129925D01*
X0361072Y0130080D01*
X0361117Y0130234D01*
X0361166Y0130387D01*
X0361219Y0130539D01*
X0361275Y0130690D01*
X0361336Y0130839D01*
X0361399Y0130987D01*
X0361467Y0131133D01*
X0361538Y0131277D01*
X0361612Y0131419D01*
X0361690Y0131560D01*
X0361772Y0131698D01*
X0361857Y0131835D01*
X0361945Y0131969D01*
X0362037Y0132101D01*
X0362132Y0132231D01*
X0362230Y0132359D01*
X0362331Y0132484D01*
X0362435Y0132606D01*
X0362542Y0132726D01*
X0362652Y0132843D01*
X0362765Y0132958D01*
X0362881Y0133069D01*
X0363000Y0133178D01*
X0363121Y0133283D01*
X0363245Y0133386D01*
X0363371Y0133486D01*
X0363499Y0133582D01*
X0363630Y0133675D01*
X0363764Y0133765D01*
X0363899Y0133852D01*
X0364037Y0133935D01*
X0364176Y0134015D01*
X0364318Y0134091D01*
X0364461Y0134164D01*
X0364606Y0134233D01*
X0364753Y0134299D01*
X0364901Y0134361D01*
X0365051Y0134419D01*
X0365202Y0134474D01*
X0365355Y0134525D01*
X0365509Y0134572D01*
X0365664Y0134615D01*
X0365820Y0134654D01*
X0365976Y0134690D01*
X0366134Y0134721D01*
X0366292Y0134749D01*
X0366451Y0134773D01*
X0366611Y0134793D01*
X0366771Y0134809D01*
X0366931Y0134821D01*
X0367092Y0134829D01*
X0367253Y0134833D01*
X0367413Y0134833D01*
X0367574Y0134829D01*
X0367735Y0134821D01*
X0367895Y0134809D01*
X0368055Y0134793D01*
X0368215Y0134773D01*
X0368374Y0134749D01*
X0368532Y0134721D01*
X0368690Y0134690D01*
X0368846Y0134654D01*
X0369002Y0134615D01*
X0369157Y0134572D01*
X0369311Y0134525D01*
X0369464Y0134474D01*
X0369615Y0134419D01*
X0369765Y0134361D01*
X0369913Y0134299D01*
X0370060Y0134233D01*
X0370205Y0134164D01*
X0370348Y0134091D01*
X0370490Y0134015D01*
X0370629Y0133935D01*
X0370767Y0133852D01*
X0370902Y0133765D01*
X0371036Y0133675D01*
X0371167Y0133582D01*
X0371295Y0133486D01*
X0371421Y0133386D01*
X0371545Y0133283D01*
X0371666Y0133178D01*
X0371785Y0133069D01*
X0371901Y0132958D01*
X0372014Y0132843D01*
X0372124Y0132726D01*
X0372231Y0132606D01*
X0372335Y0132484D01*
X0372436Y0132359D01*
X0372534Y0132231D01*
X0372629Y0132101D01*
X0372721Y0131969D01*
X0372809Y0131835D01*
X0372894Y0131698D01*
X0372976Y0131560D01*
X0373054Y0131419D01*
X0373128Y0131277D01*
X0373199Y0131133D01*
X0373267Y0130987D01*
X0373330Y0130839D01*
X0373391Y0130690D01*
X0373447Y0130539D01*
X0373500Y0130387D01*
X0373549Y0130234D01*
X0373594Y0130080D01*
X0373635Y0129925D01*
X0373673Y0129768D01*
X0373706Y0129611D01*
X0373736Y0129453D01*
X0373762Y0129294D01*
X0373783Y0129135D01*
X0373801Y0128975D01*
X0373815Y0128815D01*
X0373825Y0128654D01*
X0373831Y0128494D01*
X0373833Y0128333D01*
X0373831Y0128172D01*
X0373825Y0128012D01*
X0373815Y0127851D01*
X0373801Y0127691D01*
X0373783Y0127531D01*
X0373762Y0127372D01*
X0373736Y0127213D01*
X0373706Y0127055D01*
X0373673Y0126898D01*
X0373635Y0126741D01*
X0373594Y0126586D01*
X0373549Y0126432D01*
X0373500Y0126279D01*
X0373447Y0126127D01*
X0373391Y0125976D01*
X0373330Y0125827D01*
X0373267Y0125679D01*
X0373199Y0125533D01*
X0373128Y0125389D01*
X0373054Y0125247D01*
X0372976Y0125106D01*
X0372894Y0124968D01*
X0372809Y0124831D01*
X0372721Y0124697D01*
X0372629Y0124565D01*
X0372534Y0124435D01*
X0372436Y0124307D01*
X0372335Y0124182D01*
X0372231Y0124060D01*
X0372124Y0123940D01*
X0372014Y0123823D01*
X0371901Y0123708D01*
X0371785Y0123597D01*
X0371666Y0123488D01*
X0371545Y0123383D01*
X0371421Y0123280D01*
X0371295Y0123180D01*
X0371167Y0123084D01*
X0371036Y0122991D01*
X0370902Y0122901D01*
X0370767Y0122814D01*
X0370629Y0122731D01*
X0370490Y0122651D01*
X0370348Y0122575D01*
X0370205Y0122502D01*
X0370060Y0122433D01*
X0369913Y0122367D01*
X0369765Y0122305D01*
X0369615Y0122247D01*
X0369464Y0122192D01*
X0369311Y0122141D01*
X0369157Y0122094D01*
X0369002Y0122051D01*
X0368846Y0122012D01*
X0368690Y0121976D01*
X0368532Y0121945D01*
X0368374Y0121917D01*
X0368215Y0121893D01*
X0368055Y0121873D01*
X0367895Y0121857D01*
X0367735Y0121845D01*
X0367574Y0121837D01*
X0367413Y0121833D01*
X0367253Y0121833D01*
X0367092Y0121837D01*
X0366931Y0121845D01*
X0366771Y0121857D01*
X0366611Y0121873D01*
X0366451Y0121893D01*
X0366292Y0121917D01*
X0366134Y0121945D01*
X0365976Y0121976D01*
X0365820Y0122012D01*
X0365664Y0122051D01*
X0365509Y0122094D01*
X0365355Y0122141D01*
X0365202Y0122192D01*
X0365051Y0122247D01*
X0364901Y0122305D01*
X0364753Y0122367D01*
X0364606Y0122433D01*
X0364461Y0122502D01*
X0364318Y0122575D01*
X0364176Y0122651D01*
X0364037Y0122731D01*
X0363899Y0122814D01*
X0363764Y0122901D01*
X0363630Y0122991D01*
X0363499Y0123084D01*
X0363371Y0123180D01*
X0363245Y0123280D01*
X0363121Y0123383D01*
X0363000Y0123488D01*
X0362881Y0123597D01*
X0362765Y0123708D01*
X0362652Y0123823D01*
X0362542Y0123940D01*
X0362435Y0124060D01*
X0362331Y0124182D01*
X0362230Y0124307D01*
X0362132Y0124435D01*
X0362037Y0124565D01*
X0361945Y0124697D01*
X0361857Y0124831D01*
X0361772Y0124968D01*
X0361690Y0125106D01*
X0361612Y0125247D01*
X0361538Y0125389D01*
X0361467Y0125533D01*
X0361399Y0125679D01*
X0361336Y0125827D01*
X0361275Y0125976D01*
X0361219Y0126127D01*
X0361166Y0126279D01*
X0361117Y0126432D01*
X0361072Y0126586D01*
X0361031Y0126741D01*
X0360993Y0126898D01*
X0360960Y0127055D01*
X0360930Y0127213D01*
X0360904Y0127372D01*
X0360883Y0127531D01*
X0360865Y0127691D01*
X0360851Y0127851D01*
X0360841Y0128012D01*
X0360835Y0128172D01*
X0360833Y0128333D01*
M02*
