G75*
%MOIN*%
%OFA0B0*%
%FSLAX25Y25*%
%IPPOS*%
%LPD*%
%AMOC8*
5,1,8,0,0,1.08239X$1,22.5*
%
%ADD10C,0.00600*%
%ADD11C,0.00500*%
%ADD12C,0.00800*%
%ADD13C,0.01000*%
%ADD14R,0.08000X0.08000*%
%ADD15C,0.00591*%
D10*
X0096633Y0049633D02*
X0100036Y0049633D01*
X0100036Y0051335D01*
X0099469Y0051902D01*
X0098335Y0051902D01*
X0097768Y0051335D01*
X0097768Y0049633D01*
X0097768Y0050768D02*
X0096633Y0051902D01*
X0097200Y0053316D02*
X0096633Y0053884D01*
X0096633Y0055018D01*
X0097200Y0055585D01*
X0097768Y0055585D01*
X0098335Y0055018D01*
X0098335Y0053884D01*
X0098902Y0053316D01*
X0099469Y0053316D01*
X0100036Y0053884D01*
X0100036Y0055018D01*
X0099469Y0055585D01*
X0100036Y0057000D02*
X0100036Y0059268D01*
X0100036Y0058134D02*
X0096633Y0058134D01*
X0101233Y0060383D02*
X0101233Y0049333D01*
X0106633Y0049633D02*
X0106633Y0050768D01*
X0106633Y0050200D02*
X0110036Y0050200D01*
X0110036Y0049633D02*
X0110036Y0050768D01*
X0110036Y0052089D02*
X0106633Y0054357D01*
X0110036Y0054357D01*
X0110036Y0055772D02*
X0110036Y0058041D01*
X0110036Y0056906D02*
X0106633Y0056906D01*
X0106633Y0052089D02*
X0110036Y0052089D01*
X0111233Y0049333D02*
X0111233Y0059155D01*
X0116633Y0059268D02*
X0116633Y0057000D01*
X0120036Y0057000D01*
X0119469Y0055585D02*
X0120036Y0055018D01*
X0120036Y0053884D01*
X0119469Y0053316D01*
X0117200Y0053316D01*
X0116633Y0053884D01*
X0116633Y0055018D01*
X0117200Y0055585D01*
X0117200Y0051902D02*
X0116633Y0051335D01*
X0116633Y0050200D01*
X0117200Y0049633D01*
X0118335Y0050200D02*
X0118335Y0051335D01*
X0117768Y0051902D01*
X0117200Y0051902D01*
X0118335Y0050200D02*
X0118902Y0049633D01*
X0119469Y0049633D01*
X0120036Y0050200D01*
X0120036Y0051335D01*
X0119469Y0051902D01*
X0126633Y0051335D02*
X0126633Y0050200D01*
X0127200Y0049633D01*
X0128335Y0050200D02*
X0128335Y0051335D01*
X0127768Y0051902D01*
X0127200Y0051902D01*
X0126633Y0051335D01*
X0126633Y0053316D02*
X0126633Y0055018D01*
X0127200Y0055585D01*
X0129469Y0055585D01*
X0130036Y0055018D01*
X0130036Y0053316D01*
X0126633Y0053316D01*
X0129469Y0051902D02*
X0130036Y0051335D01*
X0130036Y0050200D01*
X0129469Y0049633D01*
X0128902Y0049633D01*
X0128335Y0050200D01*
X0128335Y0057000D02*
X0128335Y0059268D01*
X0128902Y0059268D02*
X0126633Y0059268D01*
X0126633Y0057000D02*
X0128902Y0057000D01*
X0130036Y0058134D01*
X0128902Y0059268D01*
X0136633Y0058701D02*
X0136633Y0057567D01*
X0137200Y0057000D01*
X0137768Y0055585D02*
X0136633Y0054451D01*
X0137768Y0053316D01*
X0140036Y0053316D01*
X0139469Y0051902D02*
X0138902Y0051902D01*
X0138335Y0051335D01*
X0137768Y0051902D01*
X0137200Y0051902D01*
X0136633Y0051335D01*
X0136633Y0050200D01*
X0137200Y0049633D01*
X0138335Y0050768D02*
X0138335Y0051335D01*
X0139469Y0051902D02*
X0140036Y0051335D01*
X0140036Y0050200D01*
X0139469Y0049633D01*
X0140036Y0055585D02*
X0137768Y0055585D01*
X0139469Y0057000D02*
X0140036Y0057567D01*
X0140036Y0058701D01*
X0139469Y0059268D01*
X0138902Y0059268D01*
X0138335Y0058701D01*
X0137768Y0059268D01*
X0137200Y0059268D01*
X0136633Y0058701D01*
X0138335Y0058701D02*
X0138335Y0058134D01*
X0146633Y0058701D02*
X0147200Y0059268D01*
X0149469Y0059268D01*
X0150036Y0058701D01*
X0150036Y0057000D01*
X0146633Y0057000D01*
X0146633Y0058701D01*
X0146633Y0055585D02*
X0150036Y0055585D01*
X0150036Y0053316D02*
X0146633Y0053316D01*
X0147200Y0051902D02*
X0148335Y0051902D01*
X0148335Y0050768D01*
X0149469Y0051902D02*
X0150036Y0051335D01*
X0150036Y0050200D01*
X0149469Y0049633D01*
X0147200Y0049633D01*
X0146633Y0050200D01*
X0146633Y0051335D01*
X0147200Y0051902D01*
X0150036Y0053316D02*
X0146633Y0055585D01*
X0107333Y0074933D02*
X0107333Y0081733D01*
X0107331Y0081793D01*
X0107326Y0081854D01*
X0107317Y0081913D01*
X0107304Y0081972D01*
X0107288Y0082031D01*
X0107268Y0082088D01*
X0107245Y0082143D01*
X0107218Y0082198D01*
X0107189Y0082250D01*
X0107156Y0082301D01*
X0107120Y0082350D01*
X0107082Y0082396D01*
X0107040Y0082440D01*
X0106996Y0082482D01*
X0106950Y0082520D01*
X0106901Y0082556D01*
X0106850Y0082589D01*
X0106798Y0082618D01*
X0106743Y0082645D01*
X0106688Y0082668D01*
X0106631Y0082688D01*
X0106572Y0082704D01*
X0106513Y0082717D01*
X0106454Y0082726D01*
X0106393Y0082731D01*
X0106333Y0082733D01*
X0100333Y0082733D01*
X0100273Y0082731D01*
X0100212Y0082726D01*
X0100153Y0082717D01*
X0100094Y0082704D01*
X0100035Y0082688D01*
X0099978Y0082668D01*
X0099923Y0082645D01*
X0099868Y0082618D01*
X0099816Y0082589D01*
X0099765Y0082556D01*
X0099716Y0082520D01*
X0099670Y0082482D01*
X0099626Y0082440D01*
X0099584Y0082396D01*
X0099546Y0082350D01*
X0099510Y0082301D01*
X0099477Y0082250D01*
X0099448Y0082198D01*
X0099421Y0082143D01*
X0099398Y0082088D01*
X0099378Y0082031D01*
X0099362Y0081972D01*
X0099349Y0081913D01*
X0099340Y0081854D01*
X0099335Y0081793D01*
X0099333Y0081733D01*
X0099333Y0074933D01*
X0099335Y0074873D01*
X0099340Y0074812D01*
X0099349Y0074753D01*
X0099362Y0074694D01*
X0099378Y0074635D01*
X0099398Y0074578D01*
X0099421Y0074523D01*
X0099448Y0074468D01*
X0099477Y0074416D01*
X0099510Y0074365D01*
X0099546Y0074316D01*
X0099584Y0074270D01*
X0099626Y0074226D01*
X0099670Y0074184D01*
X0099716Y0074146D01*
X0099765Y0074110D01*
X0099816Y0074077D01*
X0099868Y0074048D01*
X0099923Y0074021D01*
X0099978Y0073998D01*
X0100035Y0073978D01*
X0100094Y0073962D01*
X0100153Y0073949D01*
X0100212Y0073940D01*
X0100273Y0073935D01*
X0100333Y0073933D01*
X0106333Y0073933D01*
X0106393Y0073935D01*
X0106454Y0073940D01*
X0106513Y0073949D01*
X0106572Y0073962D01*
X0106631Y0073978D01*
X0106688Y0073998D01*
X0106743Y0074021D01*
X0106798Y0074048D01*
X0106850Y0074077D01*
X0106901Y0074110D01*
X0106950Y0074146D01*
X0106996Y0074184D01*
X0107040Y0074226D01*
X0107082Y0074270D01*
X0107120Y0074316D01*
X0107156Y0074365D01*
X0107189Y0074416D01*
X0107218Y0074468D01*
X0107245Y0074523D01*
X0107268Y0074578D01*
X0107288Y0074635D01*
X0107304Y0074694D01*
X0107317Y0074753D01*
X0107326Y0074812D01*
X0107331Y0074873D01*
X0107333Y0074933D01*
X0113200Y0116584D02*
X0112633Y0117151D01*
X0112633Y0118285D01*
X0113200Y0118852D01*
X0113768Y0118852D01*
X0114335Y0118285D01*
X0114335Y0117718D01*
X0114335Y0118285D02*
X0114902Y0118852D01*
X0115469Y0118852D01*
X0116036Y0118285D01*
X0116036Y0117151D01*
X0115469Y0116584D01*
X0116036Y0120267D02*
X0113768Y0120267D01*
X0112633Y0121401D01*
X0113768Y0122536D01*
X0116036Y0122536D01*
X0115469Y0123950D02*
X0116036Y0124517D01*
X0116036Y0125652D01*
X0115469Y0126219D01*
X0114902Y0126219D01*
X0114335Y0125652D01*
X0113768Y0126219D01*
X0113200Y0126219D01*
X0112633Y0125652D01*
X0112633Y0124517D01*
X0113200Y0123950D01*
X0114335Y0125084D02*
X0114335Y0125652D01*
X0110036Y0125652D02*
X0109469Y0126219D01*
X0110036Y0125652D02*
X0110036Y0124517D01*
X0109469Y0123950D01*
X0107200Y0123950D01*
X0106633Y0124517D01*
X0106633Y0125652D01*
X0107200Y0126219D01*
X0106633Y0122536D02*
X0110036Y0122536D01*
X0110036Y0120267D02*
X0106633Y0120267D01*
X0106633Y0122536D02*
X0110036Y0120267D01*
X0100036Y0120267D02*
X0096633Y0122536D01*
X0100036Y0122536D01*
X0100036Y0123950D02*
X0100036Y0125652D01*
X0099469Y0126219D01*
X0097200Y0126219D01*
X0096633Y0125652D01*
X0096633Y0123950D01*
X0100036Y0123950D01*
X0100036Y0120267D02*
X0096633Y0120267D01*
X0097200Y0118852D02*
X0096633Y0118285D01*
X0096633Y0117151D01*
X0097200Y0116584D01*
X0099469Y0116584D01*
X0100036Y0117151D01*
X0100036Y0118285D01*
X0099469Y0118852D01*
X0098335Y0118852D02*
X0098335Y0117718D01*
X0098335Y0118852D02*
X0097200Y0118852D01*
X0122133Y0117812D02*
X0125536Y0117812D01*
X0125536Y0119513D01*
X0124969Y0120080D01*
X0123835Y0120080D01*
X0123268Y0119513D01*
X0123268Y0117812D01*
X0123268Y0118946D02*
X0122133Y0120080D01*
X0122133Y0121495D02*
X0125536Y0123763D01*
X0125536Y0125178D02*
X0125536Y0126312D01*
X0125536Y0125745D02*
X0122133Y0125745D01*
X0122133Y0125178D02*
X0122133Y0126312D01*
X0122133Y0123763D02*
X0125536Y0121495D01*
X0136633Y0122536D02*
X0140036Y0120267D01*
X0140036Y0118852D02*
X0140036Y0116584D01*
X0140036Y0117718D02*
X0136633Y0117718D01*
X0136633Y0120267D02*
X0140036Y0122536D01*
X0139469Y0123950D02*
X0137200Y0123950D01*
X0136633Y0124517D01*
X0136633Y0125652D01*
X0137200Y0126219D01*
X0139469Y0126219D01*
X0140036Y0125652D01*
X0140036Y0124517D01*
X0139469Y0123950D01*
X0146633Y0124517D02*
X0146633Y0125652D01*
X0147200Y0126219D01*
X0146633Y0124517D02*
X0147200Y0123950D01*
X0149469Y0123950D01*
X0150036Y0124517D01*
X0150036Y0125652D01*
X0149469Y0126219D01*
X0150036Y0122536D02*
X0146633Y0122536D01*
X0150036Y0120267D01*
X0146633Y0120267D01*
X0154695Y0113835D02*
X0155263Y0114402D01*
X0156964Y0114402D01*
X0156964Y0115536D02*
X0156964Y0112133D01*
X0155263Y0112133D01*
X0154695Y0112700D01*
X0154695Y0113835D01*
X0158285Y0112133D02*
X0159419Y0112133D01*
X0158852Y0112133D02*
X0158852Y0115536D01*
X0159419Y0115536D01*
X0160834Y0114402D02*
X0160834Y0112133D01*
X0162535Y0112133D01*
X0163103Y0112700D01*
X0163103Y0114402D01*
X0164517Y0114402D02*
X0165084Y0113835D01*
X0166786Y0113835D01*
X0166786Y0115536D02*
X0166786Y0112133D01*
X0165084Y0112133D01*
X0164517Y0112700D01*
X0164517Y0113268D01*
X0165084Y0113835D01*
X0164517Y0114402D02*
X0164517Y0114969D01*
X0165084Y0115536D01*
X0166786Y0115536D01*
X0198633Y0117151D02*
X0198633Y0118285D01*
X0199200Y0118852D01*
X0200335Y0118852D01*
X0200335Y0117718D01*
X0201469Y0116584D02*
X0199200Y0116584D01*
X0198633Y0117151D01*
X0201469Y0116584D02*
X0202036Y0117151D01*
X0202036Y0118285D01*
X0201469Y0118852D01*
X0202036Y0120267D02*
X0198633Y0120267D01*
X0198633Y0122536D02*
X0202036Y0122536D01*
X0202036Y0123950D02*
X0202036Y0125652D01*
X0201469Y0126219D01*
X0199200Y0126219D01*
X0198633Y0125652D01*
X0198633Y0123950D01*
X0202036Y0123950D01*
X0202036Y0120267D02*
X0198633Y0122536D01*
X0208633Y0122536D02*
X0212036Y0122536D01*
X0211469Y0123950D02*
X0209200Y0123950D01*
X0208633Y0124517D01*
X0208633Y0125652D01*
X0209200Y0126219D01*
X0211469Y0126219D02*
X0212036Y0125652D01*
X0212036Y0124517D01*
X0211469Y0123950D01*
X0208633Y0122536D02*
X0212036Y0120267D01*
X0208633Y0120267D01*
X0214633Y0121401D02*
X0215768Y0122536D01*
X0218036Y0122536D01*
X0217469Y0123950D02*
X0218036Y0124517D01*
X0218036Y0125652D01*
X0217469Y0126219D01*
X0216902Y0126219D01*
X0216335Y0125652D01*
X0215768Y0126219D01*
X0215200Y0126219D01*
X0214633Y0125652D01*
X0214633Y0124517D01*
X0215200Y0123950D01*
X0216335Y0125084D02*
X0216335Y0125652D01*
X0214633Y0121401D02*
X0215768Y0120267D01*
X0218036Y0120267D01*
X0217469Y0118852D02*
X0218036Y0118285D01*
X0218036Y0117151D01*
X0217469Y0116584D01*
X0216335Y0117718D02*
X0216335Y0118285D01*
X0215768Y0118852D01*
X0215200Y0118852D01*
X0214633Y0118285D01*
X0214633Y0117151D01*
X0215200Y0116584D01*
X0216335Y0118285D02*
X0216902Y0118852D01*
X0217469Y0118852D01*
X0224133Y0117812D02*
X0227536Y0117812D01*
X0227536Y0119513D01*
X0226969Y0120080D01*
X0225835Y0120080D01*
X0225268Y0119513D01*
X0225268Y0117812D01*
X0225268Y0118946D02*
X0224133Y0120080D01*
X0224133Y0121495D02*
X0227536Y0123763D01*
X0227536Y0125178D02*
X0227536Y0126312D01*
X0227536Y0125745D02*
X0224133Y0125745D01*
X0224133Y0125178D02*
X0224133Y0126312D01*
X0224133Y0123763D02*
X0227536Y0121495D01*
X0238633Y0122536D02*
X0242036Y0120267D01*
X0242036Y0118852D02*
X0242036Y0116584D01*
X0242036Y0117718D02*
X0238633Y0117718D01*
X0238633Y0120267D02*
X0242036Y0122536D01*
X0241469Y0123950D02*
X0239200Y0123950D01*
X0238633Y0124517D01*
X0238633Y0125652D01*
X0239200Y0126219D01*
X0241469Y0126219D01*
X0242036Y0125652D01*
X0242036Y0124517D01*
X0241469Y0123950D01*
X0248633Y0124517D02*
X0248633Y0125652D01*
X0249200Y0126219D01*
X0248633Y0124517D02*
X0249200Y0123950D01*
X0251469Y0123950D01*
X0252036Y0124517D01*
X0252036Y0125652D01*
X0251469Y0126219D01*
X0252036Y0122536D02*
X0248633Y0122536D01*
X0252036Y0120267D01*
X0248633Y0120267D01*
X0256695Y0113835D02*
X0257263Y0114402D01*
X0258964Y0114402D01*
X0258964Y0115536D02*
X0258964Y0112133D01*
X0257263Y0112133D01*
X0256695Y0112700D01*
X0256695Y0113835D01*
X0260285Y0112133D02*
X0261419Y0112133D01*
X0260852Y0112133D02*
X0260852Y0115536D01*
X0261419Y0115536D01*
X0262834Y0114402D02*
X0262834Y0112133D01*
X0264535Y0112133D01*
X0265103Y0112700D01*
X0265103Y0114402D01*
X0266517Y0114402D02*
X0266517Y0114969D01*
X0267084Y0115536D01*
X0268786Y0115536D01*
X0268786Y0112133D01*
X0267084Y0112133D01*
X0266517Y0112700D01*
X0266517Y0113268D01*
X0267084Y0113835D01*
X0268786Y0113835D01*
X0267084Y0113835D02*
X0266517Y0114402D01*
X0300633Y0117151D02*
X0300633Y0118285D01*
X0301200Y0118852D01*
X0302335Y0118852D01*
X0302335Y0117718D01*
X0303469Y0116584D02*
X0301200Y0116584D01*
X0300633Y0117151D01*
X0303469Y0116584D02*
X0304036Y0117151D01*
X0304036Y0118285D01*
X0303469Y0118852D01*
X0304036Y0120267D02*
X0300633Y0122536D01*
X0304036Y0122536D01*
X0304036Y0123950D02*
X0304036Y0125652D01*
X0303469Y0126219D01*
X0301200Y0126219D01*
X0300633Y0125652D01*
X0300633Y0123950D01*
X0304036Y0123950D01*
X0304036Y0120267D02*
X0300633Y0120267D01*
X0310633Y0120267D02*
X0314036Y0120267D01*
X0310633Y0122536D01*
X0314036Y0122536D01*
X0313469Y0123950D02*
X0311200Y0123950D01*
X0310633Y0124517D01*
X0310633Y0125652D01*
X0311200Y0126219D01*
X0313469Y0126219D02*
X0314036Y0125652D01*
X0314036Y0124517D01*
X0313469Y0123950D01*
X0316633Y0124517D02*
X0317200Y0123950D01*
X0316633Y0124517D02*
X0316633Y0125652D01*
X0317200Y0126219D01*
X0317768Y0126219D01*
X0318335Y0125652D01*
X0318335Y0125084D01*
X0318335Y0125652D02*
X0318902Y0126219D01*
X0319469Y0126219D01*
X0320036Y0125652D01*
X0320036Y0124517D01*
X0319469Y0123950D01*
X0320036Y0122536D02*
X0317768Y0122536D01*
X0316633Y0121401D01*
X0317768Y0120267D01*
X0320036Y0120267D01*
X0319469Y0118852D02*
X0318902Y0118852D01*
X0318335Y0118285D01*
X0317768Y0118852D01*
X0317200Y0118852D01*
X0316633Y0118285D01*
X0316633Y0117151D01*
X0317200Y0116584D01*
X0318335Y0117718D02*
X0318335Y0118285D01*
X0319469Y0118852D02*
X0320036Y0118285D01*
X0320036Y0117151D01*
X0319469Y0116584D01*
X0326133Y0117812D02*
X0329536Y0117812D01*
X0329536Y0119513D01*
X0328969Y0120080D01*
X0327835Y0120080D01*
X0327268Y0119513D01*
X0327268Y0117812D01*
X0327268Y0118946D02*
X0326133Y0120080D01*
X0326133Y0121495D02*
X0329536Y0123763D01*
X0329536Y0125178D02*
X0329536Y0126312D01*
X0329536Y0125745D02*
X0326133Y0125745D01*
X0326133Y0125178D02*
X0326133Y0126312D01*
X0326133Y0123763D02*
X0329536Y0121495D01*
X0340633Y0122536D02*
X0344036Y0120267D01*
X0344036Y0118852D02*
X0344036Y0116584D01*
X0344036Y0117718D02*
X0340633Y0117718D01*
X0340633Y0120267D02*
X0344036Y0122536D01*
X0343469Y0123950D02*
X0341200Y0123950D01*
X0340633Y0124517D01*
X0340633Y0125652D01*
X0341200Y0126219D01*
X0343469Y0126219D01*
X0344036Y0125652D01*
X0344036Y0124517D01*
X0343469Y0123950D01*
X0350633Y0124517D02*
X0350633Y0125652D01*
X0351200Y0126219D01*
X0350633Y0124517D02*
X0351200Y0123950D01*
X0353469Y0123950D01*
X0354036Y0124517D01*
X0354036Y0125652D01*
X0353469Y0126219D01*
X0354036Y0122536D02*
X0350633Y0122536D01*
X0354036Y0120267D01*
X0350633Y0120267D01*
X0358695Y0113835D02*
X0359263Y0114402D01*
X0360964Y0114402D01*
X0360964Y0115536D02*
X0360964Y0112133D01*
X0359263Y0112133D01*
X0358695Y0112700D01*
X0358695Y0113835D01*
X0362285Y0112133D02*
X0363419Y0112133D01*
X0362852Y0112133D02*
X0362852Y0115536D01*
X0363419Y0115536D01*
X0364834Y0114402D02*
X0364834Y0112133D01*
X0366535Y0112133D01*
X0367103Y0112700D01*
X0367103Y0114402D01*
X0368517Y0114402D02*
X0368517Y0114969D01*
X0369084Y0115536D01*
X0370786Y0115536D01*
X0370786Y0112133D01*
X0369084Y0112133D01*
X0368517Y0112700D01*
X0368517Y0113268D01*
X0369084Y0113835D01*
X0370786Y0113835D01*
X0369084Y0113835D02*
X0368517Y0114402D01*
X0353469Y0151633D02*
X0351200Y0151633D01*
X0350633Y0152200D01*
X0350633Y0153335D01*
X0351200Y0153902D01*
X0352335Y0153902D01*
X0352335Y0152768D01*
X0353469Y0153902D02*
X0354036Y0153335D01*
X0354036Y0152200D01*
X0353469Y0151633D01*
X0354036Y0155316D02*
X0350633Y0157585D01*
X0354036Y0157585D01*
X0354036Y0159000D02*
X0350633Y0159000D01*
X0350633Y0160701D01*
X0351200Y0161268D01*
X0353469Y0161268D01*
X0354036Y0160701D01*
X0354036Y0159000D01*
X0354036Y0155316D02*
X0350633Y0155316D01*
X0344036Y0155316D02*
X0341768Y0155316D01*
X0340633Y0156451D01*
X0341768Y0157585D01*
X0344036Y0157585D01*
X0343469Y0159000D02*
X0344036Y0159567D01*
X0344036Y0160701D01*
X0343469Y0161268D01*
X0342902Y0161268D01*
X0342335Y0160701D01*
X0341768Y0161268D01*
X0341200Y0161268D01*
X0340633Y0160701D01*
X0340633Y0159567D01*
X0341200Y0159000D01*
X0342335Y0160134D02*
X0342335Y0160701D01*
X0342902Y0153902D02*
X0342335Y0153335D01*
X0341768Y0153902D01*
X0341200Y0153902D01*
X0340633Y0153335D01*
X0340633Y0152200D01*
X0341200Y0151633D01*
X0342335Y0152768D02*
X0342335Y0153335D01*
X0342902Y0153902D02*
X0343469Y0153902D01*
X0344036Y0153335D01*
X0344036Y0152200D01*
X0343469Y0151633D01*
X0334036Y0152200D02*
X0333469Y0151633D01*
X0332902Y0151633D01*
X0332335Y0152200D01*
X0332335Y0153335D01*
X0331768Y0153902D01*
X0331200Y0153902D01*
X0330633Y0153335D01*
X0330633Y0152200D01*
X0331200Y0151633D01*
X0334036Y0152200D02*
X0334036Y0153335D01*
X0333469Y0153902D01*
X0334036Y0155316D02*
X0330633Y0155316D01*
X0330633Y0157018D01*
X0331200Y0157585D01*
X0333469Y0157585D01*
X0334036Y0157018D01*
X0334036Y0155316D01*
X0332902Y0159000D02*
X0330633Y0159000D01*
X0332335Y0159000D02*
X0332335Y0161268D01*
X0332902Y0161268D02*
X0330633Y0161268D01*
X0332902Y0161268D02*
X0334036Y0160134D01*
X0332902Y0159000D01*
X0324036Y0159000D02*
X0320633Y0159000D01*
X0320633Y0161268D01*
X0321200Y0157585D02*
X0320633Y0157018D01*
X0320633Y0155884D01*
X0321200Y0155316D01*
X0323469Y0155316D01*
X0324036Y0155884D01*
X0324036Y0157018D01*
X0323469Y0157585D01*
X0323469Y0153902D02*
X0324036Y0153335D01*
X0324036Y0152200D01*
X0323469Y0151633D01*
X0322902Y0151633D01*
X0322335Y0152200D01*
X0322335Y0153335D01*
X0321768Y0153902D01*
X0321200Y0153902D01*
X0320633Y0153335D01*
X0320633Y0152200D01*
X0321200Y0151633D01*
X0315233Y0151333D02*
X0315233Y0161155D01*
X0314036Y0160041D02*
X0314036Y0157772D01*
X0314036Y0158906D02*
X0310633Y0158906D01*
X0310633Y0156357D02*
X0314036Y0156357D01*
X0314036Y0154089D02*
X0310633Y0154089D01*
X0310633Y0152768D02*
X0310633Y0151633D01*
X0310633Y0152200D02*
X0314036Y0152200D01*
X0314036Y0151633D02*
X0314036Y0152768D01*
X0314036Y0154089D02*
X0310633Y0156357D01*
X0304036Y0155884D02*
X0303469Y0155316D01*
X0302902Y0155316D01*
X0302335Y0155884D01*
X0302335Y0157018D01*
X0301768Y0157585D01*
X0301200Y0157585D01*
X0300633Y0157018D01*
X0300633Y0155884D01*
X0301200Y0155316D01*
X0300633Y0153902D02*
X0301768Y0152768D01*
X0301768Y0153335D02*
X0301768Y0151633D01*
X0300633Y0151633D02*
X0304036Y0151633D01*
X0304036Y0153335D01*
X0303469Y0153902D01*
X0302335Y0153902D01*
X0301768Y0153335D01*
X0304036Y0155884D02*
X0304036Y0157018D01*
X0303469Y0157585D01*
X0304036Y0159000D02*
X0304036Y0161268D01*
X0304036Y0160134D02*
X0300633Y0160134D01*
X0305233Y0162383D02*
X0305233Y0151333D01*
X0304333Y0175933D02*
X0310333Y0175933D01*
X0310393Y0175935D01*
X0310454Y0175940D01*
X0310513Y0175949D01*
X0310572Y0175962D01*
X0310631Y0175978D01*
X0310688Y0175998D01*
X0310743Y0176021D01*
X0310798Y0176048D01*
X0310850Y0176077D01*
X0310901Y0176110D01*
X0310950Y0176146D01*
X0310996Y0176184D01*
X0311040Y0176226D01*
X0311082Y0176270D01*
X0311120Y0176316D01*
X0311156Y0176365D01*
X0311189Y0176416D01*
X0311218Y0176468D01*
X0311245Y0176523D01*
X0311268Y0176578D01*
X0311288Y0176635D01*
X0311304Y0176694D01*
X0311317Y0176753D01*
X0311326Y0176812D01*
X0311331Y0176873D01*
X0311333Y0176933D01*
X0311333Y0183733D01*
X0311331Y0183793D01*
X0311326Y0183854D01*
X0311317Y0183913D01*
X0311304Y0183972D01*
X0311288Y0184031D01*
X0311268Y0184088D01*
X0311245Y0184143D01*
X0311218Y0184198D01*
X0311189Y0184250D01*
X0311156Y0184301D01*
X0311120Y0184350D01*
X0311082Y0184396D01*
X0311040Y0184440D01*
X0310996Y0184482D01*
X0310950Y0184520D01*
X0310901Y0184556D01*
X0310850Y0184589D01*
X0310798Y0184618D01*
X0310743Y0184645D01*
X0310688Y0184668D01*
X0310631Y0184688D01*
X0310572Y0184704D01*
X0310513Y0184717D01*
X0310454Y0184726D01*
X0310393Y0184731D01*
X0310333Y0184733D01*
X0304333Y0184733D01*
X0304273Y0184731D01*
X0304212Y0184726D01*
X0304153Y0184717D01*
X0304094Y0184704D01*
X0304035Y0184688D01*
X0303978Y0184668D01*
X0303923Y0184645D01*
X0303868Y0184618D01*
X0303816Y0184589D01*
X0303765Y0184556D01*
X0303716Y0184520D01*
X0303670Y0184482D01*
X0303626Y0184440D01*
X0303584Y0184396D01*
X0303546Y0184350D01*
X0303510Y0184301D01*
X0303477Y0184250D01*
X0303448Y0184198D01*
X0303421Y0184143D01*
X0303398Y0184088D01*
X0303378Y0184031D01*
X0303362Y0183972D01*
X0303349Y0183913D01*
X0303340Y0183854D01*
X0303335Y0183793D01*
X0303333Y0183733D01*
X0303333Y0176933D01*
X0303335Y0176873D01*
X0303340Y0176812D01*
X0303349Y0176753D01*
X0303362Y0176694D01*
X0303378Y0176635D01*
X0303398Y0176578D01*
X0303421Y0176523D01*
X0303448Y0176468D01*
X0303477Y0176416D01*
X0303510Y0176365D01*
X0303546Y0176316D01*
X0303584Y0176270D01*
X0303626Y0176226D01*
X0303670Y0176184D01*
X0303716Y0176146D01*
X0303765Y0176110D01*
X0303816Y0176077D01*
X0303868Y0176048D01*
X0303923Y0176021D01*
X0303978Y0175998D01*
X0304035Y0175978D01*
X0304094Y0175962D01*
X0304153Y0175949D01*
X0304212Y0175940D01*
X0304273Y0175935D01*
X0304333Y0175933D01*
X0268786Y0214133D02*
X0267084Y0214133D01*
X0266517Y0214700D01*
X0266517Y0215268D01*
X0267084Y0215835D01*
X0268786Y0215835D01*
X0268786Y0217536D02*
X0267084Y0217536D01*
X0266517Y0216969D01*
X0266517Y0216402D01*
X0267084Y0215835D01*
X0265103Y0216402D02*
X0265103Y0214700D01*
X0264535Y0214133D01*
X0262834Y0214133D01*
X0262834Y0216402D01*
X0261419Y0217536D02*
X0260852Y0217536D01*
X0260852Y0214133D01*
X0261419Y0214133D02*
X0260285Y0214133D01*
X0258964Y0214133D02*
X0257263Y0214133D01*
X0256695Y0214700D01*
X0256695Y0215835D01*
X0257263Y0216402D01*
X0258964Y0216402D01*
X0258964Y0217536D02*
X0258964Y0214133D01*
X0268786Y0214133D02*
X0268786Y0217536D01*
X0252036Y0222267D02*
X0248633Y0224536D01*
X0252036Y0224536D01*
X0251469Y0225950D02*
X0249200Y0225950D01*
X0248633Y0226517D01*
X0248633Y0227652D01*
X0249200Y0228219D01*
X0251469Y0228219D02*
X0252036Y0227652D01*
X0252036Y0226517D01*
X0251469Y0225950D01*
X0252036Y0222267D02*
X0248633Y0222267D01*
X0242036Y0222267D02*
X0238633Y0224536D01*
X0239200Y0225950D02*
X0238633Y0226517D01*
X0238633Y0227652D01*
X0239200Y0228219D01*
X0241469Y0228219D01*
X0242036Y0227652D01*
X0242036Y0226517D01*
X0241469Y0225950D01*
X0239200Y0225950D01*
X0242036Y0224536D02*
X0238633Y0222267D01*
X0238633Y0219718D02*
X0242036Y0219718D01*
X0242036Y0218584D02*
X0242036Y0220852D01*
X0227536Y0221513D02*
X0226969Y0222080D01*
X0225835Y0222080D01*
X0225268Y0221513D01*
X0225268Y0219812D01*
X0225268Y0220946D02*
X0224133Y0222080D01*
X0224133Y0223495D02*
X0227536Y0225763D01*
X0227536Y0227178D02*
X0227536Y0228312D01*
X0227536Y0227745D02*
X0224133Y0227745D01*
X0224133Y0227178D02*
X0224133Y0228312D01*
X0224133Y0225763D02*
X0227536Y0223495D01*
X0227536Y0221513D02*
X0227536Y0219812D01*
X0224133Y0219812D01*
X0218036Y0220285D02*
X0217469Y0220852D01*
X0216902Y0220852D01*
X0216335Y0220285D01*
X0215768Y0220852D01*
X0215200Y0220852D01*
X0214633Y0220285D01*
X0214633Y0219151D01*
X0215200Y0218584D01*
X0216335Y0219718D02*
X0216335Y0220285D01*
X0218036Y0220285D02*
X0218036Y0219151D01*
X0217469Y0218584D01*
X0218036Y0222267D02*
X0215768Y0222267D01*
X0214633Y0223401D01*
X0215768Y0224536D01*
X0218036Y0224536D01*
X0217469Y0225950D02*
X0218036Y0226517D01*
X0218036Y0227652D01*
X0217469Y0228219D01*
X0216902Y0228219D01*
X0216335Y0227652D01*
X0215768Y0228219D01*
X0215200Y0228219D01*
X0214633Y0227652D01*
X0214633Y0226517D01*
X0215200Y0225950D01*
X0216335Y0227084D02*
X0216335Y0227652D01*
X0212036Y0227652D02*
X0212036Y0226517D01*
X0211469Y0225950D01*
X0209200Y0225950D01*
X0208633Y0226517D01*
X0208633Y0227652D01*
X0209200Y0228219D01*
X0211469Y0228219D02*
X0212036Y0227652D01*
X0212036Y0224536D02*
X0208633Y0224536D01*
X0212036Y0222267D01*
X0208633Y0222267D01*
X0202036Y0222267D02*
X0198633Y0224536D01*
X0202036Y0224536D01*
X0202036Y0225950D02*
X0198633Y0225950D01*
X0198633Y0227652D01*
X0199200Y0228219D01*
X0201469Y0228219D01*
X0202036Y0227652D01*
X0202036Y0225950D01*
X0202036Y0222267D02*
X0198633Y0222267D01*
X0199200Y0220852D02*
X0200335Y0220852D01*
X0200335Y0219718D01*
X0201469Y0218584D02*
X0199200Y0218584D01*
X0198633Y0219151D01*
X0198633Y0220285D01*
X0199200Y0220852D01*
X0201469Y0220852D02*
X0202036Y0220285D01*
X0202036Y0219151D01*
X0201469Y0218584D01*
X0166786Y0217536D02*
X0166786Y0214133D01*
X0165084Y0214133D01*
X0164517Y0214700D01*
X0164517Y0215268D01*
X0165084Y0215835D01*
X0166786Y0215835D01*
X0166786Y0217536D02*
X0165084Y0217536D01*
X0164517Y0216969D01*
X0164517Y0216402D01*
X0165084Y0215835D01*
X0163103Y0216402D02*
X0163103Y0214700D01*
X0162535Y0214133D01*
X0160834Y0214133D01*
X0160834Y0216402D01*
X0159419Y0217536D02*
X0158852Y0217536D01*
X0158852Y0214133D01*
X0159419Y0214133D02*
X0158285Y0214133D01*
X0156964Y0214133D02*
X0156964Y0217536D01*
X0156964Y0216402D02*
X0155263Y0216402D01*
X0154695Y0215835D01*
X0154695Y0214700D01*
X0155263Y0214133D01*
X0156964Y0214133D01*
X0150036Y0222267D02*
X0146633Y0224536D01*
X0150036Y0224536D01*
X0149469Y0225950D02*
X0147200Y0225950D01*
X0146633Y0226517D01*
X0146633Y0227652D01*
X0147200Y0228219D01*
X0149469Y0228219D02*
X0150036Y0227652D01*
X0150036Y0226517D01*
X0149469Y0225950D01*
X0150036Y0222267D02*
X0146633Y0222267D01*
X0140036Y0222267D02*
X0136633Y0224536D01*
X0137200Y0225950D02*
X0136633Y0226517D01*
X0136633Y0227652D01*
X0137200Y0228219D01*
X0139469Y0228219D01*
X0140036Y0227652D01*
X0140036Y0226517D01*
X0139469Y0225950D01*
X0137200Y0225950D01*
X0140036Y0224536D02*
X0136633Y0222267D01*
X0136633Y0219718D02*
X0140036Y0219718D01*
X0140036Y0218584D02*
X0140036Y0220852D01*
X0125536Y0221513D02*
X0124969Y0222080D01*
X0123835Y0222080D01*
X0123268Y0221513D01*
X0123268Y0219812D01*
X0123268Y0220946D02*
X0122133Y0222080D01*
X0122133Y0223495D02*
X0125536Y0225763D01*
X0125536Y0227178D02*
X0125536Y0228312D01*
X0125536Y0227745D02*
X0122133Y0227745D01*
X0122133Y0227178D02*
X0122133Y0228312D01*
X0122133Y0225763D02*
X0125536Y0223495D01*
X0125536Y0221513D02*
X0125536Y0219812D01*
X0122133Y0219812D01*
X0116036Y0220285D02*
X0115469Y0220852D01*
X0114902Y0220852D01*
X0114335Y0220285D01*
X0113768Y0220852D01*
X0113200Y0220852D01*
X0112633Y0220285D01*
X0112633Y0219151D01*
X0113200Y0218584D01*
X0114335Y0219718D02*
X0114335Y0220285D01*
X0116036Y0220285D02*
X0116036Y0219151D01*
X0115469Y0218584D01*
X0116036Y0222267D02*
X0113768Y0222267D01*
X0112633Y0223401D01*
X0113768Y0224536D01*
X0116036Y0224536D01*
X0115469Y0225950D02*
X0116036Y0226517D01*
X0116036Y0227652D01*
X0115469Y0228219D01*
X0114902Y0228219D01*
X0114335Y0227652D01*
X0113768Y0228219D01*
X0113200Y0228219D01*
X0112633Y0227652D01*
X0112633Y0226517D01*
X0113200Y0225950D01*
X0114335Y0227084D02*
X0114335Y0227652D01*
X0110036Y0227652D02*
X0110036Y0226517D01*
X0109469Y0225950D01*
X0107200Y0225950D01*
X0106633Y0226517D01*
X0106633Y0227652D01*
X0107200Y0228219D01*
X0109469Y0228219D02*
X0110036Y0227652D01*
X0110036Y0224536D02*
X0106633Y0224536D01*
X0110036Y0222267D01*
X0106633Y0222267D01*
X0100036Y0222267D02*
X0096633Y0224536D01*
X0100036Y0224536D01*
X0100036Y0225950D02*
X0096633Y0225950D01*
X0096633Y0227652D01*
X0097200Y0228219D01*
X0099469Y0228219D01*
X0100036Y0227652D01*
X0100036Y0225950D01*
X0100036Y0222267D02*
X0096633Y0222267D01*
X0097200Y0220852D02*
X0096633Y0220285D01*
X0096633Y0219151D01*
X0097200Y0218584D01*
X0099469Y0218584D01*
X0100036Y0219151D01*
X0100036Y0220285D01*
X0099469Y0220852D01*
X0098335Y0220852D02*
X0098335Y0219718D01*
X0098335Y0220852D02*
X0097200Y0220852D01*
X0101233Y0253333D02*
X0101233Y0264383D01*
X0100036Y0263268D02*
X0100036Y0261000D01*
X0100036Y0262134D02*
X0096633Y0262134D01*
X0097200Y0259585D02*
X0096633Y0259018D01*
X0096633Y0257884D01*
X0097200Y0257316D01*
X0098335Y0257884D02*
X0098335Y0259018D01*
X0097768Y0259585D01*
X0097200Y0259585D01*
X0098335Y0257884D02*
X0098902Y0257316D01*
X0099469Y0257316D01*
X0100036Y0257884D01*
X0100036Y0259018D01*
X0099469Y0259585D01*
X0099469Y0255902D02*
X0098335Y0255902D01*
X0097768Y0255335D01*
X0097768Y0253633D01*
X0097768Y0254768D02*
X0096633Y0255902D01*
X0096633Y0253633D02*
X0100036Y0253633D01*
X0100036Y0255335D01*
X0099469Y0255902D01*
X0106633Y0256089D02*
X0110036Y0256089D01*
X0106633Y0258357D01*
X0110036Y0258357D01*
X0110036Y0259772D02*
X0110036Y0262041D01*
X0110036Y0260906D02*
X0106633Y0260906D01*
X0111233Y0263155D02*
X0111233Y0253333D01*
X0110036Y0253633D02*
X0110036Y0254768D01*
X0110036Y0254200D02*
X0106633Y0254200D01*
X0106633Y0253633D02*
X0106633Y0254768D01*
X0116633Y0255335D02*
X0116633Y0254200D01*
X0117200Y0253633D01*
X0118335Y0254200D02*
X0118335Y0255335D01*
X0117768Y0255902D01*
X0117200Y0255902D01*
X0116633Y0255335D01*
X0118335Y0254200D02*
X0118902Y0253633D01*
X0119469Y0253633D01*
X0120036Y0254200D01*
X0120036Y0255335D01*
X0119469Y0255902D01*
X0119469Y0257316D02*
X0117200Y0257316D01*
X0116633Y0257884D01*
X0116633Y0259018D01*
X0117200Y0259585D01*
X0116633Y0261000D02*
X0120036Y0261000D01*
X0119469Y0259585D02*
X0120036Y0259018D01*
X0120036Y0257884D01*
X0119469Y0257316D01*
X0116633Y0261000D02*
X0116633Y0263268D01*
X0126633Y0263268D02*
X0128902Y0263268D01*
X0130036Y0262134D01*
X0128902Y0261000D01*
X0126633Y0261000D01*
X0127200Y0259585D02*
X0129469Y0259585D01*
X0130036Y0259018D01*
X0130036Y0257316D01*
X0126633Y0257316D01*
X0126633Y0259018D01*
X0127200Y0259585D01*
X0128335Y0261000D02*
X0128335Y0263268D01*
X0127768Y0255902D02*
X0127200Y0255902D01*
X0126633Y0255335D01*
X0126633Y0254200D01*
X0127200Y0253633D01*
X0128335Y0254200D02*
X0128335Y0255335D01*
X0127768Y0255902D01*
X0129469Y0255902D02*
X0130036Y0255335D01*
X0130036Y0254200D01*
X0129469Y0253633D01*
X0128902Y0253633D01*
X0128335Y0254200D01*
X0136633Y0254200D02*
X0137200Y0253633D01*
X0136633Y0254200D02*
X0136633Y0255335D01*
X0137200Y0255902D01*
X0137768Y0255902D01*
X0138335Y0255335D01*
X0138335Y0254768D01*
X0138335Y0255335D02*
X0138902Y0255902D01*
X0139469Y0255902D01*
X0140036Y0255335D01*
X0140036Y0254200D01*
X0139469Y0253633D01*
X0140036Y0257316D02*
X0137768Y0257316D01*
X0136633Y0258451D01*
X0137768Y0259585D01*
X0140036Y0259585D01*
X0139469Y0261000D02*
X0140036Y0261567D01*
X0140036Y0262701D01*
X0139469Y0263268D01*
X0138902Y0263268D01*
X0138335Y0262701D01*
X0137768Y0263268D01*
X0137200Y0263268D01*
X0136633Y0262701D01*
X0136633Y0261567D01*
X0137200Y0261000D01*
X0138335Y0262134D02*
X0138335Y0262701D01*
X0146633Y0262701D02*
X0146633Y0261000D01*
X0150036Y0261000D01*
X0150036Y0262701D01*
X0149469Y0263268D01*
X0147200Y0263268D01*
X0146633Y0262701D01*
X0146633Y0259585D02*
X0150036Y0259585D01*
X0150036Y0257316D02*
X0146633Y0257316D01*
X0147200Y0255902D02*
X0148335Y0255902D01*
X0148335Y0254768D01*
X0149469Y0255902D02*
X0150036Y0255335D01*
X0150036Y0254200D01*
X0149469Y0253633D01*
X0147200Y0253633D01*
X0146633Y0254200D01*
X0146633Y0255335D01*
X0147200Y0255902D01*
X0150036Y0257316D02*
X0146633Y0259585D01*
X0107333Y0278933D02*
X0107333Y0285733D01*
X0107331Y0285793D01*
X0107326Y0285854D01*
X0107317Y0285913D01*
X0107304Y0285972D01*
X0107288Y0286031D01*
X0107268Y0286088D01*
X0107245Y0286143D01*
X0107218Y0286198D01*
X0107189Y0286250D01*
X0107156Y0286301D01*
X0107120Y0286350D01*
X0107082Y0286396D01*
X0107040Y0286440D01*
X0106996Y0286482D01*
X0106950Y0286520D01*
X0106901Y0286556D01*
X0106850Y0286589D01*
X0106798Y0286618D01*
X0106743Y0286645D01*
X0106688Y0286668D01*
X0106631Y0286688D01*
X0106572Y0286704D01*
X0106513Y0286717D01*
X0106454Y0286726D01*
X0106393Y0286731D01*
X0106333Y0286733D01*
X0100333Y0286733D01*
X0100273Y0286731D01*
X0100212Y0286726D01*
X0100153Y0286717D01*
X0100094Y0286704D01*
X0100035Y0286688D01*
X0099978Y0286668D01*
X0099923Y0286645D01*
X0099868Y0286618D01*
X0099816Y0286589D01*
X0099765Y0286556D01*
X0099716Y0286520D01*
X0099670Y0286482D01*
X0099626Y0286440D01*
X0099584Y0286396D01*
X0099546Y0286350D01*
X0099510Y0286301D01*
X0099477Y0286250D01*
X0099448Y0286198D01*
X0099421Y0286143D01*
X0099398Y0286088D01*
X0099378Y0286031D01*
X0099362Y0285972D01*
X0099349Y0285913D01*
X0099340Y0285854D01*
X0099335Y0285793D01*
X0099333Y0285733D01*
X0099333Y0278933D01*
X0099335Y0278873D01*
X0099340Y0278812D01*
X0099349Y0278753D01*
X0099362Y0278694D01*
X0099378Y0278635D01*
X0099398Y0278578D01*
X0099421Y0278523D01*
X0099448Y0278468D01*
X0099477Y0278416D01*
X0099510Y0278365D01*
X0099546Y0278316D01*
X0099584Y0278270D01*
X0099626Y0278226D01*
X0099670Y0278184D01*
X0099716Y0278146D01*
X0099765Y0278110D01*
X0099816Y0278077D01*
X0099868Y0278048D01*
X0099923Y0278021D01*
X0099978Y0277998D01*
X0100035Y0277978D01*
X0100094Y0277962D01*
X0100153Y0277949D01*
X0100212Y0277940D01*
X0100273Y0277935D01*
X0100333Y0277933D01*
X0106333Y0277933D01*
X0106393Y0277935D01*
X0106454Y0277940D01*
X0106513Y0277949D01*
X0106572Y0277962D01*
X0106631Y0277978D01*
X0106688Y0277998D01*
X0106743Y0278021D01*
X0106798Y0278048D01*
X0106850Y0278077D01*
X0106901Y0278110D01*
X0106950Y0278146D01*
X0106996Y0278184D01*
X0107040Y0278226D01*
X0107082Y0278270D01*
X0107120Y0278316D01*
X0107156Y0278365D01*
X0107189Y0278416D01*
X0107218Y0278468D01*
X0107245Y0278523D01*
X0107268Y0278578D01*
X0107288Y0278635D01*
X0107304Y0278694D01*
X0107317Y0278753D01*
X0107326Y0278812D01*
X0107331Y0278873D01*
X0107333Y0278933D01*
X0113200Y0320584D02*
X0112633Y0321151D01*
X0112633Y0322285D01*
X0113200Y0322852D01*
X0113768Y0322852D01*
X0114335Y0322285D01*
X0114335Y0321718D01*
X0114335Y0322285D02*
X0114902Y0322852D01*
X0115469Y0322852D01*
X0116036Y0322285D01*
X0116036Y0321151D01*
X0115469Y0320584D01*
X0116036Y0324267D02*
X0113768Y0324267D01*
X0112633Y0325401D01*
X0113768Y0326536D01*
X0116036Y0326536D01*
X0115469Y0327950D02*
X0116036Y0328517D01*
X0116036Y0329652D01*
X0115469Y0330219D01*
X0114902Y0330219D01*
X0114335Y0329652D01*
X0113768Y0330219D01*
X0113200Y0330219D01*
X0112633Y0329652D01*
X0112633Y0328517D01*
X0113200Y0327950D01*
X0114335Y0329084D02*
X0114335Y0329652D01*
X0110036Y0329652D02*
X0110036Y0328517D01*
X0109469Y0327950D01*
X0107200Y0327950D01*
X0106633Y0328517D01*
X0106633Y0329652D01*
X0107200Y0330219D01*
X0109469Y0330219D02*
X0110036Y0329652D01*
X0110036Y0326536D02*
X0106633Y0326536D01*
X0110036Y0324267D01*
X0106633Y0324267D01*
X0100036Y0324267D02*
X0096633Y0326536D01*
X0100036Y0326536D01*
X0100036Y0327950D02*
X0100036Y0329652D01*
X0099469Y0330219D01*
X0097200Y0330219D01*
X0096633Y0329652D01*
X0096633Y0327950D01*
X0100036Y0327950D01*
X0100036Y0324267D02*
X0096633Y0324267D01*
X0097200Y0322852D02*
X0096633Y0322285D01*
X0096633Y0321151D01*
X0097200Y0320584D01*
X0099469Y0320584D01*
X0100036Y0321151D01*
X0100036Y0322285D01*
X0099469Y0322852D01*
X0098335Y0322852D02*
X0098335Y0321718D01*
X0098335Y0322852D02*
X0097200Y0322852D01*
X0122133Y0321812D02*
X0125536Y0321812D01*
X0125536Y0323513D01*
X0124969Y0324080D01*
X0123835Y0324080D01*
X0123268Y0323513D01*
X0123268Y0321812D01*
X0123268Y0322946D02*
X0122133Y0324080D01*
X0122133Y0325495D02*
X0125536Y0327763D01*
X0125536Y0329178D02*
X0125536Y0330312D01*
X0125536Y0329745D02*
X0122133Y0329745D01*
X0122133Y0329178D02*
X0122133Y0330312D01*
X0122133Y0327763D02*
X0125536Y0325495D01*
X0136633Y0326536D02*
X0140036Y0324267D01*
X0140036Y0322852D02*
X0140036Y0320584D01*
X0140036Y0321718D02*
X0136633Y0321718D01*
X0136633Y0324267D02*
X0140036Y0326536D01*
X0139469Y0327950D02*
X0137200Y0327950D01*
X0136633Y0328517D01*
X0136633Y0329652D01*
X0137200Y0330219D01*
X0139469Y0330219D01*
X0140036Y0329652D01*
X0140036Y0328517D01*
X0139469Y0327950D01*
X0146633Y0328517D02*
X0146633Y0329652D01*
X0147200Y0330219D01*
X0146633Y0328517D02*
X0147200Y0327950D01*
X0149469Y0327950D01*
X0150036Y0328517D01*
X0150036Y0329652D01*
X0149469Y0330219D01*
X0150036Y0326536D02*
X0146633Y0326536D01*
X0150036Y0324267D01*
X0146633Y0324267D01*
X0154695Y0317835D02*
X0155263Y0318402D01*
X0156964Y0318402D01*
X0156964Y0319536D02*
X0156964Y0316133D01*
X0155263Y0316133D01*
X0154695Y0316700D01*
X0154695Y0317835D01*
X0158285Y0316133D02*
X0159419Y0316133D01*
X0158852Y0316133D02*
X0158852Y0319536D01*
X0159419Y0319536D01*
X0160834Y0318402D02*
X0160834Y0316133D01*
X0162535Y0316133D01*
X0163103Y0316700D01*
X0163103Y0318402D01*
X0164517Y0318402D02*
X0165084Y0317835D01*
X0166786Y0317835D01*
X0166786Y0319536D02*
X0166786Y0316133D01*
X0165084Y0316133D01*
X0164517Y0316700D01*
X0164517Y0317268D01*
X0165084Y0317835D01*
X0164517Y0318402D02*
X0164517Y0318969D01*
X0165084Y0319536D01*
X0166786Y0319536D01*
X0198633Y0321151D02*
X0198633Y0322285D01*
X0199200Y0322852D01*
X0200335Y0322852D01*
X0200335Y0321718D01*
X0201469Y0320584D02*
X0199200Y0320584D01*
X0198633Y0321151D01*
X0201469Y0320584D02*
X0202036Y0321151D01*
X0202036Y0322285D01*
X0201469Y0322852D01*
X0202036Y0324267D02*
X0198633Y0324267D01*
X0198633Y0326536D02*
X0202036Y0326536D01*
X0202036Y0327950D02*
X0202036Y0329652D01*
X0201469Y0330219D01*
X0199200Y0330219D01*
X0198633Y0329652D01*
X0198633Y0327950D01*
X0202036Y0327950D01*
X0202036Y0324267D02*
X0198633Y0326536D01*
X0208633Y0326536D02*
X0212036Y0326536D01*
X0211469Y0327950D02*
X0209200Y0327950D01*
X0208633Y0328517D01*
X0208633Y0329652D01*
X0209200Y0330219D01*
X0211469Y0330219D02*
X0212036Y0329652D01*
X0212036Y0328517D01*
X0211469Y0327950D01*
X0208633Y0326536D02*
X0212036Y0324267D01*
X0208633Y0324267D01*
X0214633Y0325401D02*
X0215768Y0324267D01*
X0218036Y0324267D01*
X0217469Y0322852D02*
X0218036Y0322285D01*
X0218036Y0321151D01*
X0217469Y0320584D01*
X0216335Y0321718D02*
X0216335Y0322285D01*
X0215768Y0322852D01*
X0215200Y0322852D01*
X0214633Y0322285D01*
X0214633Y0321151D01*
X0215200Y0320584D01*
X0216335Y0322285D02*
X0216902Y0322852D01*
X0217469Y0322852D01*
X0218036Y0326536D02*
X0215768Y0326536D01*
X0214633Y0325401D01*
X0215200Y0327950D02*
X0214633Y0328517D01*
X0214633Y0329652D01*
X0215200Y0330219D01*
X0215768Y0330219D01*
X0216335Y0329652D01*
X0216335Y0329084D01*
X0216335Y0329652D02*
X0216902Y0330219D01*
X0217469Y0330219D01*
X0218036Y0329652D01*
X0218036Y0328517D01*
X0217469Y0327950D01*
X0224133Y0327763D02*
X0227536Y0325495D01*
X0226969Y0324080D02*
X0225835Y0324080D01*
X0225268Y0323513D01*
X0225268Y0321812D01*
X0225268Y0322946D02*
X0224133Y0324080D01*
X0224133Y0325495D02*
X0227536Y0327763D01*
X0227536Y0329178D02*
X0227536Y0330312D01*
X0227536Y0329745D02*
X0224133Y0329745D01*
X0224133Y0329178D02*
X0224133Y0330312D01*
X0226969Y0324080D02*
X0227536Y0323513D01*
X0227536Y0321812D01*
X0224133Y0321812D01*
X0238633Y0321718D02*
X0242036Y0321718D01*
X0242036Y0320584D02*
X0242036Y0322852D01*
X0242036Y0324267D02*
X0238633Y0326536D01*
X0239200Y0327950D02*
X0238633Y0328517D01*
X0238633Y0329652D01*
X0239200Y0330219D01*
X0241469Y0330219D01*
X0242036Y0329652D01*
X0242036Y0328517D01*
X0241469Y0327950D01*
X0239200Y0327950D01*
X0242036Y0326536D02*
X0238633Y0324267D01*
X0248633Y0324267D02*
X0252036Y0324267D01*
X0248633Y0326536D01*
X0252036Y0326536D01*
X0251469Y0327950D02*
X0249200Y0327950D01*
X0248633Y0328517D01*
X0248633Y0329652D01*
X0249200Y0330219D01*
X0251469Y0330219D02*
X0252036Y0329652D01*
X0252036Y0328517D01*
X0251469Y0327950D01*
X0257263Y0318402D02*
X0258964Y0318402D01*
X0258964Y0319536D02*
X0258964Y0316133D01*
X0257263Y0316133D01*
X0256695Y0316700D01*
X0256695Y0317835D01*
X0257263Y0318402D01*
X0260852Y0319536D02*
X0260852Y0316133D01*
X0261419Y0316133D02*
X0260285Y0316133D01*
X0262834Y0316133D02*
X0262834Y0318402D01*
X0261419Y0319536D02*
X0260852Y0319536D01*
X0262834Y0316133D02*
X0264535Y0316133D01*
X0265103Y0316700D01*
X0265103Y0318402D01*
X0266517Y0318402D02*
X0267084Y0317835D01*
X0268786Y0317835D01*
X0268786Y0319536D02*
X0268786Y0316133D01*
X0267084Y0316133D01*
X0266517Y0316700D01*
X0266517Y0317268D01*
X0267084Y0317835D01*
X0266517Y0318402D02*
X0266517Y0318969D01*
X0267084Y0319536D01*
X0268786Y0319536D01*
X0300633Y0321151D02*
X0300633Y0322285D01*
X0301200Y0322852D01*
X0302335Y0322852D01*
X0302335Y0321718D01*
X0303469Y0320584D02*
X0301200Y0320584D01*
X0300633Y0321151D01*
X0303469Y0320584D02*
X0304036Y0321151D01*
X0304036Y0322285D01*
X0303469Y0322852D01*
X0304036Y0324267D02*
X0300633Y0326536D01*
X0304036Y0326536D01*
X0304036Y0327950D02*
X0304036Y0329652D01*
X0303469Y0330219D01*
X0301200Y0330219D01*
X0300633Y0329652D01*
X0300633Y0327950D01*
X0304036Y0327950D01*
X0304036Y0324267D02*
X0300633Y0324267D01*
X0310633Y0324267D02*
X0314036Y0324267D01*
X0310633Y0326536D01*
X0314036Y0326536D01*
X0313469Y0327950D02*
X0311200Y0327950D01*
X0310633Y0328517D01*
X0310633Y0329652D01*
X0311200Y0330219D01*
X0313469Y0330219D02*
X0314036Y0329652D01*
X0314036Y0328517D01*
X0313469Y0327950D01*
X0316633Y0328517D02*
X0316633Y0329652D01*
X0317200Y0330219D01*
X0317768Y0330219D01*
X0318335Y0329652D01*
X0318335Y0329084D01*
X0318335Y0329652D02*
X0318902Y0330219D01*
X0319469Y0330219D01*
X0320036Y0329652D01*
X0320036Y0328517D01*
X0319469Y0327950D01*
X0320036Y0326536D02*
X0317768Y0326536D01*
X0316633Y0325401D01*
X0317768Y0324267D01*
X0320036Y0324267D01*
X0319469Y0322852D02*
X0318902Y0322852D01*
X0318335Y0322285D01*
X0317768Y0322852D01*
X0317200Y0322852D01*
X0316633Y0322285D01*
X0316633Y0321151D01*
X0317200Y0320584D01*
X0318335Y0321718D02*
X0318335Y0322285D01*
X0319469Y0322852D02*
X0320036Y0322285D01*
X0320036Y0321151D01*
X0319469Y0320584D01*
X0326133Y0321812D02*
X0329536Y0321812D01*
X0329536Y0323513D01*
X0328969Y0324080D01*
X0327835Y0324080D01*
X0327268Y0323513D01*
X0327268Y0321812D01*
X0327268Y0322946D02*
X0326133Y0324080D01*
X0326133Y0325495D02*
X0329536Y0327763D01*
X0329536Y0329178D02*
X0329536Y0330312D01*
X0329536Y0329745D02*
X0326133Y0329745D01*
X0326133Y0329178D02*
X0326133Y0330312D01*
X0326133Y0327763D02*
X0329536Y0325495D01*
X0340633Y0326536D02*
X0344036Y0324267D01*
X0344036Y0322852D02*
X0344036Y0320584D01*
X0344036Y0321718D02*
X0340633Y0321718D01*
X0340633Y0324267D02*
X0344036Y0326536D01*
X0343469Y0327950D02*
X0341200Y0327950D01*
X0340633Y0328517D01*
X0340633Y0329652D01*
X0341200Y0330219D01*
X0343469Y0330219D01*
X0344036Y0329652D01*
X0344036Y0328517D01*
X0343469Y0327950D01*
X0350633Y0328517D02*
X0350633Y0329652D01*
X0351200Y0330219D01*
X0350633Y0328517D02*
X0351200Y0327950D01*
X0353469Y0327950D01*
X0354036Y0328517D01*
X0354036Y0329652D01*
X0353469Y0330219D01*
X0354036Y0326536D02*
X0350633Y0326536D01*
X0354036Y0324267D01*
X0350633Y0324267D01*
X0358695Y0317835D02*
X0359263Y0318402D01*
X0360964Y0318402D01*
X0360964Y0319536D02*
X0360964Y0316133D01*
X0359263Y0316133D01*
X0358695Y0316700D01*
X0358695Y0317835D01*
X0362285Y0316133D02*
X0363419Y0316133D01*
X0362852Y0316133D02*
X0362852Y0319536D01*
X0363419Y0319536D01*
X0364834Y0318402D02*
X0364834Y0316133D01*
X0366535Y0316133D01*
X0367103Y0316700D01*
X0367103Y0318402D01*
X0368517Y0318402D02*
X0369084Y0317835D01*
X0370786Y0317835D01*
X0370786Y0319536D02*
X0370786Y0316133D01*
X0369084Y0316133D01*
X0368517Y0316700D01*
X0368517Y0317268D01*
X0369084Y0317835D01*
X0368517Y0318402D02*
X0368517Y0318969D01*
X0369084Y0319536D01*
X0370786Y0319536D01*
X0317200Y0327950D02*
X0316633Y0328517D01*
X0310333Y0286733D02*
X0304333Y0286733D01*
X0304273Y0286731D01*
X0304212Y0286726D01*
X0304153Y0286717D01*
X0304094Y0286704D01*
X0304035Y0286688D01*
X0303978Y0286668D01*
X0303923Y0286645D01*
X0303868Y0286618D01*
X0303816Y0286589D01*
X0303765Y0286556D01*
X0303716Y0286520D01*
X0303670Y0286482D01*
X0303626Y0286440D01*
X0303584Y0286396D01*
X0303546Y0286350D01*
X0303510Y0286301D01*
X0303477Y0286250D01*
X0303448Y0286198D01*
X0303421Y0286143D01*
X0303398Y0286088D01*
X0303378Y0286031D01*
X0303362Y0285972D01*
X0303349Y0285913D01*
X0303340Y0285854D01*
X0303335Y0285793D01*
X0303333Y0285733D01*
X0303333Y0278933D01*
X0303335Y0278873D01*
X0303340Y0278812D01*
X0303349Y0278753D01*
X0303362Y0278694D01*
X0303378Y0278635D01*
X0303398Y0278578D01*
X0303421Y0278523D01*
X0303448Y0278468D01*
X0303477Y0278416D01*
X0303510Y0278365D01*
X0303546Y0278316D01*
X0303584Y0278270D01*
X0303626Y0278226D01*
X0303670Y0278184D01*
X0303716Y0278146D01*
X0303765Y0278110D01*
X0303816Y0278077D01*
X0303868Y0278048D01*
X0303923Y0278021D01*
X0303978Y0277998D01*
X0304035Y0277978D01*
X0304094Y0277962D01*
X0304153Y0277949D01*
X0304212Y0277940D01*
X0304273Y0277935D01*
X0304333Y0277933D01*
X0310333Y0277933D01*
X0310393Y0277935D01*
X0310454Y0277940D01*
X0310513Y0277949D01*
X0310572Y0277962D01*
X0310631Y0277978D01*
X0310688Y0277998D01*
X0310743Y0278021D01*
X0310798Y0278048D01*
X0310850Y0278077D01*
X0310901Y0278110D01*
X0310950Y0278146D01*
X0310996Y0278184D01*
X0311040Y0278226D01*
X0311082Y0278270D01*
X0311120Y0278316D01*
X0311156Y0278365D01*
X0311189Y0278416D01*
X0311218Y0278468D01*
X0311245Y0278523D01*
X0311268Y0278578D01*
X0311288Y0278635D01*
X0311304Y0278694D01*
X0311317Y0278753D01*
X0311326Y0278812D01*
X0311331Y0278873D01*
X0311333Y0278933D01*
X0311333Y0285733D01*
X0311331Y0285793D01*
X0311326Y0285854D01*
X0311317Y0285913D01*
X0311304Y0285972D01*
X0311288Y0286031D01*
X0311268Y0286088D01*
X0311245Y0286143D01*
X0311218Y0286198D01*
X0311189Y0286250D01*
X0311156Y0286301D01*
X0311120Y0286350D01*
X0311082Y0286396D01*
X0311040Y0286440D01*
X0310996Y0286482D01*
X0310950Y0286520D01*
X0310901Y0286556D01*
X0310850Y0286589D01*
X0310798Y0286618D01*
X0310743Y0286645D01*
X0310688Y0286668D01*
X0310631Y0286688D01*
X0310572Y0286704D01*
X0310513Y0286717D01*
X0310454Y0286726D01*
X0310393Y0286731D01*
X0310333Y0286733D01*
X0305233Y0264383D02*
X0305233Y0253333D01*
X0304036Y0253633D02*
X0304036Y0255335D01*
X0303469Y0255902D01*
X0302335Y0255902D01*
X0301768Y0255335D01*
X0301768Y0253633D01*
X0301768Y0254768D02*
X0300633Y0255902D01*
X0301200Y0257316D02*
X0300633Y0257884D01*
X0300633Y0259018D01*
X0301200Y0259585D01*
X0301768Y0259585D01*
X0302335Y0259018D01*
X0302335Y0257884D01*
X0302902Y0257316D01*
X0303469Y0257316D01*
X0304036Y0257884D01*
X0304036Y0259018D01*
X0303469Y0259585D01*
X0304036Y0261000D02*
X0304036Y0263268D01*
X0304036Y0262134D02*
X0300633Y0262134D01*
X0300633Y0253633D02*
X0304036Y0253633D01*
X0310633Y0253633D02*
X0310633Y0254768D01*
X0310633Y0254200D02*
X0314036Y0254200D01*
X0314036Y0253633D02*
X0314036Y0254768D01*
X0314036Y0256089D02*
X0310633Y0258357D01*
X0314036Y0258357D01*
X0314036Y0259772D02*
X0314036Y0262041D01*
X0314036Y0260906D02*
X0310633Y0260906D01*
X0310633Y0256089D02*
X0314036Y0256089D01*
X0315233Y0253333D02*
X0315233Y0263155D01*
X0320633Y0263268D02*
X0320633Y0261000D01*
X0324036Y0261000D01*
X0323469Y0259585D02*
X0324036Y0259018D01*
X0324036Y0257884D01*
X0323469Y0257316D01*
X0321200Y0257316D01*
X0320633Y0257884D01*
X0320633Y0259018D01*
X0321200Y0259585D01*
X0321200Y0255902D02*
X0320633Y0255335D01*
X0320633Y0254200D01*
X0321200Y0253633D01*
X0322335Y0254200D02*
X0322335Y0255335D01*
X0321768Y0255902D01*
X0321200Y0255902D01*
X0322335Y0254200D02*
X0322902Y0253633D01*
X0323469Y0253633D01*
X0324036Y0254200D01*
X0324036Y0255335D01*
X0323469Y0255902D01*
X0330633Y0255335D02*
X0330633Y0254200D01*
X0331200Y0253633D01*
X0332335Y0254200D02*
X0332335Y0255335D01*
X0331768Y0255902D01*
X0331200Y0255902D01*
X0330633Y0255335D01*
X0330633Y0257316D02*
X0330633Y0259018D01*
X0331200Y0259585D01*
X0333469Y0259585D01*
X0334036Y0259018D01*
X0334036Y0257316D01*
X0330633Y0257316D01*
X0333469Y0255902D02*
X0334036Y0255335D01*
X0334036Y0254200D01*
X0333469Y0253633D01*
X0332902Y0253633D01*
X0332335Y0254200D01*
X0332335Y0261000D02*
X0332335Y0263268D01*
X0332902Y0263268D02*
X0330633Y0263268D01*
X0330633Y0261000D02*
X0332902Y0261000D01*
X0334036Y0262134D01*
X0332902Y0263268D01*
X0340633Y0262701D02*
X0340633Y0261567D01*
X0341200Y0261000D01*
X0341768Y0259585D02*
X0344036Y0259585D01*
X0343469Y0261000D02*
X0344036Y0261567D01*
X0344036Y0262701D01*
X0343469Y0263268D01*
X0342902Y0263268D01*
X0342335Y0262701D01*
X0341768Y0263268D01*
X0341200Y0263268D01*
X0340633Y0262701D01*
X0342335Y0262701D02*
X0342335Y0262134D01*
X0341768Y0259585D02*
X0340633Y0258451D01*
X0341768Y0257316D01*
X0344036Y0257316D01*
X0343469Y0255902D02*
X0342902Y0255902D01*
X0342335Y0255335D01*
X0341768Y0255902D01*
X0341200Y0255902D01*
X0340633Y0255335D01*
X0340633Y0254200D01*
X0341200Y0253633D01*
X0342335Y0254768D02*
X0342335Y0255335D01*
X0343469Y0255902D02*
X0344036Y0255335D01*
X0344036Y0254200D01*
X0343469Y0253633D01*
X0350633Y0254200D02*
X0350633Y0255335D01*
X0351200Y0255902D01*
X0352335Y0255902D01*
X0352335Y0254768D01*
X0353469Y0255902D02*
X0354036Y0255335D01*
X0354036Y0254200D01*
X0353469Y0253633D01*
X0351200Y0253633D01*
X0350633Y0254200D01*
X0350633Y0257316D02*
X0354036Y0257316D01*
X0350633Y0259585D01*
X0354036Y0259585D01*
X0354036Y0261000D02*
X0354036Y0262701D01*
X0353469Y0263268D01*
X0351200Y0263268D01*
X0350633Y0262701D01*
X0350633Y0261000D01*
X0354036Y0261000D01*
X0353469Y0228219D02*
X0354036Y0227652D01*
X0354036Y0226517D01*
X0353469Y0225950D01*
X0351200Y0225950D01*
X0350633Y0226517D01*
X0350633Y0227652D01*
X0351200Y0228219D01*
X0350633Y0224536D02*
X0354036Y0224536D01*
X0354036Y0222267D02*
X0350633Y0224536D01*
X0350633Y0222267D02*
X0354036Y0222267D01*
X0359263Y0216402D02*
X0360964Y0216402D01*
X0360964Y0217536D02*
X0360964Y0214133D01*
X0359263Y0214133D01*
X0358695Y0214700D01*
X0358695Y0215835D01*
X0359263Y0216402D01*
X0362852Y0217536D02*
X0362852Y0214133D01*
X0363419Y0214133D02*
X0362285Y0214133D01*
X0364834Y0214133D02*
X0364834Y0216402D01*
X0363419Y0217536D02*
X0362852Y0217536D01*
X0364834Y0214133D02*
X0366535Y0214133D01*
X0367103Y0214700D01*
X0367103Y0216402D01*
X0368517Y0216402D02*
X0369084Y0215835D01*
X0370786Y0215835D01*
X0370786Y0217536D02*
X0369084Y0217536D01*
X0368517Y0216969D01*
X0368517Y0216402D01*
X0369084Y0215835D02*
X0368517Y0215268D01*
X0368517Y0214700D01*
X0369084Y0214133D01*
X0370786Y0214133D01*
X0370786Y0217536D01*
X0344036Y0218584D02*
X0344036Y0220852D01*
X0344036Y0219718D02*
X0340633Y0219718D01*
X0340633Y0222267D02*
X0344036Y0224536D01*
X0343469Y0225950D02*
X0341200Y0225950D01*
X0340633Y0226517D01*
X0340633Y0227652D01*
X0341200Y0228219D01*
X0343469Y0228219D01*
X0344036Y0227652D01*
X0344036Y0226517D01*
X0343469Y0225950D01*
X0340633Y0224536D02*
X0344036Y0222267D01*
X0329536Y0221513D02*
X0328969Y0222080D01*
X0327835Y0222080D01*
X0327268Y0221513D01*
X0327268Y0219812D01*
X0327268Y0220946D02*
X0326133Y0222080D01*
X0326133Y0223495D02*
X0329536Y0225763D01*
X0329536Y0227178D02*
X0329536Y0228312D01*
X0329536Y0227745D02*
X0326133Y0227745D01*
X0326133Y0227178D02*
X0326133Y0228312D01*
X0326133Y0225763D02*
X0329536Y0223495D01*
X0329536Y0221513D02*
X0329536Y0219812D01*
X0326133Y0219812D01*
X0320036Y0220285D02*
X0319469Y0220852D01*
X0318902Y0220852D01*
X0318335Y0220285D01*
X0317768Y0220852D01*
X0317200Y0220852D01*
X0316633Y0220285D01*
X0316633Y0219151D01*
X0317200Y0218584D01*
X0318335Y0219718D02*
X0318335Y0220285D01*
X0320036Y0220285D02*
X0320036Y0219151D01*
X0319469Y0218584D01*
X0320036Y0222267D02*
X0317768Y0222267D01*
X0316633Y0223401D01*
X0317768Y0224536D01*
X0320036Y0224536D01*
X0319469Y0225950D02*
X0320036Y0226517D01*
X0320036Y0227652D01*
X0319469Y0228219D01*
X0318902Y0228219D01*
X0318335Y0227652D01*
X0317768Y0228219D01*
X0317200Y0228219D01*
X0316633Y0227652D01*
X0316633Y0226517D01*
X0317200Y0225950D01*
X0318335Y0227084D02*
X0318335Y0227652D01*
X0314036Y0227652D02*
X0314036Y0226517D01*
X0313469Y0225950D01*
X0311200Y0225950D01*
X0310633Y0226517D01*
X0310633Y0227652D01*
X0311200Y0228219D01*
X0313469Y0228219D02*
X0314036Y0227652D01*
X0314036Y0224536D02*
X0310633Y0224536D01*
X0314036Y0222267D01*
X0310633Y0222267D01*
X0304036Y0222267D02*
X0300633Y0224536D01*
X0304036Y0224536D01*
X0304036Y0225950D02*
X0300633Y0225950D01*
X0300633Y0227652D01*
X0301200Y0228219D01*
X0303469Y0228219D01*
X0304036Y0227652D01*
X0304036Y0225950D01*
X0304036Y0222267D02*
X0300633Y0222267D01*
X0301200Y0220852D02*
X0302335Y0220852D01*
X0302335Y0219718D01*
X0303469Y0218584D02*
X0301200Y0218584D01*
X0300633Y0219151D01*
X0300633Y0220285D01*
X0301200Y0220852D01*
X0303469Y0220852D02*
X0304036Y0220285D01*
X0304036Y0219151D01*
X0303469Y0218584D01*
X0252036Y0254200D02*
X0251469Y0253633D01*
X0249200Y0253633D01*
X0248633Y0254200D01*
X0248633Y0255335D01*
X0249200Y0255902D01*
X0250335Y0255902D01*
X0250335Y0254768D01*
X0251469Y0255902D02*
X0252036Y0255335D01*
X0252036Y0254200D01*
X0252036Y0257316D02*
X0248633Y0257316D01*
X0248633Y0259585D02*
X0252036Y0259585D01*
X0252036Y0261000D02*
X0252036Y0262701D01*
X0251469Y0263268D01*
X0249200Y0263268D01*
X0248633Y0262701D01*
X0248633Y0261000D01*
X0252036Y0261000D01*
X0252036Y0257316D02*
X0248633Y0259585D01*
X0242036Y0259585D02*
X0239768Y0259585D01*
X0238633Y0258451D01*
X0239768Y0257316D01*
X0242036Y0257316D01*
X0241469Y0255902D02*
X0240902Y0255902D01*
X0240335Y0255335D01*
X0239768Y0255902D01*
X0239200Y0255902D01*
X0238633Y0255335D01*
X0238633Y0254200D01*
X0239200Y0253633D01*
X0240335Y0254768D02*
X0240335Y0255335D01*
X0241469Y0255902D02*
X0242036Y0255335D01*
X0242036Y0254200D01*
X0241469Y0253633D01*
X0241469Y0261000D02*
X0242036Y0261567D01*
X0242036Y0262701D01*
X0241469Y0263268D01*
X0240902Y0263268D01*
X0240335Y0262701D01*
X0239768Y0263268D01*
X0239200Y0263268D01*
X0238633Y0262701D01*
X0238633Y0261567D01*
X0239200Y0261000D01*
X0240335Y0262134D02*
X0240335Y0262701D01*
X0232036Y0262134D02*
X0230902Y0263268D01*
X0228633Y0263268D01*
X0230335Y0263268D02*
X0230335Y0261000D01*
X0230902Y0261000D02*
X0232036Y0262134D01*
X0230902Y0261000D02*
X0228633Y0261000D01*
X0229200Y0259585D02*
X0231469Y0259585D01*
X0232036Y0259018D01*
X0232036Y0257316D01*
X0228633Y0257316D01*
X0228633Y0259018D01*
X0229200Y0259585D01*
X0229200Y0255902D02*
X0228633Y0255335D01*
X0228633Y0254200D01*
X0229200Y0253633D01*
X0230335Y0254200D02*
X0230335Y0255335D01*
X0229768Y0255902D01*
X0229200Y0255902D01*
X0230335Y0254200D02*
X0230902Y0253633D01*
X0231469Y0253633D01*
X0232036Y0254200D01*
X0232036Y0255335D01*
X0231469Y0255902D01*
X0222036Y0255335D02*
X0222036Y0254200D01*
X0221469Y0253633D01*
X0220902Y0253633D01*
X0220335Y0254200D01*
X0220335Y0255335D01*
X0219768Y0255902D01*
X0219200Y0255902D01*
X0218633Y0255335D01*
X0218633Y0254200D01*
X0219200Y0253633D01*
X0221469Y0255902D02*
X0222036Y0255335D01*
X0221469Y0257316D02*
X0219200Y0257316D01*
X0218633Y0257884D01*
X0218633Y0259018D01*
X0219200Y0259585D01*
X0218633Y0261000D02*
X0218633Y0263268D01*
X0218633Y0261000D02*
X0222036Y0261000D01*
X0221469Y0259585D02*
X0222036Y0259018D01*
X0222036Y0257884D01*
X0221469Y0257316D01*
X0213233Y0253333D02*
X0213233Y0263155D01*
X0212036Y0262041D02*
X0212036Y0259772D01*
X0212036Y0260906D02*
X0208633Y0260906D01*
X0208633Y0258357D02*
X0212036Y0258357D01*
X0212036Y0256089D02*
X0208633Y0258357D01*
X0208633Y0256089D02*
X0212036Y0256089D01*
X0212036Y0254768D02*
X0212036Y0253633D01*
X0212036Y0254200D02*
X0208633Y0254200D01*
X0208633Y0253633D02*
X0208633Y0254768D01*
X0203233Y0253333D02*
X0203233Y0264383D01*
X0202036Y0263268D02*
X0202036Y0261000D01*
X0202036Y0262134D02*
X0198633Y0262134D01*
X0199200Y0259585D02*
X0198633Y0259018D01*
X0198633Y0257884D01*
X0199200Y0257316D01*
X0200335Y0257884D02*
X0200335Y0259018D01*
X0199768Y0259585D01*
X0199200Y0259585D01*
X0200335Y0257884D02*
X0200902Y0257316D01*
X0201469Y0257316D01*
X0202036Y0257884D01*
X0202036Y0259018D01*
X0201469Y0259585D01*
X0201469Y0255902D02*
X0200335Y0255902D01*
X0199768Y0255335D01*
X0199768Y0253633D01*
X0199768Y0254768D02*
X0198633Y0255902D01*
X0198633Y0253633D02*
X0202036Y0253633D01*
X0202036Y0255335D01*
X0201469Y0255902D01*
X0202333Y0277933D02*
X0208333Y0277933D01*
X0208393Y0277935D01*
X0208454Y0277940D01*
X0208513Y0277949D01*
X0208572Y0277962D01*
X0208631Y0277978D01*
X0208688Y0277998D01*
X0208743Y0278021D01*
X0208798Y0278048D01*
X0208850Y0278077D01*
X0208901Y0278110D01*
X0208950Y0278146D01*
X0208996Y0278184D01*
X0209040Y0278226D01*
X0209082Y0278270D01*
X0209120Y0278316D01*
X0209156Y0278365D01*
X0209189Y0278416D01*
X0209218Y0278468D01*
X0209245Y0278523D01*
X0209268Y0278578D01*
X0209288Y0278635D01*
X0209304Y0278694D01*
X0209317Y0278753D01*
X0209326Y0278812D01*
X0209331Y0278873D01*
X0209333Y0278933D01*
X0209333Y0285733D01*
X0209331Y0285793D01*
X0209326Y0285854D01*
X0209317Y0285913D01*
X0209304Y0285972D01*
X0209288Y0286031D01*
X0209268Y0286088D01*
X0209245Y0286143D01*
X0209218Y0286198D01*
X0209189Y0286250D01*
X0209156Y0286301D01*
X0209120Y0286350D01*
X0209082Y0286396D01*
X0209040Y0286440D01*
X0208996Y0286482D01*
X0208950Y0286520D01*
X0208901Y0286556D01*
X0208850Y0286589D01*
X0208798Y0286618D01*
X0208743Y0286645D01*
X0208688Y0286668D01*
X0208631Y0286688D01*
X0208572Y0286704D01*
X0208513Y0286717D01*
X0208454Y0286726D01*
X0208393Y0286731D01*
X0208333Y0286733D01*
X0202333Y0286733D01*
X0202273Y0286731D01*
X0202212Y0286726D01*
X0202153Y0286717D01*
X0202094Y0286704D01*
X0202035Y0286688D01*
X0201978Y0286668D01*
X0201923Y0286645D01*
X0201868Y0286618D01*
X0201816Y0286589D01*
X0201765Y0286556D01*
X0201716Y0286520D01*
X0201670Y0286482D01*
X0201626Y0286440D01*
X0201584Y0286396D01*
X0201546Y0286350D01*
X0201510Y0286301D01*
X0201477Y0286250D01*
X0201448Y0286198D01*
X0201421Y0286143D01*
X0201398Y0286088D01*
X0201378Y0286031D01*
X0201362Y0285972D01*
X0201349Y0285913D01*
X0201340Y0285854D01*
X0201335Y0285793D01*
X0201333Y0285733D01*
X0201333Y0278933D01*
X0201335Y0278873D01*
X0201340Y0278812D01*
X0201349Y0278753D01*
X0201362Y0278694D01*
X0201378Y0278635D01*
X0201398Y0278578D01*
X0201421Y0278523D01*
X0201448Y0278468D01*
X0201477Y0278416D01*
X0201510Y0278365D01*
X0201546Y0278316D01*
X0201584Y0278270D01*
X0201626Y0278226D01*
X0201670Y0278184D01*
X0201716Y0278146D01*
X0201765Y0278110D01*
X0201816Y0278077D01*
X0201868Y0278048D01*
X0201923Y0278021D01*
X0201978Y0277998D01*
X0202035Y0277978D01*
X0202094Y0277962D01*
X0202153Y0277949D01*
X0202212Y0277940D01*
X0202273Y0277935D01*
X0202333Y0277933D01*
X0202333Y0184733D02*
X0208333Y0184733D01*
X0208393Y0184731D01*
X0208454Y0184726D01*
X0208513Y0184717D01*
X0208572Y0184704D01*
X0208631Y0184688D01*
X0208688Y0184668D01*
X0208743Y0184645D01*
X0208798Y0184618D01*
X0208850Y0184589D01*
X0208901Y0184556D01*
X0208950Y0184520D01*
X0208996Y0184482D01*
X0209040Y0184440D01*
X0209082Y0184396D01*
X0209120Y0184350D01*
X0209156Y0184301D01*
X0209189Y0184250D01*
X0209218Y0184198D01*
X0209245Y0184143D01*
X0209268Y0184088D01*
X0209288Y0184031D01*
X0209304Y0183972D01*
X0209317Y0183913D01*
X0209326Y0183854D01*
X0209331Y0183793D01*
X0209333Y0183733D01*
X0209333Y0176933D01*
X0209331Y0176873D01*
X0209326Y0176812D01*
X0209317Y0176753D01*
X0209304Y0176694D01*
X0209288Y0176635D01*
X0209268Y0176578D01*
X0209245Y0176523D01*
X0209218Y0176468D01*
X0209189Y0176416D01*
X0209156Y0176365D01*
X0209120Y0176316D01*
X0209082Y0176270D01*
X0209040Y0176226D01*
X0208996Y0176184D01*
X0208950Y0176146D01*
X0208901Y0176110D01*
X0208850Y0176077D01*
X0208798Y0176048D01*
X0208743Y0176021D01*
X0208688Y0175998D01*
X0208631Y0175978D01*
X0208572Y0175962D01*
X0208513Y0175949D01*
X0208454Y0175940D01*
X0208393Y0175935D01*
X0208333Y0175933D01*
X0202333Y0175933D01*
X0202273Y0175935D01*
X0202212Y0175940D01*
X0202153Y0175949D01*
X0202094Y0175962D01*
X0202035Y0175978D01*
X0201978Y0175998D01*
X0201923Y0176021D01*
X0201868Y0176048D01*
X0201816Y0176077D01*
X0201765Y0176110D01*
X0201716Y0176146D01*
X0201670Y0176184D01*
X0201626Y0176226D01*
X0201584Y0176270D01*
X0201546Y0176316D01*
X0201510Y0176365D01*
X0201477Y0176416D01*
X0201448Y0176468D01*
X0201421Y0176523D01*
X0201398Y0176578D01*
X0201378Y0176635D01*
X0201362Y0176694D01*
X0201349Y0176753D01*
X0201340Y0176812D01*
X0201335Y0176873D01*
X0201333Y0176933D01*
X0201333Y0183733D01*
X0201335Y0183793D01*
X0201340Y0183854D01*
X0201349Y0183913D01*
X0201362Y0183972D01*
X0201378Y0184031D01*
X0201398Y0184088D01*
X0201421Y0184143D01*
X0201448Y0184198D01*
X0201477Y0184250D01*
X0201510Y0184301D01*
X0201546Y0184350D01*
X0201584Y0184396D01*
X0201626Y0184440D01*
X0201670Y0184482D01*
X0201716Y0184520D01*
X0201765Y0184556D01*
X0201816Y0184589D01*
X0201868Y0184618D01*
X0201923Y0184645D01*
X0201978Y0184668D01*
X0202035Y0184688D01*
X0202094Y0184704D01*
X0202153Y0184717D01*
X0202212Y0184726D01*
X0202273Y0184731D01*
X0202333Y0184733D01*
X0203233Y0162383D02*
X0203233Y0151333D01*
X0202036Y0151633D02*
X0198633Y0151633D01*
X0199768Y0151633D02*
X0199768Y0153335D01*
X0200335Y0153902D01*
X0201469Y0153902D01*
X0202036Y0153335D01*
X0202036Y0151633D01*
X0199768Y0152768D02*
X0198633Y0153902D01*
X0199200Y0155316D02*
X0198633Y0155884D01*
X0198633Y0157018D01*
X0199200Y0157585D01*
X0199768Y0157585D01*
X0200335Y0157018D01*
X0200335Y0155884D01*
X0200902Y0155316D01*
X0201469Y0155316D01*
X0202036Y0155884D01*
X0202036Y0157018D01*
X0201469Y0157585D01*
X0202036Y0159000D02*
X0202036Y0161268D01*
X0202036Y0160134D02*
X0198633Y0160134D01*
X0208633Y0158906D02*
X0212036Y0158906D01*
X0212036Y0157772D02*
X0212036Y0160041D01*
X0213233Y0161155D02*
X0213233Y0151333D01*
X0212036Y0151633D02*
X0212036Y0152768D01*
X0212036Y0152200D02*
X0208633Y0152200D01*
X0208633Y0151633D02*
X0208633Y0152768D01*
X0208633Y0154089D02*
X0212036Y0154089D01*
X0208633Y0156357D01*
X0212036Y0156357D01*
X0218633Y0155884D02*
X0218633Y0157018D01*
X0219200Y0157585D01*
X0218633Y0159000D02*
X0218633Y0161268D01*
X0218633Y0159000D02*
X0222036Y0159000D01*
X0221469Y0157585D02*
X0222036Y0157018D01*
X0222036Y0155884D01*
X0221469Y0155316D01*
X0219200Y0155316D01*
X0218633Y0155884D01*
X0219200Y0153902D02*
X0218633Y0153335D01*
X0218633Y0152200D01*
X0219200Y0151633D01*
X0220335Y0152200D02*
X0220335Y0153335D01*
X0219768Y0153902D01*
X0219200Y0153902D01*
X0220335Y0152200D02*
X0220902Y0151633D01*
X0221469Y0151633D01*
X0222036Y0152200D01*
X0222036Y0153335D01*
X0221469Y0153902D01*
X0228633Y0153335D02*
X0228633Y0152200D01*
X0229200Y0151633D01*
X0230335Y0152200D02*
X0230335Y0153335D01*
X0229768Y0153902D01*
X0229200Y0153902D01*
X0228633Y0153335D01*
X0228633Y0155316D02*
X0228633Y0157018D01*
X0229200Y0157585D01*
X0231469Y0157585D01*
X0232036Y0157018D01*
X0232036Y0155316D01*
X0228633Y0155316D01*
X0231469Y0153902D02*
X0232036Y0153335D01*
X0232036Y0152200D01*
X0231469Y0151633D01*
X0230902Y0151633D01*
X0230335Y0152200D01*
X0230335Y0159000D02*
X0230335Y0161268D01*
X0230902Y0161268D02*
X0228633Y0161268D01*
X0228633Y0159000D02*
X0230902Y0159000D01*
X0232036Y0160134D01*
X0230902Y0161268D01*
X0238633Y0160701D02*
X0238633Y0159567D01*
X0239200Y0159000D01*
X0239768Y0157585D02*
X0242036Y0157585D01*
X0241469Y0159000D02*
X0242036Y0159567D01*
X0242036Y0160701D01*
X0241469Y0161268D01*
X0240902Y0161268D01*
X0240335Y0160701D01*
X0239768Y0161268D01*
X0239200Y0161268D01*
X0238633Y0160701D01*
X0240335Y0160701D02*
X0240335Y0160134D01*
X0239768Y0157585D02*
X0238633Y0156451D01*
X0239768Y0155316D01*
X0242036Y0155316D01*
X0241469Y0153902D02*
X0240902Y0153902D01*
X0240335Y0153335D01*
X0239768Y0153902D01*
X0239200Y0153902D01*
X0238633Y0153335D01*
X0238633Y0152200D01*
X0239200Y0151633D01*
X0240335Y0152768D02*
X0240335Y0153335D01*
X0241469Y0153902D02*
X0242036Y0153335D01*
X0242036Y0152200D01*
X0241469Y0151633D01*
X0248633Y0152200D02*
X0248633Y0153335D01*
X0249200Y0153902D01*
X0250335Y0153902D01*
X0250335Y0152768D01*
X0251469Y0153902D02*
X0252036Y0153335D01*
X0252036Y0152200D01*
X0251469Y0151633D01*
X0249200Y0151633D01*
X0248633Y0152200D01*
X0248633Y0155316D02*
X0252036Y0155316D01*
X0248633Y0157585D01*
X0252036Y0157585D01*
X0252036Y0159000D02*
X0248633Y0159000D01*
X0248633Y0160701D01*
X0249200Y0161268D01*
X0251469Y0161268D01*
X0252036Y0160701D01*
X0252036Y0159000D01*
X0208333Y0082733D02*
X0202333Y0082733D01*
X0202273Y0082731D01*
X0202212Y0082726D01*
X0202153Y0082717D01*
X0202094Y0082704D01*
X0202035Y0082688D01*
X0201978Y0082668D01*
X0201923Y0082645D01*
X0201868Y0082618D01*
X0201816Y0082589D01*
X0201765Y0082556D01*
X0201716Y0082520D01*
X0201670Y0082482D01*
X0201626Y0082440D01*
X0201584Y0082396D01*
X0201546Y0082350D01*
X0201510Y0082301D01*
X0201477Y0082250D01*
X0201448Y0082198D01*
X0201421Y0082143D01*
X0201398Y0082088D01*
X0201378Y0082031D01*
X0201362Y0081972D01*
X0201349Y0081913D01*
X0201340Y0081854D01*
X0201335Y0081793D01*
X0201333Y0081733D01*
X0201333Y0074933D01*
X0201335Y0074873D01*
X0201340Y0074812D01*
X0201349Y0074753D01*
X0201362Y0074694D01*
X0201378Y0074635D01*
X0201398Y0074578D01*
X0201421Y0074523D01*
X0201448Y0074468D01*
X0201477Y0074416D01*
X0201510Y0074365D01*
X0201546Y0074316D01*
X0201584Y0074270D01*
X0201626Y0074226D01*
X0201670Y0074184D01*
X0201716Y0074146D01*
X0201765Y0074110D01*
X0201816Y0074077D01*
X0201868Y0074048D01*
X0201923Y0074021D01*
X0201978Y0073998D01*
X0202035Y0073978D01*
X0202094Y0073962D01*
X0202153Y0073949D01*
X0202212Y0073940D01*
X0202273Y0073935D01*
X0202333Y0073933D01*
X0208333Y0073933D01*
X0208393Y0073935D01*
X0208454Y0073940D01*
X0208513Y0073949D01*
X0208572Y0073962D01*
X0208631Y0073978D01*
X0208688Y0073998D01*
X0208743Y0074021D01*
X0208798Y0074048D01*
X0208850Y0074077D01*
X0208901Y0074110D01*
X0208950Y0074146D01*
X0208996Y0074184D01*
X0209040Y0074226D01*
X0209082Y0074270D01*
X0209120Y0074316D01*
X0209156Y0074365D01*
X0209189Y0074416D01*
X0209218Y0074468D01*
X0209245Y0074523D01*
X0209268Y0074578D01*
X0209288Y0074635D01*
X0209304Y0074694D01*
X0209317Y0074753D01*
X0209326Y0074812D01*
X0209331Y0074873D01*
X0209333Y0074933D01*
X0209333Y0081733D01*
X0209331Y0081793D01*
X0209326Y0081854D01*
X0209317Y0081913D01*
X0209304Y0081972D01*
X0209288Y0082031D01*
X0209268Y0082088D01*
X0209245Y0082143D01*
X0209218Y0082198D01*
X0209189Y0082250D01*
X0209156Y0082301D01*
X0209120Y0082350D01*
X0209082Y0082396D01*
X0209040Y0082440D01*
X0208996Y0082482D01*
X0208950Y0082520D01*
X0208901Y0082556D01*
X0208850Y0082589D01*
X0208798Y0082618D01*
X0208743Y0082645D01*
X0208688Y0082668D01*
X0208631Y0082688D01*
X0208572Y0082704D01*
X0208513Y0082717D01*
X0208454Y0082726D01*
X0208393Y0082731D01*
X0208333Y0082733D01*
X0203233Y0060383D02*
X0203233Y0049333D01*
X0202036Y0049633D02*
X0202036Y0051335D01*
X0201469Y0051902D01*
X0200335Y0051902D01*
X0199768Y0051335D01*
X0199768Y0049633D01*
X0199768Y0050768D02*
X0198633Y0051902D01*
X0199200Y0053316D02*
X0198633Y0053884D01*
X0198633Y0055018D01*
X0199200Y0055585D01*
X0199768Y0055585D01*
X0200335Y0055018D01*
X0200335Y0053884D01*
X0200902Y0053316D01*
X0201469Y0053316D01*
X0202036Y0053884D01*
X0202036Y0055018D01*
X0201469Y0055585D01*
X0202036Y0057000D02*
X0202036Y0059268D01*
X0202036Y0058134D02*
X0198633Y0058134D01*
X0198633Y0049633D02*
X0202036Y0049633D01*
X0208633Y0049633D02*
X0208633Y0050768D01*
X0208633Y0050200D02*
X0212036Y0050200D01*
X0212036Y0049633D02*
X0212036Y0050768D01*
X0212036Y0052089D02*
X0208633Y0054357D01*
X0212036Y0054357D01*
X0212036Y0055772D02*
X0212036Y0058041D01*
X0212036Y0056906D02*
X0208633Y0056906D01*
X0208633Y0052089D02*
X0212036Y0052089D01*
X0213233Y0049333D02*
X0213233Y0059155D01*
X0218633Y0059268D02*
X0218633Y0057000D01*
X0222036Y0057000D01*
X0221469Y0055585D02*
X0222036Y0055018D01*
X0222036Y0053884D01*
X0221469Y0053316D01*
X0219200Y0053316D01*
X0218633Y0053884D01*
X0218633Y0055018D01*
X0219200Y0055585D01*
X0219200Y0051902D02*
X0218633Y0051335D01*
X0218633Y0050200D01*
X0219200Y0049633D01*
X0220335Y0050200D02*
X0220335Y0051335D01*
X0219768Y0051902D01*
X0219200Y0051902D01*
X0220335Y0050200D02*
X0220902Y0049633D01*
X0221469Y0049633D01*
X0222036Y0050200D01*
X0222036Y0051335D01*
X0221469Y0051902D01*
X0228633Y0051335D02*
X0228633Y0050200D01*
X0229200Y0049633D01*
X0230335Y0050200D02*
X0230335Y0051335D01*
X0229768Y0051902D01*
X0229200Y0051902D01*
X0228633Y0051335D01*
X0228633Y0053316D02*
X0228633Y0055018D01*
X0229200Y0055585D01*
X0231469Y0055585D01*
X0232036Y0055018D01*
X0232036Y0053316D01*
X0228633Y0053316D01*
X0231469Y0051902D02*
X0232036Y0051335D01*
X0232036Y0050200D01*
X0231469Y0049633D01*
X0230902Y0049633D01*
X0230335Y0050200D01*
X0230335Y0057000D02*
X0230335Y0059268D01*
X0230902Y0059268D02*
X0228633Y0059268D01*
X0228633Y0057000D02*
X0230902Y0057000D01*
X0232036Y0058134D01*
X0230902Y0059268D01*
X0238633Y0058701D02*
X0238633Y0057567D01*
X0239200Y0057000D01*
X0239768Y0055585D02*
X0242036Y0055585D01*
X0241469Y0057000D02*
X0242036Y0057567D01*
X0242036Y0058701D01*
X0241469Y0059268D01*
X0240902Y0059268D01*
X0240335Y0058701D01*
X0239768Y0059268D01*
X0239200Y0059268D01*
X0238633Y0058701D01*
X0240335Y0058701D02*
X0240335Y0058134D01*
X0239768Y0055585D02*
X0238633Y0054451D01*
X0239768Y0053316D01*
X0242036Y0053316D01*
X0241469Y0051902D02*
X0240902Y0051902D01*
X0240335Y0051335D01*
X0239768Y0051902D01*
X0239200Y0051902D01*
X0238633Y0051335D01*
X0238633Y0050200D01*
X0239200Y0049633D01*
X0240335Y0050768D02*
X0240335Y0051335D01*
X0241469Y0051902D02*
X0242036Y0051335D01*
X0242036Y0050200D01*
X0241469Y0049633D01*
X0248633Y0050200D02*
X0248633Y0051335D01*
X0249200Y0051902D01*
X0250335Y0051902D01*
X0250335Y0050768D01*
X0251469Y0051902D02*
X0252036Y0051335D01*
X0252036Y0050200D01*
X0251469Y0049633D01*
X0249200Y0049633D01*
X0248633Y0050200D01*
X0248633Y0053316D02*
X0252036Y0053316D01*
X0248633Y0055585D01*
X0252036Y0055585D01*
X0252036Y0057000D02*
X0252036Y0058701D01*
X0251469Y0059268D01*
X0249200Y0059268D01*
X0248633Y0058701D01*
X0248633Y0057000D01*
X0252036Y0057000D01*
X0300633Y0058134D02*
X0304036Y0058134D01*
X0304036Y0057000D02*
X0304036Y0059268D01*
X0305233Y0060383D02*
X0305233Y0049333D01*
X0304036Y0049633D02*
X0304036Y0051335D01*
X0303469Y0051902D01*
X0302335Y0051902D01*
X0301768Y0051335D01*
X0301768Y0049633D01*
X0301768Y0050768D02*
X0300633Y0051902D01*
X0301200Y0053316D02*
X0300633Y0053884D01*
X0300633Y0055018D01*
X0301200Y0055585D01*
X0301768Y0055585D01*
X0302335Y0055018D01*
X0302335Y0053884D01*
X0302902Y0053316D01*
X0303469Y0053316D01*
X0304036Y0053884D01*
X0304036Y0055018D01*
X0303469Y0055585D01*
X0310633Y0054357D02*
X0314036Y0054357D01*
X0314036Y0055772D02*
X0314036Y0058041D01*
X0314036Y0056906D02*
X0310633Y0056906D01*
X0310633Y0054357D02*
X0314036Y0052089D01*
X0310633Y0052089D01*
X0310633Y0050768D02*
X0310633Y0049633D01*
X0310633Y0050200D02*
X0314036Y0050200D01*
X0314036Y0049633D02*
X0314036Y0050768D01*
X0315233Y0049333D02*
X0315233Y0059155D01*
X0320633Y0059268D02*
X0320633Y0057000D01*
X0324036Y0057000D01*
X0323469Y0055585D02*
X0324036Y0055018D01*
X0324036Y0053884D01*
X0323469Y0053316D01*
X0321200Y0053316D01*
X0320633Y0053884D01*
X0320633Y0055018D01*
X0321200Y0055585D01*
X0321200Y0051902D02*
X0320633Y0051335D01*
X0320633Y0050200D01*
X0321200Y0049633D01*
X0322335Y0050200D02*
X0322335Y0051335D01*
X0321768Y0051902D01*
X0321200Y0051902D01*
X0322335Y0050200D02*
X0322902Y0049633D01*
X0323469Y0049633D01*
X0324036Y0050200D01*
X0324036Y0051335D01*
X0323469Y0051902D01*
X0330633Y0051335D02*
X0330633Y0050200D01*
X0331200Y0049633D01*
X0332335Y0050200D02*
X0332335Y0051335D01*
X0331768Y0051902D01*
X0331200Y0051902D01*
X0330633Y0051335D01*
X0330633Y0053316D02*
X0330633Y0055018D01*
X0331200Y0055585D01*
X0333469Y0055585D01*
X0334036Y0055018D01*
X0334036Y0053316D01*
X0330633Y0053316D01*
X0333469Y0051902D02*
X0334036Y0051335D01*
X0334036Y0050200D01*
X0333469Y0049633D01*
X0332902Y0049633D01*
X0332335Y0050200D01*
X0332335Y0057000D02*
X0332335Y0059268D01*
X0332902Y0059268D02*
X0330633Y0059268D01*
X0330633Y0057000D02*
X0332902Y0057000D01*
X0334036Y0058134D01*
X0332902Y0059268D01*
X0340633Y0058701D02*
X0340633Y0057567D01*
X0341200Y0057000D01*
X0341768Y0055585D02*
X0344036Y0055585D01*
X0343469Y0057000D02*
X0344036Y0057567D01*
X0344036Y0058701D01*
X0343469Y0059268D01*
X0342902Y0059268D01*
X0342335Y0058701D01*
X0341768Y0059268D01*
X0341200Y0059268D01*
X0340633Y0058701D01*
X0342335Y0058701D02*
X0342335Y0058134D01*
X0341768Y0055585D02*
X0340633Y0054451D01*
X0341768Y0053316D01*
X0344036Y0053316D01*
X0343469Y0051902D02*
X0342902Y0051902D01*
X0342335Y0051335D01*
X0341768Y0051902D01*
X0341200Y0051902D01*
X0340633Y0051335D01*
X0340633Y0050200D01*
X0341200Y0049633D01*
X0342335Y0050768D02*
X0342335Y0051335D01*
X0343469Y0051902D02*
X0344036Y0051335D01*
X0344036Y0050200D01*
X0343469Y0049633D01*
X0350633Y0050200D02*
X0350633Y0051335D01*
X0351200Y0051902D01*
X0352335Y0051902D01*
X0352335Y0050768D01*
X0353469Y0051902D02*
X0354036Y0051335D01*
X0354036Y0050200D01*
X0353469Y0049633D01*
X0351200Y0049633D01*
X0350633Y0050200D01*
X0350633Y0053316D02*
X0354036Y0053316D01*
X0350633Y0055585D01*
X0354036Y0055585D01*
X0354036Y0057000D02*
X0354036Y0058701D01*
X0353469Y0059268D01*
X0351200Y0059268D01*
X0350633Y0058701D01*
X0350633Y0057000D01*
X0354036Y0057000D01*
X0311333Y0074933D02*
X0311333Y0081733D01*
X0311331Y0081793D01*
X0311326Y0081854D01*
X0311317Y0081913D01*
X0311304Y0081972D01*
X0311288Y0082031D01*
X0311268Y0082088D01*
X0311245Y0082143D01*
X0311218Y0082198D01*
X0311189Y0082250D01*
X0311156Y0082301D01*
X0311120Y0082350D01*
X0311082Y0082396D01*
X0311040Y0082440D01*
X0310996Y0082482D01*
X0310950Y0082520D01*
X0310901Y0082556D01*
X0310850Y0082589D01*
X0310798Y0082618D01*
X0310743Y0082645D01*
X0310688Y0082668D01*
X0310631Y0082688D01*
X0310572Y0082704D01*
X0310513Y0082717D01*
X0310454Y0082726D01*
X0310393Y0082731D01*
X0310333Y0082733D01*
X0304333Y0082733D01*
X0304273Y0082731D01*
X0304212Y0082726D01*
X0304153Y0082717D01*
X0304094Y0082704D01*
X0304035Y0082688D01*
X0303978Y0082668D01*
X0303923Y0082645D01*
X0303868Y0082618D01*
X0303816Y0082589D01*
X0303765Y0082556D01*
X0303716Y0082520D01*
X0303670Y0082482D01*
X0303626Y0082440D01*
X0303584Y0082396D01*
X0303546Y0082350D01*
X0303510Y0082301D01*
X0303477Y0082250D01*
X0303448Y0082198D01*
X0303421Y0082143D01*
X0303398Y0082088D01*
X0303378Y0082031D01*
X0303362Y0081972D01*
X0303349Y0081913D01*
X0303340Y0081854D01*
X0303335Y0081793D01*
X0303333Y0081733D01*
X0303333Y0074933D01*
X0303335Y0074873D01*
X0303340Y0074812D01*
X0303349Y0074753D01*
X0303362Y0074694D01*
X0303378Y0074635D01*
X0303398Y0074578D01*
X0303421Y0074523D01*
X0303448Y0074468D01*
X0303477Y0074416D01*
X0303510Y0074365D01*
X0303546Y0074316D01*
X0303584Y0074270D01*
X0303626Y0074226D01*
X0303670Y0074184D01*
X0303716Y0074146D01*
X0303765Y0074110D01*
X0303816Y0074077D01*
X0303868Y0074048D01*
X0303923Y0074021D01*
X0303978Y0073998D01*
X0304035Y0073978D01*
X0304094Y0073962D01*
X0304153Y0073949D01*
X0304212Y0073940D01*
X0304273Y0073935D01*
X0304333Y0073933D01*
X0310333Y0073933D01*
X0310393Y0073935D01*
X0310454Y0073940D01*
X0310513Y0073949D01*
X0310572Y0073962D01*
X0310631Y0073978D01*
X0310688Y0073998D01*
X0310743Y0074021D01*
X0310798Y0074048D01*
X0310850Y0074077D01*
X0310901Y0074110D01*
X0310950Y0074146D01*
X0310996Y0074184D01*
X0311040Y0074226D01*
X0311082Y0074270D01*
X0311120Y0074316D01*
X0311156Y0074365D01*
X0311189Y0074416D01*
X0311218Y0074468D01*
X0311245Y0074523D01*
X0311268Y0074578D01*
X0311288Y0074635D01*
X0311304Y0074694D01*
X0311317Y0074753D01*
X0311326Y0074812D01*
X0311331Y0074873D01*
X0311333Y0074933D01*
X0304036Y0049633D02*
X0300633Y0049633D01*
X0150036Y0152200D02*
X0149469Y0151633D01*
X0147200Y0151633D01*
X0146633Y0152200D01*
X0146633Y0153335D01*
X0147200Y0153902D01*
X0148335Y0153902D01*
X0148335Y0152768D01*
X0149469Y0153902D02*
X0150036Y0153335D01*
X0150036Y0152200D01*
X0150036Y0155316D02*
X0146633Y0157585D01*
X0150036Y0157585D01*
X0150036Y0159000D02*
X0146633Y0159000D01*
X0146633Y0160701D01*
X0147200Y0161268D01*
X0149469Y0161268D01*
X0150036Y0160701D01*
X0150036Y0159000D01*
X0150036Y0155316D02*
X0146633Y0155316D01*
X0140036Y0155316D02*
X0137768Y0155316D01*
X0136633Y0156451D01*
X0137768Y0157585D01*
X0140036Y0157585D01*
X0139469Y0159000D02*
X0140036Y0159567D01*
X0140036Y0160701D01*
X0139469Y0161268D01*
X0138902Y0161268D01*
X0138335Y0160701D01*
X0137768Y0161268D01*
X0137200Y0161268D01*
X0136633Y0160701D01*
X0136633Y0159567D01*
X0137200Y0159000D01*
X0138335Y0160134D02*
X0138335Y0160701D01*
X0138902Y0153902D02*
X0138335Y0153335D01*
X0137768Y0153902D01*
X0137200Y0153902D01*
X0136633Y0153335D01*
X0136633Y0152200D01*
X0137200Y0151633D01*
X0138335Y0152768D02*
X0138335Y0153335D01*
X0138902Y0153902D02*
X0139469Y0153902D01*
X0140036Y0153335D01*
X0140036Y0152200D01*
X0139469Y0151633D01*
X0130036Y0152200D02*
X0129469Y0151633D01*
X0128902Y0151633D01*
X0128335Y0152200D01*
X0128335Y0153335D01*
X0127768Y0153902D01*
X0127200Y0153902D01*
X0126633Y0153335D01*
X0126633Y0152200D01*
X0127200Y0151633D01*
X0130036Y0152200D02*
X0130036Y0153335D01*
X0129469Y0153902D01*
X0130036Y0155316D02*
X0126633Y0155316D01*
X0126633Y0157018D01*
X0127200Y0157585D01*
X0129469Y0157585D01*
X0130036Y0157018D01*
X0130036Y0155316D01*
X0128902Y0159000D02*
X0130036Y0160134D01*
X0128902Y0161268D01*
X0126633Y0161268D01*
X0128335Y0161268D02*
X0128335Y0159000D01*
X0128902Y0159000D02*
X0126633Y0159000D01*
X0120036Y0159000D02*
X0116633Y0159000D01*
X0116633Y0161268D01*
X0117200Y0157585D02*
X0116633Y0157018D01*
X0116633Y0155884D01*
X0117200Y0155316D01*
X0119469Y0155316D01*
X0120036Y0155884D01*
X0120036Y0157018D01*
X0119469Y0157585D01*
X0119469Y0153902D02*
X0120036Y0153335D01*
X0120036Y0152200D01*
X0119469Y0151633D01*
X0118902Y0151633D01*
X0118335Y0152200D01*
X0118335Y0153335D01*
X0117768Y0153902D01*
X0117200Y0153902D01*
X0116633Y0153335D01*
X0116633Y0152200D01*
X0117200Y0151633D01*
X0111233Y0151333D02*
X0111233Y0161155D01*
X0110036Y0160041D02*
X0110036Y0157772D01*
X0110036Y0158906D02*
X0106633Y0158906D01*
X0106633Y0156357D02*
X0110036Y0156357D01*
X0110036Y0154089D02*
X0106633Y0154089D01*
X0106633Y0152768D02*
X0106633Y0151633D01*
X0106633Y0152200D02*
X0110036Y0152200D01*
X0110036Y0151633D02*
X0110036Y0152768D01*
X0110036Y0154089D02*
X0106633Y0156357D01*
X0101233Y0151333D02*
X0101233Y0162383D01*
X0100036Y0161268D02*
X0100036Y0159000D01*
X0100036Y0160134D02*
X0096633Y0160134D01*
X0097200Y0157585D02*
X0096633Y0157018D01*
X0096633Y0155884D01*
X0097200Y0155316D01*
X0098335Y0155884D02*
X0098335Y0157018D01*
X0097768Y0157585D01*
X0097200Y0157585D01*
X0098335Y0155884D02*
X0098902Y0155316D01*
X0099469Y0155316D01*
X0100036Y0155884D01*
X0100036Y0157018D01*
X0099469Y0157585D01*
X0099469Y0153902D02*
X0098335Y0153902D01*
X0097768Y0153335D01*
X0097768Y0151633D01*
X0097768Y0152768D02*
X0096633Y0153902D01*
X0096633Y0151633D02*
X0100036Y0151633D01*
X0100036Y0153335D01*
X0099469Y0153902D01*
X0100333Y0175933D02*
X0106333Y0175933D01*
X0106393Y0175935D01*
X0106454Y0175940D01*
X0106513Y0175949D01*
X0106572Y0175962D01*
X0106631Y0175978D01*
X0106688Y0175998D01*
X0106743Y0176021D01*
X0106798Y0176048D01*
X0106850Y0176077D01*
X0106901Y0176110D01*
X0106950Y0176146D01*
X0106996Y0176184D01*
X0107040Y0176226D01*
X0107082Y0176270D01*
X0107120Y0176316D01*
X0107156Y0176365D01*
X0107189Y0176416D01*
X0107218Y0176468D01*
X0107245Y0176523D01*
X0107268Y0176578D01*
X0107288Y0176635D01*
X0107304Y0176694D01*
X0107317Y0176753D01*
X0107326Y0176812D01*
X0107331Y0176873D01*
X0107333Y0176933D01*
X0107333Y0183733D01*
X0107331Y0183793D01*
X0107326Y0183854D01*
X0107317Y0183913D01*
X0107304Y0183972D01*
X0107288Y0184031D01*
X0107268Y0184088D01*
X0107245Y0184143D01*
X0107218Y0184198D01*
X0107189Y0184250D01*
X0107156Y0184301D01*
X0107120Y0184350D01*
X0107082Y0184396D01*
X0107040Y0184440D01*
X0106996Y0184482D01*
X0106950Y0184520D01*
X0106901Y0184556D01*
X0106850Y0184589D01*
X0106798Y0184618D01*
X0106743Y0184645D01*
X0106688Y0184668D01*
X0106631Y0184688D01*
X0106572Y0184704D01*
X0106513Y0184717D01*
X0106454Y0184726D01*
X0106393Y0184731D01*
X0106333Y0184733D01*
X0100333Y0184733D01*
X0100273Y0184731D01*
X0100212Y0184726D01*
X0100153Y0184717D01*
X0100094Y0184704D01*
X0100035Y0184688D01*
X0099978Y0184668D01*
X0099923Y0184645D01*
X0099868Y0184618D01*
X0099816Y0184589D01*
X0099765Y0184556D01*
X0099716Y0184520D01*
X0099670Y0184482D01*
X0099626Y0184440D01*
X0099584Y0184396D01*
X0099546Y0184350D01*
X0099510Y0184301D01*
X0099477Y0184250D01*
X0099448Y0184198D01*
X0099421Y0184143D01*
X0099398Y0184088D01*
X0099378Y0184031D01*
X0099362Y0183972D01*
X0099349Y0183913D01*
X0099340Y0183854D01*
X0099335Y0183793D01*
X0099333Y0183733D01*
X0099333Y0176933D01*
X0099335Y0176873D01*
X0099340Y0176812D01*
X0099349Y0176753D01*
X0099362Y0176694D01*
X0099378Y0176635D01*
X0099398Y0176578D01*
X0099421Y0176523D01*
X0099448Y0176468D01*
X0099477Y0176416D01*
X0099510Y0176365D01*
X0099546Y0176316D01*
X0099584Y0176270D01*
X0099626Y0176226D01*
X0099670Y0176184D01*
X0099716Y0176146D01*
X0099765Y0176110D01*
X0099816Y0176077D01*
X0099868Y0176048D01*
X0099923Y0176021D01*
X0099978Y0175998D01*
X0100035Y0175978D01*
X0100094Y0175962D01*
X0100153Y0175949D01*
X0100212Y0175940D01*
X0100273Y0175935D01*
X0100333Y0175933D01*
D11*
X0097586Y0176750D02*
X0097586Y0177751D01*
X0097586Y0177250D02*
X0095084Y0177250D01*
X0094583Y0176750D01*
X0094583Y0176250D01*
X0095084Y0175749D01*
X0095584Y0178972D02*
X0095584Y0180473D01*
X0096085Y0180974D01*
X0097085Y0180974D01*
X0097586Y0180473D01*
X0097586Y0178972D01*
X0094583Y0178972D01*
X0094583Y0182195D02*
X0096585Y0184196D01*
X0097085Y0184196D01*
X0097586Y0183696D01*
X0097586Y0182695D01*
X0097085Y0182195D01*
X0094583Y0182195D02*
X0094583Y0184196D01*
X0196583Y0184196D02*
X0196583Y0182195D01*
X0198585Y0184196D01*
X0199085Y0184196D01*
X0199586Y0183696D01*
X0199586Y0182695D01*
X0199085Y0182195D01*
X0199085Y0180974D02*
X0198085Y0180974D01*
X0197584Y0180473D01*
X0197584Y0178972D01*
X0196583Y0178972D02*
X0199586Y0178972D01*
X0199586Y0180473D01*
X0199085Y0180974D01*
X0199586Y0177751D02*
X0199586Y0176750D01*
X0199586Y0177250D02*
X0197084Y0177250D01*
X0196583Y0176750D01*
X0196583Y0176250D01*
X0197084Y0175749D01*
X0196583Y0082196D02*
X0196583Y0080195D01*
X0198585Y0082196D01*
X0199085Y0082196D01*
X0199586Y0081696D01*
X0199586Y0080695D01*
X0199085Y0080195D01*
X0199085Y0078974D02*
X0198085Y0078974D01*
X0197584Y0078473D01*
X0197584Y0076972D01*
X0196583Y0076972D02*
X0199586Y0076972D01*
X0199586Y0078473D01*
X0199085Y0078974D01*
X0199586Y0075751D02*
X0199586Y0074750D01*
X0199586Y0075250D02*
X0197084Y0075250D01*
X0196583Y0074750D01*
X0196583Y0074250D01*
X0197084Y0073749D01*
X0097586Y0074750D02*
X0097586Y0075751D01*
X0097586Y0075250D02*
X0095084Y0075250D01*
X0094583Y0074750D01*
X0094583Y0074250D01*
X0095084Y0073749D01*
X0095584Y0076972D02*
X0095584Y0078473D01*
X0096085Y0078974D01*
X0097085Y0078974D01*
X0097586Y0078473D01*
X0097586Y0076972D01*
X0094583Y0076972D01*
X0094583Y0080195D02*
X0096585Y0082196D01*
X0097085Y0082196D01*
X0097586Y0081696D01*
X0097586Y0080695D01*
X0097085Y0080195D01*
X0094583Y0080195D02*
X0094583Y0082196D01*
X0298583Y0082196D02*
X0298583Y0080195D01*
X0300585Y0082196D01*
X0301085Y0082196D01*
X0301586Y0081696D01*
X0301586Y0080695D01*
X0301085Y0080195D01*
X0301085Y0078974D02*
X0300085Y0078974D01*
X0299584Y0078473D01*
X0299584Y0076972D01*
X0298583Y0076972D02*
X0301586Y0076972D01*
X0301586Y0078473D01*
X0301085Y0078974D01*
X0301586Y0075751D02*
X0301586Y0074750D01*
X0301586Y0075250D02*
X0299084Y0075250D01*
X0298583Y0074750D01*
X0298583Y0074250D01*
X0299084Y0073749D01*
X0299084Y0175749D02*
X0298583Y0176250D01*
X0298583Y0176750D01*
X0299084Y0177250D01*
X0301586Y0177250D01*
X0301586Y0176750D02*
X0301586Y0177751D01*
X0301586Y0178972D02*
X0301586Y0180473D01*
X0301085Y0180974D01*
X0300085Y0180974D01*
X0299584Y0180473D01*
X0299584Y0178972D01*
X0298583Y0178972D02*
X0301586Y0178972D01*
X0301085Y0182195D02*
X0301586Y0182695D01*
X0301586Y0183696D01*
X0301085Y0184196D01*
X0300585Y0184196D01*
X0298583Y0182195D01*
X0298583Y0184196D01*
X0299084Y0277749D02*
X0298583Y0278250D01*
X0298583Y0278750D01*
X0299084Y0279250D01*
X0301586Y0279250D01*
X0301586Y0278750D02*
X0301586Y0279751D01*
X0301586Y0280972D02*
X0301586Y0282473D01*
X0301085Y0282974D01*
X0300085Y0282974D01*
X0299584Y0282473D01*
X0299584Y0280972D01*
X0298583Y0280972D02*
X0301586Y0280972D01*
X0301085Y0284195D02*
X0301586Y0284695D01*
X0301586Y0285696D01*
X0301085Y0286196D01*
X0300585Y0286196D01*
X0298583Y0284195D01*
X0298583Y0286196D01*
X0199586Y0285696D02*
X0199586Y0284695D01*
X0199085Y0284195D01*
X0199085Y0282974D02*
X0198085Y0282974D01*
X0197584Y0282473D01*
X0197584Y0280972D01*
X0196583Y0280972D02*
X0199586Y0280972D01*
X0199586Y0282473D01*
X0199085Y0282974D01*
X0199586Y0285696D02*
X0199085Y0286196D01*
X0198585Y0286196D01*
X0196583Y0284195D01*
X0196583Y0286196D01*
X0197084Y0279250D02*
X0199586Y0279250D01*
X0199586Y0278750D02*
X0199586Y0279751D01*
X0197084Y0279250D02*
X0196583Y0278750D01*
X0196583Y0278250D01*
X0197084Y0277749D01*
X0097586Y0278750D02*
X0097586Y0279751D01*
X0097586Y0279250D02*
X0095084Y0279250D01*
X0094583Y0278750D01*
X0094583Y0278250D01*
X0095084Y0277749D01*
X0095584Y0280972D02*
X0095584Y0282473D01*
X0096085Y0282974D01*
X0097085Y0282974D01*
X0097586Y0282473D01*
X0097586Y0280972D01*
X0094583Y0280972D01*
X0094583Y0284195D02*
X0096585Y0286196D01*
X0097085Y0286196D01*
X0097586Y0285696D01*
X0097586Y0284695D01*
X0097085Y0284195D01*
X0094583Y0284195D02*
X0094583Y0286196D01*
D12*
X0104042Y0287733D02*
X0105443Y0289135D01*
X0104743Y0289135D02*
X0106844Y0289135D01*
X0106844Y0287733D02*
X0106844Y0291937D01*
X0104743Y0291937D01*
X0104042Y0291236D01*
X0104042Y0289835D01*
X0104743Y0289135D01*
X0108513Y0287733D02*
X0109914Y0287733D01*
X0109213Y0287733D02*
X0109213Y0291937D01*
X0108513Y0291937D02*
X0109914Y0291937D01*
X0111715Y0289835D02*
X0114518Y0289835D01*
X0116319Y0289135D02*
X0116319Y0288434D01*
X0117020Y0287733D01*
X0118421Y0287733D01*
X0119122Y0288434D01*
X0120923Y0288434D02*
X0120923Y0289135D01*
X0121624Y0289835D01*
X0123725Y0289835D01*
X0123725Y0288434D01*
X0123025Y0287733D01*
X0121624Y0287733D01*
X0120923Y0288434D01*
X0122324Y0291236D02*
X0120923Y0291937D01*
X0122324Y0291236D02*
X0123725Y0289835D01*
X0125527Y0290536D02*
X0128329Y0287733D01*
X0125527Y0287733D01*
X0125527Y0290536D02*
X0125527Y0291236D01*
X0126228Y0291937D01*
X0127629Y0291937D01*
X0128329Y0291236D01*
X0130131Y0291236D02*
X0132933Y0288434D01*
X0132933Y0287733D01*
X0132933Y0291937D02*
X0130131Y0291937D01*
X0130131Y0291236D01*
X0128329Y0297733D02*
X0125527Y0300536D01*
X0125527Y0301236D01*
X0126228Y0301937D01*
X0127629Y0301937D01*
X0128329Y0301236D01*
X0130131Y0301236D02*
X0132933Y0298434D01*
X0132933Y0297733D01*
X0132933Y0301937D02*
X0130131Y0301937D01*
X0130131Y0301236D01*
X0128329Y0297733D02*
X0125527Y0297733D01*
X0123725Y0298434D02*
X0123725Y0299835D01*
X0121624Y0299835D01*
X0120923Y0299135D01*
X0120923Y0298434D01*
X0121624Y0297733D01*
X0123025Y0297733D01*
X0123725Y0298434D01*
X0123725Y0299835D02*
X0122324Y0301236D01*
X0120923Y0301937D01*
X0119122Y0301236D02*
X0118421Y0301937D01*
X0117020Y0301937D01*
X0116319Y0301236D01*
X0116319Y0300536D01*
X0119122Y0297733D01*
X0116319Y0297733D01*
X0114518Y0299835D02*
X0111715Y0299835D01*
X0109914Y0299135D02*
X0109914Y0301937D01*
X0109914Y0299135D02*
X0108513Y0297733D01*
X0107111Y0299135D01*
X0107111Y0301937D01*
X0105310Y0300536D02*
X0104609Y0300536D01*
X0104609Y0297733D01*
X0103909Y0297733D02*
X0105310Y0297733D01*
X0102241Y0297733D02*
X0100139Y0297733D01*
X0099438Y0298434D01*
X0100139Y0299135D01*
X0101540Y0299135D01*
X0102241Y0299835D01*
X0101540Y0300536D01*
X0099438Y0300536D01*
X0104609Y0301937D02*
X0104609Y0302638D01*
X0112208Y0310233D02*
X0113609Y0310233D01*
X0112909Y0310233D02*
X0112909Y0314437D01*
X0113609Y0314437D01*
X0115411Y0312335D02*
X0115411Y0310233D01*
X0117512Y0310233D01*
X0118213Y0310934D01*
X0117512Y0311635D01*
X0115411Y0311635D01*
X0115411Y0312335D02*
X0116111Y0313036D01*
X0117512Y0313036D01*
X0120582Y0313036D02*
X0120582Y0310233D01*
X0121282Y0310233D02*
X0119881Y0310233D01*
X0120582Y0313036D02*
X0121282Y0313036D01*
X0120582Y0314437D02*
X0120582Y0315138D01*
X0123017Y0313036D02*
X0123718Y0313036D01*
X0125119Y0311635D01*
X0125119Y0313036D02*
X0125119Y0310233D01*
X0126921Y0311635D02*
X0129723Y0311635D01*
X0129723Y0312335D02*
X0129022Y0313036D01*
X0127621Y0313036D01*
X0126921Y0312335D01*
X0126921Y0311635D01*
X0127621Y0310233D02*
X0129022Y0310233D01*
X0129723Y0310934D01*
X0129723Y0312335D01*
X0131524Y0311635D02*
X0131524Y0310934D01*
X0132225Y0310233D01*
X0133626Y0310233D01*
X0134327Y0310934D01*
X0133626Y0312335D02*
X0132225Y0312335D01*
X0131524Y0311635D01*
X0131524Y0313736D02*
X0132225Y0314437D01*
X0133626Y0314437D01*
X0134327Y0313736D01*
X0134327Y0313036D01*
X0133626Y0312335D01*
X0131433Y0326033D02*
X0131433Y0328733D01*
X0125333Y0332833D02*
X0123833Y0331333D01*
X0115833Y0332833D02*
X0114333Y0331333D01*
X0117020Y0291937D02*
X0116319Y0291236D01*
X0116319Y0290536D01*
X0117020Y0289835D01*
X0116319Y0289135D01*
X0117020Y0289835D02*
X0117720Y0289835D01*
X0119122Y0291236D02*
X0118421Y0291937D01*
X0117020Y0291937D01*
X0118797Y0274437D02*
X0120198Y0274437D01*
X0120899Y0273736D01*
X0120899Y0270934D01*
X0120198Y0270233D01*
X0118797Y0270233D01*
X0118096Y0270934D01*
X0118096Y0273736D02*
X0118797Y0274437D01*
X0122700Y0273736D02*
X0122700Y0273036D01*
X0125503Y0270233D01*
X0122700Y0270233D01*
X0122700Y0273736D02*
X0123401Y0274437D01*
X0124802Y0274437D01*
X0125503Y0273736D01*
X0127171Y0274437D02*
X0128572Y0274437D01*
X0127871Y0274437D02*
X0127871Y0270233D01*
X0127171Y0270233D02*
X0128572Y0270233D01*
X0125333Y0230833D02*
X0123833Y0229333D01*
X0131433Y0226733D02*
X0131433Y0224033D01*
X0132225Y0212437D02*
X0133626Y0212437D01*
X0134327Y0211736D01*
X0134327Y0211036D01*
X0133626Y0210335D01*
X0132225Y0210335D01*
X0131524Y0209635D01*
X0131524Y0208934D01*
X0132225Y0208233D01*
X0133626Y0208233D01*
X0134327Y0208934D01*
X0131524Y0211736D02*
X0132225Y0212437D01*
X0129723Y0210335D02*
X0129022Y0211036D01*
X0127621Y0211036D01*
X0126921Y0210335D01*
X0126921Y0209635D01*
X0129723Y0209635D01*
X0129723Y0210335D02*
X0129723Y0208934D01*
X0129022Y0208233D01*
X0127621Y0208233D01*
X0125119Y0208233D02*
X0125119Y0211036D01*
X0123718Y0211036D02*
X0123017Y0211036D01*
X0123718Y0211036D02*
X0125119Y0209635D01*
X0121282Y0211036D02*
X0120582Y0211036D01*
X0120582Y0208233D01*
X0121282Y0208233D02*
X0119881Y0208233D01*
X0118213Y0208934D02*
X0117512Y0209635D01*
X0115411Y0209635D01*
X0115411Y0210335D02*
X0115411Y0208233D01*
X0117512Y0208233D01*
X0118213Y0208934D01*
X0117512Y0211036D02*
X0116111Y0211036D01*
X0115411Y0210335D01*
X0113609Y0208233D02*
X0112208Y0208233D01*
X0112909Y0208233D02*
X0112909Y0212437D01*
X0113609Y0212437D01*
X0120582Y0212437D02*
X0120582Y0213138D01*
X0120923Y0199937D02*
X0122324Y0199236D01*
X0123725Y0197835D01*
X0121624Y0197835D01*
X0120923Y0197135D01*
X0120923Y0196434D01*
X0121624Y0195733D01*
X0123025Y0195733D01*
X0123725Y0196434D01*
X0123725Y0197835D01*
X0125527Y0198536D02*
X0128329Y0195733D01*
X0125527Y0195733D01*
X0125527Y0198536D02*
X0125527Y0199236D01*
X0126228Y0199937D01*
X0127629Y0199937D01*
X0128329Y0199236D01*
X0130131Y0199236D02*
X0130131Y0199937D01*
X0132933Y0199937D01*
X0130131Y0199236D02*
X0132933Y0196434D01*
X0132933Y0195733D01*
X0132933Y0189937D02*
X0130131Y0189937D01*
X0130131Y0189236D01*
X0132933Y0186434D01*
X0132933Y0185733D01*
X0128329Y0185733D02*
X0125527Y0188536D01*
X0125527Y0189236D01*
X0126228Y0189937D01*
X0127629Y0189937D01*
X0128329Y0189236D01*
X0128329Y0185733D02*
X0125527Y0185733D01*
X0123725Y0186434D02*
X0123025Y0185733D01*
X0121624Y0185733D01*
X0120923Y0186434D01*
X0120923Y0187135D01*
X0121624Y0187835D01*
X0123725Y0187835D01*
X0123725Y0186434D01*
X0123725Y0187835D02*
X0122324Y0189236D01*
X0120923Y0189937D01*
X0119122Y0189236D02*
X0118421Y0189937D01*
X0117020Y0189937D01*
X0116319Y0189236D01*
X0116319Y0188536D01*
X0117020Y0187835D01*
X0116319Y0187135D01*
X0116319Y0186434D01*
X0117020Y0185733D01*
X0118421Y0185733D01*
X0119122Y0186434D01*
X0117720Y0187835D02*
X0117020Y0187835D01*
X0114518Y0187835D02*
X0111715Y0187835D01*
X0109914Y0185733D02*
X0108513Y0185733D01*
X0109213Y0185733D02*
X0109213Y0189937D01*
X0108513Y0189937D02*
X0109914Y0189937D01*
X0106844Y0189937D02*
X0106844Y0185733D01*
X0106844Y0187135D02*
X0104743Y0187135D01*
X0104042Y0187835D01*
X0104042Y0189236D01*
X0104743Y0189937D01*
X0106844Y0189937D01*
X0105443Y0187135D02*
X0104042Y0185733D01*
X0103909Y0195733D02*
X0105310Y0195733D01*
X0104609Y0195733D02*
X0104609Y0198536D01*
X0105310Y0198536D01*
X0104609Y0199937D02*
X0104609Y0200638D01*
X0107111Y0199937D02*
X0107111Y0197135D01*
X0108513Y0195733D01*
X0109914Y0197135D01*
X0109914Y0199937D01*
X0111715Y0197835D02*
X0114518Y0197835D01*
X0116319Y0198536D02*
X0116319Y0199236D01*
X0117020Y0199937D01*
X0118421Y0199937D01*
X0119122Y0199236D01*
X0116319Y0198536D02*
X0119122Y0195733D01*
X0116319Y0195733D01*
X0102241Y0195733D02*
X0100139Y0195733D01*
X0099438Y0196434D01*
X0100139Y0197135D01*
X0101540Y0197135D01*
X0102241Y0197835D01*
X0101540Y0198536D01*
X0099438Y0198536D01*
X0118797Y0172437D02*
X0120198Y0172437D01*
X0120899Y0171736D01*
X0120899Y0168934D01*
X0120198Y0168233D01*
X0118797Y0168233D01*
X0118096Y0168934D01*
X0118096Y0171736D02*
X0118797Y0172437D01*
X0122700Y0171736D02*
X0123401Y0172437D01*
X0124802Y0172437D01*
X0125503Y0171736D01*
X0127171Y0172437D02*
X0128572Y0172437D01*
X0127871Y0172437D02*
X0127871Y0168233D01*
X0127171Y0168233D02*
X0128572Y0168233D01*
X0125503Y0168233D02*
X0122700Y0171036D01*
X0122700Y0171736D01*
X0122700Y0168233D02*
X0125503Y0168233D01*
X0125333Y0128833D02*
X0123833Y0127333D01*
X0131433Y0124733D02*
X0131433Y0122033D01*
X0120582Y0111138D02*
X0120582Y0110437D01*
X0120582Y0109036D02*
X0120582Y0106233D01*
X0121282Y0106233D02*
X0119881Y0106233D01*
X0118213Y0106934D02*
X0117512Y0107635D01*
X0115411Y0107635D01*
X0115411Y0108335D02*
X0115411Y0106233D01*
X0117512Y0106233D01*
X0118213Y0106934D01*
X0117512Y0109036D02*
X0116111Y0109036D01*
X0115411Y0108335D01*
X0113609Y0106233D02*
X0112208Y0106233D01*
X0112909Y0106233D02*
X0112909Y0110437D01*
X0113609Y0110437D01*
X0120582Y0109036D02*
X0121282Y0109036D01*
X0123017Y0109036D02*
X0123718Y0109036D01*
X0125119Y0107635D01*
X0125119Y0109036D02*
X0125119Y0106233D01*
X0126921Y0107635D02*
X0129723Y0107635D01*
X0129723Y0108335D02*
X0129022Y0109036D01*
X0127621Y0109036D01*
X0126921Y0108335D01*
X0126921Y0107635D01*
X0127621Y0106233D02*
X0129022Y0106233D01*
X0129723Y0106934D01*
X0129723Y0108335D01*
X0131524Y0107635D02*
X0131524Y0106934D01*
X0132225Y0106233D01*
X0133626Y0106233D01*
X0134327Y0106934D01*
X0133626Y0108335D02*
X0132225Y0108335D01*
X0131524Y0107635D01*
X0131524Y0109736D02*
X0132225Y0110437D01*
X0133626Y0110437D01*
X0134327Y0109736D01*
X0134327Y0109036D01*
X0133626Y0108335D01*
X0132933Y0097937D02*
X0130131Y0097937D01*
X0130131Y0097236D01*
X0132933Y0094434D01*
X0132933Y0093733D01*
X0128329Y0093733D02*
X0125527Y0096536D01*
X0125527Y0097236D01*
X0126228Y0097937D01*
X0127629Y0097937D01*
X0128329Y0097236D01*
X0128329Y0093733D02*
X0125527Y0093733D01*
X0123725Y0094434D02*
X0123025Y0093733D01*
X0121624Y0093733D01*
X0120923Y0094434D01*
X0120923Y0095135D01*
X0121624Y0095835D01*
X0123725Y0095835D01*
X0123725Y0094434D01*
X0123725Y0095835D02*
X0122324Y0097236D01*
X0120923Y0097937D01*
X0119122Y0097236D02*
X0118421Y0097937D01*
X0117020Y0097937D01*
X0116319Y0097236D01*
X0116319Y0096536D01*
X0119122Y0093733D01*
X0116319Y0093733D01*
X0114518Y0095835D02*
X0111715Y0095835D01*
X0109914Y0095135D02*
X0108513Y0093733D01*
X0107111Y0095135D01*
X0107111Y0097937D01*
X0105310Y0096536D02*
X0104609Y0096536D01*
X0104609Y0093733D01*
X0103909Y0093733D02*
X0105310Y0093733D01*
X0102241Y0093733D02*
X0100139Y0093733D01*
X0099438Y0094434D01*
X0100139Y0095135D01*
X0101540Y0095135D01*
X0102241Y0095835D01*
X0101540Y0096536D01*
X0099438Y0096536D01*
X0104609Y0097937D02*
X0104609Y0098638D01*
X0109914Y0097937D02*
X0109914Y0095135D01*
X0109914Y0087937D02*
X0108513Y0087937D01*
X0109213Y0087937D02*
X0109213Y0083733D01*
X0108513Y0083733D02*
X0109914Y0083733D01*
X0111715Y0085835D02*
X0114518Y0085835D01*
X0116319Y0085135D02*
X0116319Y0084434D01*
X0117020Y0083733D01*
X0118421Y0083733D01*
X0119122Y0084434D01*
X0120923Y0084434D02*
X0120923Y0085135D01*
X0121624Y0085835D01*
X0123725Y0085835D01*
X0123725Y0084434D01*
X0123025Y0083733D01*
X0121624Y0083733D01*
X0120923Y0084434D01*
X0122324Y0087236D02*
X0120923Y0087937D01*
X0122324Y0087236D02*
X0123725Y0085835D01*
X0125527Y0086536D02*
X0128329Y0083733D01*
X0125527Y0083733D01*
X0125527Y0086536D02*
X0125527Y0087236D01*
X0126228Y0087937D01*
X0127629Y0087937D01*
X0128329Y0087236D01*
X0130131Y0087236D02*
X0132933Y0084434D01*
X0132933Y0083733D01*
X0132933Y0087937D02*
X0130131Y0087937D01*
X0130131Y0087236D01*
X0119122Y0087236D02*
X0118421Y0087937D01*
X0117020Y0087937D01*
X0116319Y0087236D01*
X0116319Y0086536D01*
X0117020Y0085835D01*
X0116319Y0085135D01*
X0117020Y0085835D02*
X0117720Y0085835D01*
X0106844Y0085135D02*
X0104743Y0085135D01*
X0104042Y0085835D01*
X0104042Y0087236D01*
X0104743Y0087937D01*
X0106844Y0087937D01*
X0106844Y0083733D01*
X0105443Y0085135D02*
X0104042Y0083733D01*
X0118096Y0069736D02*
X0118797Y0070437D01*
X0120198Y0070437D01*
X0120899Y0069736D01*
X0120899Y0066934D01*
X0120198Y0066233D01*
X0118797Y0066233D01*
X0118096Y0066934D01*
X0122700Y0066233D02*
X0125503Y0066233D01*
X0122700Y0069036D01*
X0122700Y0069736D01*
X0123401Y0070437D01*
X0124802Y0070437D01*
X0125503Y0069736D01*
X0127171Y0070437D02*
X0128572Y0070437D01*
X0127871Y0070437D02*
X0127871Y0066233D01*
X0127171Y0066233D02*
X0128572Y0066233D01*
X0114333Y0127333D02*
X0115833Y0128833D01*
X0201438Y0096536D02*
X0203540Y0096536D01*
X0204241Y0095835D01*
X0203540Y0095135D01*
X0202139Y0095135D01*
X0201438Y0094434D01*
X0202139Y0093733D01*
X0204241Y0093733D01*
X0205909Y0093733D02*
X0207310Y0093733D01*
X0206609Y0093733D02*
X0206609Y0096536D01*
X0207310Y0096536D01*
X0206609Y0097937D02*
X0206609Y0098638D01*
X0209111Y0097937D02*
X0209111Y0095135D01*
X0210513Y0093733D01*
X0211914Y0095135D01*
X0211914Y0097937D01*
X0213715Y0095835D02*
X0216518Y0095835D01*
X0218319Y0096536D02*
X0218319Y0097236D01*
X0219020Y0097937D01*
X0220421Y0097937D01*
X0221122Y0097236D01*
X0222923Y0097937D02*
X0224324Y0097236D01*
X0225725Y0095835D01*
X0223624Y0095835D01*
X0222923Y0095135D01*
X0222923Y0094434D01*
X0223624Y0093733D01*
X0225025Y0093733D01*
X0225725Y0094434D01*
X0225725Y0095835D01*
X0227527Y0096536D02*
X0227527Y0097236D01*
X0228228Y0097937D01*
X0229629Y0097937D01*
X0230329Y0097236D01*
X0232131Y0097236D02*
X0234933Y0094434D01*
X0234933Y0093733D01*
X0234933Y0097937D02*
X0232131Y0097937D01*
X0232131Y0097236D01*
X0230329Y0093733D02*
X0227527Y0093733D01*
X0230329Y0093733D02*
X0227527Y0096536D01*
X0221122Y0093733D02*
X0218319Y0096536D01*
X0218319Y0093733D02*
X0221122Y0093733D01*
X0220421Y0087937D02*
X0219020Y0087937D01*
X0218319Y0087236D01*
X0218319Y0086536D01*
X0219020Y0085835D01*
X0218319Y0085135D01*
X0218319Y0084434D01*
X0219020Y0083733D01*
X0220421Y0083733D01*
X0221122Y0084434D01*
X0222923Y0084434D02*
X0222923Y0085135D01*
X0223624Y0085835D01*
X0225725Y0085835D01*
X0225725Y0084434D01*
X0225025Y0083733D01*
X0223624Y0083733D01*
X0222923Y0084434D01*
X0224324Y0087236D02*
X0225725Y0085835D01*
X0227527Y0086536D02*
X0227527Y0087236D01*
X0228228Y0087937D01*
X0229629Y0087937D01*
X0230329Y0087236D01*
X0232131Y0087236D02*
X0234933Y0084434D01*
X0234933Y0083733D01*
X0234933Y0087937D02*
X0232131Y0087937D01*
X0232131Y0087236D01*
X0230329Y0083733D02*
X0227527Y0083733D01*
X0230329Y0083733D02*
X0227527Y0086536D01*
X0224324Y0087236D02*
X0222923Y0087937D01*
X0221122Y0087236D02*
X0220421Y0087937D01*
X0219720Y0085835D02*
X0219020Y0085835D01*
X0216518Y0085835D02*
X0213715Y0085835D01*
X0211914Y0083733D02*
X0210513Y0083733D01*
X0211213Y0083733D02*
X0211213Y0087937D01*
X0210513Y0087937D02*
X0211914Y0087937D01*
X0208844Y0087937D02*
X0208844Y0083733D01*
X0208844Y0085135D02*
X0206743Y0085135D01*
X0206042Y0085835D01*
X0206042Y0087236D01*
X0206743Y0087937D01*
X0208844Y0087937D01*
X0207443Y0085135D02*
X0206042Y0083733D01*
X0220096Y0069736D02*
X0220797Y0070437D01*
X0222198Y0070437D01*
X0222899Y0069736D01*
X0222899Y0066934D01*
X0222198Y0066233D01*
X0220797Y0066233D01*
X0220096Y0066934D01*
X0224700Y0066233D02*
X0227503Y0066233D01*
X0224700Y0069036D01*
X0224700Y0069736D01*
X0225401Y0070437D01*
X0226802Y0070437D01*
X0227503Y0069736D01*
X0229171Y0070437D02*
X0230572Y0070437D01*
X0229871Y0070437D02*
X0229871Y0066233D01*
X0229171Y0066233D02*
X0230572Y0066233D01*
X0231022Y0106233D02*
X0229621Y0106233D01*
X0231022Y0106233D02*
X0231723Y0106934D01*
X0231723Y0108335D01*
X0231022Y0109036D01*
X0229621Y0109036D01*
X0228921Y0108335D01*
X0228921Y0107635D01*
X0231723Y0107635D01*
X0233524Y0107635D02*
X0233524Y0106934D01*
X0234225Y0106233D01*
X0235626Y0106233D01*
X0236327Y0106934D01*
X0235626Y0108335D02*
X0234225Y0108335D01*
X0233524Y0107635D01*
X0233524Y0109736D02*
X0234225Y0110437D01*
X0235626Y0110437D01*
X0236327Y0109736D01*
X0236327Y0109036D01*
X0235626Y0108335D01*
X0227119Y0107635D02*
X0225718Y0109036D01*
X0225017Y0109036D01*
X0223282Y0109036D02*
X0222582Y0109036D01*
X0222582Y0106233D01*
X0223282Y0106233D02*
X0221881Y0106233D01*
X0220213Y0106934D02*
X0219512Y0107635D01*
X0217411Y0107635D01*
X0217411Y0108335D02*
X0217411Y0106233D01*
X0219512Y0106233D01*
X0220213Y0106934D01*
X0219512Y0109036D02*
X0218111Y0109036D01*
X0217411Y0108335D01*
X0215609Y0106233D02*
X0214208Y0106233D01*
X0214909Y0106233D02*
X0214909Y0110437D01*
X0215609Y0110437D01*
X0222582Y0110437D02*
X0222582Y0111138D01*
X0227119Y0109036D02*
X0227119Y0106233D01*
X0233433Y0122033D02*
X0233433Y0124733D01*
X0227333Y0128833D02*
X0225833Y0127333D01*
X0217833Y0128833D02*
X0216333Y0127333D01*
X0220797Y0168233D02*
X0220096Y0168934D01*
X0220797Y0168233D02*
X0222198Y0168233D01*
X0222899Y0168934D01*
X0222899Y0171736D01*
X0222198Y0172437D01*
X0220797Y0172437D01*
X0220096Y0171736D01*
X0224700Y0171736D02*
X0225401Y0172437D01*
X0226802Y0172437D01*
X0227503Y0171736D01*
X0229171Y0172437D02*
X0230572Y0172437D01*
X0229871Y0172437D02*
X0229871Y0168233D01*
X0229171Y0168233D02*
X0230572Y0168233D01*
X0227503Y0168233D02*
X0224700Y0171036D01*
X0224700Y0171736D01*
X0224700Y0168233D02*
X0227503Y0168233D01*
X0227527Y0185733D02*
X0230329Y0185733D01*
X0227527Y0188536D01*
X0227527Y0189236D01*
X0228228Y0189937D01*
X0229629Y0189937D01*
X0230329Y0189236D01*
X0232131Y0189236D02*
X0234933Y0186434D01*
X0234933Y0185733D01*
X0234933Y0189937D02*
X0232131Y0189937D01*
X0232131Y0189236D01*
X0230329Y0195733D02*
X0227527Y0195733D01*
X0225725Y0196434D02*
X0225025Y0195733D01*
X0223624Y0195733D01*
X0222923Y0196434D01*
X0222923Y0197135D01*
X0223624Y0197835D01*
X0225725Y0197835D01*
X0225725Y0196434D01*
X0225725Y0197835D02*
X0224324Y0199236D01*
X0222923Y0199937D01*
X0221122Y0199236D02*
X0220421Y0199937D01*
X0219020Y0199937D01*
X0218319Y0199236D01*
X0218319Y0198536D01*
X0221122Y0195733D01*
X0218319Y0195733D01*
X0216518Y0197835D02*
X0213715Y0197835D01*
X0211914Y0197135D02*
X0210513Y0195733D01*
X0209111Y0197135D01*
X0209111Y0199937D01*
X0207310Y0198536D02*
X0206609Y0198536D01*
X0206609Y0195733D01*
X0205909Y0195733D02*
X0207310Y0195733D01*
X0204241Y0195733D02*
X0202139Y0195733D01*
X0201438Y0196434D01*
X0202139Y0197135D01*
X0203540Y0197135D01*
X0204241Y0197835D01*
X0203540Y0198536D01*
X0201438Y0198536D01*
X0206609Y0199937D02*
X0206609Y0200638D01*
X0211914Y0199937D02*
X0211914Y0197135D01*
X0211914Y0189937D02*
X0210513Y0189937D01*
X0211213Y0189937D02*
X0211213Y0185733D01*
X0210513Y0185733D02*
X0211914Y0185733D01*
X0213715Y0187835D02*
X0216518Y0187835D01*
X0218319Y0187135D02*
X0218319Y0186434D01*
X0219020Y0185733D01*
X0220421Y0185733D01*
X0221122Y0186434D01*
X0222923Y0186434D02*
X0222923Y0187135D01*
X0223624Y0187835D01*
X0225725Y0187835D01*
X0225725Y0186434D01*
X0225025Y0185733D01*
X0223624Y0185733D01*
X0222923Y0186434D01*
X0224324Y0189236D02*
X0225725Y0187835D01*
X0224324Y0189236D02*
X0222923Y0189937D01*
X0221122Y0189236D02*
X0220421Y0189937D01*
X0219020Y0189937D01*
X0218319Y0189236D01*
X0218319Y0188536D01*
X0219020Y0187835D01*
X0218319Y0187135D01*
X0219020Y0187835D02*
X0219720Y0187835D01*
X0208844Y0187135D02*
X0206743Y0187135D01*
X0206042Y0187835D01*
X0206042Y0189236D01*
X0206743Y0189937D01*
X0208844Y0189937D01*
X0208844Y0185733D01*
X0207443Y0187135D02*
X0206042Y0185733D01*
X0227527Y0198536D02*
X0227527Y0199236D01*
X0228228Y0199937D01*
X0229629Y0199937D01*
X0230329Y0199236D01*
X0232131Y0199236D02*
X0234933Y0196434D01*
X0234933Y0195733D01*
X0232131Y0199236D02*
X0232131Y0199937D01*
X0234933Y0199937D01*
X0230329Y0195733D02*
X0227527Y0198536D01*
X0227119Y0208233D02*
X0227119Y0211036D01*
X0227119Y0209635D02*
X0225718Y0211036D01*
X0225017Y0211036D01*
X0223282Y0211036D02*
X0222582Y0211036D01*
X0222582Y0208233D01*
X0223282Y0208233D02*
X0221881Y0208233D01*
X0220213Y0208934D02*
X0219512Y0209635D01*
X0217411Y0209635D01*
X0217411Y0210335D02*
X0217411Y0208233D01*
X0219512Y0208233D01*
X0220213Y0208934D01*
X0219512Y0211036D02*
X0218111Y0211036D01*
X0217411Y0210335D01*
X0215609Y0208233D02*
X0214208Y0208233D01*
X0214909Y0208233D02*
X0214909Y0212437D01*
X0215609Y0212437D01*
X0222582Y0212437D02*
X0222582Y0213138D01*
X0228921Y0210335D02*
X0228921Y0209635D01*
X0231723Y0209635D01*
X0231723Y0210335D02*
X0231022Y0211036D01*
X0229621Y0211036D01*
X0228921Y0210335D01*
X0229621Y0208233D02*
X0231022Y0208233D01*
X0231723Y0208934D01*
X0231723Y0210335D01*
X0233524Y0209635D02*
X0233524Y0208934D01*
X0234225Y0208233D01*
X0235626Y0208233D01*
X0236327Y0208934D01*
X0235626Y0210335D02*
X0234225Y0210335D01*
X0233524Y0209635D01*
X0233524Y0211736D02*
X0234225Y0212437D01*
X0235626Y0212437D01*
X0236327Y0211736D01*
X0236327Y0211036D01*
X0235626Y0210335D01*
X0233433Y0224033D02*
X0233433Y0226733D01*
X0227333Y0230833D02*
X0225833Y0229333D01*
X0217833Y0230833D02*
X0216333Y0229333D01*
X0220797Y0270233D02*
X0220096Y0270934D01*
X0220797Y0270233D02*
X0222198Y0270233D01*
X0222899Y0270934D01*
X0222899Y0273736D01*
X0222198Y0274437D01*
X0220797Y0274437D01*
X0220096Y0273736D01*
X0224700Y0273736D02*
X0224700Y0273036D01*
X0227503Y0270233D01*
X0224700Y0270233D01*
X0224700Y0273736D02*
X0225401Y0274437D01*
X0226802Y0274437D01*
X0227503Y0273736D01*
X0229171Y0274437D02*
X0230572Y0274437D01*
X0229871Y0274437D02*
X0229871Y0270233D01*
X0229171Y0270233D02*
X0230572Y0270233D01*
X0230329Y0287733D02*
X0227527Y0287733D01*
X0225725Y0288434D02*
X0225025Y0287733D01*
X0223624Y0287733D01*
X0222923Y0288434D01*
X0222923Y0289135D01*
X0223624Y0289835D01*
X0225725Y0289835D01*
X0225725Y0288434D01*
X0225725Y0289835D02*
X0224324Y0291236D01*
X0222923Y0291937D01*
X0221122Y0291236D02*
X0220421Y0291937D01*
X0219020Y0291937D01*
X0218319Y0291236D01*
X0218319Y0290536D01*
X0219020Y0289835D01*
X0218319Y0289135D01*
X0218319Y0288434D01*
X0219020Y0287733D01*
X0220421Y0287733D01*
X0221122Y0288434D01*
X0219720Y0289835D02*
X0219020Y0289835D01*
X0216518Y0289835D02*
X0213715Y0289835D01*
X0211914Y0287733D02*
X0210513Y0287733D01*
X0211213Y0287733D02*
X0211213Y0291937D01*
X0210513Y0291937D02*
X0211914Y0291937D01*
X0208844Y0291937D02*
X0208844Y0287733D01*
X0208844Y0289135D02*
X0206743Y0289135D01*
X0206042Y0289835D01*
X0206042Y0291236D01*
X0206743Y0291937D01*
X0208844Y0291937D01*
X0207443Y0289135D02*
X0206042Y0287733D01*
X0205909Y0297733D02*
X0207310Y0297733D01*
X0206609Y0297733D02*
X0206609Y0300536D01*
X0207310Y0300536D01*
X0206609Y0301937D02*
X0206609Y0302638D01*
X0209111Y0301937D02*
X0209111Y0299135D01*
X0210513Y0297733D01*
X0211914Y0299135D01*
X0211914Y0301937D01*
X0213715Y0299835D02*
X0216518Y0299835D01*
X0218319Y0300536D02*
X0221122Y0297733D01*
X0218319Y0297733D01*
X0218319Y0300536D02*
X0218319Y0301236D01*
X0219020Y0301937D01*
X0220421Y0301937D01*
X0221122Y0301236D01*
X0222923Y0301937D02*
X0224324Y0301236D01*
X0225725Y0299835D01*
X0223624Y0299835D01*
X0222923Y0299135D01*
X0222923Y0298434D01*
X0223624Y0297733D01*
X0225025Y0297733D01*
X0225725Y0298434D01*
X0225725Y0299835D01*
X0227527Y0300536D02*
X0227527Y0301236D01*
X0228228Y0301937D01*
X0229629Y0301937D01*
X0230329Y0301236D01*
X0232131Y0301236D02*
X0234933Y0298434D01*
X0234933Y0297733D01*
X0234933Y0301937D02*
X0232131Y0301937D01*
X0232131Y0301236D01*
X0230329Y0297733D02*
X0227527Y0297733D01*
X0230329Y0297733D02*
X0227527Y0300536D01*
X0227119Y0310233D02*
X0227119Y0313036D01*
X0227119Y0311635D02*
X0225718Y0313036D01*
X0225017Y0313036D01*
X0223282Y0313036D02*
X0222582Y0313036D01*
X0222582Y0310233D01*
X0223282Y0310233D02*
X0221881Y0310233D01*
X0220213Y0310934D02*
X0219512Y0310233D01*
X0217411Y0310233D01*
X0217411Y0312335D01*
X0218111Y0313036D01*
X0219512Y0313036D01*
X0219512Y0311635D02*
X0217411Y0311635D01*
X0219512Y0311635D02*
X0220213Y0310934D01*
X0222582Y0314437D02*
X0222582Y0315138D01*
X0228921Y0312335D02*
X0228921Y0311635D01*
X0231723Y0311635D01*
X0231723Y0312335D02*
X0231022Y0313036D01*
X0229621Y0313036D01*
X0228921Y0312335D01*
X0229621Y0310233D02*
X0231022Y0310233D01*
X0231723Y0310934D01*
X0231723Y0312335D01*
X0233524Y0311635D02*
X0233524Y0310934D01*
X0234225Y0310233D01*
X0235626Y0310233D01*
X0236327Y0310934D01*
X0235626Y0312335D02*
X0234225Y0312335D01*
X0233524Y0311635D01*
X0233524Y0313736D02*
X0234225Y0314437D01*
X0235626Y0314437D01*
X0236327Y0313736D01*
X0236327Y0313036D01*
X0235626Y0312335D01*
X0233433Y0326033D02*
X0233433Y0328733D01*
X0227333Y0332833D02*
X0225833Y0331333D01*
X0217833Y0332833D02*
X0216333Y0331333D01*
X0215609Y0314437D02*
X0214909Y0314437D01*
X0214909Y0310233D01*
X0215609Y0310233D02*
X0214208Y0310233D01*
X0204241Y0299835D02*
X0203540Y0299135D01*
X0202139Y0299135D01*
X0201438Y0298434D01*
X0202139Y0297733D01*
X0204241Y0297733D01*
X0204241Y0299835D02*
X0203540Y0300536D01*
X0201438Y0300536D01*
X0227527Y0291236D02*
X0228228Y0291937D01*
X0229629Y0291937D01*
X0230329Y0291236D01*
X0232131Y0291236D02*
X0234933Y0288434D01*
X0234933Y0287733D01*
X0234933Y0291937D02*
X0232131Y0291937D01*
X0232131Y0291236D01*
X0230329Y0287733D02*
X0227527Y0290536D01*
X0227527Y0291236D01*
X0303438Y0298434D02*
X0304139Y0299135D01*
X0305540Y0299135D01*
X0306241Y0299835D01*
X0305540Y0300536D01*
X0303438Y0300536D01*
X0303438Y0298434D02*
X0304139Y0297733D01*
X0306241Y0297733D01*
X0307909Y0297733D02*
X0309310Y0297733D01*
X0308609Y0297733D02*
X0308609Y0300536D01*
X0309310Y0300536D01*
X0308609Y0301937D02*
X0308609Y0302638D01*
X0311111Y0301937D02*
X0311111Y0299135D01*
X0312513Y0297733D01*
X0313914Y0299135D01*
X0313914Y0301937D01*
X0315715Y0299835D02*
X0318518Y0299835D01*
X0320319Y0300536D02*
X0320319Y0301236D01*
X0321020Y0301937D01*
X0322421Y0301937D01*
X0323122Y0301236D01*
X0324923Y0301937D02*
X0326324Y0301236D01*
X0327725Y0299835D01*
X0325624Y0299835D01*
X0324923Y0299135D01*
X0324923Y0298434D01*
X0325624Y0297733D01*
X0327025Y0297733D01*
X0327725Y0298434D01*
X0327725Y0299835D01*
X0329527Y0300536D02*
X0329527Y0301236D01*
X0330228Y0301937D01*
X0331629Y0301937D01*
X0332329Y0301236D01*
X0334131Y0301236D02*
X0336933Y0298434D01*
X0336933Y0297733D01*
X0336933Y0301937D02*
X0334131Y0301937D01*
X0334131Y0301236D01*
X0332329Y0297733D02*
X0329527Y0297733D01*
X0332329Y0297733D02*
X0329527Y0300536D01*
X0323122Y0297733D02*
X0320319Y0300536D01*
X0320319Y0297733D02*
X0323122Y0297733D01*
X0322421Y0291937D02*
X0321020Y0291937D01*
X0320319Y0291236D01*
X0320319Y0290536D01*
X0321020Y0289835D01*
X0320319Y0289135D01*
X0320319Y0288434D01*
X0321020Y0287733D01*
X0322421Y0287733D01*
X0323122Y0288434D01*
X0324923Y0288434D02*
X0324923Y0289135D01*
X0325624Y0289835D01*
X0327725Y0289835D01*
X0327725Y0288434D01*
X0327025Y0287733D01*
X0325624Y0287733D01*
X0324923Y0288434D01*
X0326324Y0291236D02*
X0327725Y0289835D01*
X0329527Y0290536D02*
X0329527Y0291236D01*
X0330228Y0291937D01*
X0331629Y0291937D01*
X0332329Y0291236D01*
X0334131Y0291236D02*
X0336933Y0288434D01*
X0336933Y0287733D01*
X0336933Y0291937D02*
X0334131Y0291937D01*
X0334131Y0291236D01*
X0332329Y0287733D02*
X0329527Y0287733D01*
X0332329Y0287733D02*
X0329527Y0290536D01*
X0326324Y0291236D02*
X0324923Y0291937D01*
X0323122Y0291236D02*
X0322421Y0291937D01*
X0321720Y0289835D02*
X0321020Y0289835D01*
X0318518Y0289835D02*
X0315715Y0289835D01*
X0313914Y0287733D02*
X0312513Y0287733D01*
X0313213Y0287733D02*
X0313213Y0291937D01*
X0312513Y0291937D02*
X0313914Y0291937D01*
X0310844Y0291937D02*
X0310844Y0287733D01*
X0310844Y0289135D02*
X0308743Y0289135D01*
X0308042Y0289835D01*
X0308042Y0291236D01*
X0308743Y0291937D01*
X0310844Y0291937D01*
X0309443Y0289135D02*
X0308042Y0287733D01*
X0322096Y0273736D02*
X0322797Y0274437D01*
X0324198Y0274437D01*
X0324899Y0273736D01*
X0324899Y0270934D01*
X0324198Y0270233D01*
X0322797Y0270233D01*
X0322096Y0270934D01*
X0326700Y0270233D02*
X0329503Y0270233D01*
X0326700Y0273036D01*
X0326700Y0273736D01*
X0327401Y0274437D01*
X0328802Y0274437D01*
X0329503Y0273736D01*
X0331171Y0274437D02*
X0332572Y0274437D01*
X0331871Y0274437D02*
X0331871Y0270233D01*
X0331171Y0270233D02*
X0332572Y0270233D01*
X0333022Y0310233D02*
X0333723Y0310934D01*
X0333723Y0312335D01*
X0333022Y0313036D01*
X0331621Y0313036D01*
X0330921Y0312335D01*
X0330921Y0311635D01*
X0333723Y0311635D01*
X0333022Y0310233D02*
X0331621Y0310233D01*
X0329119Y0310233D02*
X0329119Y0313036D01*
X0327718Y0313036D02*
X0327017Y0313036D01*
X0327718Y0313036D02*
X0329119Y0311635D01*
X0325282Y0313036D02*
X0324582Y0313036D01*
X0324582Y0310233D01*
X0325282Y0310233D02*
X0323881Y0310233D01*
X0322213Y0310934D02*
X0321513Y0311635D01*
X0319411Y0311635D01*
X0319411Y0312335D02*
X0319411Y0310233D01*
X0321513Y0310233D01*
X0322213Y0310934D01*
X0321513Y0313036D02*
X0320111Y0313036D01*
X0319411Y0312335D01*
X0317609Y0310233D02*
X0316208Y0310233D01*
X0316909Y0310233D02*
X0316909Y0314437D01*
X0317609Y0314437D01*
X0324582Y0314437D02*
X0324582Y0315138D01*
X0335524Y0313736D02*
X0336225Y0314437D01*
X0337626Y0314437D01*
X0338327Y0313736D01*
X0338327Y0313036D01*
X0337626Y0312335D01*
X0336225Y0312335D01*
X0335524Y0311635D01*
X0335524Y0310934D01*
X0336225Y0310233D01*
X0337626Y0310233D01*
X0338327Y0310934D01*
X0335433Y0326033D02*
X0335433Y0328733D01*
X0329333Y0332833D02*
X0327833Y0331333D01*
X0319833Y0332833D02*
X0318333Y0331333D01*
X0319833Y0230833D02*
X0318333Y0229333D01*
X0327833Y0229333D02*
X0329333Y0230833D01*
X0335433Y0226733D02*
X0335433Y0224033D01*
X0336225Y0212437D02*
X0337626Y0212437D01*
X0338327Y0211736D01*
X0338327Y0211036D01*
X0337626Y0210335D01*
X0336225Y0210335D01*
X0335524Y0209635D01*
X0335524Y0208934D01*
X0336225Y0208233D01*
X0337626Y0208233D01*
X0338327Y0208934D01*
X0335524Y0211736D02*
X0336225Y0212437D01*
X0333723Y0210335D02*
X0333022Y0211036D01*
X0331621Y0211036D01*
X0330921Y0210335D01*
X0330921Y0209635D01*
X0333723Y0209635D01*
X0333723Y0210335D02*
X0333723Y0208934D01*
X0333022Y0208233D01*
X0331621Y0208233D01*
X0329119Y0208233D02*
X0329119Y0211036D01*
X0327718Y0211036D02*
X0327017Y0211036D01*
X0327718Y0211036D02*
X0329119Y0209635D01*
X0325282Y0211036D02*
X0324582Y0211036D01*
X0324582Y0208233D01*
X0325282Y0208233D02*
X0323881Y0208233D01*
X0322213Y0208934D02*
X0321513Y0209635D01*
X0319411Y0209635D01*
X0319411Y0210335D02*
X0319411Y0208233D01*
X0321513Y0208233D01*
X0322213Y0208934D01*
X0321513Y0211036D02*
X0320111Y0211036D01*
X0319411Y0210335D01*
X0317609Y0208233D02*
X0316208Y0208233D01*
X0316909Y0208233D02*
X0316909Y0212437D01*
X0317609Y0212437D01*
X0324582Y0212437D02*
X0324582Y0213138D01*
X0324923Y0199937D02*
X0326324Y0199236D01*
X0327725Y0197835D01*
X0325624Y0197835D01*
X0324923Y0197135D01*
X0324923Y0196434D01*
X0325624Y0195733D01*
X0327025Y0195733D01*
X0327725Y0196434D01*
X0327725Y0197835D01*
X0329527Y0198536D02*
X0329527Y0199236D01*
X0330228Y0199937D01*
X0331629Y0199937D01*
X0332329Y0199236D01*
X0334131Y0199236D02*
X0336933Y0196434D01*
X0336933Y0195733D01*
X0334131Y0199236D02*
X0334131Y0199937D01*
X0336933Y0199937D01*
X0332329Y0195733D02*
X0329527Y0195733D01*
X0332329Y0195733D02*
X0329527Y0198536D01*
X0323122Y0199236D02*
X0322421Y0199937D01*
X0321020Y0199937D01*
X0320319Y0199236D01*
X0320319Y0198536D01*
X0323122Y0195733D01*
X0320319Y0195733D01*
X0318518Y0197835D02*
X0315715Y0197835D01*
X0313914Y0197135D02*
X0312513Y0195733D01*
X0311111Y0197135D01*
X0311111Y0199937D01*
X0309310Y0198536D02*
X0308609Y0198536D01*
X0308609Y0195733D01*
X0307909Y0195733D02*
X0309310Y0195733D01*
X0306241Y0195733D02*
X0304139Y0195733D01*
X0303438Y0196434D01*
X0304139Y0197135D01*
X0305540Y0197135D01*
X0306241Y0197835D01*
X0305540Y0198536D01*
X0303438Y0198536D01*
X0308609Y0199937D02*
X0308609Y0200638D01*
X0313914Y0199937D02*
X0313914Y0197135D01*
X0313914Y0189937D02*
X0312513Y0189937D01*
X0313213Y0189937D02*
X0313213Y0185733D01*
X0312513Y0185733D02*
X0313914Y0185733D01*
X0315715Y0187835D02*
X0318518Y0187835D01*
X0320319Y0187135D02*
X0320319Y0186434D01*
X0321020Y0185733D01*
X0322421Y0185733D01*
X0323122Y0186434D01*
X0324923Y0186434D02*
X0324923Y0187135D01*
X0325624Y0187835D01*
X0327725Y0187835D01*
X0327725Y0186434D01*
X0327025Y0185733D01*
X0325624Y0185733D01*
X0324923Y0186434D01*
X0326324Y0189236D02*
X0327725Y0187835D01*
X0329527Y0188536D02*
X0329527Y0189236D01*
X0330228Y0189937D01*
X0331629Y0189937D01*
X0332329Y0189236D01*
X0334131Y0189236D02*
X0336933Y0186434D01*
X0336933Y0185733D01*
X0336933Y0189937D02*
X0334131Y0189937D01*
X0334131Y0189236D01*
X0332329Y0185733D02*
X0329527Y0188536D01*
X0329527Y0185733D02*
X0332329Y0185733D01*
X0326324Y0189236D02*
X0324923Y0189937D01*
X0323122Y0189236D02*
X0322421Y0189937D01*
X0321020Y0189937D01*
X0320319Y0189236D01*
X0320319Y0188536D01*
X0321020Y0187835D01*
X0320319Y0187135D01*
X0321020Y0187835D02*
X0321720Y0187835D01*
X0310844Y0187135D02*
X0308743Y0187135D01*
X0308042Y0187835D01*
X0308042Y0189236D01*
X0308743Y0189937D01*
X0310844Y0189937D01*
X0310844Y0185733D01*
X0309443Y0187135D02*
X0308042Y0185733D01*
X0322096Y0171736D02*
X0322797Y0172437D01*
X0324198Y0172437D01*
X0324899Y0171736D01*
X0324899Y0168934D01*
X0324198Y0168233D01*
X0322797Y0168233D01*
X0322096Y0168934D01*
X0326700Y0168233D02*
X0329503Y0168233D01*
X0326700Y0171036D01*
X0326700Y0171736D01*
X0327401Y0172437D01*
X0328802Y0172437D01*
X0329503Y0171736D01*
X0331171Y0172437D02*
X0332572Y0172437D01*
X0331871Y0172437D02*
X0331871Y0168233D01*
X0331171Y0168233D02*
X0332572Y0168233D01*
X0329333Y0128833D02*
X0327833Y0127333D01*
X0335433Y0124733D02*
X0335433Y0122033D01*
X0324582Y0111138D02*
X0324582Y0110437D01*
X0324582Y0109036D02*
X0324582Y0106233D01*
X0325282Y0106233D02*
X0323881Y0106233D01*
X0322213Y0106934D02*
X0321513Y0107635D01*
X0319411Y0107635D01*
X0319411Y0108335D02*
X0319411Y0106233D01*
X0321513Y0106233D01*
X0322213Y0106934D01*
X0321513Y0109036D02*
X0320111Y0109036D01*
X0319411Y0108335D01*
X0317609Y0106233D02*
X0316208Y0106233D01*
X0316909Y0106233D02*
X0316909Y0110437D01*
X0317609Y0110437D01*
X0324582Y0109036D02*
X0325282Y0109036D01*
X0327017Y0109036D02*
X0327718Y0109036D01*
X0329119Y0107635D01*
X0329119Y0109036D02*
X0329119Y0106233D01*
X0330921Y0107635D02*
X0333723Y0107635D01*
X0333723Y0108335D02*
X0333022Y0109036D01*
X0331621Y0109036D01*
X0330921Y0108335D01*
X0330921Y0107635D01*
X0331621Y0106233D02*
X0333022Y0106233D01*
X0333723Y0106934D01*
X0333723Y0108335D01*
X0335524Y0107635D02*
X0335524Y0106934D01*
X0336225Y0106233D01*
X0337626Y0106233D01*
X0338327Y0106934D01*
X0337626Y0108335D02*
X0336225Y0108335D01*
X0335524Y0107635D01*
X0335524Y0109736D02*
X0336225Y0110437D01*
X0337626Y0110437D01*
X0338327Y0109736D01*
X0338327Y0109036D01*
X0337626Y0108335D01*
X0336933Y0097937D02*
X0334131Y0097937D01*
X0334131Y0097236D01*
X0336933Y0094434D01*
X0336933Y0093733D01*
X0332329Y0093733D02*
X0329527Y0096536D01*
X0329527Y0097236D01*
X0330228Y0097937D01*
X0331629Y0097937D01*
X0332329Y0097236D01*
X0332329Y0093733D02*
X0329527Y0093733D01*
X0327725Y0094434D02*
X0327025Y0093733D01*
X0325624Y0093733D01*
X0324923Y0094434D01*
X0324923Y0095135D01*
X0325624Y0095835D01*
X0327725Y0095835D01*
X0327725Y0094434D01*
X0327725Y0095835D02*
X0326324Y0097236D01*
X0324923Y0097937D01*
X0323122Y0097236D02*
X0322421Y0097937D01*
X0321020Y0097937D01*
X0320319Y0097236D01*
X0320319Y0096536D01*
X0323122Y0093733D01*
X0320319Y0093733D01*
X0318518Y0095835D02*
X0315715Y0095835D01*
X0313914Y0095135D02*
X0313914Y0097937D01*
X0313914Y0095135D02*
X0312513Y0093733D01*
X0311111Y0095135D01*
X0311111Y0097937D01*
X0309310Y0096536D02*
X0308609Y0096536D01*
X0308609Y0093733D01*
X0307909Y0093733D02*
X0309310Y0093733D01*
X0306241Y0093733D02*
X0304139Y0093733D01*
X0303438Y0094434D01*
X0304139Y0095135D01*
X0305540Y0095135D01*
X0306241Y0095835D01*
X0305540Y0096536D01*
X0303438Y0096536D01*
X0308609Y0097937D02*
X0308609Y0098638D01*
X0308743Y0087937D02*
X0308042Y0087236D01*
X0308042Y0085835D01*
X0308743Y0085135D01*
X0310844Y0085135D01*
X0309443Y0085135D02*
X0308042Y0083733D01*
X0310844Y0083733D02*
X0310844Y0087937D01*
X0308743Y0087937D01*
X0312513Y0087937D02*
X0313914Y0087937D01*
X0313213Y0087937D02*
X0313213Y0083733D01*
X0312513Y0083733D02*
X0313914Y0083733D01*
X0315715Y0085835D02*
X0318518Y0085835D01*
X0320319Y0085135D02*
X0320319Y0084434D01*
X0321020Y0083733D01*
X0322421Y0083733D01*
X0323122Y0084434D01*
X0324923Y0084434D02*
X0324923Y0085135D01*
X0325624Y0085835D01*
X0327725Y0085835D01*
X0327725Y0084434D01*
X0327025Y0083733D01*
X0325624Y0083733D01*
X0324923Y0084434D01*
X0326324Y0087236D02*
X0327725Y0085835D01*
X0329527Y0086536D02*
X0329527Y0087236D01*
X0330228Y0087937D01*
X0331629Y0087937D01*
X0332329Y0087236D01*
X0334131Y0087236D02*
X0336933Y0084434D01*
X0336933Y0083733D01*
X0336933Y0087937D02*
X0334131Y0087937D01*
X0334131Y0087236D01*
X0332329Y0083733D02*
X0329527Y0083733D01*
X0332329Y0083733D02*
X0329527Y0086536D01*
X0326324Y0087236D02*
X0324923Y0087937D01*
X0323122Y0087236D02*
X0322421Y0087937D01*
X0321020Y0087937D01*
X0320319Y0087236D01*
X0320319Y0086536D01*
X0321020Y0085835D01*
X0320319Y0085135D01*
X0321020Y0085835D02*
X0321720Y0085835D01*
X0322797Y0070437D02*
X0324198Y0070437D01*
X0324899Y0069736D01*
X0324899Y0066934D01*
X0324198Y0066233D01*
X0322797Y0066233D01*
X0322096Y0066934D01*
X0322096Y0069736D02*
X0322797Y0070437D01*
X0326700Y0069736D02*
X0327401Y0070437D01*
X0328802Y0070437D01*
X0329503Y0069736D01*
X0331171Y0070437D02*
X0332572Y0070437D01*
X0331871Y0070437D02*
X0331871Y0066233D01*
X0331171Y0066233D02*
X0332572Y0066233D01*
X0329503Y0066233D02*
X0326700Y0069036D01*
X0326700Y0069736D01*
X0326700Y0066233D02*
X0329503Y0066233D01*
X0318333Y0127333D02*
X0319833Y0128833D01*
X0115833Y0230833D02*
X0114333Y0229333D01*
D13*
X0098333Y0215333D02*
X0103333Y0210333D01*
X0110333Y0210333D01*
X0136333Y0210333D02*
X0143333Y0210333D01*
X0148333Y0215333D01*
X0143333Y0170333D02*
X0130333Y0170333D01*
X0143333Y0170333D02*
X0148333Y0165333D01*
X0115833Y0170333D02*
X0103333Y0170333D01*
X0098333Y0165333D01*
X0098333Y0113333D02*
X0103333Y0108333D01*
X0110333Y0108333D01*
X0136333Y0108333D02*
X0143333Y0108333D01*
X0148333Y0113333D01*
X0143333Y0068333D02*
X0130333Y0068333D01*
X0143333Y0068333D02*
X0148333Y0063333D01*
X0115833Y0068333D02*
X0103333Y0068333D01*
X0098333Y0063333D01*
X0200333Y0063333D02*
X0205333Y0068333D01*
X0217833Y0068333D01*
X0232333Y0068333D02*
X0245333Y0068333D01*
X0250333Y0063333D01*
X0245333Y0108333D02*
X0238333Y0108333D01*
X0245333Y0108333D02*
X0250333Y0113333D01*
X0212333Y0108333D02*
X0205333Y0108333D01*
X0200333Y0113333D01*
X0200333Y0165333D02*
X0205333Y0170333D01*
X0217833Y0170333D01*
X0232333Y0170333D02*
X0245333Y0170333D01*
X0250333Y0165333D01*
X0245333Y0210333D02*
X0238333Y0210333D01*
X0245333Y0210333D02*
X0250333Y0215333D01*
X0212333Y0210333D02*
X0205333Y0210333D01*
X0200333Y0215333D01*
X0200333Y0267333D02*
X0205333Y0272333D01*
X0217833Y0272333D01*
X0232333Y0272333D02*
X0245333Y0272333D01*
X0250333Y0267333D01*
X0245333Y0312333D02*
X0238333Y0312333D01*
X0245333Y0312333D02*
X0250333Y0317333D01*
X0212333Y0312333D02*
X0205333Y0312333D01*
X0200333Y0317333D01*
X0148333Y0317333D02*
X0143333Y0312333D01*
X0136333Y0312333D01*
X0110333Y0312333D02*
X0103333Y0312333D01*
X0098333Y0317333D01*
X0103333Y0272333D02*
X0098333Y0267333D01*
X0103333Y0272333D02*
X0115833Y0272333D01*
X0130333Y0272333D02*
X0143333Y0272333D01*
X0148333Y0267333D01*
X0302333Y0267333D02*
X0307333Y0272333D01*
X0319833Y0272333D01*
X0334333Y0272333D02*
X0347333Y0272333D01*
X0352333Y0267333D01*
X0347333Y0312333D02*
X0340333Y0312333D01*
X0347333Y0312333D02*
X0352333Y0317333D01*
X0314333Y0312333D02*
X0307333Y0312333D01*
X0302333Y0317333D01*
X0302333Y0215333D02*
X0307333Y0210333D01*
X0314333Y0210333D01*
X0340333Y0210333D02*
X0347333Y0210333D01*
X0352333Y0215333D01*
X0347333Y0170333D02*
X0334333Y0170333D01*
X0319833Y0170333D02*
X0307333Y0170333D01*
X0302333Y0165333D01*
X0347333Y0170333D02*
X0352333Y0165333D01*
X0352333Y0113333D02*
X0347333Y0108333D01*
X0340333Y0108333D01*
X0314333Y0108333D02*
X0307333Y0108333D01*
X0302333Y0113333D01*
X0307333Y0068333D02*
X0302333Y0063333D01*
X0307333Y0068333D02*
X0319833Y0068333D01*
X0334333Y0068333D02*
X0347333Y0068333D01*
X0352333Y0063333D01*
D14*
X0343333Y0085833D03*
X0343333Y0095833D03*
X0343333Y0187833D03*
X0343333Y0197833D03*
X0343333Y0289833D03*
X0343333Y0299833D03*
X0241333Y0299833D03*
X0241333Y0289833D03*
X0241333Y0197833D03*
X0241333Y0187833D03*
X0241333Y0095833D03*
X0241333Y0085833D03*
X0139333Y0085833D03*
X0139333Y0095833D03*
X0139333Y0187833D03*
X0139333Y0197833D03*
X0139333Y0289833D03*
X0139333Y0299833D03*
D15*
X0179472Y0316614D02*
X0179472Y0318053D01*
X0181377Y0318247D01*
X0181582Y0318887D01*
X0181890Y0319485D01*
X0180680Y0320969D01*
X0181698Y0321987D01*
X0183182Y0320777D01*
X0183780Y0321085D01*
X0184420Y0321290D01*
X0184614Y0323195D01*
X0186053Y0323195D01*
X0186247Y0321290D01*
X0186887Y0321085D01*
X0187485Y0320777D01*
X0188969Y0321987D01*
X0189987Y0320969D01*
X0188777Y0319485D01*
X0189085Y0318887D01*
X0189290Y0318247D01*
X0191195Y0318053D01*
X0191195Y0316614D01*
X0189290Y0316420D01*
X0189085Y0315780D01*
X0188777Y0315182D01*
X0189987Y0313698D01*
X0188969Y0312680D01*
X0187485Y0313890D01*
X0186887Y0313582D01*
X0186040Y0315628D01*
X0186418Y0315840D01*
X0186737Y0316135D01*
X0186978Y0316495D01*
X0187128Y0316902D01*
X0187179Y0317333D01*
X0187126Y0317772D01*
X0186970Y0318185D01*
X0186721Y0318550D01*
X0186392Y0318845D01*
X0186002Y0319053D01*
X0185574Y0319163D01*
X0185133Y0319167D01*
X0184702Y0319067D01*
X0184308Y0318867D01*
X0183973Y0318580D01*
X0183716Y0318221D01*
X0183551Y0317811D01*
X0183489Y0317373D01*
X0183532Y0316934D01*
X0183678Y0316517D01*
X0183920Y0316147D01*
X0184242Y0315845D01*
X0184627Y0315628D01*
X0183779Y0313582D01*
X0183182Y0313890D01*
X0181698Y0312680D01*
X0180680Y0313698D01*
X0181890Y0315182D01*
X0181582Y0315780D01*
X0181377Y0316420D01*
X0179472Y0316614D01*
X0179472Y0316960D02*
X0183529Y0316960D01*
X0183514Y0317549D02*
X0179472Y0317549D01*
X0180308Y0318138D02*
X0183683Y0318138D01*
X0184145Y0318727D02*
X0181531Y0318727D01*
X0181803Y0319316D02*
X0188864Y0319316D01*
X0189119Y0319905D02*
X0181547Y0319905D01*
X0181067Y0320494D02*
X0189600Y0320494D01*
X0189873Y0321083D02*
X0187861Y0321083D01*
X0188583Y0321672D02*
X0189284Y0321672D01*
X0186890Y0321083D02*
X0183777Y0321083D01*
X0184459Y0321672D02*
X0186208Y0321672D01*
X0186148Y0322261D02*
X0184519Y0322261D01*
X0184579Y0322851D02*
X0186088Y0322851D01*
X0182806Y0321083D02*
X0180794Y0321083D01*
X0181383Y0321672D02*
X0182083Y0321672D01*
X0186523Y0318727D02*
X0189136Y0318727D01*
X0190359Y0318138D02*
X0186988Y0318138D01*
X0187153Y0317549D02*
X0191195Y0317549D01*
X0191195Y0316960D02*
X0187135Y0316960D01*
X0186895Y0316371D02*
X0189274Y0316371D01*
X0189085Y0315782D02*
X0186314Y0315782D01*
X0186220Y0315193D02*
X0188782Y0315193D01*
X0189248Y0314604D02*
X0186464Y0314604D01*
X0186708Y0314015D02*
X0189728Y0314015D01*
X0189715Y0313426D02*
X0188055Y0313426D01*
X0188777Y0312836D02*
X0189126Y0312836D01*
X0184203Y0314604D02*
X0181419Y0314604D01*
X0181884Y0315193D02*
X0184447Y0315193D01*
X0184354Y0315782D02*
X0181581Y0315782D01*
X0181393Y0316371D02*
X0183774Y0316371D01*
X0183959Y0314015D02*
X0180938Y0314015D01*
X0180952Y0313426D02*
X0182612Y0313426D01*
X0181890Y0312836D02*
X0181541Y0312836D01*
X0089195Y0316614D02*
X0087290Y0316420D01*
X0087085Y0315780D01*
X0086777Y0315182D01*
X0087987Y0313698D01*
X0086969Y0312680D01*
X0085485Y0313890D01*
X0084887Y0313582D01*
X0084040Y0315628D01*
X0084418Y0315840D01*
X0084737Y0316135D01*
X0084978Y0316495D01*
X0085128Y0316902D01*
X0085179Y0317333D01*
X0085126Y0317772D01*
X0084970Y0318185D01*
X0084721Y0318550D01*
X0084392Y0318845D01*
X0084002Y0319053D01*
X0083574Y0319163D01*
X0083133Y0319167D01*
X0082702Y0319067D01*
X0082308Y0318867D01*
X0081973Y0318580D01*
X0081716Y0318221D01*
X0081551Y0317811D01*
X0081489Y0317373D01*
X0081532Y0316934D01*
X0081678Y0316517D01*
X0081920Y0316147D01*
X0082242Y0315845D01*
X0082627Y0315628D01*
X0081779Y0313582D01*
X0081182Y0313890D01*
X0079698Y0312680D01*
X0078680Y0313698D01*
X0079890Y0315182D01*
X0079582Y0315780D01*
X0079377Y0316420D01*
X0077472Y0316614D01*
X0077472Y0318053D01*
X0079377Y0318247D01*
X0079582Y0318887D01*
X0079890Y0319485D01*
X0078680Y0320969D01*
X0079698Y0321987D01*
X0081182Y0320777D01*
X0081780Y0321085D01*
X0082420Y0321290D01*
X0082614Y0323195D01*
X0084053Y0323195D01*
X0084247Y0321290D01*
X0084887Y0321085D01*
X0085485Y0320777D01*
X0086969Y0321987D01*
X0087987Y0320969D01*
X0086777Y0319485D01*
X0087085Y0318887D01*
X0087290Y0318247D01*
X0089195Y0318053D01*
X0089195Y0316614D01*
X0089195Y0316960D02*
X0085135Y0316960D01*
X0085153Y0317549D02*
X0089195Y0317549D01*
X0088359Y0318138D02*
X0084988Y0318138D01*
X0084523Y0318727D02*
X0087136Y0318727D01*
X0086864Y0319316D02*
X0079803Y0319316D01*
X0079547Y0319905D02*
X0087119Y0319905D01*
X0087600Y0320494D02*
X0079067Y0320494D01*
X0078794Y0321083D02*
X0080806Y0321083D01*
X0080083Y0321672D02*
X0079383Y0321672D01*
X0081777Y0321083D02*
X0084890Y0321083D01*
X0084208Y0321672D02*
X0082459Y0321672D01*
X0082519Y0322261D02*
X0084148Y0322261D01*
X0084088Y0322851D02*
X0082579Y0322851D01*
X0085861Y0321083D02*
X0087873Y0321083D01*
X0087284Y0321672D02*
X0086583Y0321672D01*
X0082145Y0318727D02*
X0079531Y0318727D01*
X0078308Y0318138D02*
X0081683Y0318138D01*
X0081514Y0317549D02*
X0077472Y0317549D01*
X0077472Y0316960D02*
X0081529Y0316960D01*
X0081774Y0316371D02*
X0079393Y0316371D01*
X0079581Y0315782D02*
X0082354Y0315782D01*
X0082447Y0315193D02*
X0079884Y0315193D01*
X0079419Y0314604D02*
X0082203Y0314604D01*
X0081959Y0314015D02*
X0078938Y0314015D01*
X0078952Y0313426D02*
X0080612Y0313426D01*
X0079890Y0312836D02*
X0079541Y0312836D01*
X0084464Y0314604D02*
X0087248Y0314604D01*
X0086782Y0315193D02*
X0084220Y0315193D01*
X0084314Y0315782D02*
X0087085Y0315782D01*
X0087274Y0316371D02*
X0084895Y0316371D01*
X0084708Y0314015D02*
X0087728Y0314015D01*
X0087715Y0313426D02*
X0086055Y0313426D01*
X0086777Y0312836D02*
X0087126Y0312836D01*
X0084053Y0221195D02*
X0084247Y0219290D01*
X0084887Y0219085D01*
X0085485Y0218777D01*
X0086969Y0219987D01*
X0087987Y0218969D01*
X0086777Y0217485D01*
X0087085Y0216887D01*
X0087290Y0216247D01*
X0089195Y0216053D01*
X0089195Y0214614D01*
X0087290Y0214420D01*
X0087085Y0213780D01*
X0086777Y0213182D01*
X0087987Y0211698D01*
X0086969Y0210680D01*
X0085485Y0211890D01*
X0084887Y0211582D01*
X0084040Y0213628D01*
X0084418Y0213840D01*
X0084737Y0214135D01*
X0084978Y0214495D01*
X0085128Y0214902D01*
X0085179Y0215333D01*
X0085126Y0215772D01*
X0084970Y0216185D01*
X0084721Y0216550D01*
X0084392Y0216845D01*
X0084002Y0217053D01*
X0083574Y0217163D01*
X0083133Y0217167D01*
X0082702Y0217067D01*
X0082308Y0216867D01*
X0081973Y0216580D01*
X0081716Y0216221D01*
X0081551Y0215811D01*
X0081489Y0215373D01*
X0081532Y0214934D01*
X0081678Y0214517D01*
X0081920Y0214147D01*
X0082242Y0213845D01*
X0082627Y0213628D01*
X0081779Y0211582D01*
X0081182Y0211890D01*
X0079698Y0210680D01*
X0078680Y0211698D01*
X0079890Y0213182D01*
X0079582Y0213780D01*
X0079377Y0214420D01*
X0077472Y0214614D01*
X0077472Y0216053D01*
X0079377Y0216247D01*
X0079582Y0216887D01*
X0079890Y0217485D01*
X0078680Y0218969D01*
X0079698Y0219987D01*
X0081182Y0218777D01*
X0081780Y0219085D01*
X0082420Y0219290D01*
X0082614Y0221195D01*
X0084053Y0221195D01*
X0084079Y0220943D02*
X0082588Y0220943D01*
X0082528Y0220354D02*
X0084139Y0220354D01*
X0084198Y0219765D02*
X0082468Y0219765D01*
X0082064Y0219176D02*
X0084603Y0219176D01*
X0085974Y0219176D02*
X0087781Y0219176D01*
X0087675Y0218586D02*
X0078992Y0218586D01*
X0078886Y0219176D02*
X0080693Y0219176D01*
X0079970Y0219765D02*
X0079475Y0219765D01*
X0079472Y0217997D02*
X0087195Y0217997D01*
X0086816Y0217408D02*
X0079851Y0217408D01*
X0079560Y0216819D02*
X0082252Y0216819D01*
X0081723Y0216230D02*
X0079215Y0216230D01*
X0078953Y0214463D02*
X0081714Y0214463D01*
X0081520Y0215052D02*
X0077472Y0215052D01*
X0077472Y0215641D02*
X0081527Y0215641D01*
X0082211Y0213874D02*
X0079552Y0213874D01*
X0079837Y0213285D02*
X0082485Y0213285D01*
X0082241Y0212696D02*
X0079494Y0212696D01*
X0079013Y0212107D02*
X0081997Y0212107D01*
X0080725Y0211518D02*
X0078860Y0211518D01*
X0079449Y0210929D02*
X0080003Y0210929D01*
X0084426Y0212696D02*
X0087173Y0212696D01*
X0086830Y0213285D02*
X0084182Y0213285D01*
X0084455Y0213874D02*
X0087115Y0213874D01*
X0087713Y0214463D02*
X0084956Y0214463D01*
X0085146Y0215052D02*
X0089195Y0215052D01*
X0089195Y0215641D02*
X0085142Y0215641D01*
X0084940Y0216230D02*
X0087452Y0216230D01*
X0087106Y0216819D02*
X0084420Y0216819D01*
X0086697Y0219765D02*
X0087191Y0219765D01*
X0087653Y0212107D02*
X0084670Y0212107D01*
X0085942Y0211518D02*
X0087807Y0211518D01*
X0087218Y0210929D02*
X0086664Y0210929D01*
X0179472Y0214614D02*
X0181377Y0214420D01*
X0181582Y0213780D01*
X0181890Y0213182D01*
X0180680Y0211698D01*
X0181698Y0210680D01*
X0183182Y0211890D01*
X0183779Y0211582D01*
X0184627Y0213628D01*
X0184242Y0213845D01*
X0183920Y0214147D01*
X0183678Y0214517D01*
X0183532Y0214934D01*
X0183489Y0215373D01*
X0183551Y0215811D01*
X0183716Y0216221D01*
X0183973Y0216580D01*
X0184308Y0216867D01*
X0184702Y0217067D01*
X0185133Y0217167D01*
X0185574Y0217163D01*
X0186002Y0217053D01*
X0186392Y0216845D01*
X0186721Y0216550D01*
X0186970Y0216185D01*
X0187126Y0215772D01*
X0187179Y0215333D01*
X0187128Y0214902D01*
X0186978Y0214495D01*
X0186737Y0214135D01*
X0186418Y0213840D01*
X0186040Y0213628D01*
X0186887Y0211582D01*
X0187485Y0211890D01*
X0188969Y0210680D01*
X0189987Y0211698D01*
X0188777Y0213182D01*
X0189085Y0213780D01*
X0189290Y0214420D01*
X0191195Y0214614D01*
X0191195Y0216053D01*
X0189290Y0216247D01*
X0189085Y0216887D01*
X0188777Y0217485D01*
X0189987Y0218969D01*
X0188969Y0219987D01*
X0187485Y0218777D01*
X0186887Y0219085D01*
X0186247Y0219290D01*
X0186053Y0221195D01*
X0184614Y0221195D01*
X0184420Y0219290D01*
X0183780Y0219085D01*
X0183182Y0218777D01*
X0181698Y0219987D01*
X0180680Y0218969D01*
X0181890Y0217485D01*
X0181582Y0216887D01*
X0181377Y0216247D01*
X0179472Y0216053D01*
X0179472Y0214614D01*
X0179472Y0215052D02*
X0183520Y0215052D01*
X0183527Y0215641D02*
X0179472Y0215641D01*
X0181215Y0216230D02*
X0183723Y0216230D01*
X0184252Y0216819D02*
X0181560Y0216819D01*
X0181851Y0217408D02*
X0188816Y0217408D01*
X0189106Y0216819D02*
X0186420Y0216819D01*
X0186940Y0216230D02*
X0189452Y0216230D01*
X0189195Y0217997D02*
X0181472Y0217997D01*
X0180992Y0218586D02*
X0189675Y0218586D01*
X0189781Y0219176D02*
X0187974Y0219176D01*
X0188697Y0219765D02*
X0189191Y0219765D01*
X0186603Y0219176D02*
X0184064Y0219176D01*
X0184468Y0219765D02*
X0186198Y0219765D01*
X0186139Y0220354D02*
X0184528Y0220354D01*
X0184588Y0220943D02*
X0186079Y0220943D01*
X0182693Y0219176D02*
X0180886Y0219176D01*
X0181475Y0219765D02*
X0181970Y0219765D01*
X0180953Y0214463D02*
X0183714Y0214463D01*
X0184211Y0213874D02*
X0181552Y0213874D01*
X0181837Y0213285D02*
X0184485Y0213285D01*
X0184241Y0212696D02*
X0181494Y0212696D01*
X0181013Y0212107D02*
X0183997Y0212107D01*
X0182725Y0211518D02*
X0180860Y0211518D01*
X0181449Y0210929D02*
X0182003Y0210929D01*
X0186426Y0212696D02*
X0189173Y0212696D01*
X0188830Y0213285D02*
X0186182Y0213285D01*
X0186455Y0213874D02*
X0189115Y0213874D01*
X0189713Y0214463D02*
X0186956Y0214463D01*
X0187146Y0215052D02*
X0191195Y0215052D01*
X0191195Y0215641D02*
X0187142Y0215641D01*
X0186670Y0212107D02*
X0189653Y0212107D01*
X0189807Y0211518D02*
X0187942Y0211518D01*
X0188664Y0210929D02*
X0189218Y0210929D01*
X0281472Y0214614D02*
X0281472Y0216053D01*
X0283377Y0216247D01*
X0283582Y0216887D01*
X0283890Y0217485D01*
X0282680Y0218969D01*
X0283698Y0219987D01*
X0285182Y0218777D01*
X0285780Y0219085D01*
X0286420Y0219290D01*
X0286614Y0221195D01*
X0288053Y0221195D01*
X0288247Y0219290D01*
X0288887Y0219085D01*
X0289485Y0218777D01*
X0290969Y0219987D01*
X0291987Y0218969D01*
X0290777Y0217485D01*
X0291085Y0216887D01*
X0291290Y0216247D01*
X0293195Y0216053D01*
X0293195Y0214614D01*
X0291290Y0214420D01*
X0291085Y0213780D01*
X0290777Y0213182D01*
X0291987Y0211698D01*
X0290969Y0210680D01*
X0289485Y0211890D01*
X0288887Y0211582D01*
X0288040Y0213628D01*
X0288418Y0213840D01*
X0288737Y0214135D01*
X0288978Y0214495D01*
X0289128Y0214902D01*
X0289179Y0215333D01*
X0289126Y0215772D01*
X0288970Y0216185D01*
X0288721Y0216550D01*
X0288392Y0216845D01*
X0288002Y0217053D01*
X0287574Y0217163D01*
X0287133Y0217167D01*
X0286702Y0217067D01*
X0286308Y0216867D01*
X0285973Y0216580D01*
X0285716Y0216221D01*
X0285551Y0215811D01*
X0285489Y0215373D01*
X0285532Y0214934D01*
X0285678Y0214517D01*
X0285920Y0214147D01*
X0286242Y0213845D01*
X0286627Y0213628D01*
X0285779Y0211582D01*
X0285182Y0211890D01*
X0283698Y0210680D01*
X0282680Y0211698D01*
X0283890Y0213182D01*
X0283582Y0213780D01*
X0283377Y0214420D01*
X0281472Y0214614D01*
X0281472Y0215052D02*
X0285520Y0215052D01*
X0285527Y0215641D02*
X0281472Y0215641D01*
X0283215Y0216230D02*
X0285723Y0216230D01*
X0286252Y0216819D02*
X0283560Y0216819D01*
X0283851Y0217408D02*
X0290816Y0217408D01*
X0291106Y0216819D02*
X0288420Y0216819D01*
X0288940Y0216230D02*
X0291452Y0216230D01*
X0291195Y0217997D02*
X0283472Y0217997D01*
X0282992Y0218586D02*
X0291675Y0218586D01*
X0291781Y0219176D02*
X0289974Y0219176D01*
X0290697Y0219765D02*
X0291191Y0219765D01*
X0288603Y0219176D02*
X0286064Y0219176D01*
X0286468Y0219765D02*
X0288198Y0219765D01*
X0288139Y0220354D02*
X0286528Y0220354D01*
X0286588Y0220943D02*
X0288079Y0220943D01*
X0284693Y0219176D02*
X0282886Y0219176D01*
X0283475Y0219765D02*
X0283970Y0219765D01*
X0282953Y0214463D02*
X0285714Y0214463D01*
X0286211Y0213874D02*
X0283552Y0213874D01*
X0283837Y0213285D02*
X0286485Y0213285D01*
X0286241Y0212696D02*
X0283494Y0212696D01*
X0283013Y0212107D02*
X0285997Y0212107D01*
X0284725Y0211518D02*
X0282860Y0211518D01*
X0283449Y0210929D02*
X0284003Y0210929D01*
X0288426Y0212696D02*
X0291173Y0212696D01*
X0290830Y0213285D02*
X0288182Y0213285D01*
X0288455Y0213874D02*
X0291115Y0213874D01*
X0291713Y0214463D02*
X0288956Y0214463D01*
X0289146Y0215052D02*
X0293195Y0215052D01*
X0293195Y0215641D02*
X0289142Y0215641D01*
X0288670Y0212107D02*
X0291653Y0212107D01*
X0291807Y0211518D02*
X0289942Y0211518D01*
X0290664Y0210929D02*
X0291218Y0210929D01*
X0288053Y0119195D02*
X0286614Y0119195D01*
X0286420Y0117290D01*
X0285780Y0117085D01*
X0285182Y0116777D01*
X0283698Y0117987D01*
X0282680Y0116969D01*
X0283890Y0115485D01*
X0283582Y0114887D01*
X0283377Y0114247D01*
X0281472Y0114053D01*
X0281472Y0112614D01*
X0283377Y0112420D01*
X0283582Y0111780D01*
X0283890Y0111182D01*
X0282680Y0109698D01*
X0283698Y0108680D01*
X0285182Y0109890D01*
X0285779Y0109582D01*
X0286627Y0111628D01*
X0286242Y0111845D01*
X0285920Y0112147D01*
X0285678Y0112517D01*
X0285532Y0112934D01*
X0285489Y0113373D01*
X0285551Y0113811D01*
X0285716Y0114221D01*
X0285973Y0114580D01*
X0286308Y0114867D01*
X0286702Y0115067D01*
X0287133Y0115167D01*
X0287574Y0115163D01*
X0288002Y0115053D01*
X0288392Y0114845D01*
X0288721Y0114550D01*
X0288970Y0114185D01*
X0289126Y0113772D01*
X0289179Y0113333D01*
X0289128Y0112902D01*
X0288978Y0112495D01*
X0288737Y0112135D01*
X0288418Y0111840D01*
X0288040Y0111628D01*
X0288887Y0109582D01*
X0289485Y0109890D01*
X0290969Y0108680D01*
X0291987Y0109698D01*
X0290777Y0111182D01*
X0291085Y0111780D01*
X0291290Y0112420D01*
X0293195Y0112614D01*
X0293195Y0114053D01*
X0291290Y0114247D01*
X0291085Y0114887D01*
X0290777Y0115485D01*
X0291987Y0116969D01*
X0290969Y0117987D01*
X0289485Y0116777D01*
X0288887Y0117085D01*
X0288247Y0117290D01*
X0288053Y0119195D01*
X0288069Y0119035D02*
X0286597Y0119035D01*
X0286537Y0118446D02*
X0288129Y0118446D01*
X0288189Y0117857D02*
X0286478Y0117857D01*
X0286351Y0117268D02*
X0288315Y0117268D01*
X0290087Y0117268D02*
X0291688Y0117268D01*
X0291750Y0116679D02*
X0282917Y0116679D01*
X0282978Y0117268D02*
X0284579Y0117268D01*
X0283857Y0117857D02*
X0283567Y0117857D01*
X0283397Y0116090D02*
X0291270Y0116090D01*
X0290789Y0115501D02*
X0283877Y0115501D01*
X0283595Y0114911D02*
X0286396Y0114911D01*
X0285789Y0114322D02*
X0283401Y0114322D01*
X0281472Y0113733D02*
X0285540Y0113733D01*
X0285511Y0113144D02*
X0281472Y0113144D01*
X0282047Y0112555D02*
X0285665Y0112555D01*
X0286113Y0111966D02*
X0283522Y0111966D01*
X0283789Y0111377D02*
X0286523Y0111377D01*
X0286279Y0110788D02*
X0283569Y0110788D01*
X0283089Y0110199D02*
X0286035Y0110199D01*
X0285791Y0109610D02*
X0285726Y0109610D01*
X0284838Y0109610D02*
X0282767Y0109610D01*
X0283356Y0109021D02*
X0284116Y0109021D01*
X0288388Y0110788D02*
X0291098Y0110788D01*
X0290877Y0111377D02*
X0288144Y0111377D01*
X0288554Y0111966D02*
X0291144Y0111966D01*
X0292620Y0112555D02*
X0289000Y0112555D01*
X0289157Y0113144D02*
X0293195Y0113144D01*
X0293195Y0113733D02*
X0289131Y0113733D01*
X0288877Y0114322D02*
X0291265Y0114322D01*
X0291072Y0114911D02*
X0288267Y0114911D01*
X0290810Y0117857D02*
X0291099Y0117857D01*
X0291578Y0110199D02*
X0288632Y0110199D01*
X0288876Y0109610D02*
X0288941Y0109610D01*
X0289828Y0109610D02*
X0291899Y0109610D01*
X0291310Y0109021D02*
X0290551Y0109021D01*
X0191195Y0112614D02*
X0189290Y0112420D01*
X0189085Y0111780D01*
X0188777Y0111182D01*
X0189987Y0109698D01*
X0188969Y0108680D01*
X0187485Y0109890D01*
X0186887Y0109582D01*
X0186040Y0111628D01*
X0186418Y0111840D01*
X0186737Y0112135D01*
X0186978Y0112495D01*
X0187128Y0112902D01*
X0187179Y0113333D01*
X0187126Y0113772D01*
X0186970Y0114185D01*
X0186721Y0114550D01*
X0186392Y0114845D01*
X0186002Y0115053D01*
X0185574Y0115163D01*
X0185133Y0115167D01*
X0184702Y0115067D01*
X0184308Y0114867D01*
X0183973Y0114580D01*
X0183716Y0114221D01*
X0183551Y0113811D01*
X0183489Y0113373D01*
X0183532Y0112934D01*
X0183678Y0112517D01*
X0183920Y0112147D01*
X0184242Y0111845D01*
X0184627Y0111628D01*
X0183779Y0109582D01*
X0183182Y0109890D01*
X0181698Y0108680D01*
X0180680Y0109698D01*
X0181890Y0111182D01*
X0181582Y0111780D01*
X0181377Y0112420D01*
X0179472Y0112614D01*
X0179472Y0114053D01*
X0181377Y0114247D01*
X0181582Y0114887D01*
X0181890Y0115485D01*
X0180680Y0116969D01*
X0181698Y0117987D01*
X0183182Y0116777D01*
X0183780Y0117085D01*
X0184420Y0117290D01*
X0184614Y0119195D01*
X0186053Y0119195D01*
X0186247Y0117290D01*
X0186887Y0117085D01*
X0187485Y0116777D01*
X0188969Y0117987D01*
X0189987Y0116969D01*
X0188777Y0115485D01*
X0189085Y0114887D01*
X0189290Y0114247D01*
X0191195Y0114053D01*
X0191195Y0112614D01*
X0191195Y0113144D02*
X0187157Y0113144D01*
X0187131Y0113733D02*
X0191195Y0113733D01*
X0190620Y0112555D02*
X0187000Y0112555D01*
X0186554Y0111966D02*
X0189144Y0111966D01*
X0188877Y0111377D02*
X0186144Y0111377D01*
X0186388Y0110788D02*
X0189098Y0110788D01*
X0189578Y0110199D02*
X0186632Y0110199D01*
X0186876Y0109610D02*
X0186941Y0109610D01*
X0187828Y0109610D02*
X0189899Y0109610D01*
X0189310Y0109021D02*
X0188551Y0109021D01*
X0184279Y0110788D02*
X0181569Y0110788D01*
X0181789Y0111377D02*
X0184523Y0111377D01*
X0184113Y0111966D02*
X0181522Y0111966D01*
X0180047Y0112555D02*
X0183665Y0112555D01*
X0183511Y0113144D02*
X0179472Y0113144D01*
X0179472Y0113733D02*
X0183540Y0113733D01*
X0183789Y0114322D02*
X0181401Y0114322D01*
X0181595Y0114911D02*
X0184396Y0114911D01*
X0186267Y0114911D02*
X0189072Y0114911D01*
X0189265Y0114322D02*
X0186877Y0114322D01*
X0188789Y0115501D02*
X0181877Y0115501D01*
X0181397Y0116090D02*
X0189270Y0116090D01*
X0189750Y0116679D02*
X0180917Y0116679D01*
X0180978Y0117268D02*
X0182579Y0117268D01*
X0181857Y0117857D02*
X0181567Y0117857D01*
X0184351Y0117268D02*
X0186315Y0117268D01*
X0186189Y0117857D02*
X0184478Y0117857D01*
X0184537Y0118446D02*
X0186129Y0118446D01*
X0186069Y0119035D02*
X0184597Y0119035D01*
X0188087Y0117268D02*
X0189688Y0117268D01*
X0189099Y0117857D02*
X0188810Y0117857D01*
X0184035Y0110199D02*
X0181089Y0110199D01*
X0180767Y0109610D02*
X0182838Y0109610D01*
X0183726Y0109610D02*
X0183791Y0109610D01*
X0182116Y0109021D02*
X0181356Y0109021D01*
X0089195Y0112614D02*
X0087290Y0112420D01*
X0087085Y0111780D01*
X0086777Y0111182D01*
X0087987Y0109698D01*
X0086969Y0108680D01*
X0085485Y0109890D01*
X0084887Y0109582D01*
X0084040Y0111628D01*
X0084418Y0111840D01*
X0084737Y0112135D01*
X0084978Y0112495D01*
X0085128Y0112902D01*
X0085179Y0113333D01*
X0085126Y0113772D01*
X0084970Y0114185D01*
X0084721Y0114550D01*
X0084392Y0114845D01*
X0084002Y0115053D01*
X0083574Y0115163D01*
X0083133Y0115167D01*
X0082702Y0115067D01*
X0082308Y0114867D01*
X0081973Y0114580D01*
X0081716Y0114221D01*
X0081551Y0113811D01*
X0081489Y0113373D01*
X0081532Y0112934D01*
X0081678Y0112517D01*
X0081920Y0112147D01*
X0082242Y0111845D01*
X0082627Y0111628D01*
X0081779Y0109582D01*
X0081182Y0109890D01*
X0079698Y0108680D01*
X0078680Y0109698D01*
X0079890Y0111182D01*
X0079582Y0111780D01*
X0079377Y0112420D01*
X0077472Y0112614D01*
X0077472Y0114053D01*
X0079377Y0114247D01*
X0079582Y0114887D01*
X0079890Y0115485D01*
X0078680Y0116969D01*
X0079698Y0117987D01*
X0081182Y0116777D01*
X0081780Y0117085D01*
X0082420Y0117290D01*
X0082614Y0119195D01*
X0084053Y0119195D01*
X0084247Y0117290D01*
X0084887Y0117085D01*
X0085485Y0116777D01*
X0086969Y0117987D01*
X0087987Y0116969D01*
X0086777Y0115485D01*
X0087085Y0114887D01*
X0087290Y0114247D01*
X0089195Y0114053D01*
X0089195Y0112614D01*
X0089195Y0113144D02*
X0085157Y0113144D01*
X0085131Y0113733D02*
X0089195Y0113733D01*
X0088620Y0112555D02*
X0085000Y0112555D01*
X0084554Y0111966D02*
X0087144Y0111966D01*
X0086877Y0111377D02*
X0084144Y0111377D01*
X0084388Y0110788D02*
X0087098Y0110788D01*
X0087578Y0110199D02*
X0084632Y0110199D01*
X0084876Y0109610D02*
X0084941Y0109610D01*
X0085828Y0109610D02*
X0087899Y0109610D01*
X0087310Y0109021D02*
X0086551Y0109021D01*
X0082279Y0110788D02*
X0079569Y0110788D01*
X0079789Y0111377D02*
X0082523Y0111377D01*
X0082113Y0111966D02*
X0079522Y0111966D01*
X0078047Y0112555D02*
X0081665Y0112555D01*
X0081511Y0113144D02*
X0077472Y0113144D01*
X0077472Y0113733D02*
X0081540Y0113733D01*
X0081789Y0114322D02*
X0079401Y0114322D01*
X0079595Y0114911D02*
X0082396Y0114911D01*
X0084267Y0114911D02*
X0087072Y0114911D01*
X0087265Y0114322D02*
X0084877Y0114322D01*
X0086789Y0115501D02*
X0079877Y0115501D01*
X0079397Y0116090D02*
X0087270Y0116090D01*
X0087750Y0116679D02*
X0078917Y0116679D01*
X0078978Y0117268D02*
X0080579Y0117268D01*
X0079857Y0117857D02*
X0079567Y0117857D01*
X0082351Y0117268D02*
X0084315Y0117268D01*
X0084189Y0117857D02*
X0082478Y0117857D01*
X0082537Y0118446D02*
X0084129Y0118446D01*
X0084069Y0119035D02*
X0082597Y0119035D01*
X0086087Y0117268D02*
X0087688Y0117268D01*
X0087099Y0117857D02*
X0086810Y0117857D01*
X0082035Y0110199D02*
X0079089Y0110199D01*
X0078767Y0109610D02*
X0080838Y0109610D01*
X0081726Y0109610D02*
X0081791Y0109610D01*
X0080116Y0109021D02*
X0079356Y0109021D01*
X0283541Y0312836D02*
X0283890Y0312836D01*
X0283698Y0312680D02*
X0282680Y0313698D01*
X0283890Y0315182D01*
X0283582Y0315780D01*
X0283377Y0316420D01*
X0281472Y0316614D01*
X0281472Y0318053D01*
X0283377Y0318247D01*
X0283582Y0318887D01*
X0283890Y0319485D01*
X0282680Y0320969D01*
X0283698Y0321987D01*
X0285182Y0320777D01*
X0285780Y0321085D01*
X0286420Y0321290D01*
X0286614Y0323195D01*
X0288053Y0323195D01*
X0288247Y0321290D01*
X0288887Y0321085D01*
X0289485Y0320777D01*
X0290969Y0321987D01*
X0291987Y0320969D01*
X0290777Y0319485D01*
X0291085Y0318887D01*
X0291290Y0318247D01*
X0293195Y0318053D01*
X0293195Y0316614D01*
X0291290Y0316420D01*
X0291085Y0315780D01*
X0290777Y0315182D01*
X0291987Y0313698D01*
X0290969Y0312680D01*
X0289485Y0313890D01*
X0288887Y0313582D01*
X0288040Y0315628D01*
X0288418Y0315840D01*
X0288737Y0316135D01*
X0288978Y0316495D01*
X0289128Y0316902D01*
X0289179Y0317333D01*
X0289126Y0317772D01*
X0288970Y0318185D01*
X0288721Y0318550D01*
X0288392Y0318845D01*
X0288002Y0319053D01*
X0287574Y0319163D01*
X0287133Y0319167D01*
X0286702Y0319067D01*
X0286308Y0318867D01*
X0285973Y0318580D01*
X0285716Y0318221D01*
X0285551Y0317811D01*
X0285489Y0317373D01*
X0285532Y0316934D01*
X0285678Y0316517D01*
X0285920Y0316147D01*
X0286242Y0315845D01*
X0286627Y0315628D01*
X0285779Y0313582D01*
X0285182Y0313890D01*
X0283698Y0312680D01*
X0282952Y0313426D02*
X0284612Y0313426D01*
X0285959Y0314015D02*
X0282938Y0314015D01*
X0283419Y0314604D02*
X0286203Y0314604D01*
X0286447Y0315193D02*
X0283884Y0315193D01*
X0283581Y0315782D02*
X0286354Y0315782D01*
X0285774Y0316371D02*
X0283393Y0316371D01*
X0281472Y0316960D02*
X0285529Y0316960D01*
X0285514Y0317549D02*
X0281472Y0317549D01*
X0282308Y0318138D02*
X0285683Y0318138D01*
X0286145Y0318727D02*
X0283531Y0318727D01*
X0283803Y0319316D02*
X0290864Y0319316D01*
X0291119Y0319905D02*
X0283547Y0319905D01*
X0283067Y0320494D02*
X0291600Y0320494D01*
X0291873Y0321083D02*
X0289861Y0321083D01*
X0290583Y0321672D02*
X0291284Y0321672D01*
X0288890Y0321083D02*
X0285777Y0321083D01*
X0286459Y0321672D02*
X0288208Y0321672D01*
X0288148Y0322261D02*
X0286519Y0322261D01*
X0286579Y0322851D02*
X0288088Y0322851D01*
X0284806Y0321083D02*
X0282794Y0321083D01*
X0283383Y0321672D02*
X0284083Y0321672D01*
X0288523Y0318727D02*
X0291136Y0318727D01*
X0292359Y0318138D02*
X0288988Y0318138D01*
X0289153Y0317549D02*
X0293195Y0317549D01*
X0293195Y0316960D02*
X0289135Y0316960D01*
X0288895Y0316371D02*
X0291274Y0316371D01*
X0291085Y0315782D02*
X0288314Y0315782D01*
X0288220Y0315193D02*
X0290782Y0315193D01*
X0291248Y0314604D02*
X0288464Y0314604D01*
X0288708Y0314015D02*
X0291728Y0314015D01*
X0291715Y0313426D02*
X0290055Y0313426D01*
X0290777Y0312836D02*
X0291126Y0312836D01*
M02*
