G75*
%MOIN*%
%OFA0B0*%
%FSLAX25Y25*%
%IPPOS*%
%LPD*%
%AMOC8*
5,1,8,0,0,1.08239X$1,22.5*
%
%ADD10C,0.00600*%
%ADD11C,0.00500*%
%ADD12C,0.00800*%
%ADD13C,0.01000*%
%ADD14R,0.08000X0.08000*%
%ADD15C,0.00591*%
D10*
X0025550Y0016360D02*
X0028953Y0016360D01*
X0028953Y0018061D01*
X0028386Y0018629D01*
X0027251Y0018629D01*
X0026684Y0018061D01*
X0026684Y0016360D01*
X0026684Y0017494D02*
X0025550Y0018629D01*
X0026117Y0020043D02*
X0025550Y0020610D01*
X0025550Y0021745D01*
X0026117Y0022312D01*
X0026684Y0022312D01*
X0027251Y0021745D01*
X0027251Y0020610D01*
X0027819Y0020043D01*
X0028386Y0020043D01*
X0028953Y0020610D01*
X0028953Y0021745D01*
X0028386Y0022312D01*
X0028953Y0023726D02*
X0028953Y0025995D01*
X0028953Y0024861D02*
X0025550Y0024861D01*
X0030150Y0027109D02*
X0030150Y0016060D01*
X0035550Y0016360D02*
X0035550Y0017494D01*
X0035550Y0016927D02*
X0038953Y0016927D01*
X0038953Y0016360D02*
X0038953Y0017494D01*
X0038953Y0018815D02*
X0035550Y0021084D01*
X0038953Y0021084D01*
X0038953Y0022499D02*
X0038953Y0024767D01*
X0038953Y0023633D02*
X0035550Y0023633D01*
X0035550Y0018815D02*
X0038953Y0018815D01*
X0040150Y0016060D02*
X0040150Y0025882D01*
X0045550Y0025995D02*
X0045550Y0023726D01*
X0048953Y0023726D01*
X0048386Y0022312D02*
X0048953Y0021745D01*
X0048953Y0020610D01*
X0048386Y0020043D01*
X0046117Y0020043D01*
X0045550Y0020610D01*
X0045550Y0021745D01*
X0046117Y0022312D01*
X0046117Y0018629D02*
X0045550Y0018061D01*
X0045550Y0016927D01*
X0046117Y0016360D01*
X0047251Y0016927D02*
X0047251Y0018061D01*
X0046684Y0018629D01*
X0046117Y0018629D01*
X0047251Y0016927D02*
X0047819Y0016360D01*
X0048386Y0016360D01*
X0048953Y0016927D01*
X0048953Y0018061D01*
X0048386Y0018629D01*
X0055550Y0018061D02*
X0055550Y0016927D01*
X0056117Y0016360D01*
X0057251Y0016927D02*
X0057251Y0018061D01*
X0056684Y0018629D01*
X0056117Y0018629D01*
X0055550Y0018061D01*
X0055550Y0020043D02*
X0055550Y0021745D01*
X0056117Y0022312D01*
X0058386Y0022312D01*
X0058953Y0021745D01*
X0058953Y0020043D01*
X0055550Y0020043D01*
X0058386Y0018629D02*
X0058953Y0018061D01*
X0058953Y0016927D01*
X0058386Y0016360D01*
X0057819Y0016360D01*
X0057251Y0016927D01*
X0057251Y0023726D02*
X0057251Y0025995D01*
X0057819Y0025995D02*
X0055550Y0025995D01*
X0057819Y0025995D02*
X0058953Y0024861D01*
X0057819Y0023726D01*
X0055550Y0023726D01*
X0065550Y0024293D02*
X0066117Y0023726D01*
X0065550Y0024293D02*
X0065550Y0025428D01*
X0066117Y0025995D01*
X0066684Y0025995D01*
X0067251Y0025428D01*
X0067251Y0024861D01*
X0067251Y0025428D02*
X0067819Y0025995D01*
X0068386Y0025995D01*
X0068953Y0025428D01*
X0068953Y0024293D01*
X0068386Y0023726D01*
X0068953Y0022312D02*
X0066684Y0022312D01*
X0065550Y0021177D01*
X0066684Y0020043D01*
X0068953Y0020043D01*
X0068386Y0018629D02*
X0067819Y0018629D01*
X0067251Y0018061D01*
X0066684Y0018629D01*
X0066117Y0018629D01*
X0065550Y0018061D01*
X0065550Y0016927D01*
X0066117Y0016360D01*
X0067251Y0017494D02*
X0067251Y0018061D01*
X0068386Y0018629D02*
X0068953Y0018061D01*
X0068953Y0016927D01*
X0068386Y0016360D01*
X0075550Y0016927D02*
X0075550Y0018061D01*
X0076117Y0018629D01*
X0077251Y0018629D01*
X0077251Y0017494D01*
X0076117Y0016360D02*
X0078386Y0016360D01*
X0078953Y0016927D01*
X0078953Y0018061D01*
X0078386Y0018629D01*
X0078953Y0020043D02*
X0075550Y0020043D01*
X0075550Y0022312D02*
X0078953Y0022312D01*
X0078953Y0023726D02*
X0078953Y0025428D01*
X0078386Y0025995D01*
X0076117Y0025995D01*
X0075550Y0025428D01*
X0075550Y0023726D01*
X0078953Y0023726D01*
X0078953Y0020043D02*
X0075550Y0022312D01*
X0075550Y0016927D02*
X0076117Y0016360D01*
X0036250Y0041660D02*
X0036250Y0048460D01*
X0036248Y0048520D01*
X0036243Y0048581D01*
X0036234Y0048640D01*
X0036221Y0048699D01*
X0036205Y0048758D01*
X0036185Y0048815D01*
X0036162Y0048870D01*
X0036135Y0048925D01*
X0036106Y0048977D01*
X0036073Y0049028D01*
X0036037Y0049077D01*
X0035999Y0049123D01*
X0035957Y0049167D01*
X0035913Y0049209D01*
X0035867Y0049247D01*
X0035818Y0049283D01*
X0035767Y0049316D01*
X0035715Y0049345D01*
X0035660Y0049372D01*
X0035605Y0049395D01*
X0035548Y0049415D01*
X0035489Y0049431D01*
X0035430Y0049444D01*
X0035371Y0049453D01*
X0035310Y0049458D01*
X0035250Y0049460D01*
X0029250Y0049460D01*
X0029190Y0049458D01*
X0029129Y0049453D01*
X0029070Y0049444D01*
X0029011Y0049431D01*
X0028952Y0049415D01*
X0028895Y0049395D01*
X0028840Y0049372D01*
X0028785Y0049345D01*
X0028733Y0049316D01*
X0028682Y0049283D01*
X0028633Y0049247D01*
X0028587Y0049209D01*
X0028543Y0049167D01*
X0028501Y0049123D01*
X0028463Y0049077D01*
X0028427Y0049028D01*
X0028394Y0048977D01*
X0028365Y0048925D01*
X0028338Y0048870D01*
X0028315Y0048815D01*
X0028295Y0048758D01*
X0028279Y0048699D01*
X0028266Y0048640D01*
X0028257Y0048581D01*
X0028252Y0048520D01*
X0028250Y0048460D01*
X0028250Y0041660D01*
X0028252Y0041600D01*
X0028257Y0041539D01*
X0028266Y0041480D01*
X0028279Y0041421D01*
X0028295Y0041362D01*
X0028315Y0041305D01*
X0028338Y0041250D01*
X0028365Y0041195D01*
X0028394Y0041143D01*
X0028427Y0041092D01*
X0028463Y0041043D01*
X0028501Y0040997D01*
X0028543Y0040953D01*
X0028587Y0040911D01*
X0028633Y0040873D01*
X0028682Y0040837D01*
X0028733Y0040804D01*
X0028785Y0040775D01*
X0028840Y0040748D01*
X0028895Y0040725D01*
X0028952Y0040705D01*
X0029011Y0040689D01*
X0029070Y0040676D01*
X0029129Y0040667D01*
X0029190Y0040662D01*
X0029250Y0040660D01*
X0035250Y0040660D01*
X0035310Y0040662D01*
X0035371Y0040667D01*
X0035430Y0040676D01*
X0035489Y0040689D01*
X0035548Y0040705D01*
X0035605Y0040725D01*
X0035660Y0040748D01*
X0035715Y0040775D01*
X0035767Y0040804D01*
X0035818Y0040837D01*
X0035867Y0040873D01*
X0035913Y0040911D01*
X0035957Y0040953D01*
X0035999Y0040997D01*
X0036037Y0041043D01*
X0036073Y0041092D01*
X0036106Y0041143D01*
X0036135Y0041195D01*
X0036162Y0041250D01*
X0036185Y0041305D01*
X0036205Y0041362D01*
X0036221Y0041421D01*
X0036234Y0041480D01*
X0036243Y0041539D01*
X0036248Y0041600D01*
X0036250Y0041660D01*
X0042117Y0083311D02*
X0041550Y0083878D01*
X0041550Y0085012D01*
X0042117Y0085579D01*
X0042684Y0085579D01*
X0043251Y0085012D01*
X0043251Y0084445D01*
X0043251Y0085012D02*
X0043819Y0085579D01*
X0044386Y0085579D01*
X0044953Y0085012D01*
X0044953Y0083878D01*
X0044386Y0083311D01*
X0044953Y0086994D02*
X0042684Y0086994D01*
X0041550Y0088128D01*
X0042684Y0089262D01*
X0044953Y0089262D01*
X0044386Y0090677D02*
X0044953Y0091244D01*
X0044953Y0092378D01*
X0044386Y0092945D01*
X0043819Y0092945D01*
X0043251Y0092378D01*
X0042684Y0092945D01*
X0042117Y0092945D01*
X0041550Y0092378D01*
X0041550Y0091244D01*
X0042117Y0090677D01*
X0043251Y0091811D02*
X0043251Y0092378D01*
X0038953Y0092378D02*
X0038953Y0091244D01*
X0038386Y0090677D01*
X0036117Y0090677D01*
X0035550Y0091244D01*
X0035550Y0092378D01*
X0036117Y0092945D01*
X0038386Y0092945D02*
X0038953Y0092378D01*
X0038953Y0089262D02*
X0035550Y0089262D01*
X0038953Y0086994D01*
X0035550Y0086994D01*
X0028953Y0086994D02*
X0025550Y0089262D01*
X0028953Y0089262D01*
X0028953Y0090677D02*
X0025550Y0090677D01*
X0025550Y0092378D01*
X0026117Y0092945D01*
X0028386Y0092945D01*
X0028953Y0092378D01*
X0028953Y0090677D01*
X0028953Y0086994D02*
X0025550Y0086994D01*
X0026117Y0085579D02*
X0027251Y0085579D01*
X0027251Y0084445D01*
X0026117Y0085579D02*
X0025550Y0085012D01*
X0025550Y0083878D01*
X0026117Y0083311D01*
X0028386Y0083311D01*
X0028953Y0083878D01*
X0028953Y0085012D01*
X0028386Y0085579D01*
X0051050Y0084538D02*
X0054453Y0084538D01*
X0054453Y0086240D01*
X0053886Y0086807D01*
X0052751Y0086807D01*
X0052184Y0086240D01*
X0052184Y0084538D01*
X0052184Y0085673D02*
X0051050Y0086807D01*
X0051050Y0088221D02*
X0054453Y0090490D01*
X0054453Y0091905D02*
X0054453Y0093039D01*
X0054453Y0092472D02*
X0051050Y0092472D01*
X0051050Y0091905D02*
X0051050Y0093039D01*
X0051050Y0090490D02*
X0054453Y0088221D01*
X0065550Y0089262D02*
X0068953Y0086994D01*
X0068953Y0085579D02*
X0068953Y0083311D01*
X0068953Y0084445D02*
X0065550Y0084445D01*
X0065550Y0086994D02*
X0068953Y0089262D01*
X0068386Y0090677D02*
X0066117Y0090677D01*
X0065550Y0091244D01*
X0065550Y0092378D01*
X0066117Y0092945D01*
X0068386Y0092945D01*
X0068953Y0092378D01*
X0068953Y0091244D01*
X0068386Y0090677D01*
X0075550Y0091244D02*
X0075550Y0092378D01*
X0076117Y0092945D01*
X0075550Y0091244D02*
X0076117Y0090677D01*
X0078386Y0090677D01*
X0078953Y0091244D01*
X0078953Y0092378D01*
X0078386Y0092945D01*
X0078953Y0089262D02*
X0075550Y0089262D01*
X0078953Y0086994D01*
X0075550Y0086994D01*
X0083612Y0080561D02*
X0084179Y0081129D01*
X0085881Y0081129D01*
X0085881Y0082263D02*
X0085881Y0078860D01*
X0084179Y0078860D01*
X0083612Y0079427D01*
X0083612Y0080561D01*
X0087202Y0078860D02*
X0088336Y0078860D01*
X0087769Y0078860D02*
X0087769Y0082263D01*
X0088336Y0082263D01*
X0089751Y0081129D02*
X0089751Y0078860D01*
X0091452Y0078860D01*
X0092019Y0079427D01*
X0092019Y0081129D01*
X0093434Y0081129D02*
X0094001Y0080561D01*
X0095702Y0080561D01*
X0095702Y0078860D02*
X0094001Y0078860D01*
X0093434Y0079427D01*
X0093434Y0079994D01*
X0094001Y0080561D01*
X0093434Y0081129D02*
X0093434Y0081696D01*
X0094001Y0082263D01*
X0095702Y0082263D01*
X0095702Y0078860D01*
X0125550Y0083878D02*
X0125550Y0085012D01*
X0126117Y0085579D01*
X0127251Y0085579D01*
X0127251Y0084445D01*
X0126117Y0083311D02*
X0125550Y0083878D01*
X0126117Y0083311D02*
X0128386Y0083311D01*
X0128953Y0083878D01*
X0128953Y0085012D01*
X0128386Y0085579D01*
X0128953Y0086994D02*
X0125550Y0089262D01*
X0128953Y0089262D01*
X0128953Y0090677D02*
X0125550Y0090677D01*
X0125550Y0092378D01*
X0126117Y0092945D01*
X0128386Y0092945D01*
X0128953Y0092378D01*
X0128953Y0090677D01*
X0128953Y0086994D02*
X0125550Y0086994D01*
X0135550Y0086994D02*
X0138953Y0086994D01*
X0135550Y0089262D01*
X0138953Y0089262D01*
X0138386Y0090677D02*
X0136117Y0090677D01*
X0135550Y0091244D01*
X0135550Y0092378D01*
X0136117Y0092945D01*
X0138386Y0092945D02*
X0138953Y0092378D01*
X0138953Y0091244D01*
X0138386Y0090677D01*
X0141550Y0091244D02*
X0142117Y0090677D01*
X0141550Y0091244D02*
X0141550Y0092378D01*
X0142117Y0092945D01*
X0142684Y0092945D01*
X0143251Y0092378D01*
X0143251Y0091811D01*
X0143251Y0092378D02*
X0143819Y0092945D01*
X0144386Y0092945D01*
X0144953Y0092378D01*
X0144953Y0091244D01*
X0144386Y0090677D01*
X0144953Y0089262D02*
X0142684Y0089262D01*
X0141550Y0088128D01*
X0142684Y0086994D01*
X0144953Y0086994D01*
X0144386Y0085579D02*
X0143819Y0085579D01*
X0143251Y0085012D01*
X0142684Y0085579D01*
X0142117Y0085579D01*
X0141550Y0085012D01*
X0141550Y0083878D01*
X0142117Y0083311D01*
X0143251Y0084445D02*
X0143251Y0085012D01*
X0144386Y0085579D02*
X0144953Y0085012D01*
X0144953Y0083878D01*
X0144386Y0083311D01*
X0151050Y0084538D02*
X0154453Y0084538D01*
X0154453Y0086240D01*
X0153886Y0086807D01*
X0152751Y0086807D01*
X0152184Y0086240D01*
X0152184Y0084538D01*
X0152184Y0085673D02*
X0151050Y0086807D01*
X0151050Y0088221D02*
X0154453Y0090490D01*
X0154453Y0091905D02*
X0154453Y0093039D01*
X0154453Y0092472D02*
X0151050Y0092472D01*
X0151050Y0091905D02*
X0151050Y0093039D01*
X0151050Y0090490D02*
X0154453Y0088221D01*
X0165550Y0089262D02*
X0168953Y0086994D01*
X0168953Y0085579D02*
X0168953Y0083311D01*
X0168953Y0084445D02*
X0165550Y0084445D01*
X0165550Y0086994D02*
X0168953Y0089262D01*
X0168386Y0090677D02*
X0166117Y0090677D01*
X0165550Y0091244D01*
X0165550Y0092378D01*
X0166117Y0092945D01*
X0168386Y0092945D01*
X0168953Y0092378D01*
X0168953Y0091244D01*
X0168386Y0090677D01*
X0175550Y0091244D02*
X0175550Y0092378D01*
X0176117Y0092945D01*
X0175550Y0091244D02*
X0176117Y0090677D01*
X0178386Y0090677D01*
X0178953Y0091244D01*
X0178953Y0092378D01*
X0178386Y0092945D01*
X0178953Y0089262D02*
X0175550Y0089262D01*
X0178953Y0086994D01*
X0175550Y0086994D01*
X0183612Y0080561D02*
X0184179Y0081129D01*
X0185881Y0081129D01*
X0185881Y0082263D02*
X0185881Y0078860D01*
X0184179Y0078860D01*
X0183612Y0079427D01*
X0183612Y0080561D01*
X0187202Y0078860D02*
X0188336Y0078860D01*
X0187769Y0078860D02*
X0187769Y0082263D01*
X0188336Y0082263D01*
X0189751Y0081129D02*
X0189751Y0078860D01*
X0191452Y0078860D01*
X0192019Y0079427D01*
X0192019Y0081129D01*
X0193434Y0081129D02*
X0194001Y0080561D01*
X0195702Y0080561D01*
X0195702Y0078860D02*
X0194001Y0078860D01*
X0193434Y0079427D01*
X0193434Y0079994D01*
X0194001Y0080561D01*
X0193434Y0081129D02*
X0193434Y0081696D01*
X0194001Y0082263D01*
X0195702Y0082263D01*
X0195702Y0078860D01*
X0225550Y0083878D02*
X0225550Y0085012D01*
X0226117Y0085579D01*
X0227251Y0085579D01*
X0227251Y0084445D01*
X0226117Y0083311D02*
X0225550Y0083878D01*
X0226117Y0083311D02*
X0228386Y0083311D01*
X0228953Y0083878D01*
X0228953Y0085012D01*
X0228386Y0085579D01*
X0228953Y0086994D02*
X0225550Y0089262D01*
X0228953Y0089262D01*
X0228953Y0090677D02*
X0225550Y0090677D01*
X0225550Y0092378D01*
X0226117Y0092945D01*
X0228386Y0092945D01*
X0228953Y0092378D01*
X0228953Y0090677D01*
X0228953Y0086994D02*
X0225550Y0086994D01*
X0235550Y0086994D02*
X0238953Y0086994D01*
X0235550Y0089262D01*
X0238953Y0089262D01*
X0238386Y0090677D02*
X0236117Y0090677D01*
X0235550Y0091244D01*
X0235550Y0092378D01*
X0236117Y0092945D01*
X0238386Y0092945D02*
X0238953Y0092378D01*
X0238953Y0091244D01*
X0238386Y0090677D01*
X0241550Y0091244D02*
X0242117Y0090677D01*
X0241550Y0091244D02*
X0241550Y0092378D01*
X0242117Y0092945D01*
X0242684Y0092945D01*
X0243251Y0092378D01*
X0243251Y0091811D01*
X0243251Y0092378D02*
X0243819Y0092945D01*
X0244386Y0092945D01*
X0244953Y0092378D01*
X0244953Y0091244D01*
X0244386Y0090677D01*
X0244953Y0089262D02*
X0242684Y0089262D01*
X0241550Y0088128D01*
X0242684Y0086994D01*
X0244953Y0086994D01*
X0244386Y0085579D02*
X0243819Y0085579D01*
X0243251Y0085012D01*
X0242684Y0085579D01*
X0242117Y0085579D01*
X0241550Y0085012D01*
X0241550Y0083878D01*
X0242117Y0083311D01*
X0243251Y0084445D02*
X0243251Y0085012D01*
X0244386Y0085579D02*
X0244953Y0085012D01*
X0244953Y0083878D01*
X0244386Y0083311D01*
X0251050Y0084538D02*
X0254453Y0084538D01*
X0254453Y0086240D01*
X0253886Y0086807D01*
X0252751Y0086807D01*
X0252184Y0086240D01*
X0252184Y0084538D01*
X0252184Y0085673D02*
X0251050Y0086807D01*
X0251050Y0088221D02*
X0254453Y0090490D01*
X0254453Y0091905D02*
X0254453Y0093039D01*
X0254453Y0092472D02*
X0251050Y0092472D01*
X0251050Y0091905D02*
X0251050Y0093039D01*
X0251050Y0090490D02*
X0254453Y0088221D01*
X0265550Y0089262D02*
X0268953Y0086994D01*
X0268953Y0085579D02*
X0268953Y0083311D01*
X0268953Y0084445D02*
X0265550Y0084445D01*
X0265550Y0086994D02*
X0268953Y0089262D01*
X0268386Y0090677D02*
X0266117Y0090677D01*
X0265550Y0091244D01*
X0265550Y0092378D01*
X0266117Y0092945D01*
X0268386Y0092945D01*
X0268953Y0092378D01*
X0268953Y0091244D01*
X0268386Y0090677D01*
X0275550Y0091244D02*
X0275550Y0092378D01*
X0276117Y0092945D01*
X0275550Y0091244D02*
X0276117Y0090677D01*
X0278386Y0090677D01*
X0278953Y0091244D01*
X0278953Y0092378D01*
X0278386Y0092945D01*
X0278953Y0089262D02*
X0275550Y0089262D01*
X0278953Y0086994D01*
X0275550Y0086994D01*
X0283612Y0080561D02*
X0284179Y0081129D01*
X0285881Y0081129D01*
X0285881Y0082263D02*
X0285881Y0078860D01*
X0284179Y0078860D01*
X0283612Y0079427D01*
X0283612Y0080561D01*
X0287202Y0078860D02*
X0288336Y0078860D01*
X0287769Y0078860D02*
X0287769Y0082263D01*
X0288336Y0082263D01*
X0289751Y0081129D02*
X0289751Y0078860D01*
X0291452Y0078860D01*
X0292019Y0079427D01*
X0292019Y0081129D01*
X0293434Y0081129D02*
X0294001Y0080561D01*
X0295702Y0080561D01*
X0295702Y0078860D02*
X0294001Y0078860D01*
X0293434Y0079427D01*
X0293434Y0079994D01*
X0294001Y0080561D01*
X0293434Y0081129D02*
X0293434Y0081696D01*
X0294001Y0082263D01*
X0295702Y0082263D01*
X0295702Y0078860D01*
X0278386Y0116360D02*
X0276117Y0116360D01*
X0275550Y0116927D01*
X0275550Y0118061D01*
X0276117Y0118629D01*
X0277251Y0118629D01*
X0277251Y0117494D01*
X0278386Y0116360D02*
X0278953Y0116927D01*
X0278953Y0118061D01*
X0278386Y0118629D01*
X0278953Y0120043D02*
X0275550Y0122312D01*
X0278953Y0122312D01*
X0278953Y0123726D02*
X0278953Y0125428D01*
X0278386Y0125995D01*
X0276117Y0125995D01*
X0275550Y0125428D01*
X0275550Y0123726D01*
X0278953Y0123726D01*
X0278953Y0120043D02*
X0275550Y0120043D01*
X0268953Y0120043D02*
X0266684Y0120043D01*
X0265550Y0121177D01*
X0266684Y0122312D01*
X0268953Y0122312D01*
X0268386Y0123726D02*
X0268953Y0124293D01*
X0268953Y0125428D01*
X0268386Y0125995D01*
X0267819Y0125995D01*
X0267251Y0125428D01*
X0266684Y0125995D01*
X0266117Y0125995D01*
X0265550Y0125428D01*
X0265550Y0124293D01*
X0266117Y0123726D01*
X0267251Y0124861D02*
X0267251Y0125428D01*
X0266684Y0118629D02*
X0266117Y0118629D01*
X0265550Y0118061D01*
X0265550Y0116927D01*
X0266117Y0116360D01*
X0267251Y0117494D02*
X0267251Y0118061D01*
X0266684Y0118629D01*
X0267251Y0118061D02*
X0267819Y0118629D01*
X0268386Y0118629D01*
X0268953Y0118061D01*
X0268953Y0116927D01*
X0268386Y0116360D01*
X0258953Y0116927D02*
X0258386Y0116360D01*
X0257819Y0116360D01*
X0257251Y0116927D01*
X0257251Y0118061D01*
X0256684Y0118629D01*
X0256117Y0118629D01*
X0255550Y0118061D01*
X0255550Y0116927D01*
X0256117Y0116360D01*
X0258953Y0116927D02*
X0258953Y0118061D01*
X0258386Y0118629D01*
X0258953Y0120043D02*
X0258953Y0121745D01*
X0258386Y0122312D01*
X0256117Y0122312D01*
X0255550Y0121745D01*
X0255550Y0120043D01*
X0258953Y0120043D01*
X0257819Y0123726D02*
X0258953Y0124861D01*
X0257819Y0125995D01*
X0255550Y0125995D01*
X0257251Y0125995D02*
X0257251Y0123726D01*
X0257819Y0123726D02*
X0255550Y0123726D01*
X0248953Y0123726D02*
X0245550Y0123726D01*
X0245550Y0125995D01*
X0246117Y0122312D02*
X0245550Y0121745D01*
X0245550Y0120610D01*
X0246117Y0120043D01*
X0248386Y0120043D01*
X0248953Y0120610D01*
X0248953Y0121745D01*
X0248386Y0122312D01*
X0248386Y0118629D02*
X0248953Y0118061D01*
X0248953Y0116927D01*
X0248386Y0116360D01*
X0247819Y0116360D01*
X0247251Y0116927D01*
X0247251Y0118061D01*
X0246684Y0118629D01*
X0246117Y0118629D01*
X0245550Y0118061D01*
X0245550Y0116927D01*
X0246117Y0116360D01*
X0240150Y0116060D02*
X0240150Y0125882D01*
X0238953Y0124767D02*
X0238953Y0122499D01*
X0238953Y0123633D02*
X0235550Y0123633D01*
X0235550Y0121084D02*
X0238953Y0121084D01*
X0238953Y0118815D02*
X0235550Y0121084D01*
X0235550Y0118815D02*
X0238953Y0118815D01*
X0238953Y0117494D02*
X0238953Y0116360D01*
X0238953Y0116927D02*
X0235550Y0116927D01*
X0235550Y0116360D02*
X0235550Y0117494D01*
X0230150Y0116060D02*
X0230150Y0127109D01*
X0228953Y0125995D02*
X0228953Y0123726D01*
X0228953Y0124861D02*
X0225550Y0124861D01*
X0226117Y0122312D02*
X0225550Y0121745D01*
X0225550Y0120610D01*
X0226117Y0120043D01*
X0227251Y0120610D02*
X0227251Y0121745D01*
X0226684Y0122312D01*
X0226117Y0122312D01*
X0227251Y0120610D02*
X0227819Y0120043D01*
X0228386Y0120043D01*
X0228953Y0120610D01*
X0228953Y0121745D01*
X0228386Y0122312D01*
X0228386Y0118629D02*
X0227251Y0118629D01*
X0226684Y0118061D01*
X0226684Y0116360D01*
X0225550Y0116360D02*
X0228953Y0116360D01*
X0228953Y0118061D01*
X0228386Y0118629D01*
X0226684Y0117494D02*
X0225550Y0118629D01*
X0229250Y0140660D02*
X0235250Y0140660D01*
X0235310Y0140662D01*
X0235371Y0140667D01*
X0235430Y0140676D01*
X0235489Y0140689D01*
X0235548Y0140705D01*
X0235605Y0140725D01*
X0235660Y0140748D01*
X0235715Y0140775D01*
X0235767Y0140804D01*
X0235818Y0140837D01*
X0235867Y0140873D01*
X0235913Y0140911D01*
X0235957Y0140953D01*
X0235999Y0140997D01*
X0236037Y0141043D01*
X0236073Y0141092D01*
X0236106Y0141143D01*
X0236135Y0141195D01*
X0236162Y0141250D01*
X0236185Y0141305D01*
X0236205Y0141362D01*
X0236221Y0141421D01*
X0236234Y0141480D01*
X0236243Y0141539D01*
X0236248Y0141600D01*
X0236250Y0141660D01*
X0236250Y0148460D01*
X0236248Y0148520D01*
X0236243Y0148581D01*
X0236234Y0148640D01*
X0236221Y0148699D01*
X0236205Y0148758D01*
X0236185Y0148815D01*
X0236162Y0148870D01*
X0236135Y0148925D01*
X0236106Y0148977D01*
X0236073Y0149028D01*
X0236037Y0149077D01*
X0235999Y0149123D01*
X0235957Y0149167D01*
X0235913Y0149209D01*
X0235867Y0149247D01*
X0235818Y0149283D01*
X0235767Y0149316D01*
X0235715Y0149345D01*
X0235660Y0149372D01*
X0235605Y0149395D01*
X0235548Y0149415D01*
X0235489Y0149431D01*
X0235430Y0149444D01*
X0235371Y0149453D01*
X0235310Y0149458D01*
X0235250Y0149460D01*
X0229250Y0149460D01*
X0229190Y0149458D01*
X0229129Y0149453D01*
X0229070Y0149444D01*
X0229011Y0149431D01*
X0228952Y0149415D01*
X0228895Y0149395D01*
X0228840Y0149372D01*
X0228785Y0149345D01*
X0228733Y0149316D01*
X0228682Y0149283D01*
X0228633Y0149247D01*
X0228587Y0149209D01*
X0228543Y0149167D01*
X0228501Y0149123D01*
X0228463Y0149077D01*
X0228427Y0149028D01*
X0228394Y0148977D01*
X0228365Y0148925D01*
X0228338Y0148870D01*
X0228315Y0148815D01*
X0228295Y0148758D01*
X0228279Y0148699D01*
X0228266Y0148640D01*
X0228257Y0148581D01*
X0228252Y0148520D01*
X0228250Y0148460D01*
X0228250Y0141660D01*
X0228252Y0141600D01*
X0228257Y0141539D01*
X0228266Y0141480D01*
X0228279Y0141421D01*
X0228295Y0141362D01*
X0228315Y0141305D01*
X0228338Y0141250D01*
X0228365Y0141195D01*
X0228394Y0141143D01*
X0228427Y0141092D01*
X0228463Y0141043D01*
X0228501Y0140997D01*
X0228543Y0140953D01*
X0228587Y0140911D01*
X0228633Y0140873D01*
X0228682Y0140837D01*
X0228733Y0140804D01*
X0228785Y0140775D01*
X0228840Y0140748D01*
X0228895Y0140725D01*
X0228952Y0140705D01*
X0229011Y0140689D01*
X0229070Y0140676D01*
X0229129Y0140667D01*
X0229190Y0140662D01*
X0229250Y0140660D01*
X0195702Y0178860D02*
X0194001Y0178860D01*
X0193434Y0179427D01*
X0193434Y0179994D01*
X0194001Y0180561D01*
X0195702Y0180561D01*
X0195702Y0178860D02*
X0195702Y0182263D01*
X0194001Y0182263D01*
X0193434Y0181696D01*
X0193434Y0181129D01*
X0194001Y0180561D01*
X0192019Y0181129D02*
X0192019Y0179427D01*
X0191452Y0178860D01*
X0189751Y0178860D01*
X0189751Y0181129D01*
X0188336Y0182263D02*
X0187769Y0182263D01*
X0187769Y0178860D01*
X0188336Y0178860D02*
X0187202Y0178860D01*
X0185881Y0178860D02*
X0184179Y0178860D01*
X0183612Y0179427D01*
X0183612Y0180561D01*
X0184179Y0181129D01*
X0185881Y0181129D01*
X0185881Y0182263D02*
X0185881Y0178860D01*
X0178953Y0186994D02*
X0175550Y0189262D01*
X0178953Y0189262D01*
X0178386Y0190677D02*
X0176117Y0190677D01*
X0175550Y0191244D01*
X0175550Y0192378D01*
X0176117Y0192945D01*
X0178386Y0192945D02*
X0178953Y0192378D01*
X0178953Y0191244D01*
X0178386Y0190677D01*
X0178953Y0186994D02*
X0175550Y0186994D01*
X0168953Y0186994D02*
X0165550Y0189262D01*
X0166117Y0190677D02*
X0165550Y0191244D01*
X0165550Y0192378D01*
X0166117Y0192945D01*
X0168386Y0192945D01*
X0168953Y0192378D01*
X0168953Y0191244D01*
X0168386Y0190677D01*
X0166117Y0190677D01*
X0168953Y0189262D02*
X0165550Y0186994D01*
X0165550Y0184445D02*
X0168953Y0184445D01*
X0168953Y0183311D02*
X0168953Y0185579D01*
X0154453Y0186240D02*
X0153886Y0186807D01*
X0152751Y0186807D01*
X0152184Y0186240D01*
X0152184Y0184538D01*
X0151050Y0184538D02*
X0154453Y0184538D01*
X0154453Y0186240D01*
X0154453Y0188221D02*
X0151050Y0190490D01*
X0151050Y0191905D02*
X0151050Y0193039D01*
X0151050Y0192472D02*
X0154453Y0192472D01*
X0154453Y0191905D02*
X0154453Y0193039D01*
X0154453Y0190490D02*
X0151050Y0188221D01*
X0151050Y0186807D02*
X0152184Y0185673D01*
X0144953Y0185012D02*
X0144386Y0185579D01*
X0143819Y0185579D01*
X0143251Y0185012D01*
X0142684Y0185579D01*
X0142117Y0185579D01*
X0141550Y0185012D01*
X0141550Y0183878D01*
X0142117Y0183311D01*
X0143251Y0184445D02*
X0143251Y0185012D01*
X0144953Y0185012D02*
X0144953Y0183878D01*
X0144386Y0183311D01*
X0144953Y0186994D02*
X0142684Y0186994D01*
X0141550Y0188128D01*
X0142684Y0189262D01*
X0144953Y0189262D01*
X0144386Y0190677D02*
X0144953Y0191244D01*
X0144953Y0192378D01*
X0144386Y0192945D01*
X0143819Y0192945D01*
X0143251Y0192378D01*
X0142684Y0192945D01*
X0142117Y0192945D01*
X0141550Y0192378D01*
X0141550Y0191244D01*
X0142117Y0190677D01*
X0143251Y0191811D02*
X0143251Y0192378D01*
X0138953Y0192378D02*
X0138953Y0191244D01*
X0138386Y0190677D01*
X0136117Y0190677D01*
X0135550Y0191244D01*
X0135550Y0192378D01*
X0136117Y0192945D01*
X0138386Y0192945D02*
X0138953Y0192378D01*
X0138953Y0189262D02*
X0135550Y0189262D01*
X0138953Y0186994D01*
X0135550Y0186994D01*
X0128953Y0186994D02*
X0125550Y0189262D01*
X0128953Y0189262D01*
X0128953Y0190677D02*
X0125550Y0190677D01*
X0125550Y0192378D01*
X0126117Y0192945D01*
X0128386Y0192945D01*
X0128953Y0192378D01*
X0128953Y0190677D01*
X0128953Y0186994D02*
X0125550Y0186994D01*
X0126117Y0185579D02*
X0127251Y0185579D01*
X0127251Y0184445D01*
X0126117Y0185579D02*
X0125550Y0185012D01*
X0125550Y0183878D01*
X0126117Y0183311D01*
X0128386Y0183311D01*
X0128953Y0183878D01*
X0128953Y0185012D01*
X0128386Y0185579D01*
X0130150Y0216060D02*
X0130150Y0227109D01*
X0128953Y0225995D02*
X0128953Y0223726D01*
X0128953Y0224861D02*
X0125550Y0224861D01*
X0126117Y0222312D02*
X0125550Y0221745D01*
X0125550Y0220610D01*
X0126117Y0220043D01*
X0127251Y0220610D02*
X0127251Y0221745D01*
X0126684Y0222312D01*
X0126117Y0222312D01*
X0127251Y0220610D02*
X0127819Y0220043D01*
X0128386Y0220043D01*
X0128953Y0220610D01*
X0128953Y0221745D01*
X0128386Y0222312D01*
X0128386Y0218629D02*
X0127251Y0218629D01*
X0126684Y0218061D01*
X0126684Y0216360D01*
X0125550Y0216360D02*
X0128953Y0216360D01*
X0128953Y0218061D01*
X0128386Y0218629D01*
X0126684Y0217494D02*
X0125550Y0218629D01*
X0135550Y0218815D02*
X0138953Y0218815D01*
X0135550Y0221084D01*
X0138953Y0221084D01*
X0138953Y0222499D02*
X0138953Y0224767D01*
X0138953Y0223633D02*
X0135550Y0223633D01*
X0140150Y0225882D02*
X0140150Y0216060D01*
X0138953Y0216360D02*
X0138953Y0217494D01*
X0138953Y0216927D02*
X0135550Y0216927D01*
X0135550Y0216360D02*
X0135550Y0217494D01*
X0145550Y0216927D02*
X0146117Y0216360D01*
X0145550Y0216927D02*
X0145550Y0218061D01*
X0146117Y0218629D01*
X0146684Y0218629D01*
X0147251Y0218061D01*
X0147251Y0216927D01*
X0147819Y0216360D01*
X0148386Y0216360D01*
X0148953Y0216927D01*
X0148953Y0218061D01*
X0148386Y0218629D01*
X0148386Y0220043D02*
X0146117Y0220043D01*
X0145550Y0220610D01*
X0145550Y0221745D01*
X0146117Y0222312D01*
X0145550Y0223726D02*
X0145550Y0225995D01*
X0145550Y0223726D02*
X0148953Y0223726D01*
X0148386Y0222312D02*
X0148953Y0221745D01*
X0148953Y0220610D01*
X0148386Y0220043D01*
X0155550Y0220043D02*
X0155550Y0221745D01*
X0156117Y0222312D01*
X0158386Y0222312D01*
X0158953Y0221745D01*
X0158953Y0220043D01*
X0155550Y0220043D01*
X0156117Y0218629D02*
X0155550Y0218061D01*
X0155550Y0216927D01*
X0156117Y0216360D01*
X0157251Y0216927D02*
X0157251Y0218061D01*
X0156684Y0218629D01*
X0156117Y0218629D01*
X0157251Y0216927D02*
X0157819Y0216360D01*
X0158386Y0216360D01*
X0158953Y0216927D01*
X0158953Y0218061D01*
X0158386Y0218629D01*
X0157819Y0223726D02*
X0158953Y0224861D01*
X0157819Y0225995D01*
X0155550Y0225995D01*
X0157251Y0225995D02*
X0157251Y0223726D01*
X0157819Y0223726D02*
X0155550Y0223726D01*
X0165550Y0224293D02*
X0166117Y0223726D01*
X0165550Y0224293D02*
X0165550Y0225428D01*
X0166117Y0225995D01*
X0166684Y0225995D01*
X0167251Y0225428D01*
X0167251Y0224861D01*
X0167251Y0225428D02*
X0167819Y0225995D01*
X0168386Y0225995D01*
X0168953Y0225428D01*
X0168953Y0224293D01*
X0168386Y0223726D01*
X0168953Y0222312D02*
X0166684Y0222312D01*
X0165550Y0221177D01*
X0166684Y0220043D01*
X0168953Y0220043D01*
X0168386Y0218629D02*
X0167819Y0218629D01*
X0167251Y0218061D01*
X0166684Y0218629D01*
X0166117Y0218629D01*
X0165550Y0218061D01*
X0165550Y0216927D01*
X0166117Y0216360D01*
X0167251Y0217494D02*
X0167251Y0218061D01*
X0168386Y0218629D02*
X0168953Y0218061D01*
X0168953Y0216927D01*
X0168386Y0216360D01*
X0175550Y0216927D02*
X0175550Y0218061D01*
X0176117Y0218629D01*
X0177251Y0218629D01*
X0177251Y0217494D01*
X0176117Y0216360D02*
X0178386Y0216360D01*
X0178953Y0216927D01*
X0178953Y0218061D01*
X0178386Y0218629D01*
X0178953Y0220043D02*
X0175550Y0222312D01*
X0178953Y0222312D01*
X0178953Y0223726D02*
X0178953Y0225428D01*
X0178386Y0225995D01*
X0176117Y0225995D01*
X0175550Y0225428D01*
X0175550Y0223726D01*
X0178953Y0223726D01*
X0178953Y0220043D02*
X0175550Y0220043D01*
X0175550Y0216927D02*
X0176117Y0216360D01*
X0136250Y0241660D02*
X0136250Y0248460D01*
X0136248Y0248520D01*
X0136243Y0248581D01*
X0136234Y0248640D01*
X0136221Y0248699D01*
X0136205Y0248758D01*
X0136185Y0248815D01*
X0136162Y0248870D01*
X0136135Y0248925D01*
X0136106Y0248977D01*
X0136073Y0249028D01*
X0136037Y0249077D01*
X0135999Y0249123D01*
X0135957Y0249167D01*
X0135913Y0249209D01*
X0135867Y0249247D01*
X0135818Y0249283D01*
X0135767Y0249316D01*
X0135715Y0249345D01*
X0135660Y0249372D01*
X0135605Y0249395D01*
X0135548Y0249415D01*
X0135489Y0249431D01*
X0135430Y0249444D01*
X0135371Y0249453D01*
X0135310Y0249458D01*
X0135250Y0249460D01*
X0129250Y0249460D01*
X0129190Y0249458D01*
X0129129Y0249453D01*
X0129070Y0249444D01*
X0129011Y0249431D01*
X0128952Y0249415D01*
X0128895Y0249395D01*
X0128840Y0249372D01*
X0128785Y0249345D01*
X0128733Y0249316D01*
X0128682Y0249283D01*
X0128633Y0249247D01*
X0128587Y0249209D01*
X0128543Y0249167D01*
X0128501Y0249123D01*
X0128463Y0249077D01*
X0128427Y0249028D01*
X0128394Y0248977D01*
X0128365Y0248925D01*
X0128338Y0248870D01*
X0128315Y0248815D01*
X0128295Y0248758D01*
X0128279Y0248699D01*
X0128266Y0248640D01*
X0128257Y0248581D01*
X0128252Y0248520D01*
X0128250Y0248460D01*
X0128250Y0241660D01*
X0128252Y0241600D01*
X0128257Y0241539D01*
X0128266Y0241480D01*
X0128279Y0241421D01*
X0128295Y0241362D01*
X0128315Y0241305D01*
X0128338Y0241250D01*
X0128365Y0241195D01*
X0128394Y0241143D01*
X0128427Y0241092D01*
X0128463Y0241043D01*
X0128501Y0240997D01*
X0128543Y0240953D01*
X0128587Y0240911D01*
X0128633Y0240873D01*
X0128682Y0240837D01*
X0128733Y0240804D01*
X0128785Y0240775D01*
X0128840Y0240748D01*
X0128895Y0240725D01*
X0128952Y0240705D01*
X0129011Y0240689D01*
X0129070Y0240676D01*
X0129129Y0240667D01*
X0129190Y0240662D01*
X0129250Y0240660D01*
X0135250Y0240660D01*
X0135310Y0240662D01*
X0135371Y0240667D01*
X0135430Y0240676D01*
X0135489Y0240689D01*
X0135548Y0240705D01*
X0135605Y0240725D01*
X0135660Y0240748D01*
X0135715Y0240775D01*
X0135767Y0240804D01*
X0135818Y0240837D01*
X0135867Y0240873D01*
X0135913Y0240911D01*
X0135957Y0240953D01*
X0135999Y0240997D01*
X0136037Y0241043D01*
X0136073Y0241092D01*
X0136106Y0241143D01*
X0136135Y0241195D01*
X0136162Y0241250D01*
X0136185Y0241305D01*
X0136205Y0241362D01*
X0136221Y0241421D01*
X0136234Y0241480D01*
X0136243Y0241539D01*
X0136248Y0241600D01*
X0136250Y0241660D01*
X0142117Y0283311D02*
X0141550Y0283878D01*
X0141550Y0285012D01*
X0142117Y0285579D01*
X0142684Y0285579D01*
X0143251Y0285012D01*
X0143251Y0284445D01*
X0143251Y0285012D02*
X0143819Y0285579D01*
X0144386Y0285579D01*
X0144953Y0285012D01*
X0144953Y0283878D01*
X0144386Y0283311D01*
X0144953Y0286994D02*
X0142684Y0286994D01*
X0141550Y0288128D01*
X0142684Y0289262D01*
X0144953Y0289262D01*
X0144386Y0290677D02*
X0144953Y0291244D01*
X0144953Y0292378D01*
X0144386Y0292945D01*
X0143819Y0292945D01*
X0143251Y0292378D01*
X0142684Y0292945D01*
X0142117Y0292945D01*
X0141550Y0292378D01*
X0141550Y0291244D01*
X0142117Y0290677D01*
X0143251Y0291811D02*
X0143251Y0292378D01*
X0138953Y0292378D02*
X0138953Y0291244D01*
X0138386Y0290677D01*
X0136117Y0290677D01*
X0135550Y0291244D01*
X0135550Y0292378D01*
X0136117Y0292945D01*
X0138386Y0292945D02*
X0138953Y0292378D01*
X0138953Y0289262D02*
X0135550Y0289262D01*
X0138953Y0286994D01*
X0135550Y0286994D01*
X0128953Y0286994D02*
X0125550Y0289262D01*
X0128953Y0289262D01*
X0128953Y0290677D02*
X0125550Y0290677D01*
X0125550Y0292378D01*
X0126117Y0292945D01*
X0128386Y0292945D01*
X0128953Y0292378D01*
X0128953Y0290677D01*
X0128953Y0286994D02*
X0125550Y0286994D01*
X0126117Y0285579D02*
X0127251Y0285579D01*
X0127251Y0284445D01*
X0126117Y0285579D02*
X0125550Y0285012D01*
X0125550Y0283878D01*
X0126117Y0283311D01*
X0128386Y0283311D01*
X0128953Y0283878D01*
X0128953Y0285012D01*
X0128386Y0285579D01*
X0151050Y0284538D02*
X0154453Y0284538D01*
X0154453Y0286240D01*
X0153886Y0286807D01*
X0152751Y0286807D01*
X0152184Y0286240D01*
X0152184Y0284538D01*
X0152184Y0285673D02*
X0151050Y0286807D01*
X0151050Y0288221D02*
X0154453Y0290490D01*
X0154453Y0291905D02*
X0154453Y0293039D01*
X0154453Y0292472D02*
X0151050Y0292472D01*
X0151050Y0291905D02*
X0151050Y0293039D01*
X0151050Y0290490D02*
X0154453Y0288221D01*
X0165550Y0289262D02*
X0168953Y0286994D01*
X0168953Y0285579D02*
X0168953Y0283311D01*
X0168953Y0284445D02*
X0165550Y0284445D01*
X0165550Y0286994D02*
X0168953Y0289262D01*
X0168386Y0290677D02*
X0166117Y0290677D01*
X0165550Y0291244D01*
X0165550Y0292378D01*
X0166117Y0292945D01*
X0168386Y0292945D01*
X0168953Y0292378D01*
X0168953Y0291244D01*
X0168386Y0290677D01*
X0175550Y0291244D02*
X0175550Y0292378D01*
X0176117Y0292945D01*
X0175550Y0291244D02*
X0176117Y0290677D01*
X0178386Y0290677D01*
X0178953Y0291244D01*
X0178953Y0292378D01*
X0178386Y0292945D01*
X0178953Y0289262D02*
X0175550Y0289262D01*
X0178953Y0286994D01*
X0175550Y0286994D01*
X0183612Y0280561D02*
X0183612Y0279427D01*
X0184179Y0278860D01*
X0185881Y0278860D01*
X0185881Y0282263D01*
X0185881Y0281129D02*
X0184179Y0281129D01*
X0183612Y0280561D01*
X0187202Y0278860D02*
X0188336Y0278860D01*
X0187769Y0278860D02*
X0187769Y0282263D01*
X0188336Y0282263D01*
X0189751Y0281129D02*
X0189751Y0278860D01*
X0191452Y0278860D01*
X0192019Y0279427D01*
X0192019Y0281129D01*
X0193434Y0281129D02*
X0194001Y0280561D01*
X0195702Y0280561D01*
X0195702Y0278860D02*
X0195702Y0282263D01*
X0194001Y0282263D01*
X0193434Y0281696D01*
X0193434Y0281129D01*
X0194001Y0280561D02*
X0193434Y0279994D01*
X0193434Y0279427D01*
X0194001Y0278860D01*
X0195702Y0278860D01*
X0225550Y0283878D02*
X0226117Y0283311D01*
X0228386Y0283311D01*
X0228953Y0283878D01*
X0228953Y0285012D01*
X0228386Y0285579D01*
X0227251Y0285579D02*
X0227251Y0284445D01*
X0227251Y0285579D02*
X0226117Y0285579D01*
X0225550Y0285012D01*
X0225550Y0283878D01*
X0225550Y0286994D02*
X0228953Y0286994D01*
X0225550Y0289262D01*
X0228953Y0289262D01*
X0228953Y0290677D02*
X0225550Y0290677D01*
X0225550Y0292378D01*
X0226117Y0292945D01*
X0228386Y0292945D01*
X0228953Y0292378D01*
X0228953Y0290677D01*
X0235550Y0291244D02*
X0235550Y0292378D01*
X0236117Y0292945D01*
X0235550Y0291244D02*
X0236117Y0290677D01*
X0238386Y0290677D01*
X0238953Y0291244D01*
X0238953Y0292378D01*
X0238386Y0292945D01*
X0241550Y0292378D02*
X0241550Y0291244D01*
X0242117Y0290677D01*
X0242684Y0289262D02*
X0244953Y0289262D01*
X0244386Y0290677D02*
X0244953Y0291244D01*
X0244953Y0292378D01*
X0244386Y0292945D01*
X0243819Y0292945D01*
X0243251Y0292378D01*
X0242684Y0292945D01*
X0242117Y0292945D01*
X0241550Y0292378D01*
X0243251Y0292378D02*
X0243251Y0291811D01*
X0242684Y0289262D02*
X0241550Y0288128D01*
X0242684Y0286994D01*
X0244953Y0286994D01*
X0244386Y0285579D02*
X0243819Y0285579D01*
X0243251Y0285012D01*
X0242684Y0285579D01*
X0242117Y0285579D01*
X0241550Y0285012D01*
X0241550Y0283878D01*
X0242117Y0283311D01*
X0243251Y0284445D02*
X0243251Y0285012D01*
X0244386Y0285579D02*
X0244953Y0285012D01*
X0244953Y0283878D01*
X0244386Y0283311D01*
X0238953Y0286994D02*
X0235550Y0289262D01*
X0238953Y0289262D01*
X0238953Y0286994D02*
X0235550Y0286994D01*
X0251050Y0286807D02*
X0252184Y0285673D01*
X0252184Y0286240D02*
X0252184Y0284538D01*
X0251050Y0284538D02*
X0254453Y0284538D01*
X0254453Y0286240D01*
X0253886Y0286807D01*
X0252751Y0286807D01*
X0252184Y0286240D01*
X0251050Y0288221D02*
X0254453Y0290490D01*
X0254453Y0291905D02*
X0254453Y0293039D01*
X0254453Y0292472D02*
X0251050Y0292472D01*
X0251050Y0291905D02*
X0251050Y0293039D01*
X0251050Y0290490D02*
X0254453Y0288221D01*
X0265550Y0289262D02*
X0268953Y0286994D01*
X0268953Y0285579D02*
X0268953Y0283311D01*
X0268953Y0284445D02*
X0265550Y0284445D01*
X0265550Y0286994D02*
X0268953Y0289262D01*
X0268386Y0290677D02*
X0266117Y0290677D01*
X0265550Y0291244D01*
X0265550Y0292378D01*
X0266117Y0292945D01*
X0268386Y0292945D01*
X0268953Y0292378D01*
X0268953Y0291244D01*
X0268386Y0290677D01*
X0275550Y0291244D02*
X0275550Y0292378D01*
X0276117Y0292945D01*
X0275550Y0291244D02*
X0276117Y0290677D01*
X0278386Y0290677D01*
X0278953Y0291244D01*
X0278953Y0292378D01*
X0278386Y0292945D01*
X0278953Y0289262D02*
X0275550Y0289262D01*
X0278953Y0286994D01*
X0275550Y0286994D01*
X0283612Y0280561D02*
X0283612Y0279427D01*
X0284179Y0278860D01*
X0285881Y0278860D01*
X0285881Y0282263D01*
X0285881Y0281129D02*
X0284179Y0281129D01*
X0283612Y0280561D01*
X0287202Y0278860D02*
X0288336Y0278860D01*
X0287769Y0278860D02*
X0287769Y0282263D01*
X0288336Y0282263D01*
X0289751Y0281129D02*
X0289751Y0278860D01*
X0291452Y0278860D01*
X0292019Y0279427D01*
X0292019Y0281129D01*
X0293434Y0281129D02*
X0294001Y0280561D01*
X0295702Y0280561D01*
X0295702Y0278860D02*
X0295702Y0282263D01*
X0294001Y0282263D01*
X0293434Y0281696D01*
X0293434Y0281129D01*
X0294001Y0280561D02*
X0293434Y0279994D01*
X0293434Y0279427D01*
X0294001Y0278860D01*
X0295702Y0278860D01*
X0278386Y0225995D02*
X0276117Y0225995D01*
X0275550Y0225428D01*
X0275550Y0223726D01*
X0278953Y0223726D01*
X0278953Y0225428D01*
X0278386Y0225995D01*
X0278953Y0222312D02*
X0275550Y0222312D01*
X0278953Y0220043D01*
X0275550Y0220043D01*
X0276117Y0218629D02*
X0277251Y0218629D01*
X0277251Y0217494D01*
X0276117Y0216360D02*
X0278386Y0216360D01*
X0278953Y0216927D01*
X0278953Y0218061D01*
X0278386Y0218629D01*
X0276117Y0218629D02*
X0275550Y0218061D01*
X0275550Y0216927D01*
X0276117Y0216360D01*
X0268953Y0216927D02*
X0268953Y0218061D01*
X0268386Y0218629D01*
X0267819Y0218629D01*
X0267251Y0218061D01*
X0266684Y0218629D01*
X0266117Y0218629D01*
X0265550Y0218061D01*
X0265550Y0216927D01*
X0266117Y0216360D01*
X0267251Y0217494D02*
X0267251Y0218061D01*
X0268386Y0216360D02*
X0268953Y0216927D01*
X0268953Y0220043D02*
X0266684Y0220043D01*
X0265550Y0221177D01*
X0266684Y0222312D01*
X0268953Y0222312D01*
X0268386Y0223726D02*
X0268953Y0224293D01*
X0268953Y0225428D01*
X0268386Y0225995D01*
X0267819Y0225995D01*
X0267251Y0225428D01*
X0266684Y0225995D01*
X0266117Y0225995D01*
X0265550Y0225428D01*
X0265550Y0224293D01*
X0266117Y0223726D01*
X0267251Y0224861D02*
X0267251Y0225428D01*
X0258953Y0224861D02*
X0257819Y0225995D01*
X0255550Y0225995D01*
X0257251Y0225995D02*
X0257251Y0223726D01*
X0257819Y0223726D02*
X0258953Y0224861D01*
X0257819Y0223726D02*
X0255550Y0223726D01*
X0256117Y0222312D02*
X0255550Y0221745D01*
X0255550Y0220043D01*
X0258953Y0220043D01*
X0258953Y0221745D01*
X0258386Y0222312D01*
X0256117Y0222312D01*
X0256117Y0218629D02*
X0255550Y0218061D01*
X0255550Y0216927D01*
X0256117Y0216360D01*
X0257251Y0216927D02*
X0257251Y0218061D01*
X0256684Y0218629D01*
X0256117Y0218629D01*
X0257251Y0216927D02*
X0257819Y0216360D01*
X0258386Y0216360D01*
X0258953Y0216927D01*
X0258953Y0218061D01*
X0258386Y0218629D01*
X0248953Y0218061D02*
X0248953Y0216927D01*
X0248386Y0216360D01*
X0247819Y0216360D01*
X0247251Y0216927D01*
X0247251Y0218061D01*
X0246684Y0218629D01*
X0246117Y0218629D01*
X0245550Y0218061D01*
X0245550Y0216927D01*
X0246117Y0216360D01*
X0248386Y0218629D02*
X0248953Y0218061D01*
X0248386Y0220043D02*
X0246117Y0220043D01*
X0245550Y0220610D01*
X0245550Y0221745D01*
X0246117Y0222312D01*
X0245550Y0223726D02*
X0245550Y0225995D01*
X0245550Y0223726D02*
X0248953Y0223726D01*
X0248386Y0222312D02*
X0248953Y0221745D01*
X0248953Y0220610D01*
X0248386Y0220043D01*
X0240150Y0216060D02*
X0240150Y0225882D01*
X0238953Y0224767D02*
X0238953Y0222499D01*
X0238953Y0223633D02*
X0235550Y0223633D01*
X0235550Y0221084D02*
X0238953Y0221084D01*
X0238953Y0218815D02*
X0235550Y0221084D01*
X0235550Y0218815D02*
X0238953Y0218815D01*
X0238953Y0217494D02*
X0238953Y0216360D01*
X0238953Y0216927D02*
X0235550Y0216927D01*
X0235550Y0216360D02*
X0235550Y0217494D01*
X0230150Y0216060D02*
X0230150Y0227109D01*
X0228953Y0225995D02*
X0228953Y0223726D01*
X0228953Y0224861D02*
X0225550Y0224861D01*
X0226117Y0222312D02*
X0225550Y0221745D01*
X0225550Y0220610D01*
X0226117Y0220043D01*
X0227251Y0220610D02*
X0227251Y0221745D01*
X0226684Y0222312D01*
X0226117Y0222312D01*
X0227251Y0220610D02*
X0227819Y0220043D01*
X0228386Y0220043D01*
X0228953Y0220610D01*
X0228953Y0221745D01*
X0228386Y0222312D01*
X0228386Y0218629D02*
X0227251Y0218629D01*
X0226684Y0218061D01*
X0226684Y0216360D01*
X0225550Y0216360D02*
X0228953Y0216360D01*
X0228953Y0218061D01*
X0228386Y0218629D01*
X0226684Y0217494D02*
X0225550Y0218629D01*
X0229250Y0240660D02*
X0235250Y0240660D01*
X0235310Y0240662D01*
X0235371Y0240667D01*
X0235430Y0240676D01*
X0235489Y0240689D01*
X0235548Y0240705D01*
X0235605Y0240725D01*
X0235660Y0240748D01*
X0235715Y0240775D01*
X0235767Y0240804D01*
X0235818Y0240837D01*
X0235867Y0240873D01*
X0235913Y0240911D01*
X0235957Y0240953D01*
X0235999Y0240997D01*
X0236037Y0241043D01*
X0236073Y0241092D01*
X0236106Y0241143D01*
X0236135Y0241195D01*
X0236162Y0241250D01*
X0236185Y0241305D01*
X0236205Y0241362D01*
X0236221Y0241421D01*
X0236234Y0241480D01*
X0236243Y0241539D01*
X0236248Y0241600D01*
X0236250Y0241660D01*
X0236250Y0248460D01*
X0236248Y0248520D01*
X0236243Y0248581D01*
X0236234Y0248640D01*
X0236221Y0248699D01*
X0236205Y0248758D01*
X0236185Y0248815D01*
X0236162Y0248870D01*
X0236135Y0248925D01*
X0236106Y0248977D01*
X0236073Y0249028D01*
X0236037Y0249077D01*
X0235999Y0249123D01*
X0235957Y0249167D01*
X0235913Y0249209D01*
X0235867Y0249247D01*
X0235818Y0249283D01*
X0235767Y0249316D01*
X0235715Y0249345D01*
X0235660Y0249372D01*
X0235605Y0249395D01*
X0235548Y0249415D01*
X0235489Y0249431D01*
X0235430Y0249444D01*
X0235371Y0249453D01*
X0235310Y0249458D01*
X0235250Y0249460D01*
X0229250Y0249460D01*
X0229190Y0249458D01*
X0229129Y0249453D01*
X0229070Y0249444D01*
X0229011Y0249431D01*
X0228952Y0249415D01*
X0228895Y0249395D01*
X0228840Y0249372D01*
X0228785Y0249345D01*
X0228733Y0249316D01*
X0228682Y0249283D01*
X0228633Y0249247D01*
X0228587Y0249209D01*
X0228543Y0249167D01*
X0228501Y0249123D01*
X0228463Y0249077D01*
X0228427Y0249028D01*
X0228394Y0248977D01*
X0228365Y0248925D01*
X0228338Y0248870D01*
X0228315Y0248815D01*
X0228295Y0248758D01*
X0228279Y0248699D01*
X0228266Y0248640D01*
X0228257Y0248581D01*
X0228252Y0248520D01*
X0228250Y0248460D01*
X0228250Y0241660D01*
X0228252Y0241600D01*
X0228257Y0241539D01*
X0228266Y0241480D01*
X0228279Y0241421D01*
X0228295Y0241362D01*
X0228315Y0241305D01*
X0228338Y0241250D01*
X0228365Y0241195D01*
X0228394Y0241143D01*
X0228427Y0241092D01*
X0228463Y0241043D01*
X0228501Y0240997D01*
X0228543Y0240953D01*
X0228587Y0240911D01*
X0228633Y0240873D01*
X0228682Y0240837D01*
X0228733Y0240804D01*
X0228785Y0240775D01*
X0228840Y0240748D01*
X0228895Y0240725D01*
X0228952Y0240705D01*
X0229011Y0240689D01*
X0229070Y0240676D01*
X0229129Y0240667D01*
X0229190Y0240662D01*
X0229250Y0240660D01*
X0228386Y0192945D02*
X0226117Y0192945D01*
X0225550Y0192378D01*
X0225550Y0190677D01*
X0228953Y0190677D01*
X0228953Y0192378D01*
X0228386Y0192945D01*
X0228953Y0189262D02*
X0225550Y0189262D01*
X0228953Y0186994D01*
X0225550Y0186994D01*
X0226117Y0185579D02*
X0227251Y0185579D01*
X0227251Y0184445D01*
X0226117Y0185579D02*
X0225550Y0185012D01*
X0225550Y0183878D01*
X0226117Y0183311D01*
X0228386Y0183311D01*
X0228953Y0183878D01*
X0228953Y0185012D01*
X0228386Y0185579D01*
X0235550Y0186994D02*
X0238953Y0186994D01*
X0235550Y0189262D01*
X0238953Y0189262D01*
X0238386Y0190677D02*
X0236117Y0190677D01*
X0235550Y0191244D01*
X0235550Y0192378D01*
X0236117Y0192945D01*
X0238386Y0192945D02*
X0238953Y0192378D01*
X0238953Y0191244D01*
X0238386Y0190677D01*
X0241550Y0191244D02*
X0242117Y0190677D01*
X0241550Y0191244D02*
X0241550Y0192378D01*
X0242117Y0192945D01*
X0242684Y0192945D01*
X0243251Y0192378D01*
X0243251Y0191811D01*
X0243251Y0192378D02*
X0243819Y0192945D01*
X0244386Y0192945D01*
X0244953Y0192378D01*
X0244953Y0191244D01*
X0244386Y0190677D01*
X0244953Y0189262D02*
X0242684Y0189262D01*
X0241550Y0188128D01*
X0242684Y0186994D01*
X0244953Y0186994D01*
X0244386Y0185579D02*
X0243819Y0185579D01*
X0243251Y0185012D01*
X0242684Y0185579D01*
X0242117Y0185579D01*
X0241550Y0185012D01*
X0241550Y0183878D01*
X0242117Y0183311D01*
X0243251Y0184445D02*
X0243251Y0185012D01*
X0244386Y0185579D02*
X0244953Y0185012D01*
X0244953Y0183878D01*
X0244386Y0183311D01*
X0251050Y0184538D02*
X0254453Y0184538D01*
X0254453Y0186240D01*
X0253886Y0186807D01*
X0252751Y0186807D01*
X0252184Y0186240D01*
X0252184Y0184538D01*
X0252184Y0185673D02*
X0251050Y0186807D01*
X0251050Y0188221D02*
X0254453Y0190490D01*
X0254453Y0191905D02*
X0254453Y0193039D01*
X0254453Y0192472D02*
X0251050Y0192472D01*
X0251050Y0191905D02*
X0251050Y0193039D01*
X0251050Y0190490D02*
X0254453Y0188221D01*
X0265550Y0189262D02*
X0268953Y0186994D01*
X0268953Y0185579D02*
X0268953Y0183311D01*
X0268953Y0184445D02*
X0265550Y0184445D01*
X0265550Y0186994D02*
X0268953Y0189262D01*
X0268386Y0190677D02*
X0266117Y0190677D01*
X0265550Y0191244D01*
X0265550Y0192378D01*
X0266117Y0192945D01*
X0268386Y0192945D01*
X0268953Y0192378D01*
X0268953Y0191244D01*
X0268386Y0190677D01*
X0275550Y0191244D02*
X0275550Y0192378D01*
X0276117Y0192945D01*
X0275550Y0191244D02*
X0276117Y0190677D01*
X0278386Y0190677D01*
X0278953Y0191244D01*
X0278953Y0192378D01*
X0278386Y0192945D01*
X0278953Y0189262D02*
X0275550Y0189262D01*
X0278953Y0186994D01*
X0275550Y0186994D01*
X0283612Y0180561D02*
X0284179Y0181129D01*
X0285881Y0181129D01*
X0285881Y0182263D02*
X0285881Y0178860D01*
X0284179Y0178860D01*
X0283612Y0179427D01*
X0283612Y0180561D01*
X0287202Y0178860D02*
X0288336Y0178860D01*
X0287769Y0178860D02*
X0287769Y0182263D01*
X0288336Y0182263D01*
X0289751Y0181129D02*
X0289751Y0178860D01*
X0291452Y0178860D01*
X0292019Y0179427D01*
X0292019Y0181129D01*
X0293434Y0181129D02*
X0294001Y0180561D01*
X0295702Y0180561D01*
X0295702Y0178860D02*
X0294001Y0178860D01*
X0293434Y0179427D01*
X0293434Y0179994D01*
X0294001Y0180561D01*
X0293434Y0181129D02*
X0293434Y0181696D01*
X0294001Y0182263D01*
X0295702Y0182263D01*
X0295702Y0178860D01*
X0178953Y0125428D02*
X0178953Y0123726D01*
X0175550Y0123726D01*
X0175550Y0125428D01*
X0176117Y0125995D01*
X0178386Y0125995D01*
X0178953Y0125428D01*
X0178953Y0122312D02*
X0175550Y0122312D01*
X0178953Y0120043D01*
X0175550Y0120043D01*
X0176117Y0118629D02*
X0177251Y0118629D01*
X0177251Y0117494D01*
X0176117Y0116360D02*
X0178386Y0116360D01*
X0178953Y0116927D01*
X0178953Y0118061D01*
X0178386Y0118629D01*
X0176117Y0118629D02*
X0175550Y0118061D01*
X0175550Y0116927D01*
X0176117Y0116360D01*
X0168953Y0116927D02*
X0168953Y0118061D01*
X0168386Y0118629D01*
X0167819Y0118629D01*
X0167251Y0118061D01*
X0166684Y0118629D01*
X0166117Y0118629D01*
X0165550Y0118061D01*
X0165550Y0116927D01*
X0166117Y0116360D01*
X0167251Y0117494D02*
X0167251Y0118061D01*
X0168386Y0116360D02*
X0168953Y0116927D01*
X0168953Y0120043D02*
X0166684Y0120043D01*
X0165550Y0121177D01*
X0166684Y0122312D01*
X0168953Y0122312D01*
X0168386Y0123726D02*
X0168953Y0124293D01*
X0168953Y0125428D01*
X0168386Y0125995D01*
X0167819Y0125995D01*
X0167251Y0125428D01*
X0166684Y0125995D01*
X0166117Y0125995D01*
X0165550Y0125428D01*
X0165550Y0124293D01*
X0166117Y0123726D01*
X0167251Y0124861D02*
X0167251Y0125428D01*
X0158953Y0124861D02*
X0157819Y0125995D01*
X0155550Y0125995D01*
X0157251Y0125995D02*
X0157251Y0123726D01*
X0157819Y0123726D02*
X0158953Y0124861D01*
X0157819Y0123726D02*
X0155550Y0123726D01*
X0156117Y0122312D02*
X0158386Y0122312D01*
X0158953Y0121745D01*
X0158953Y0120043D01*
X0155550Y0120043D01*
X0155550Y0121745D01*
X0156117Y0122312D01*
X0156117Y0118629D02*
X0155550Y0118061D01*
X0155550Y0116927D01*
X0156117Y0116360D01*
X0157251Y0116927D02*
X0157251Y0118061D01*
X0156684Y0118629D01*
X0156117Y0118629D01*
X0157251Y0116927D02*
X0157819Y0116360D01*
X0158386Y0116360D01*
X0158953Y0116927D01*
X0158953Y0118061D01*
X0158386Y0118629D01*
X0148953Y0118061D02*
X0148953Y0116927D01*
X0148386Y0116360D01*
X0147819Y0116360D01*
X0147251Y0116927D01*
X0147251Y0118061D01*
X0146684Y0118629D01*
X0146117Y0118629D01*
X0145550Y0118061D01*
X0145550Y0116927D01*
X0146117Y0116360D01*
X0148386Y0118629D02*
X0148953Y0118061D01*
X0148386Y0120043D02*
X0146117Y0120043D01*
X0145550Y0120610D01*
X0145550Y0121745D01*
X0146117Y0122312D01*
X0145550Y0123726D02*
X0145550Y0125995D01*
X0145550Y0123726D02*
X0148953Y0123726D01*
X0148386Y0122312D02*
X0148953Y0121745D01*
X0148953Y0120610D01*
X0148386Y0120043D01*
X0140150Y0116060D02*
X0140150Y0125882D01*
X0138953Y0124767D02*
X0138953Y0122499D01*
X0138953Y0123633D02*
X0135550Y0123633D01*
X0135550Y0121084D02*
X0138953Y0121084D01*
X0138953Y0118815D02*
X0135550Y0121084D01*
X0135550Y0118815D02*
X0138953Y0118815D01*
X0138953Y0117494D02*
X0138953Y0116360D01*
X0138953Y0116927D02*
X0135550Y0116927D01*
X0135550Y0116360D02*
X0135550Y0117494D01*
X0130150Y0116060D02*
X0130150Y0127109D01*
X0128953Y0125995D02*
X0128953Y0123726D01*
X0128953Y0124861D02*
X0125550Y0124861D01*
X0126117Y0122312D02*
X0125550Y0121745D01*
X0125550Y0120610D01*
X0126117Y0120043D01*
X0127251Y0120610D02*
X0127251Y0121745D01*
X0126684Y0122312D01*
X0126117Y0122312D01*
X0127251Y0120610D02*
X0127819Y0120043D01*
X0128386Y0120043D01*
X0128953Y0120610D01*
X0128953Y0121745D01*
X0128386Y0122312D01*
X0128386Y0118629D02*
X0127251Y0118629D01*
X0126684Y0118061D01*
X0126684Y0116360D01*
X0125550Y0116360D02*
X0128953Y0116360D01*
X0128953Y0118061D01*
X0128386Y0118629D01*
X0126684Y0117494D02*
X0125550Y0118629D01*
X0129250Y0140660D02*
X0135250Y0140660D01*
X0135310Y0140662D01*
X0135371Y0140667D01*
X0135430Y0140676D01*
X0135489Y0140689D01*
X0135548Y0140705D01*
X0135605Y0140725D01*
X0135660Y0140748D01*
X0135715Y0140775D01*
X0135767Y0140804D01*
X0135818Y0140837D01*
X0135867Y0140873D01*
X0135913Y0140911D01*
X0135957Y0140953D01*
X0135999Y0140997D01*
X0136037Y0141043D01*
X0136073Y0141092D01*
X0136106Y0141143D01*
X0136135Y0141195D01*
X0136162Y0141250D01*
X0136185Y0141305D01*
X0136205Y0141362D01*
X0136221Y0141421D01*
X0136234Y0141480D01*
X0136243Y0141539D01*
X0136248Y0141600D01*
X0136250Y0141660D01*
X0136250Y0148460D01*
X0136248Y0148520D01*
X0136243Y0148581D01*
X0136234Y0148640D01*
X0136221Y0148699D01*
X0136205Y0148758D01*
X0136185Y0148815D01*
X0136162Y0148870D01*
X0136135Y0148925D01*
X0136106Y0148977D01*
X0136073Y0149028D01*
X0136037Y0149077D01*
X0135999Y0149123D01*
X0135957Y0149167D01*
X0135913Y0149209D01*
X0135867Y0149247D01*
X0135818Y0149283D01*
X0135767Y0149316D01*
X0135715Y0149345D01*
X0135660Y0149372D01*
X0135605Y0149395D01*
X0135548Y0149415D01*
X0135489Y0149431D01*
X0135430Y0149444D01*
X0135371Y0149453D01*
X0135310Y0149458D01*
X0135250Y0149460D01*
X0129250Y0149460D01*
X0129190Y0149458D01*
X0129129Y0149453D01*
X0129070Y0149444D01*
X0129011Y0149431D01*
X0128952Y0149415D01*
X0128895Y0149395D01*
X0128840Y0149372D01*
X0128785Y0149345D01*
X0128733Y0149316D01*
X0128682Y0149283D01*
X0128633Y0149247D01*
X0128587Y0149209D01*
X0128543Y0149167D01*
X0128501Y0149123D01*
X0128463Y0149077D01*
X0128427Y0149028D01*
X0128394Y0148977D01*
X0128365Y0148925D01*
X0128338Y0148870D01*
X0128315Y0148815D01*
X0128295Y0148758D01*
X0128279Y0148699D01*
X0128266Y0148640D01*
X0128257Y0148581D01*
X0128252Y0148520D01*
X0128250Y0148460D01*
X0128250Y0141660D01*
X0128252Y0141600D01*
X0128257Y0141539D01*
X0128266Y0141480D01*
X0128279Y0141421D01*
X0128295Y0141362D01*
X0128315Y0141305D01*
X0128338Y0141250D01*
X0128365Y0141195D01*
X0128394Y0141143D01*
X0128427Y0141092D01*
X0128463Y0141043D01*
X0128501Y0140997D01*
X0128543Y0140953D01*
X0128587Y0140911D01*
X0128633Y0140873D01*
X0128682Y0140837D01*
X0128733Y0140804D01*
X0128785Y0140775D01*
X0128840Y0140748D01*
X0128895Y0140725D01*
X0128952Y0140705D01*
X0129011Y0140689D01*
X0129070Y0140676D01*
X0129129Y0140667D01*
X0129190Y0140662D01*
X0129250Y0140660D01*
X0095702Y0178860D02*
X0094001Y0178860D01*
X0093434Y0179427D01*
X0093434Y0179994D01*
X0094001Y0180561D01*
X0095702Y0180561D01*
X0095702Y0178860D02*
X0095702Y0182263D01*
X0094001Y0182263D01*
X0093434Y0181696D01*
X0093434Y0181129D01*
X0094001Y0180561D01*
X0092019Y0181129D02*
X0092019Y0179427D01*
X0091452Y0178860D01*
X0089751Y0178860D01*
X0089751Y0181129D01*
X0088336Y0182263D02*
X0087769Y0182263D01*
X0087769Y0178860D01*
X0088336Y0178860D02*
X0087202Y0178860D01*
X0085881Y0178860D02*
X0084179Y0178860D01*
X0083612Y0179427D01*
X0083612Y0180561D01*
X0084179Y0181129D01*
X0085881Y0181129D01*
X0085881Y0182263D02*
X0085881Y0178860D01*
X0078953Y0186994D02*
X0075550Y0189262D01*
X0078953Y0189262D01*
X0078386Y0190677D02*
X0076117Y0190677D01*
X0075550Y0191244D01*
X0075550Y0192378D01*
X0076117Y0192945D01*
X0078386Y0192945D02*
X0078953Y0192378D01*
X0078953Y0191244D01*
X0078386Y0190677D01*
X0078953Y0186994D02*
X0075550Y0186994D01*
X0068953Y0186994D02*
X0065550Y0189262D01*
X0066117Y0190677D02*
X0065550Y0191244D01*
X0065550Y0192378D01*
X0066117Y0192945D01*
X0068386Y0192945D01*
X0068953Y0192378D01*
X0068953Y0191244D01*
X0068386Y0190677D01*
X0066117Y0190677D01*
X0068953Y0189262D02*
X0065550Y0186994D01*
X0065550Y0184445D02*
X0068953Y0184445D01*
X0068953Y0183311D02*
X0068953Y0185579D01*
X0054453Y0186240D02*
X0053886Y0186807D01*
X0052751Y0186807D01*
X0052184Y0186240D01*
X0052184Y0184538D01*
X0051050Y0184538D02*
X0054453Y0184538D01*
X0054453Y0186240D01*
X0054453Y0188221D02*
X0051050Y0190490D01*
X0051050Y0191905D02*
X0051050Y0193039D01*
X0051050Y0192472D02*
X0054453Y0192472D01*
X0054453Y0191905D02*
X0054453Y0193039D01*
X0054453Y0190490D02*
X0051050Y0188221D01*
X0051050Y0186807D02*
X0052184Y0185673D01*
X0044953Y0185012D02*
X0044386Y0185579D01*
X0043819Y0185579D01*
X0043251Y0185012D01*
X0042684Y0185579D01*
X0042117Y0185579D01*
X0041550Y0185012D01*
X0041550Y0183878D01*
X0042117Y0183311D01*
X0043251Y0184445D02*
X0043251Y0185012D01*
X0044953Y0185012D02*
X0044953Y0183878D01*
X0044386Y0183311D01*
X0044953Y0186994D02*
X0042684Y0186994D01*
X0041550Y0188128D01*
X0042684Y0189262D01*
X0044953Y0189262D01*
X0044386Y0190677D02*
X0044953Y0191244D01*
X0044953Y0192378D01*
X0044386Y0192945D01*
X0043819Y0192945D01*
X0043251Y0192378D01*
X0042684Y0192945D01*
X0042117Y0192945D01*
X0041550Y0192378D01*
X0041550Y0191244D01*
X0042117Y0190677D01*
X0043251Y0191811D02*
X0043251Y0192378D01*
X0038953Y0192378D02*
X0038953Y0191244D01*
X0038386Y0190677D01*
X0036117Y0190677D01*
X0035550Y0191244D01*
X0035550Y0192378D01*
X0036117Y0192945D01*
X0038386Y0192945D02*
X0038953Y0192378D01*
X0038953Y0189262D02*
X0035550Y0189262D01*
X0038953Y0186994D01*
X0035550Y0186994D01*
X0028953Y0186994D02*
X0025550Y0189262D01*
X0028953Y0189262D01*
X0028953Y0190677D02*
X0025550Y0190677D01*
X0025550Y0192378D01*
X0026117Y0192945D01*
X0028386Y0192945D01*
X0028953Y0192378D01*
X0028953Y0190677D01*
X0028953Y0186994D02*
X0025550Y0186994D01*
X0026117Y0185579D02*
X0027251Y0185579D01*
X0027251Y0184445D01*
X0026117Y0185579D02*
X0025550Y0185012D01*
X0025550Y0183878D01*
X0026117Y0183311D01*
X0028386Y0183311D01*
X0028953Y0183878D01*
X0028953Y0185012D01*
X0028386Y0185579D01*
X0030150Y0216060D02*
X0030150Y0227109D01*
X0028953Y0225995D02*
X0028953Y0223726D01*
X0028953Y0224861D02*
X0025550Y0224861D01*
X0026117Y0222312D02*
X0025550Y0221745D01*
X0025550Y0220610D01*
X0026117Y0220043D01*
X0027251Y0220610D02*
X0027251Y0221745D01*
X0026684Y0222312D01*
X0026117Y0222312D01*
X0027251Y0220610D02*
X0027819Y0220043D01*
X0028386Y0220043D01*
X0028953Y0220610D01*
X0028953Y0221745D01*
X0028386Y0222312D01*
X0028386Y0218629D02*
X0027251Y0218629D01*
X0026684Y0218061D01*
X0026684Y0216360D01*
X0025550Y0216360D02*
X0028953Y0216360D01*
X0028953Y0218061D01*
X0028386Y0218629D01*
X0026684Y0217494D02*
X0025550Y0218629D01*
X0035550Y0218815D02*
X0038953Y0218815D01*
X0035550Y0221084D01*
X0038953Y0221084D01*
X0038953Y0222499D02*
X0038953Y0224767D01*
X0038953Y0223633D02*
X0035550Y0223633D01*
X0040150Y0225882D02*
X0040150Y0216060D01*
X0038953Y0216360D02*
X0038953Y0217494D01*
X0038953Y0216927D02*
X0035550Y0216927D01*
X0035550Y0216360D02*
X0035550Y0217494D01*
X0045550Y0216927D02*
X0046117Y0216360D01*
X0045550Y0216927D02*
X0045550Y0218061D01*
X0046117Y0218629D01*
X0046684Y0218629D01*
X0047251Y0218061D01*
X0047251Y0216927D01*
X0047819Y0216360D01*
X0048386Y0216360D01*
X0048953Y0216927D01*
X0048953Y0218061D01*
X0048386Y0218629D01*
X0048386Y0220043D02*
X0046117Y0220043D01*
X0045550Y0220610D01*
X0045550Y0221745D01*
X0046117Y0222312D01*
X0045550Y0223726D02*
X0045550Y0225995D01*
X0045550Y0223726D02*
X0048953Y0223726D01*
X0048386Y0222312D02*
X0048953Y0221745D01*
X0048953Y0220610D01*
X0048386Y0220043D01*
X0055550Y0220043D02*
X0055550Y0221745D01*
X0056117Y0222312D01*
X0058386Y0222312D01*
X0058953Y0221745D01*
X0058953Y0220043D01*
X0055550Y0220043D01*
X0056117Y0218629D02*
X0055550Y0218061D01*
X0055550Y0216927D01*
X0056117Y0216360D01*
X0057251Y0216927D02*
X0057251Y0218061D01*
X0056684Y0218629D01*
X0056117Y0218629D01*
X0057251Y0216927D02*
X0057819Y0216360D01*
X0058386Y0216360D01*
X0058953Y0216927D01*
X0058953Y0218061D01*
X0058386Y0218629D01*
X0057819Y0223726D02*
X0058953Y0224861D01*
X0057819Y0225995D01*
X0055550Y0225995D01*
X0057251Y0225995D02*
X0057251Y0223726D01*
X0057819Y0223726D02*
X0055550Y0223726D01*
X0065550Y0224293D02*
X0066117Y0223726D01*
X0065550Y0224293D02*
X0065550Y0225428D01*
X0066117Y0225995D01*
X0066684Y0225995D01*
X0067251Y0225428D01*
X0067251Y0224861D01*
X0067251Y0225428D02*
X0067819Y0225995D01*
X0068386Y0225995D01*
X0068953Y0225428D01*
X0068953Y0224293D01*
X0068386Y0223726D01*
X0068953Y0222312D02*
X0066684Y0222312D01*
X0065550Y0221177D01*
X0066684Y0220043D01*
X0068953Y0220043D01*
X0068386Y0218629D02*
X0067819Y0218629D01*
X0067251Y0218061D01*
X0066684Y0218629D01*
X0066117Y0218629D01*
X0065550Y0218061D01*
X0065550Y0216927D01*
X0066117Y0216360D01*
X0067251Y0217494D02*
X0067251Y0218061D01*
X0068386Y0218629D02*
X0068953Y0218061D01*
X0068953Y0216927D01*
X0068386Y0216360D01*
X0075550Y0216927D02*
X0075550Y0218061D01*
X0076117Y0218629D01*
X0077251Y0218629D01*
X0077251Y0217494D01*
X0076117Y0216360D02*
X0078386Y0216360D01*
X0078953Y0216927D01*
X0078953Y0218061D01*
X0078386Y0218629D01*
X0078953Y0220043D02*
X0075550Y0222312D01*
X0078953Y0222312D01*
X0078953Y0223726D02*
X0078953Y0225428D01*
X0078386Y0225995D01*
X0076117Y0225995D01*
X0075550Y0225428D01*
X0075550Y0223726D01*
X0078953Y0223726D01*
X0078953Y0220043D02*
X0075550Y0220043D01*
X0075550Y0216927D02*
X0076117Y0216360D01*
X0036250Y0241660D02*
X0036250Y0248460D01*
X0036248Y0248520D01*
X0036243Y0248581D01*
X0036234Y0248640D01*
X0036221Y0248699D01*
X0036205Y0248758D01*
X0036185Y0248815D01*
X0036162Y0248870D01*
X0036135Y0248925D01*
X0036106Y0248977D01*
X0036073Y0249028D01*
X0036037Y0249077D01*
X0035999Y0249123D01*
X0035957Y0249167D01*
X0035913Y0249209D01*
X0035867Y0249247D01*
X0035818Y0249283D01*
X0035767Y0249316D01*
X0035715Y0249345D01*
X0035660Y0249372D01*
X0035605Y0249395D01*
X0035548Y0249415D01*
X0035489Y0249431D01*
X0035430Y0249444D01*
X0035371Y0249453D01*
X0035310Y0249458D01*
X0035250Y0249460D01*
X0029250Y0249460D01*
X0029190Y0249458D01*
X0029129Y0249453D01*
X0029070Y0249444D01*
X0029011Y0249431D01*
X0028952Y0249415D01*
X0028895Y0249395D01*
X0028840Y0249372D01*
X0028785Y0249345D01*
X0028733Y0249316D01*
X0028682Y0249283D01*
X0028633Y0249247D01*
X0028587Y0249209D01*
X0028543Y0249167D01*
X0028501Y0249123D01*
X0028463Y0249077D01*
X0028427Y0249028D01*
X0028394Y0248977D01*
X0028365Y0248925D01*
X0028338Y0248870D01*
X0028315Y0248815D01*
X0028295Y0248758D01*
X0028279Y0248699D01*
X0028266Y0248640D01*
X0028257Y0248581D01*
X0028252Y0248520D01*
X0028250Y0248460D01*
X0028250Y0241660D01*
X0028252Y0241600D01*
X0028257Y0241539D01*
X0028266Y0241480D01*
X0028279Y0241421D01*
X0028295Y0241362D01*
X0028315Y0241305D01*
X0028338Y0241250D01*
X0028365Y0241195D01*
X0028394Y0241143D01*
X0028427Y0241092D01*
X0028463Y0241043D01*
X0028501Y0240997D01*
X0028543Y0240953D01*
X0028587Y0240911D01*
X0028633Y0240873D01*
X0028682Y0240837D01*
X0028733Y0240804D01*
X0028785Y0240775D01*
X0028840Y0240748D01*
X0028895Y0240725D01*
X0028952Y0240705D01*
X0029011Y0240689D01*
X0029070Y0240676D01*
X0029129Y0240667D01*
X0029190Y0240662D01*
X0029250Y0240660D01*
X0035250Y0240660D01*
X0035310Y0240662D01*
X0035371Y0240667D01*
X0035430Y0240676D01*
X0035489Y0240689D01*
X0035548Y0240705D01*
X0035605Y0240725D01*
X0035660Y0240748D01*
X0035715Y0240775D01*
X0035767Y0240804D01*
X0035818Y0240837D01*
X0035867Y0240873D01*
X0035913Y0240911D01*
X0035957Y0240953D01*
X0035999Y0240997D01*
X0036037Y0241043D01*
X0036073Y0241092D01*
X0036106Y0241143D01*
X0036135Y0241195D01*
X0036162Y0241250D01*
X0036185Y0241305D01*
X0036205Y0241362D01*
X0036221Y0241421D01*
X0036234Y0241480D01*
X0036243Y0241539D01*
X0036248Y0241600D01*
X0036250Y0241660D01*
X0042117Y0283311D02*
X0041550Y0283878D01*
X0041550Y0285012D01*
X0042117Y0285579D01*
X0042684Y0285579D01*
X0043251Y0285012D01*
X0043251Y0284445D01*
X0043251Y0285012D02*
X0043819Y0285579D01*
X0044386Y0285579D01*
X0044953Y0285012D01*
X0044953Y0283878D01*
X0044386Y0283311D01*
X0044953Y0286994D02*
X0042684Y0286994D01*
X0041550Y0288128D01*
X0042684Y0289262D01*
X0044953Y0289262D01*
X0044386Y0290677D02*
X0044953Y0291244D01*
X0044953Y0292378D01*
X0044386Y0292945D01*
X0043819Y0292945D01*
X0043251Y0292378D01*
X0042684Y0292945D01*
X0042117Y0292945D01*
X0041550Y0292378D01*
X0041550Y0291244D01*
X0042117Y0290677D01*
X0043251Y0291811D02*
X0043251Y0292378D01*
X0038953Y0292378D02*
X0038953Y0291244D01*
X0038386Y0290677D01*
X0036117Y0290677D01*
X0035550Y0291244D01*
X0035550Y0292378D01*
X0036117Y0292945D01*
X0038386Y0292945D02*
X0038953Y0292378D01*
X0038953Y0289262D02*
X0035550Y0289262D01*
X0038953Y0286994D01*
X0035550Y0286994D01*
X0028953Y0286994D02*
X0025550Y0289262D01*
X0028953Y0289262D01*
X0028953Y0290677D02*
X0025550Y0290677D01*
X0025550Y0292378D01*
X0026117Y0292945D01*
X0028386Y0292945D01*
X0028953Y0292378D01*
X0028953Y0290677D01*
X0028953Y0286994D02*
X0025550Y0286994D01*
X0026117Y0285579D02*
X0027251Y0285579D01*
X0027251Y0284445D01*
X0026117Y0285579D02*
X0025550Y0285012D01*
X0025550Y0283878D01*
X0026117Y0283311D01*
X0028386Y0283311D01*
X0028953Y0283878D01*
X0028953Y0285012D01*
X0028386Y0285579D01*
X0051050Y0284538D02*
X0054453Y0284538D01*
X0054453Y0286240D01*
X0053886Y0286807D01*
X0052751Y0286807D01*
X0052184Y0286240D01*
X0052184Y0284538D01*
X0052184Y0285673D02*
X0051050Y0286807D01*
X0051050Y0288221D02*
X0054453Y0290490D01*
X0054453Y0291905D02*
X0054453Y0293039D01*
X0054453Y0292472D02*
X0051050Y0292472D01*
X0051050Y0291905D02*
X0051050Y0293039D01*
X0051050Y0290490D02*
X0054453Y0288221D01*
X0065550Y0289262D02*
X0068953Y0286994D01*
X0068953Y0285579D02*
X0068953Y0283311D01*
X0068953Y0284445D02*
X0065550Y0284445D01*
X0065550Y0286994D02*
X0068953Y0289262D01*
X0068386Y0290677D02*
X0066117Y0290677D01*
X0065550Y0291244D01*
X0065550Y0292378D01*
X0066117Y0292945D01*
X0068386Y0292945D01*
X0068953Y0292378D01*
X0068953Y0291244D01*
X0068386Y0290677D01*
X0075550Y0291244D02*
X0075550Y0292378D01*
X0076117Y0292945D01*
X0075550Y0291244D02*
X0076117Y0290677D01*
X0078386Y0290677D01*
X0078953Y0291244D01*
X0078953Y0292378D01*
X0078386Y0292945D01*
X0078953Y0289262D02*
X0075550Y0289262D01*
X0078953Y0286994D01*
X0075550Y0286994D01*
X0083612Y0280561D02*
X0083612Y0279427D01*
X0084179Y0278860D01*
X0085881Y0278860D01*
X0085881Y0282263D01*
X0085881Y0281129D02*
X0084179Y0281129D01*
X0083612Y0280561D01*
X0087202Y0278860D02*
X0088336Y0278860D01*
X0087769Y0278860D02*
X0087769Y0282263D01*
X0088336Y0282263D01*
X0089751Y0281129D02*
X0089751Y0278860D01*
X0091452Y0278860D01*
X0092019Y0279427D01*
X0092019Y0281129D01*
X0093434Y0281129D02*
X0094001Y0280561D01*
X0095702Y0280561D01*
X0095702Y0278860D02*
X0095702Y0282263D01*
X0094001Y0282263D01*
X0093434Y0281696D01*
X0093434Y0281129D01*
X0094001Y0280561D02*
X0093434Y0279994D01*
X0093434Y0279427D01*
X0094001Y0278860D01*
X0095702Y0278860D01*
X0035250Y0149460D02*
X0029250Y0149460D01*
X0029190Y0149458D01*
X0029129Y0149453D01*
X0029070Y0149444D01*
X0029011Y0149431D01*
X0028952Y0149415D01*
X0028895Y0149395D01*
X0028840Y0149372D01*
X0028785Y0149345D01*
X0028733Y0149316D01*
X0028682Y0149283D01*
X0028633Y0149247D01*
X0028587Y0149209D01*
X0028543Y0149167D01*
X0028501Y0149123D01*
X0028463Y0149077D01*
X0028427Y0149028D01*
X0028394Y0148977D01*
X0028365Y0148925D01*
X0028338Y0148870D01*
X0028315Y0148815D01*
X0028295Y0148758D01*
X0028279Y0148699D01*
X0028266Y0148640D01*
X0028257Y0148581D01*
X0028252Y0148520D01*
X0028250Y0148460D01*
X0028250Y0141660D01*
X0028252Y0141600D01*
X0028257Y0141539D01*
X0028266Y0141480D01*
X0028279Y0141421D01*
X0028295Y0141362D01*
X0028315Y0141305D01*
X0028338Y0141250D01*
X0028365Y0141195D01*
X0028394Y0141143D01*
X0028427Y0141092D01*
X0028463Y0141043D01*
X0028501Y0140997D01*
X0028543Y0140953D01*
X0028587Y0140911D01*
X0028633Y0140873D01*
X0028682Y0140837D01*
X0028733Y0140804D01*
X0028785Y0140775D01*
X0028840Y0140748D01*
X0028895Y0140725D01*
X0028952Y0140705D01*
X0029011Y0140689D01*
X0029070Y0140676D01*
X0029129Y0140667D01*
X0029190Y0140662D01*
X0029250Y0140660D01*
X0035250Y0140660D01*
X0035310Y0140662D01*
X0035371Y0140667D01*
X0035430Y0140676D01*
X0035489Y0140689D01*
X0035548Y0140705D01*
X0035605Y0140725D01*
X0035660Y0140748D01*
X0035715Y0140775D01*
X0035767Y0140804D01*
X0035818Y0140837D01*
X0035867Y0140873D01*
X0035913Y0140911D01*
X0035957Y0140953D01*
X0035999Y0140997D01*
X0036037Y0141043D01*
X0036073Y0141092D01*
X0036106Y0141143D01*
X0036135Y0141195D01*
X0036162Y0141250D01*
X0036185Y0141305D01*
X0036205Y0141362D01*
X0036221Y0141421D01*
X0036234Y0141480D01*
X0036243Y0141539D01*
X0036248Y0141600D01*
X0036250Y0141660D01*
X0036250Y0148460D01*
X0036248Y0148520D01*
X0036243Y0148581D01*
X0036234Y0148640D01*
X0036221Y0148699D01*
X0036205Y0148758D01*
X0036185Y0148815D01*
X0036162Y0148870D01*
X0036135Y0148925D01*
X0036106Y0148977D01*
X0036073Y0149028D01*
X0036037Y0149077D01*
X0035999Y0149123D01*
X0035957Y0149167D01*
X0035913Y0149209D01*
X0035867Y0149247D01*
X0035818Y0149283D01*
X0035767Y0149316D01*
X0035715Y0149345D01*
X0035660Y0149372D01*
X0035605Y0149395D01*
X0035548Y0149415D01*
X0035489Y0149431D01*
X0035430Y0149444D01*
X0035371Y0149453D01*
X0035310Y0149458D01*
X0035250Y0149460D01*
X0030150Y0127109D02*
X0030150Y0116060D01*
X0028953Y0116360D02*
X0028953Y0118061D01*
X0028386Y0118629D01*
X0027251Y0118629D01*
X0026684Y0118061D01*
X0026684Y0116360D01*
X0025550Y0116360D02*
X0028953Y0116360D01*
X0026684Y0117494D02*
X0025550Y0118629D01*
X0026117Y0120043D02*
X0025550Y0120610D01*
X0025550Y0121745D01*
X0026117Y0122312D01*
X0026684Y0122312D01*
X0027251Y0121745D01*
X0027251Y0120610D01*
X0027819Y0120043D01*
X0028386Y0120043D01*
X0028953Y0120610D01*
X0028953Y0121745D01*
X0028386Y0122312D01*
X0028953Y0123726D02*
X0028953Y0125995D01*
X0028953Y0124861D02*
X0025550Y0124861D01*
X0035550Y0123633D02*
X0038953Y0123633D01*
X0038953Y0122499D02*
X0038953Y0124767D01*
X0040150Y0125882D02*
X0040150Y0116060D01*
X0038953Y0116360D02*
X0038953Y0117494D01*
X0038953Y0116927D02*
X0035550Y0116927D01*
X0035550Y0116360D02*
X0035550Y0117494D01*
X0035550Y0118815D02*
X0038953Y0118815D01*
X0035550Y0121084D01*
X0038953Y0121084D01*
X0045550Y0120610D02*
X0045550Y0121745D01*
X0046117Y0122312D01*
X0045550Y0123726D02*
X0045550Y0125995D01*
X0045550Y0123726D02*
X0048953Y0123726D01*
X0048386Y0122312D02*
X0048953Y0121745D01*
X0048953Y0120610D01*
X0048386Y0120043D01*
X0046117Y0120043D01*
X0045550Y0120610D01*
X0046117Y0118629D02*
X0045550Y0118061D01*
X0045550Y0116927D01*
X0046117Y0116360D01*
X0047251Y0116927D02*
X0047251Y0118061D01*
X0046684Y0118629D01*
X0046117Y0118629D01*
X0047251Y0116927D02*
X0047819Y0116360D01*
X0048386Y0116360D01*
X0048953Y0116927D01*
X0048953Y0118061D01*
X0048386Y0118629D01*
X0055550Y0118061D02*
X0055550Y0116927D01*
X0056117Y0116360D01*
X0057251Y0116927D02*
X0057251Y0118061D01*
X0056684Y0118629D01*
X0056117Y0118629D01*
X0055550Y0118061D01*
X0055550Y0120043D02*
X0055550Y0121745D01*
X0056117Y0122312D01*
X0058386Y0122312D01*
X0058953Y0121745D01*
X0058953Y0120043D01*
X0055550Y0120043D01*
X0058386Y0118629D02*
X0058953Y0118061D01*
X0058953Y0116927D01*
X0058386Y0116360D01*
X0057819Y0116360D01*
X0057251Y0116927D01*
X0057251Y0123726D02*
X0057251Y0125995D01*
X0057819Y0125995D02*
X0055550Y0125995D01*
X0057819Y0125995D02*
X0058953Y0124861D01*
X0057819Y0123726D01*
X0055550Y0123726D01*
X0065550Y0124293D02*
X0066117Y0123726D01*
X0065550Y0124293D02*
X0065550Y0125428D01*
X0066117Y0125995D01*
X0066684Y0125995D01*
X0067251Y0125428D01*
X0067251Y0124861D01*
X0067251Y0125428D02*
X0067819Y0125995D01*
X0068386Y0125995D01*
X0068953Y0125428D01*
X0068953Y0124293D01*
X0068386Y0123726D01*
X0068953Y0122312D02*
X0066684Y0122312D01*
X0065550Y0121177D01*
X0066684Y0120043D01*
X0068953Y0120043D01*
X0068386Y0118629D02*
X0067819Y0118629D01*
X0067251Y0118061D01*
X0066684Y0118629D01*
X0066117Y0118629D01*
X0065550Y0118061D01*
X0065550Y0116927D01*
X0066117Y0116360D01*
X0067251Y0117494D02*
X0067251Y0118061D01*
X0068386Y0118629D02*
X0068953Y0118061D01*
X0068953Y0116927D01*
X0068386Y0116360D01*
X0075550Y0116927D02*
X0075550Y0118061D01*
X0076117Y0118629D01*
X0077251Y0118629D01*
X0077251Y0117494D01*
X0076117Y0116360D02*
X0078386Y0116360D01*
X0078953Y0116927D01*
X0078953Y0118061D01*
X0078386Y0118629D01*
X0078953Y0120043D02*
X0075550Y0122312D01*
X0078953Y0122312D01*
X0078953Y0123726D02*
X0078953Y0125428D01*
X0078386Y0125995D01*
X0076117Y0125995D01*
X0075550Y0125428D01*
X0075550Y0123726D01*
X0078953Y0123726D01*
X0078953Y0120043D02*
X0075550Y0120043D01*
X0075550Y0116927D02*
X0076117Y0116360D01*
X0129250Y0049460D02*
X0135250Y0049460D01*
X0135310Y0049458D01*
X0135371Y0049453D01*
X0135430Y0049444D01*
X0135489Y0049431D01*
X0135548Y0049415D01*
X0135605Y0049395D01*
X0135660Y0049372D01*
X0135715Y0049345D01*
X0135767Y0049316D01*
X0135818Y0049283D01*
X0135867Y0049247D01*
X0135913Y0049209D01*
X0135957Y0049167D01*
X0135999Y0049123D01*
X0136037Y0049077D01*
X0136073Y0049028D01*
X0136106Y0048977D01*
X0136135Y0048925D01*
X0136162Y0048870D01*
X0136185Y0048815D01*
X0136205Y0048758D01*
X0136221Y0048699D01*
X0136234Y0048640D01*
X0136243Y0048581D01*
X0136248Y0048520D01*
X0136250Y0048460D01*
X0136250Y0041660D01*
X0136248Y0041600D01*
X0136243Y0041539D01*
X0136234Y0041480D01*
X0136221Y0041421D01*
X0136205Y0041362D01*
X0136185Y0041305D01*
X0136162Y0041250D01*
X0136135Y0041195D01*
X0136106Y0041143D01*
X0136073Y0041092D01*
X0136037Y0041043D01*
X0135999Y0040997D01*
X0135957Y0040953D01*
X0135913Y0040911D01*
X0135867Y0040873D01*
X0135818Y0040837D01*
X0135767Y0040804D01*
X0135715Y0040775D01*
X0135660Y0040748D01*
X0135605Y0040725D01*
X0135548Y0040705D01*
X0135489Y0040689D01*
X0135430Y0040676D01*
X0135371Y0040667D01*
X0135310Y0040662D01*
X0135250Y0040660D01*
X0129250Y0040660D01*
X0129190Y0040662D01*
X0129129Y0040667D01*
X0129070Y0040676D01*
X0129011Y0040689D01*
X0128952Y0040705D01*
X0128895Y0040725D01*
X0128840Y0040748D01*
X0128785Y0040775D01*
X0128733Y0040804D01*
X0128682Y0040837D01*
X0128633Y0040873D01*
X0128587Y0040911D01*
X0128543Y0040953D01*
X0128501Y0040997D01*
X0128463Y0041043D01*
X0128427Y0041092D01*
X0128394Y0041143D01*
X0128365Y0041195D01*
X0128338Y0041250D01*
X0128315Y0041305D01*
X0128295Y0041362D01*
X0128279Y0041421D01*
X0128266Y0041480D01*
X0128257Y0041539D01*
X0128252Y0041600D01*
X0128250Y0041660D01*
X0128250Y0048460D01*
X0128252Y0048520D01*
X0128257Y0048581D01*
X0128266Y0048640D01*
X0128279Y0048699D01*
X0128295Y0048758D01*
X0128315Y0048815D01*
X0128338Y0048870D01*
X0128365Y0048925D01*
X0128394Y0048977D01*
X0128427Y0049028D01*
X0128463Y0049077D01*
X0128501Y0049123D01*
X0128543Y0049167D01*
X0128587Y0049209D01*
X0128633Y0049247D01*
X0128682Y0049283D01*
X0128733Y0049316D01*
X0128785Y0049345D01*
X0128840Y0049372D01*
X0128895Y0049395D01*
X0128952Y0049415D01*
X0129011Y0049431D01*
X0129070Y0049444D01*
X0129129Y0049453D01*
X0129190Y0049458D01*
X0129250Y0049460D01*
X0130150Y0027109D02*
X0130150Y0016060D01*
X0128953Y0016360D02*
X0128953Y0018061D01*
X0128386Y0018629D01*
X0127251Y0018629D01*
X0126684Y0018061D01*
X0126684Y0016360D01*
X0125550Y0016360D02*
X0128953Y0016360D01*
X0126684Y0017494D02*
X0125550Y0018629D01*
X0126117Y0020043D02*
X0125550Y0020610D01*
X0125550Y0021745D01*
X0126117Y0022312D01*
X0126684Y0022312D01*
X0127251Y0021745D01*
X0127251Y0020610D01*
X0127819Y0020043D01*
X0128386Y0020043D01*
X0128953Y0020610D01*
X0128953Y0021745D01*
X0128386Y0022312D01*
X0128953Y0023726D02*
X0128953Y0025995D01*
X0128953Y0024861D02*
X0125550Y0024861D01*
X0135550Y0023633D02*
X0138953Y0023633D01*
X0138953Y0022499D02*
X0138953Y0024767D01*
X0140150Y0025882D02*
X0140150Y0016060D01*
X0138953Y0016360D02*
X0138953Y0017494D01*
X0138953Y0016927D02*
X0135550Y0016927D01*
X0135550Y0016360D02*
X0135550Y0017494D01*
X0135550Y0018815D02*
X0138953Y0018815D01*
X0135550Y0021084D01*
X0138953Y0021084D01*
X0145550Y0020610D02*
X0145550Y0021745D01*
X0146117Y0022312D01*
X0145550Y0023726D02*
X0145550Y0025995D01*
X0145550Y0023726D02*
X0148953Y0023726D01*
X0148386Y0022312D02*
X0148953Y0021745D01*
X0148953Y0020610D01*
X0148386Y0020043D01*
X0146117Y0020043D01*
X0145550Y0020610D01*
X0146117Y0018629D02*
X0145550Y0018061D01*
X0145550Y0016927D01*
X0146117Y0016360D01*
X0147251Y0016927D02*
X0147251Y0018061D01*
X0146684Y0018629D01*
X0146117Y0018629D01*
X0147251Y0016927D02*
X0147819Y0016360D01*
X0148386Y0016360D01*
X0148953Y0016927D01*
X0148953Y0018061D01*
X0148386Y0018629D01*
X0155550Y0018061D02*
X0155550Y0016927D01*
X0156117Y0016360D01*
X0157251Y0016927D02*
X0157251Y0018061D01*
X0156684Y0018629D01*
X0156117Y0018629D01*
X0155550Y0018061D01*
X0155550Y0020043D02*
X0155550Y0021745D01*
X0156117Y0022312D01*
X0158386Y0022312D01*
X0158953Y0021745D01*
X0158953Y0020043D01*
X0155550Y0020043D01*
X0158386Y0018629D02*
X0158953Y0018061D01*
X0158953Y0016927D01*
X0158386Y0016360D01*
X0157819Y0016360D01*
X0157251Y0016927D01*
X0157251Y0023726D02*
X0157251Y0025995D01*
X0157819Y0025995D02*
X0155550Y0025995D01*
X0157819Y0025995D02*
X0158953Y0024861D01*
X0157819Y0023726D01*
X0155550Y0023726D01*
X0165550Y0024293D02*
X0166117Y0023726D01*
X0165550Y0024293D02*
X0165550Y0025428D01*
X0166117Y0025995D01*
X0166684Y0025995D01*
X0167251Y0025428D01*
X0167251Y0024861D01*
X0167251Y0025428D02*
X0167819Y0025995D01*
X0168386Y0025995D01*
X0168953Y0025428D01*
X0168953Y0024293D01*
X0168386Y0023726D01*
X0168953Y0022312D02*
X0166684Y0022312D01*
X0165550Y0021177D01*
X0166684Y0020043D01*
X0168953Y0020043D01*
X0168386Y0018629D02*
X0167819Y0018629D01*
X0167251Y0018061D01*
X0166684Y0018629D01*
X0166117Y0018629D01*
X0165550Y0018061D01*
X0165550Y0016927D01*
X0166117Y0016360D01*
X0167251Y0017494D02*
X0167251Y0018061D01*
X0168386Y0018629D02*
X0168953Y0018061D01*
X0168953Y0016927D01*
X0168386Y0016360D01*
X0175550Y0016927D02*
X0175550Y0018061D01*
X0176117Y0018629D01*
X0177251Y0018629D01*
X0177251Y0017494D01*
X0176117Y0016360D02*
X0178386Y0016360D01*
X0178953Y0016927D01*
X0178953Y0018061D01*
X0178386Y0018629D01*
X0178953Y0020043D02*
X0175550Y0020043D01*
X0175550Y0022312D02*
X0178953Y0022312D01*
X0178953Y0023726D02*
X0178953Y0025428D01*
X0178386Y0025995D01*
X0176117Y0025995D01*
X0175550Y0025428D01*
X0175550Y0023726D01*
X0178953Y0023726D01*
X0178953Y0020043D02*
X0175550Y0022312D01*
X0175550Y0016927D02*
X0176117Y0016360D01*
X0225550Y0016360D02*
X0228953Y0016360D01*
X0228953Y0018061D01*
X0228386Y0018629D01*
X0227251Y0018629D01*
X0226684Y0018061D01*
X0226684Y0016360D01*
X0226684Y0017494D02*
X0225550Y0018629D01*
X0226117Y0020043D02*
X0225550Y0020610D01*
X0225550Y0021745D01*
X0226117Y0022312D01*
X0226684Y0022312D01*
X0227251Y0021745D01*
X0227251Y0020610D01*
X0227819Y0020043D01*
X0228386Y0020043D01*
X0228953Y0020610D01*
X0228953Y0021745D01*
X0228386Y0022312D01*
X0228953Y0023726D02*
X0228953Y0025995D01*
X0228953Y0024861D02*
X0225550Y0024861D01*
X0230150Y0027109D02*
X0230150Y0016060D01*
X0235550Y0016360D02*
X0235550Y0017494D01*
X0235550Y0016927D02*
X0238953Y0016927D01*
X0238953Y0016360D02*
X0238953Y0017494D01*
X0238953Y0018815D02*
X0235550Y0021084D01*
X0238953Y0021084D01*
X0238953Y0022499D02*
X0238953Y0024767D01*
X0238953Y0023633D02*
X0235550Y0023633D01*
X0235550Y0018815D02*
X0238953Y0018815D01*
X0240150Y0016060D02*
X0240150Y0025882D01*
X0245550Y0025995D02*
X0245550Y0023726D01*
X0248953Y0023726D01*
X0248386Y0022312D02*
X0248953Y0021745D01*
X0248953Y0020610D01*
X0248386Y0020043D01*
X0246117Y0020043D01*
X0245550Y0020610D01*
X0245550Y0021745D01*
X0246117Y0022312D01*
X0246117Y0018629D02*
X0245550Y0018061D01*
X0245550Y0016927D01*
X0246117Y0016360D01*
X0247251Y0016927D02*
X0247251Y0018061D01*
X0246684Y0018629D01*
X0246117Y0018629D01*
X0247251Y0016927D02*
X0247819Y0016360D01*
X0248386Y0016360D01*
X0248953Y0016927D01*
X0248953Y0018061D01*
X0248386Y0018629D01*
X0255550Y0018061D02*
X0255550Y0016927D01*
X0256117Y0016360D01*
X0257251Y0016927D02*
X0257251Y0018061D01*
X0256684Y0018629D01*
X0256117Y0018629D01*
X0255550Y0018061D01*
X0255550Y0020043D02*
X0255550Y0021745D01*
X0256117Y0022312D01*
X0258386Y0022312D01*
X0258953Y0021745D01*
X0258953Y0020043D01*
X0255550Y0020043D01*
X0258386Y0018629D02*
X0258953Y0018061D01*
X0258953Y0016927D01*
X0258386Y0016360D01*
X0257819Y0016360D01*
X0257251Y0016927D01*
X0257251Y0023726D02*
X0257251Y0025995D01*
X0257819Y0025995D02*
X0255550Y0025995D01*
X0257819Y0025995D02*
X0258953Y0024861D01*
X0257819Y0023726D01*
X0255550Y0023726D01*
X0265550Y0024293D02*
X0266117Y0023726D01*
X0265550Y0024293D02*
X0265550Y0025428D01*
X0266117Y0025995D01*
X0266684Y0025995D01*
X0267251Y0025428D01*
X0267251Y0024861D01*
X0267251Y0025428D02*
X0267819Y0025995D01*
X0268386Y0025995D01*
X0268953Y0025428D01*
X0268953Y0024293D01*
X0268386Y0023726D01*
X0268953Y0022312D02*
X0266684Y0022312D01*
X0265550Y0021177D01*
X0266684Y0020043D01*
X0268953Y0020043D01*
X0268386Y0018629D02*
X0267819Y0018629D01*
X0267251Y0018061D01*
X0266684Y0018629D01*
X0266117Y0018629D01*
X0265550Y0018061D01*
X0265550Y0016927D01*
X0266117Y0016360D01*
X0267251Y0017494D02*
X0267251Y0018061D01*
X0268386Y0018629D02*
X0268953Y0018061D01*
X0268953Y0016927D01*
X0268386Y0016360D01*
X0275550Y0016927D02*
X0275550Y0018061D01*
X0276117Y0018629D01*
X0277251Y0018629D01*
X0277251Y0017494D01*
X0276117Y0016360D02*
X0278386Y0016360D01*
X0278953Y0016927D01*
X0278953Y0018061D01*
X0278386Y0018629D01*
X0278953Y0020043D02*
X0275550Y0020043D01*
X0275550Y0022312D02*
X0278953Y0022312D01*
X0278953Y0023726D02*
X0278953Y0025428D01*
X0278386Y0025995D01*
X0276117Y0025995D01*
X0275550Y0025428D01*
X0275550Y0023726D01*
X0278953Y0023726D01*
X0278953Y0020043D02*
X0275550Y0022312D01*
X0275550Y0016927D02*
X0276117Y0016360D01*
X0236250Y0041660D02*
X0236250Y0048460D01*
X0236248Y0048520D01*
X0236243Y0048581D01*
X0236234Y0048640D01*
X0236221Y0048699D01*
X0236205Y0048758D01*
X0236185Y0048815D01*
X0236162Y0048870D01*
X0236135Y0048925D01*
X0236106Y0048977D01*
X0236073Y0049028D01*
X0236037Y0049077D01*
X0235999Y0049123D01*
X0235957Y0049167D01*
X0235913Y0049209D01*
X0235867Y0049247D01*
X0235818Y0049283D01*
X0235767Y0049316D01*
X0235715Y0049345D01*
X0235660Y0049372D01*
X0235605Y0049395D01*
X0235548Y0049415D01*
X0235489Y0049431D01*
X0235430Y0049444D01*
X0235371Y0049453D01*
X0235310Y0049458D01*
X0235250Y0049460D01*
X0229250Y0049460D01*
X0229190Y0049458D01*
X0229129Y0049453D01*
X0229070Y0049444D01*
X0229011Y0049431D01*
X0228952Y0049415D01*
X0228895Y0049395D01*
X0228840Y0049372D01*
X0228785Y0049345D01*
X0228733Y0049316D01*
X0228682Y0049283D01*
X0228633Y0049247D01*
X0228587Y0049209D01*
X0228543Y0049167D01*
X0228501Y0049123D01*
X0228463Y0049077D01*
X0228427Y0049028D01*
X0228394Y0048977D01*
X0228365Y0048925D01*
X0228338Y0048870D01*
X0228315Y0048815D01*
X0228295Y0048758D01*
X0228279Y0048699D01*
X0228266Y0048640D01*
X0228257Y0048581D01*
X0228252Y0048520D01*
X0228250Y0048460D01*
X0228250Y0041660D01*
X0228252Y0041600D01*
X0228257Y0041539D01*
X0228266Y0041480D01*
X0228279Y0041421D01*
X0228295Y0041362D01*
X0228315Y0041305D01*
X0228338Y0041250D01*
X0228365Y0041195D01*
X0228394Y0041143D01*
X0228427Y0041092D01*
X0228463Y0041043D01*
X0228501Y0040997D01*
X0228543Y0040953D01*
X0228587Y0040911D01*
X0228633Y0040873D01*
X0228682Y0040837D01*
X0228733Y0040804D01*
X0228785Y0040775D01*
X0228840Y0040748D01*
X0228895Y0040725D01*
X0228952Y0040705D01*
X0229011Y0040689D01*
X0229070Y0040676D01*
X0229129Y0040667D01*
X0229190Y0040662D01*
X0229250Y0040660D01*
X0235250Y0040660D01*
X0235310Y0040662D01*
X0235371Y0040667D01*
X0235430Y0040676D01*
X0235489Y0040689D01*
X0235548Y0040705D01*
X0235605Y0040725D01*
X0235660Y0040748D01*
X0235715Y0040775D01*
X0235767Y0040804D01*
X0235818Y0040837D01*
X0235867Y0040873D01*
X0235913Y0040911D01*
X0235957Y0040953D01*
X0235999Y0040997D01*
X0236037Y0041043D01*
X0236073Y0041092D01*
X0236106Y0041143D01*
X0236135Y0041195D01*
X0236162Y0041250D01*
X0236185Y0041305D01*
X0236205Y0041362D01*
X0236221Y0041421D01*
X0236234Y0041480D01*
X0236243Y0041539D01*
X0236248Y0041600D01*
X0236250Y0041660D01*
D11*
X0226503Y0041477D02*
X0226503Y0042478D01*
X0226503Y0041977D02*
X0224000Y0041977D01*
X0223500Y0041477D01*
X0223500Y0040976D01*
X0224000Y0040476D01*
X0223500Y0043699D02*
X0226503Y0043699D01*
X0226503Y0045200D01*
X0226002Y0045700D01*
X0225001Y0045700D01*
X0224501Y0045200D01*
X0224501Y0043699D01*
X0223500Y0046921D02*
X0225502Y0048923D01*
X0226002Y0048923D01*
X0226503Y0048423D01*
X0226503Y0047422D01*
X0226002Y0046921D01*
X0223500Y0046921D02*
X0223500Y0048923D01*
X0224000Y0140476D02*
X0223500Y0140976D01*
X0223500Y0141477D01*
X0224000Y0141977D01*
X0226503Y0141977D01*
X0226503Y0141477D02*
X0226503Y0142478D01*
X0226503Y0143699D02*
X0223500Y0143699D01*
X0224501Y0143699D02*
X0224501Y0145200D01*
X0225001Y0145700D01*
X0226002Y0145700D01*
X0226503Y0145200D01*
X0226503Y0143699D01*
X0226002Y0146921D02*
X0226503Y0147422D01*
X0226503Y0148423D01*
X0226002Y0148923D01*
X0225502Y0148923D01*
X0223500Y0146921D01*
X0223500Y0148923D01*
X0224000Y0240476D02*
X0223500Y0240976D01*
X0223500Y0241477D01*
X0224000Y0241977D01*
X0226503Y0241977D01*
X0226503Y0241477D02*
X0226503Y0242478D01*
X0226503Y0243699D02*
X0223500Y0243699D01*
X0224501Y0243699D02*
X0224501Y0245200D01*
X0225001Y0245700D01*
X0226002Y0245700D01*
X0226503Y0245200D01*
X0226503Y0243699D01*
X0226002Y0246921D02*
X0226503Y0247422D01*
X0226503Y0248423D01*
X0226002Y0248923D01*
X0225502Y0248923D01*
X0223500Y0246921D01*
X0223500Y0248923D01*
X0126503Y0248423D02*
X0126503Y0247422D01*
X0126002Y0246921D01*
X0126002Y0245700D02*
X0125001Y0245700D01*
X0124501Y0245200D01*
X0124501Y0243699D01*
X0123500Y0243699D02*
X0126503Y0243699D01*
X0126503Y0245200D01*
X0126002Y0245700D01*
X0126503Y0248423D02*
X0126002Y0248923D01*
X0125502Y0248923D01*
X0123500Y0246921D01*
X0123500Y0248923D01*
X0124000Y0241977D02*
X0126503Y0241977D01*
X0126503Y0241477D02*
X0126503Y0242478D01*
X0124000Y0241977D02*
X0123500Y0241477D01*
X0123500Y0240976D01*
X0124000Y0240476D01*
X0123500Y0148923D02*
X0123500Y0146921D01*
X0125502Y0148923D01*
X0126002Y0148923D01*
X0126503Y0148423D01*
X0126503Y0147422D01*
X0126002Y0146921D01*
X0126002Y0145700D02*
X0125001Y0145700D01*
X0124501Y0145200D01*
X0124501Y0143699D01*
X0123500Y0143699D02*
X0126503Y0143699D01*
X0126503Y0145200D01*
X0126002Y0145700D01*
X0126503Y0142478D02*
X0126503Y0141477D01*
X0126503Y0141977D02*
X0124000Y0141977D01*
X0123500Y0141477D01*
X0123500Y0140976D01*
X0124000Y0140476D01*
X0123500Y0048923D02*
X0123500Y0046921D01*
X0125502Y0048923D01*
X0126002Y0048923D01*
X0126503Y0048423D01*
X0126503Y0047422D01*
X0126002Y0046921D01*
X0126002Y0045700D02*
X0125001Y0045700D01*
X0124501Y0045200D01*
X0124501Y0043699D01*
X0123500Y0043699D02*
X0126503Y0043699D01*
X0126503Y0045200D01*
X0126002Y0045700D01*
X0126503Y0042478D02*
X0126503Y0041477D01*
X0126503Y0041977D02*
X0124000Y0041977D01*
X0123500Y0041477D01*
X0123500Y0040976D01*
X0124000Y0040476D01*
X0026503Y0041477D02*
X0026503Y0042478D01*
X0026503Y0041977D02*
X0024000Y0041977D01*
X0023500Y0041477D01*
X0023500Y0040976D01*
X0024000Y0040476D01*
X0023500Y0043699D02*
X0026503Y0043699D01*
X0026503Y0045200D01*
X0026002Y0045700D01*
X0025001Y0045700D01*
X0024501Y0045200D01*
X0024501Y0043699D01*
X0023500Y0046921D02*
X0025502Y0048923D01*
X0026002Y0048923D01*
X0026503Y0048423D01*
X0026503Y0047422D01*
X0026002Y0046921D01*
X0023500Y0046921D02*
X0023500Y0048923D01*
X0024000Y0140476D02*
X0023500Y0140976D01*
X0023500Y0141477D01*
X0024000Y0141977D01*
X0026503Y0141977D01*
X0026503Y0141477D02*
X0026503Y0142478D01*
X0026503Y0143699D02*
X0023500Y0143699D01*
X0024501Y0143699D02*
X0024501Y0145200D01*
X0025001Y0145700D01*
X0026002Y0145700D01*
X0026503Y0145200D01*
X0026503Y0143699D01*
X0026002Y0146921D02*
X0026503Y0147422D01*
X0026503Y0148423D01*
X0026002Y0148923D01*
X0025502Y0148923D01*
X0023500Y0146921D01*
X0023500Y0148923D01*
X0024000Y0240476D02*
X0023500Y0240976D01*
X0023500Y0241477D01*
X0024000Y0241977D01*
X0026503Y0241977D01*
X0026503Y0241477D02*
X0026503Y0242478D01*
X0026503Y0243699D02*
X0023500Y0243699D01*
X0024501Y0243699D02*
X0024501Y0245200D01*
X0025001Y0245700D01*
X0026002Y0245700D01*
X0026503Y0245200D01*
X0026503Y0243699D01*
X0026002Y0246921D02*
X0026503Y0247422D01*
X0026503Y0248423D01*
X0026002Y0248923D01*
X0025502Y0248923D01*
X0023500Y0246921D01*
X0023500Y0248923D01*
D12*
X0032959Y0250460D02*
X0034360Y0251861D01*
X0033659Y0251861D02*
X0035761Y0251861D01*
X0035761Y0250460D02*
X0035761Y0254664D01*
X0033659Y0254664D01*
X0032959Y0253963D01*
X0032959Y0252562D01*
X0033659Y0251861D01*
X0037429Y0250460D02*
X0038830Y0250460D01*
X0038130Y0250460D02*
X0038130Y0254664D01*
X0038830Y0254664D02*
X0037429Y0254664D01*
X0040632Y0252562D02*
X0043434Y0252562D01*
X0045236Y0253262D02*
X0045936Y0252562D01*
X0045236Y0251861D01*
X0045236Y0251161D01*
X0045936Y0250460D01*
X0047338Y0250460D01*
X0048038Y0251161D01*
X0049840Y0251161D02*
X0049840Y0251861D01*
X0050540Y0252562D01*
X0052642Y0252562D01*
X0052642Y0251161D01*
X0051942Y0250460D01*
X0050540Y0250460D01*
X0049840Y0251161D01*
X0051241Y0253963D02*
X0052642Y0252562D01*
X0054444Y0253262D02*
X0054444Y0253963D01*
X0055144Y0254664D01*
X0056545Y0254664D01*
X0057246Y0253963D01*
X0059048Y0253963D02*
X0061850Y0251161D01*
X0061850Y0250460D01*
X0061850Y0254664D02*
X0059048Y0254664D01*
X0059048Y0253963D01*
X0057246Y0250460D02*
X0054444Y0253262D01*
X0054444Y0250460D02*
X0057246Y0250460D01*
X0051241Y0253963D02*
X0049840Y0254664D01*
X0048038Y0253963D02*
X0047338Y0254664D01*
X0045936Y0254664D01*
X0045236Y0253963D01*
X0045236Y0253262D01*
X0045936Y0252562D02*
X0046637Y0252562D01*
X0045236Y0260460D02*
X0048038Y0260460D01*
X0045236Y0263262D01*
X0045236Y0263963D01*
X0045936Y0264664D01*
X0047338Y0264664D01*
X0048038Y0263963D01*
X0049840Y0264664D02*
X0051241Y0263963D01*
X0052642Y0262562D01*
X0050540Y0262562D01*
X0049840Y0261861D01*
X0049840Y0261161D01*
X0050540Y0260460D01*
X0051942Y0260460D01*
X0052642Y0261161D01*
X0052642Y0262562D01*
X0054444Y0263262D02*
X0054444Y0263963D01*
X0055144Y0264664D01*
X0056545Y0264664D01*
X0057246Y0263963D01*
X0059048Y0263963D02*
X0061850Y0261161D01*
X0061850Y0260460D01*
X0061850Y0264664D02*
X0059048Y0264664D01*
X0059048Y0263963D01*
X0057246Y0260460D02*
X0054444Y0263262D01*
X0054444Y0260460D02*
X0057246Y0260460D01*
X0057939Y0272960D02*
X0056538Y0272960D01*
X0057939Y0272960D02*
X0058640Y0273661D01*
X0058640Y0275062D01*
X0057939Y0275762D01*
X0056538Y0275762D01*
X0055837Y0275062D01*
X0055837Y0274361D01*
X0058640Y0274361D01*
X0060441Y0274361D02*
X0060441Y0273661D01*
X0061142Y0272960D01*
X0062543Y0272960D01*
X0063243Y0273661D01*
X0062543Y0275062D02*
X0061142Y0275062D01*
X0060441Y0274361D01*
X0060441Y0276463D02*
X0061142Y0277164D01*
X0062543Y0277164D01*
X0063243Y0276463D01*
X0063243Y0275762D01*
X0062543Y0275062D01*
X0054036Y0275762D02*
X0054036Y0272960D01*
X0054036Y0274361D02*
X0052634Y0275762D01*
X0051934Y0275762D01*
X0050199Y0275762D02*
X0049498Y0275762D01*
X0049498Y0272960D01*
X0048798Y0272960D02*
X0050199Y0272960D01*
X0047130Y0273661D02*
X0046429Y0274361D01*
X0044327Y0274361D01*
X0044327Y0275062D02*
X0044327Y0272960D01*
X0046429Y0272960D01*
X0047130Y0273661D01*
X0046429Y0275762D02*
X0045028Y0275762D01*
X0044327Y0275062D01*
X0042526Y0277164D02*
X0041825Y0277164D01*
X0041825Y0272960D01*
X0041125Y0272960D02*
X0042526Y0272960D01*
X0033526Y0265364D02*
X0033526Y0264664D01*
X0033526Y0263262D02*
X0033526Y0260460D01*
X0034226Y0260460D02*
X0032825Y0260460D01*
X0031157Y0260460D02*
X0029055Y0260460D01*
X0028355Y0261161D01*
X0029055Y0261861D01*
X0030457Y0261861D01*
X0031157Y0262562D01*
X0030457Y0263262D01*
X0028355Y0263262D01*
X0033526Y0263262D02*
X0034226Y0263262D01*
X0036028Y0261861D02*
X0036028Y0264664D01*
X0038830Y0264664D02*
X0038830Y0261861D01*
X0037429Y0260460D01*
X0036028Y0261861D01*
X0040632Y0262562D02*
X0043434Y0262562D01*
X0049498Y0277164D02*
X0049498Y0277864D01*
X0060350Y0288760D02*
X0060350Y0291460D01*
X0054250Y0295560D02*
X0052750Y0294060D01*
X0044750Y0295560D02*
X0043250Y0294060D01*
X0047714Y0237164D02*
X0049115Y0237164D01*
X0049815Y0236463D01*
X0049815Y0233661D01*
X0049115Y0232960D01*
X0047714Y0232960D01*
X0047013Y0233661D01*
X0047013Y0236463D02*
X0047714Y0237164D01*
X0051617Y0236463D02*
X0052317Y0237164D01*
X0053719Y0237164D01*
X0054419Y0236463D01*
X0056087Y0237164D02*
X0057489Y0237164D01*
X0056788Y0237164D02*
X0056788Y0232960D01*
X0057489Y0232960D02*
X0056087Y0232960D01*
X0054419Y0232960D02*
X0051617Y0235762D01*
X0051617Y0236463D01*
X0051617Y0232960D02*
X0054419Y0232960D01*
X0054250Y0195560D02*
X0052750Y0194060D01*
X0060350Y0191460D02*
X0060350Y0188760D01*
X0049498Y0177864D02*
X0049498Y0177164D01*
X0049498Y0175762D02*
X0049498Y0172960D01*
X0048798Y0172960D02*
X0050199Y0172960D01*
X0050199Y0175762D02*
X0049498Y0175762D01*
X0051934Y0175762D02*
X0052634Y0175762D01*
X0054036Y0174361D01*
X0054036Y0172960D02*
X0054036Y0175762D01*
X0055837Y0175062D02*
X0055837Y0174361D01*
X0058640Y0174361D01*
X0058640Y0173661D02*
X0058640Y0175062D01*
X0057939Y0175762D01*
X0056538Y0175762D01*
X0055837Y0175062D01*
X0056538Y0172960D02*
X0057939Y0172960D01*
X0058640Y0173661D01*
X0060441Y0173661D02*
X0061142Y0172960D01*
X0062543Y0172960D01*
X0063243Y0173661D01*
X0062543Y0175062D02*
X0061142Y0175062D01*
X0060441Y0174361D01*
X0060441Y0173661D01*
X0062543Y0175062D02*
X0063243Y0175762D01*
X0063243Y0176463D01*
X0062543Y0177164D01*
X0061142Y0177164D01*
X0060441Y0176463D01*
X0059048Y0164664D02*
X0059048Y0163963D01*
X0061850Y0161161D01*
X0061850Y0160460D01*
X0061850Y0164664D02*
X0059048Y0164664D01*
X0057246Y0163963D02*
X0056545Y0164664D01*
X0055144Y0164664D01*
X0054444Y0163963D01*
X0054444Y0163262D01*
X0057246Y0160460D01*
X0054444Y0160460D01*
X0052642Y0161161D02*
X0051942Y0160460D01*
X0050540Y0160460D01*
X0049840Y0161161D01*
X0049840Y0161861D01*
X0050540Y0162562D01*
X0052642Y0162562D01*
X0052642Y0161161D01*
X0052642Y0162562D02*
X0051241Y0163963D01*
X0049840Y0164664D01*
X0048038Y0163963D02*
X0047338Y0164664D01*
X0045936Y0164664D01*
X0045236Y0163963D01*
X0045236Y0163262D01*
X0048038Y0160460D01*
X0045236Y0160460D01*
X0043434Y0162562D02*
X0040632Y0162562D01*
X0038830Y0161861D02*
X0037429Y0160460D01*
X0036028Y0161861D01*
X0036028Y0164664D01*
X0034226Y0163262D02*
X0033526Y0163262D01*
X0033526Y0160460D01*
X0034226Y0160460D02*
X0032825Y0160460D01*
X0031157Y0160460D02*
X0029055Y0160460D01*
X0028355Y0161161D01*
X0029055Y0161861D01*
X0030457Y0161861D01*
X0031157Y0162562D01*
X0030457Y0163262D01*
X0028355Y0163262D01*
X0033526Y0164664D02*
X0033526Y0165364D01*
X0038830Y0164664D02*
X0038830Y0161861D01*
X0038830Y0154664D02*
X0037429Y0154664D01*
X0038130Y0154664D02*
X0038130Y0150460D01*
X0038830Y0150460D02*
X0037429Y0150460D01*
X0035761Y0150460D02*
X0035761Y0154664D01*
X0033659Y0154664D01*
X0032959Y0153963D01*
X0032959Y0152562D01*
X0033659Y0151861D01*
X0035761Y0151861D01*
X0034360Y0151861D02*
X0032959Y0150460D01*
X0040632Y0152562D02*
X0043434Y0152562D01*
X0045236Y0153262D02*
X0045936Y0152562D01*
X0045236Y0151861D01*
X0045236Y0151161D01*
X0045936Y0150460D01*
X0047338Y0150460D01*
X0048038Y0151161D01*
X0049840Y0151161D02*
X0049840Y0151861D01*
X0050540Y0152562D01*
X0052642Y0152562D01*
X0052642Y0151161D01*
X0051942Y0150460D01*
X0050540Y0150460D01*
X0049840Y0151161D01*
X0051241Y0153963D02*
X0052642Y0152562D01*
X0054444Y0153262D02*
X0054444Y0153963D01*
X0055144Y0154664D01*
X0056545Y0154664D01*
X0057246Y0153963D01*
X0059048Y0153963D02*
X0061850Y0151161D01*
X0061850Y0150460D01*
X0061850Y0154664D02*
X0059048Y0154664D01*
X0059048Y0153963D01*
X0057246Y0150460D02*
X0054444Y0153262D01*
X0054444Y0150460D02*
X0057246Y0150460D01*
X0051241Y0153963D02*
X0049840Y0154664D01*
X0048038Y0153963D02*
X0047338Y0154664D01*
X0045936Y0154664D01*
X0045236Y0153963D01*
X0045236Y0153262D01*
X0045936Y0152562D02*
X0046637Y0152562D01*
X0047714Y0137164D02*
X0049115Y0137164D01*
X0049815Y0136463D01*
X0049815Y0133661D01*
X0049115Y0132960D01*
X0047714Y0132960D01*
X0047013Y0133661D01*
X0047013Y0136463D02*
X0047714Y0137164D01*
X0051617Y0136463D02*
X0052317Y0137164D01*
X0053719Y0137164D01*
X0054419Y0136463D01*
X0056087Y0137164D02*
X0057489Y0137164D01*
X0056788Y0137164D02*
X0056788Y0132960D01*
X0057489Y0132960D02*
X0056087Y0132960D01*
X0054419Y0132960D02*
X0051617Y0135762D01*
X0051617Y0136463D01*
X0051617Y0132960D02*
X0054419Y0132960D01*
X0054250Y0095560D02*
X0052750Y0094060D01*
X0060350Y0091460D02*
X0060350Y0088760D01*
X0061142Y0077164D02*
X0060441Y0076463D01*
X0061142Y0077164D02*
X0062543Y0077164D01*
X0063243Y0076463D01*
X0063243Y0075762D01*
X0062543Y0075062D01*
X0061142Y0075062D01*
X0060441Y0074361D01*
X0060441Y0073661D01*
X0061142Y0072960D01*
X0062543Y0072960D01*
X0063243Y0073661D01*
X0058640Y0073661D02*
X0058640Y0075062D01*
X0057939Y0075762D01*
X0056538Y0075762D01*
X0055837Y0075062D01*
X0055837Y0074361D01*
X0058640Y0074361D01*
X0058640Y0073661D02*
X0057939Y0072960D01*
X0056538Y0072960D01*
X0054036Y0072960D02*
X0054036Y0075762D01*
X0054036Y0074361D02*
X0052634Y0075762D01*
X0051934Y0075762D01*
X0050199Y0075762D02*
X0049498Y0075762D01*
X0049498Y0072960D01*
X0048798Y0072960D02*
X0050199Y0072960D01*
X0047130Y0073661D02*
X0046429Y0074361D01*
X0044327Y0074361D01*
X0044327Y0075062D02*
X0044327Y0072960D01*
X0046429Y0072960D01*
X0047130Y0073661D01*
X0046429Y0075762D02*
X0045028Y0075762D01*
X0044327Y0075062D01*
X0042526Y0077164D02*
X0041825Y0077164D01*
X0041825Y0072960D01*
X0041125Y0072960D02*
X0042526Y0072960D01*
X0049498Y0077164D02*
X0049498Y0077864D01*
X0049840Y0064664D02*
X0051241Y0063963D01*
X0052642Y0062562D01*
X0050540Y0062562D01*
X0049840Y0061861D01*
X0049840Y0061161D01*
X0050540Y0060460D01*
X0051942Y0060460D01*
X0052642Y0061161D01*
X0052642Y0062562D01*
X0054444Y0063262D02*
X0054444Y0063963D01*
X0055144Y0064664D01*
X0056545Y0064664D01*
X0057246Y0063963D01*
X0059048Y0063963D02*
X0061850Y0061161D01*
X0061850Y0060460D01*
X0061850Y0064664D02*
X0059048Y0064664D01*
X0059048Y0063963D01*
X0057246Y0060460D02*
X0054444Y0063262D01*
X0054444Y0060460D02*
X0057246Y0060460D01*
X0056545Y0054664D02*
X0057246Y0053963D01*
X0056545Y0054664D02*
X0055144Y0054664D01*
X0054444Y0053963D01*
X0054444Y0053262D01*
X0057246Y0050460D01*
X0054444Y0050460D01*
X0052642Y0051161D02*
X0051942Y0050460D01*
X0050540Y0050460D01*
X0049840Y0051161D01*
X0049840Y0051861D01*
X0050540Y0052562D01*
X0052642Y0052562D01*
X0052642Y0051161D01*
X0052642Y0052562D02*
X0051241Y0053963D01*
X0049840Y0054664D01*
X0048038Y0053963D02*
X0047338Y0054664D01*
X0045936Y0054664D01*
X0045236Y0053963D01*
X0045236Y0053262D01*
X0045936Y0052562D01*
X0045236Y0051861D01*
X0045236Y0051161D01*
X0045936Y0050460D01*
X0047338Y0050460D01*
X0048038Y0051161D01*
X0046637Y0052562D02*
X0045936Y0052562D01*
X0043434Y0052562D02*
X0040632Y0052562D01*
X0038830Y0054664D02*
X0037429Y0054664D01*
X0038130Y0054664D02*
X0038130Y0050460D01*
X0038830Y0050460D02*
X0037429Y0050460D01*
X0035761Y0050460D02*
X0035761Y0054664D01*
X0033659Y0054664D01*
X0032959Y0053963D01*
X0032959Y0052562D01*
X0033659Y0051861D01*
X0035761Y0051861D01*
X0034360Y0051861D02*
X0032959Y0050460D01*
X0032825Y0060460D02*
X0034226Y0060460D01*
X0033526Y0060460D02*
X0033526Y0063262D01*
X0034226Y0063262D01*
X0033526Y0064664D02*
X0033526Y0065364D01*
X0036028Y0064664D02*
X0036028Y0061861D01*
X0037429Y0060460D01*
X0038830Y0061861D01*
X0038830Y0064664D01*
X0040632Y0062562D02*
X0043434Y0062562D01*
X0045236Y0063262D02*
X0045236Y0063963D01*
X0045936Y0064664D01*
X0047338Y0064664D01*
X0048038Y0063963D01*
X0045236Y0063262D02*
X0048038Y0060460D01*
X0045236Y0060460D01*
X0031157Y0060460D02*
X0029055Y0060460D01*
X0028355Y0061161D01*
X0029055Y0061861D01*
X0030457Y0061861D01*
X0031157Y0062562D01*
X0030457Y0063262D01*
X0028355Y0063262D01*
X0047714Y0037164D02*
X0049115Y0037164D01*
X0049815Y0036463D01*
X0049815Y0033661D01*
X0049115Y0032960D01*
X0047714Y0032960D01*
X0047013Y0033661D01*
X0047013Y0036463D02*
X0047714Y0037164D01*
X0051617Y0036463D02*
X0052317Y0037164D01*
X0053719Y0037164D01*
X0054419Y0036463D01*
X0056087Y0037164D02*
X0057489Y0037164D01*
X0056788Y0037164D02*
X0056788Y0032960D01*
X0057489Y0032960D02*
X0056087Y0032960D01*
X0054419Y0032960D02*
X0051617Y0035762D01*
X0051617Y0036463D01*
X0051617Y0032960D02*
X0054419Y0032960D01*
X0061850Y0050460D02*
X0061850Y0051161D01*
X0059048Y0053963D01*
X0059048Y0054664D01*
X0061850Y0054664D01*
X0043250Y0094060D02*
X0044750Y0095560D01*
X0044327Y0172960D02*
X0046429Y0172960D01*
X0047130Y0173661D01*
X0046429Y0174361D01*
X0044327Y0174361D01*
X0044327Y0175062D02*
X0044327Y0172960D01*
X0042526Y0172960D02*
X0041125Y0172960D01*
X0041825Y0172960D02*
X0041825Y0177164D01*
X0042526Y0177164D01*
X0044327Y0175062D02*
X0045028Y0175762D01*
X0046429Y0175762D01*
X0043250Y0194060D02*
X0044750Y0195560D01*
X0128355Y0163262D02*
X0130457Y0163262D01*
X0131157Y0162562D01*
X0130457Y0161861D01*
X0129055Y0161861D01*
X0128355Y0161161D01*
X0129055Y0160460D01*
X0131157Y0160460D01*
X0132825Y0160460D02*
X0134226Y0160460D01*
X0133526Y0160460D02*
X0133526Y0163262D01*
X0134226Y0163262D01*
X0133526Y0164664D02*
X0133526Y0165364D01*
X0136028Y0164664D02*
X0136028Y0161861D01*
X0137429Y0160460D01*
X0138830Y0161861D01*
X0138830Y0164664D01*
X0140632Y0162562D02*
X0143434Y0162562D01*
X0145236Y0163262D02*
X0145236Y0163963D01*
X0145936Y0164664D01*
X0147338Y0164664D01*
X0148038Y0163963D01*
X0149840Y0164664D02*
X0151241Y0163963D01*
X0152642Y0162562D01*
X0150540Y0162562D01*
X0149840Y0161861D01*
X0149840Y0161161D01*
X0150540Y0160460D01*
X0151942Y0160460D01*
X0152642Y0161161D01*
X0152642Y0162562D01*
X0154444Y0163262D02*
X0154444Y0163963D01*
X0155144Y0164664D01*
X0156545Y0164664D01*
X0157246Y0163963D01*
X0159048Y0163963D02*
X0161850Y0161161D01*
X0161850Y0160460D01*
X0161850Y0164664D02*
X0159048Y0164664D01*
X0159048Y0163963D01*
X0157246Y0160460D02*
X0154444Y0163262D01*
X0154444Y0160460D02*
X0157246Y0160460D01*
X0156545Y0154664D02*
X0155144Y0154664D01*
X0154444Y0153963D01*
X0154444Y0153262D01*
X0157246Y0150460D01*
X0154444Y0150460D01*
X0152642Y0151161D02*
X0151942Y0150460D01*
X0150540Y0150460D01*
X0149840Y0151161D01*
X0149840Y0151861D01*
X0150540Y0152562D01*
X0152642Y0152562D01*
X0152642Y0151161D01*
X0152642Y0152562D02*
X0151241Y0153963D01*
X0149840Y0154664D01*
X0148038Y0153963D02*
X0147338Y0154664D01*
X0145936Y0154664D01*
X0145236Y0153963D01*
X0145236Y0153262D01*
X0145936Y0152562D01*
X0145236Y0151861D01*
X0145236Y0151161D01*
X0145936Y0150460D01*
X0147338Y0150460D01*
X0148038Y0151161D01*
X0146637Y0152562D02*
X0145936Y0152562D01*
X0143434Y0152562D02*
X0140632Y0152562D01*
X0138830Y0154664D02*
X0137429Y0154664D01*
X0138130Y0154664D02*
X0138130Y0150460D01*
X0138830Y0150460D02*
X0137429Y0150460D01*
X0135761Y0150460D02*
X0135761Y0154664D01*
X0133659Y0154664D01*
X0132959Y0153963D01*
X0132959Y0152562D01*
X0133659Y0151861D01*
X0135761Y0151861D01*
X0134360Y0151861D02*
X0132959Y0150460D01*
X0145236Y0160460D02*
X0148038Y0160460D01*
X0145236Y0163262D01*
X0144327Y0172960D02*
X0146429Y0172960D01*
X0147130Y0173661D01*
X0146429Y0174361D01*
X0144327Y0174361D01*
X0144327Y0175062D02*
X0144327Y0172960D01*
X0142526Y0172960D02*
X0141125Y0172960D01*
X0141825Y0172960D02*
X0141825Y0177164D01*
X0142526Y0177164D01*
X0144327Y0175062D02*
X0145028Y0175762D01*
X0146429Y0175762D01*
X0149498Y0175762D02*
X0149498Y0172960D01*
X0148798Y0172960D02*
X0150199Y0172960D01*
X0150199Y0175762D02*
X0149498Y0175762D01*
X0149498Y0177164D02*
X0149498Y0177864D01*
X0151934Y0175762D02*
X0152634Y0175762D01*
X0154036Y0174361D01*
X0154036Y0172960D02*
X0154036Y0175762D01*
X0155837Y0175062D02*
X0155837Y0174361D01*
X0158640Y0174361D01*
X0158640Y0173661D02*
X0158640Y0175062D01*
X0157939Y0175762D01*
X0156538Y0175762D01*
X0155837Y0175062D01*
X0156538Y0172960D02*
X0157939Y0172960D01*
X0158640Y0173661D01*
X0160441Y0173661D02*
X0161142Y0172960D01*
X0162543Y0172960D01*
X0163243Y0173661D01*
X0162543Y0175062D02*
X0161142Y0175062D01*
X0160441Y0174361D01*
X0160441Y0173661D01*
X0162543Y0175062D02*
X0163243Y0175762D01*
X0163243Y0176463D01*
X0162543Y0177164D01*
X0161142Y0177164D01*
X0160441Y0176463D01*
X0160350Y0188760D02*
X0160350Y0191460D01*
X0154250Y0195560D02*
X0152750Y0194060D01*
X0144750Y0195560D02*
X0143250Y0194060D01*
X0147714Y0232960D02*
X0147013Y0233661D01*
X0147714Y0232960D02*
X0149115Y0232960D01*
X0149815Y0233661D01*
X0149815Y0236463D01*
X0149115Y0237164D01*
X0147714Y0237164D01*
X0147013Y0236463D01*
X0151617Y0236463D02*
X0152317Y0237164D01*
X0153719Y0237164D01*
X0154419Y0236463D01*
X0156087Y0237164D02*
X0157489Y0237164D01*
X0156788Y0237164D02*
X0156788Y0232960D01*
X0157489Y0232960D02*
X0156087Y0232960D01*
X0154419Y0232960D02*
X0151617Y0235762D01*
X0151617Y0236463D01*
X0151617Y0232960D02*
X0154419Y0232960D01*
X0154444Y0250460D02*
X0157246Y0250460D01*
X0154444Y0253262D01*
X0154444Y0253963D01*
X0155144Y0254664D01*
X0156545Y0254664D01*
X0157246Y0253963D01*
X0159048Y0253963D02*
X0161850Y0251161D01*
X0161850Y0250460D01*
X0161850Y0254664D02*
X0159048Y0254664D01*
X0159048Y0253963D01*
X0152642Y0252562D02*
X0152642Y0251161D01*
X0151942Y0250460D01*
X0150540Y0250460D01*
X0149840Y0251161D01*
X0149840Y0251861D01*
X0150540Y0252562D01*
X0152642Y0252562D01*
X0151241Y0253963D01*
X0149840Y0254664D01*
X0148038Y0253963D02*
X0147338Y0254664D01*
X0145936Y0254664D01*
X0145236Y0253963D01*
X0145236Y0253262D01*
X0145936Y0252562D01*
X0145236Y0251861D01*
X0145236Y0251161D01*
X0145936Y0250460D01*
X0147338Y0250460D01*
X0148038Y0251161D01*
X0146637Y0252562D02*
X0145936Y0252562D01*
X0143434Y0252562D02*
X0140632Y0252562D01*
X0138830Y0254664D02*
X0137429Y0254664D01*
X0138130Y0254664D02*
X0138130Y0250460D01*
X0138830Y0250460D02*
X0137429Y0250460D01*
X0135761Y0250460D02*
X0135761Y0254664D01*
X0133659Y0254664D01*
X0132959Y0253963D01*
X0132959Y0252562D01*
X0133659Y0251861D01*
X0135761Y0251861D01*
X0134360Y0251861D02*
X0132959Y0250460D01*
X0132825Y0260460D02*
X0134226Y0260460D01*
X0133526Y0260460D02*
X0133526Y0263262D01*
X0134226Y0263262D01*
X0133526Y0264664D02*
X0133526Y0265364D01*
X0136028Y0264664D02*
X0136028Y0261861D01*
X0137429Y0260460D01*
X0138830Y0261861D01*
X0138830Y0264664D01*
X0140632Y0262562D02*
X0143434Y0262562D01*
X0145236Y0263262D02*
X0145236Y0263963D01*
X0145936Y0264664D01*
X0147338Y0264664D01*
X0148038Y0263963D01*
X0149840Y0264664D02*
X0151241Y0263963D01*
X0152642Y0262562D01*
X0150540Y0262562D01*
X0149840Y0261861D01*
X0149840Y0261161D01*
X0150540Y0260460D01*
X0151942Y0260460D01*
X0152642Y0261161D01*
X0152642Y0262562D01*
X0154444Y0263262D02*
X0154444Y0263963D01*
X0155144Y0264664D01*
X0156545Y0264664D01*
X0157246Y0263963D01*
X0159048Y0263963D02*
X0161850Y0261161D01*
X0161850Y0260460D01*
X0161850Y0264664D02*
X0159048Y0264664D01*
X0159048Y0263963D01*
X0157246Y0260460D02*
X0154444Y0263262D01*
X0154444Y0260460D02*
X0157246Y0260460D01*
X0148038Y0260460D02*
X0145236Y0263262D01*
X0145236Y0260460D02*
X0148038Y0260460D01*
X0148798Y0272960D02*
X0150199Y0272960D01*
X0149498Y0272960D02*
X0149498Y0275762D01*
X0150199Y0275762D01*
X0149498Y0277164D02*
X0149498Y0277864D01*
X0151934Y0275762D02*
X0152634Y0275762D01*
X0154036Y0274361D01*
X0154036Y0272960D02*
X0154036Y0275762D01*
X0155837Y0275062D02*
X0155837Y0274361D01*
X0158640Y0274361D01*
X0158640Y0273661D02*
X0158640Y0275062D01*
X0157939Y0275762D01*
X0156538Y0275762D01*
X0155837Y0275062D01*
X0156538Y0272960D02*
X0157939Y0272960D01*
X0158640Y0273661D01*
X0160441Y0273661D02*
X0161142Y0272960D01*
X0162543Y0272960D01*
X0163243Y0273661D01*
X0162543Y0275062D02*
X0161142Y0275062D01*
X0160441Y0274361D01*
X0160441Y0273661D01*
X0162543Y0275062D02*
X0163243Y0275762D01*
X0163243Y0276463D01*
X0162543Y0277164D01*
X0161142Y0277164D01*
X0160441Y0276463D01*
X0160350Y0288760D02*
X0160350Y0291460D01*
X0154250Y0295560D02*
X0152750Y0294060D01*
X0144750Y0295560D02*
X0143250Y0294060D01*
X0142526Y0277164D02*
X0141825Y0277164D01*
X0141825Y0272960D01*
X0141125Y0272960D02*
X0142526Y0272960D01*
X0144327Y0272960D02*
X0144327Y0275062D01*
X0145028Y0275762D01*
X0146429Y0275762D01*
X0146429Y0274361D02*
X0144327Y0274361D01*
X0144327Y0272960D02*
X0146429Y0272960D01*
X0147130Y0273661D01*
X0146429Y0274361D01*
X0131157Y0262562D02*
X0130457Y0263262D01*
X0128355Y0263262D01*
X0129055Y0261861D02*
X0130457Y0261861D01*
X0131157Y0262562D01*
X0131157Y0260460D02*
X0129055Y0260460D01*
X0128355Y0261161D01*
X0129055Y0261861D01*
X0228355Y0261161D02*
X0229055Y0261861D01*
X0230457Y0261861D01*
X0231157Y0262562D01*
X0230457Y0263262D01*
X0228355Y0263262D01*
X0228355Y0261161D02*
X0229055Y0260460D01*
X0231157Y0260460D01*
X0232825Y0260460D02*
X0234226Y0260460D01*
X0233526Y0260460D02*
X0233526Y0263262D01*
X0234226Y0263262D01*
X0233526Y0264664D02*
X0233526Y0265364D01*
X0236028Y0264664D02*
X0236028Y0261861D01*
X0237429Y0260460D01*
X0238830Y0261861D01*
X0238830Y0264664D01*
X0240632Y0262562D02*
X0243434Y0262562D01*
X0245236Y0263262D02*
X0245236Y0263963D01*
X0245936Y0264664D01*
X0247338Y0264664D01*
X0248038Y0263963D01*
X0249840Y0264664D02*
X0251241Y0263963D01*
X0252642Y0262562D01*
X0250540Y0262562D01*
X0249840Y0261861D01*
X0249840Y0261161D01*
X0250540Y0260460D01*
X0251942Y0260460D01*
X0252642Y0261161D01*
X0252642Y0262562D01*
X0254444Y0263262D02*
X0254444Y0263963D01*
X0255144Y0264664D01*
X0256545Y0264664D01*
X0257246Y0263963D01*
X0259048Y0263963D02*
X0261850Y0261161D01*
X0261850Y0260460D01*
X0261850Y0264664D02*
X0259048Y0264664D01*
X0259048Y0263963D01*
X0257246Y0260460D02*
X0254444Y0263262D01*
X0254444Y0260460D02*
X0257246Y0260460D01*
X0256545Y0254664D02*
X0255144Y0254664D01*
X0254444Y0253963D01*
X0254444Y0253262D01*
X0257246Y0250460D01*
X0254444Y0250460D01*
X0252642Y0251161D02*
X0252642Y0252562D01*
X0250540Y0252562D01*
X0249840Y0251861D01*
X0249840Y0251161D01*
X0250540Y0250460D01*
X0251942Y0250460D01*
X0252642Y0251161D01*
X0252642Y0252562D02*
X0251241Y0253963D01*
X0249840Y0254664D01*
X0248038Y0253963D02*
X0247338Y0254664D01*
X0245936Y0254664D01*
X0245236Y0253963D01*
X0245236Y0253262D01*
X0245936Y0252562D01*
X0245236Y0251861D01*
X0245236Y0251161D01*
X0245936Y0250460D01*
X0247338Y0250460D01*
X0248038Y0251161D01*
X0246637Y0252562D02*
X0245936Y0252562D01*
X0243434Y0252562D02*
X0240632Y0252562D01*
X0238830Y0254664D02*
X0237429Y0254664D01*
X0238130Y0254664D02*
X0238130Y0250460D01*
X0238830Y0250460D02*
X0237429Y0250460D01*
X0235761Y0250460D02*
X0235761Y0254664D01*
X0233659Y0254664D01*
X0232959Y0253963D01*
X0232959Y0252562D01*
X0233659Y0251861D01*
X0235761Y0251861D01*
X0234360Y0251861D02*
X0232959Y0250460D01*
X0245236Y0260460D02*
X0248038Y0260460D01*
X0245236Y0263262D01*
X0244327Y0272960D02*
X0246429Y0272960D01*
X0247130Y0273661D01*
X0246429Y0274361D01*
X0244327Y0274361D01*
X0244327Y0275062D02*
X0244327Y0272960D01*
X0242526Y0272960D02*
X0241125Y0272960D01*
X0241825Y0272960D02*
X0241825Y0277164D01*
X0242526Y0277164D01*
X0244327Y0275062D02*
X0245028Y0275762D01*
X0246429Y0275762D01*
X0249498Y0275762D02*
X0249498Y0272960D01*
X0248798Y0272960D02*
X0250199Y0272960D01*
X0250199Y0275762D02*
X0249498Y0275762D01*
X0249498Y0277164D02*
X0249498Y0277864D01*
X0251934Y0275762D02*
X0252634Y0275762D01*
X0254036Y0274361D01*
X0254036Y0272960D02*
X0254036Y0275762D01*
X0255837Y0275062D02*
X0255837Y0274361D01*
X0258640Y0274361D01*
X0258640Y0273661D02*
X0258640Y0275062D01*
X0257939Y0275762D01*
X0256538Y0275762D01*
X0255837Y0275062D01*
X0256538Y0272960D02*
X0257939Y0272960D01*
X0258640Y0273661D01*
X0260441Y0273661D02*
X0260441Y0274361D01*
X0261142Y0275062D01*
X0262543Y0275062D01*
X0263243Y0275762D01*
X0263243Y0276463D01*
X0262543Y0277164D01*
X0261142Y0277164D01*
X0260441Y0276463D01*
X0260441Y0273661D02*
X0261142Y0272960D01*
X0262543Y0272960D01*
X0263243Y0273661D01*
X0260350Y0288760D02*
X0260350Y0291460D01*
X0254250Y0295560D02*
X0252750Y0294060D01*
X0244750Y0295560D02*
X0243250Y0294060D01*
X0256545Y0254664D02*
X0257246Y0253963D01*
X0259048Y0253963D02*
X0261850Y0251161D01*
X0261850Y0250460D01*
X0261850Y0254664D02*
X0259048Y0254664D01*
X0259048Y0253963D01*
X0257489Y0237164D02*
X0256087Y0237164D01*
X0256788Y0237164D02*
X0256788Y0232960D01*
X0257489Y0232960D02*
X0256087Y0232960D01*
X0254419Y0232960D02*
X0251617Y0235762D01*
X0251617Y0236463D01*
X0252317Y0237164D01*
X0253719Y0237164D01*
X0254419Y0236463D01*
X0254419Y0232960D02*
X0251617Y0232960D01*
X0249815Y0233661D02*
X0249115Y0232960D01*
X0247714Y0232960D01*
X0247013Y0233661D01*
X0247013Y0236463D02*
X0247714Y0237164D01*
X0249115Y0237164D01*
X0249815Y0236463D01*
X0249815Y0233661D01*
X0254250Y0195560D02*
X0252750Y0194060D01*
X0260350Y0191460D02*
X0260350Y0188760D01*
X0261142Y0177164D02*
X0262543Y0177164D01*
X0263243Y0176463D01*
X0263243Y0175762D01*
X0262543Y0175062D01*
X0261142Y0175062D01*
X0260441Y0174361D01*
X0260441Y0173661D01*
X0261142Y0172960D01*
X0262543Y0172960D01*
X0263243Y0173661D01*
X0260441Y0176463D02*
X0261142Y0177164D01*
X0258640Y0175062D02*
X0258640Y0173661D01*
X0257939Y0172960D01*
X0256538Y0172960D01*
X0255837Y0174361D02*
X0258640Y0174361D01*
X0258640Y0175062D02*
X0257939Y0175762D01*
X0256538Y0175762D01*
X0255837Y0175062D01*
X0255837Y0174361D01*
X0254036Y0174361D02*
X0252634Y0175762D01*
X0251934Y0175762D01*
X0250199Y0175762D02*
X0249498Y0175762D01*
X0249498Y0172960D01*
X0248798Y0172960D02*
X0250199Y0172960D01*
X0247130Y0173661D02*
X0246429Y0174361D01*
X0244327Y0174361D01*
X0244327Y0175062D02*
X0244327Y0172960D01*
X0246429Y0172960D01*
X0247130Y0173661D01*
X0246429Y0175762D02*
X0245028Y0175762D01*
X0244327Y0175062D01*
X0242526Y0177164D02*
X0241825Y0177164D01*
X0241825Y0172960D01*
X0241125Y0172960D02*
X0242526Y0172960D01*
X0249498Y0177164D02*
X0249498Y0177864D01*
X0254036Y0175762D02*
X0254036Y0172960D01*
X0255144Y0164664D02*
X0256545Y0164664D01*
X0257246Y0163963D01*
X0259048Y0163963D02*
X0261850Y0161161D01*
X0261850Y0160460D01*
X0261850Y0164664D02*
X0259048Y0164664D01*
X0259048Y0163963D01*
X0257246Y0160460D02*
X0254444Y0163262D01*
X0254444Y0163963D01*
X0255144Y0164664D01*
X0252642Y0162562D02*
X0252642Y0161161D01*
X0251942Y0160460D01*
X0250540Y0160460D01*
X0249840Y0161161D01*
X0249840Y0161861D01*
X0250540Y0162562D01*
X0252642Y0162562D01*
X0251241Y0163963D01*
X0249840Y0164664D01*
X0248038Y0163963D02*
X0247338Y0164664D01*
X0245936Y0164664D01*
X0245236Y0163963D01*
X0245236Y0163262D01*
X0248038Y0160460D01*
X0245236Y0160460D01*
X0243434Y0162562D02*
X0240632Y0162562D01*
X0238830Y0161861D02*
X0237429Y0160460D01*
X0236028Y0161861D01*
X0236028Y0164664D01*
X0234226Y0163262D02*
X0233526Y0163262D01*
X0233526Y0160460D01*
X0234226Y0160460D02*
X0232825Y0160460D01*
X0231157Y0160460D02*
X0229055Y0160460D01*
X0228355Y0161161D01*
X0229055Y0161861D01*
X0230457Y0161861D01*
X0231157Y0162562D01*
X0230457Y0163262D01*
X0228355Y0163262D01*
X0233526Y0164664D02*
X0233526Y0165364D01*
X0238830Y0164664D02*
X0238830Y0161861D01*
X0238830Y0154664D02*
X0237429Y0154664D01*
X0238130Y0154664D02*
X0238130Y0150460D01*
X0238830Y0150460D02*
X0237429Y0150460D01*
X0235761Y0150460D02*
X0235761Y0154664D01*
X0233659Y0154664D01*
X0232959Y0153963D01*
X0232959Y0152562D01*
X0233659Y0151861D01*
X0235761Y0151861D01*
X0234360Y0151861D02*
X0232959Y0150460D01*
X0240632Y0152562D02*
X0243434Y0152562D01*
X0245236Y0153262D02*
X0245936Y0152562D01*
X0245236Y0151861D01*
X0245236Y0151161D01*
X0245936Y0150460D01*
X0247338Y0150460D01*
X0248038Y0151161D01*
X0249840Y0151161D02*
X0249840Y0151861D01*
X0250540Y0152562D01*
X0252642Y0152562D01*
X0252642Y0151161D01*
X0251942Y0150460D01*
X0250540Y0150460D01*
X0249840Y0151161D01*
X0251241Y0153963D02*
X0252642Y0152562D01*
X0254444Y0153262D02*
X0254444Y0153963D01*
X0255144Y0154664D01*
X0256545Y0154664D01*
X0257246Y0153963D01*
X0259048Y0153963D02*
X0261850Y0151161D01*
X0261850Y0150460D01*
X0261850Y0154664D02*
X0259048Y0154664D01*
X0259048Y0153963D01*
X0257246Y0150460D02*
X0254444Y0153262D01*
X0254444Y0150460D02*
X0257246Y0150460D01*
X0251241Y0153963D02*
X0249840Y0154664D01*
X0248038Y0153963D02*
X0247338Y0154664D01*
X0245936Y0154664D01*
X0245236Y0153963D01*
X0245236Y0153262D01*
X0245936Y0152562D02*
X0246637Y0152562D01*
X0254444Y0160460D02*
X0257246Y0160460D01*
X0257489Y0137164D02*
X0256087Y0137164D01*
X0256788Y0137164D02*
X0256788Y0132960D01*
X0257489Y0132960D02*
X0256087Y0132960D01*
X0254419Y0132960D02*
X0251617Y0135762D01*
X0251617Y0136463D01*
X0252317Y0137164D01*
X0253719Y0137164D01*
X0254419Y0136463D01*
X0254419Y0132960D02*
X0251617Y0132960D01*
X0249815Y0133661D02*
X0249115Y0132960D01*
X0247714Y0132960D01*
X0247013Y0133661D01*
X0247013Y0136463D02*
X0247714Y0137164D01*
X0249115Y0137164D01*
X0249815Y0136463D01*
X0249815Y0133661D01*
X0254250Y0095560D02*
X0252750Y0094060D01*
X0260350Y0091460D02*
X0260350Y0088760D01*
X0261142Y0077164D02*
X0262543Y0077164D01*
X0263243Y0076463D01*
X0263243Y0075762D01*
X0262543Y0075062D01*
X0261142Y0075062D01*
X0260441Y0074361D01*
X0260441Y0073661D01*
X0261142Y0072960D01*
X0262543Y0072960D01*
X0263243Y0073661D01*
X0260441Y0076463D02*
X0261142Y0077164D01*
X0258640Y0075062D02*
X0258640Y0073661D01*
X0257939Y0072960D01*
X0256538Y0072960D01*
X0255837Y0074361D02*
X0258640Y0074361D01*
X0258640Y0075062D02*
X0257939Y0075762D01*
X0256538Y0075762D01*
X0255837Y0075062D01*
X0255837Y0074361D01*
X0254036Y0074361D02*
X0252634Y0075762D01*
X0251934Y0075762D01*
X0250199Y0075762D02*
X0249498Y0075762D01*
X0249498Y0072960D01*
X0248798Y0072960D02*
X0250199Y0072960D01*
X0247130Y0073661D02*
X0246429Y0074361D01*
X0244327Y0074361D01*
X0244327Y0075062D02*
X0244327Y0072960D01*
X0246429Y0072960D01*
X0247130Y0073661D01*
X0246429Y0075762D02*
X0245028Y0075762D01*
X0244327Y0075062D01*
X0242526Y0077164D02*
X0241825Y0077164D01*
X0241825Y0072960D01*
X0241125Y0072960D02*
X0242526Y0072960D01*
X0249498Y0077164D02*
X0249498Y0077864D01*
X0254036Y0075762D02*
X0254036Y0072960D01*
X0255144Y0064664D02*
X0256545Y0064664D01*
X0257246Y0063963D01*
X0259048Y0063963D02*
X0261850Y0061161D01*
X0261850Y0060460D01*
X0261850Y0064664D02*
X0259048Y0064664D01*
X0259048Y0063963D01*
X0257246Y0060460D02*
X0254444Y0063262D01*
X0254444Y0063963D01*
X0255144Y0064664D01*
X0252642Y0062562D02*
X0252642Y0061161D01*
X0251942Y0060460D01*
X0250540Y0060460D01*
X0249840Y0061161D01*
X0249840Y0061861D01*
X0250540Y0062562D01*
X0252642Y0062562D01*
X0251241Y0063963D01*
X0249840Y0064664D01*
X0248038Y0063963D02*
X0247338Y0064664D01*
X0245936Y0064664D01*
X0245236Y0063963D01*
X0245236Y0063262D01*
X0248038Y0060460D01*
X0245236Y0060460D01*
X0243434Y0062562D02*
X0240632Y0062562D01*
X0238830Y0061861D02*
X0237429Y0060460D01*
X0236028Y0061861D01*
X0236028Y0064664D01*
X0234226Y0063262D02*
X0233526Y0063262D01*
X0233526Y0060460D01*
X0234226Y0060460D02*
X0232825Y0060460D01*
X0231157Y0060460D02*
X0229055Y0060460D01*
X0228355Y0061161D01*
X0229055Y0061861D01*
X0230457Y0061861D01*
X0231157Y0062562D01*
X0230457Y0063262D01*
X0228355Y0063262D01*
X0233526Y0064664D02*
X0233526Y0065364D01*
X0238830Y0064664D02*
X0238830Y0061861D01*
X0238830Y0054664D02*
X0237429Y0054664D01*
X0238130Y0054664D02*
X0238130Y0050460D01*
X0238830Y0050460D02*
X0237429Y0050460D01*
X0235761Y0050460D02*
X0235761Y0054664D01*
X0233659Y0054664D01*
X0232959Y0053963D01*
X0232959Y0052562D01*
X0233659Y0051861D01*
X0235761Y0051861D01*
X0234360Y0051861D02*
X0232959Y0050460D01*
X0240632Y0052562D02*
X0243434Y0052562D01*
X0245236Y0053262D02*
X0245936Y0052562D01*
X0245236Y0051861D01*
X0245236Y0051161D01*
X0245936Y0050460D01*
X0247338Y0050460D01*
X0248038Y0051161D01*
X0249840Y0051161D02*
X0249840Y0051861D01*
X0250540Y0052562D01*
X0252642Y0052562D01*
X0252642Y0051161D01*
X0251942Y0050460D01*
X0250540Y0050460D01*
X0249840Y0051161D01*
X0251241Y0053963D02*
X0252642Y0052562D01*
X0254444Y0053262D02*
X0254444Y0053963D01*
X0255144Y0054664D01*
X0256545Y0054664D01*
X0257246Y0053963D01*
X0259048Y0053963D02*
X0261850Y0051161D01*
X0261850Y0050460D01*
X0261850Y0054664D02*
X0259048Y0054664D01*
X0259048Y0053963D01*
X0257246Y0050460D02*
X0254444Y0053262D01*
X0254444Y0050460D02*
X0257246Y0050460D01*
X0251241Y0053963D02*
X0249840Y0054664D01*
X0248038Y0053963D02*
X0247338Y0054664D01*
X0245936Y0054664D01*
X0245236Y0053963D01*
X0245236Y0053262D01*
X0245936Y0052562D02*
X0246637Y0052562D01*
X0254444Y0060460D02*
X0257246Y0060460D01*
X0257489Y0037164D02*
X0256087Y0037164D01*
X0256788Y0037164D02*
X0256788Y0032960D01*
X0257489Y0032960D02*
X0256087Y0032960D01*
X0254419Y0032960D02*
X0251617Y0035762D01*
X0251617Y0036463D01*
X0252317Y0037164D01*
X0253719Y0037164D01*
X0254419Y0036463D01*
X0254419Y0032960D02*
X0251617Y0032960D01*
X0249815Y0033661D02*
X0249115Y0032960D01*
X0247714Y0032960D01*
X0247013Y0033661D01*
X0247013Y0036463D02*
X0247714Y0037164D01*
X0249115Y0037164D01*
X0249815Y0036463D01*
X0249815Y0033661D01*
X0243250Y0094060D02*
X0244750Y0095560D01*
X0163243Y0076463D02*
X0163243Y0075762D01*
X0162543Y0075062D01*
X0161142Y0075062D01*
X0160441Y0074361D01*
X0160441Y0073661D01*
X0161142Y0072960D01*
X0162543Y0072960D01*
X0163243Y0073661D01*
X0163243Y0076463D02*
X0162543Y0077164D01*
X0161142Y0077164D01*
X0160441Y0076463D01*
X0158640Y0075062D02*
X0157939Y0075762D01*
X0156538Y0075762D01*
X0155837Y0075062D01*
X0155837Y0074361D01*
X0158640Y0074361D01*
X0158640Y0073661D02*
X0158640Y0075062D01*
X0158640Y0073661D02*
X0157939Y0072960D01*
X0156538Y0072960D01*
X0154036Y0072960D02*
X0154036Y0075762D01*
X0154036Y0074361D02*
X0152634Y0075762D01*
X0151934Y0075762D01*
X0150199Y0075762D02*
X0149498Y0075762D01*
X0149498Y0072960D01*
X0148798Y0072960D02*
X0150199Y0072960D01*
X0147130Y0073661D02*
X0146429Y0074361D01*
X0144327Y0074361D01*
X0144327Y0075062D02*
X0144327Y0072960D01*
X0146429Y0072960D01*
X0147130Y0073661D01*
X0146429Y0075762D02*
X0145028Y0075762D01*
X0144327Y0075062D01*
X0142526Y0077164D02*
X0141825Y0077164D01*
X0141825Y0072960D01*
X0141125Y0072960D02*
X0142526Y0072960D01*
X0149498Y0077164D02*
X0149498Y0077864D01*
X0149840Y0064664D02*
X0151241Y0063963D01*
X0152642Y0062562D01*
X0150540Y0062562D01*
X0149840Y0061861D01*
X0149840Y0061161D01*
X0150540Y0060460D01*
X0151942Y0060460D01*
X0152642Y0061161D01*
X0152642Y0062562D01*
X0154444Y0063262D02*
X0154444Y0063963D01*
X0155144Y0064664D01*
X0156545Y0064664D01*
X0157246Y0063963D01*
X0159048Y0063963D02*
X0161850Y0061161D01*
X0161850Y0060460D01*
X0161850Y0064664D02*
X0159048Y0064664D01*
X0159048Y0063963D01*
X0157246Y0060460D02*
X0154444Y0063262D01*
X0154444Y0060460D02*
X0157246Y0060460D01*
X0156545Y0054664D02*
X0155144Y0054664D01*
X0154444Y0053963D01*
X0154444Y0053262D01*
X0157246Y0050460D01*
X0154444Y0050460D01*
X0152642Y0051161D02*
X0151942Y0050460D01*
X0150540Y0050460D01*
X0149840Y0051161D01*
X0149840Y0051861D01*
X0150540Y0052562D01*
X0152642Y0052562D01*
X0152642Y0051161D01*
X0152642Y0052562D02*
X0151241Y0053963D01*
X0149840Y0054664D01*
X0148038Y0053963D02*
X0147338Y0054664D01*
X0145936Y0054664D01*
X0145236Y0053963D01*
X0145236Y0053262D01*
X0145936Y0052562D01*
X0145236Y0051861D01*
X0145236Y0051161D01*
X0145936Y0050460D01*
X0147338Y0050460D01*
X0148038Y0051161D01*
X0146637Y0052562D02*
X0145936Y0052562D01*
X0143434Y0052562D02*
X0140632Y0052562D01*
X0138830Y0054664D02*
X0137429Y0054664D01*
X0138130Y0054664D02*
X0138130Y0050460D01*
X0138830Y0050460D02*
X0137429Y0050460D01*
X0135761Y0050460D02*
X0135761Y0054664D01*
X0133659Y0054664D01*
X0132959Y0053963D01*
X0132959Y0052562D01*
X0133659Y0051861D01*
X0135761Y0051861D01*
X0134360Y0051861D02*
X0132959Y0050460D01*
X0132825Y0060460D02*
X0134226Y0060460D01*
X0133526Y0060460D02*
X0133526Y0063262D01*
X0134226Y0063262D01*
X0133526Y0064664D02*
X0133526Y0065364D01*
X0136028Y0064664D02*
X0136028Y0061861D01*
X0137429Y0060460D01*
X0138830Y0061861D01*
X0138830Y0064664D01*
X0140632Y0062562D02*
X0143434Y0062562D01*
X0145236Y0063262D02*
X0145236Y0063963D01*
X0145936Y0064664D01*
X0147338Y0064664D01*
X0148038Y0063963D01*
X0145236Y0063262D02*
X0148038Y0060460D01*
X0145236Y0060460D01*
X0156545Y0054664D02*
X0157246Y0053963D01*
X0159048Y0053963D02*
X0161850Y0051161D01*
X0161850Y0050460D01*
X0161850Y0054664D02*
X0159048Y0054664D01*
X0159048Y0053963D01*
X0157489Y0037164D02*
X0156087Y0037164D01*
X0156788Y0037164D02*
X0156788Y0032960D01*
X0157489Y0032960D02*
X0156087Y0032960D01*
X0154419Y0032960D02*
X0151617Y0035762D01*
X0151617Y0036463D01*
X0152317Y0037164D01*
X0153719Y0037164D01*
X0154419Y0036463D01*
X0154419Y0032960D02*
X0151617Y0032960D01*
X0149815Y0033661D02*
X0149115Y0032960D01*
X0147714Y0032960D01*
X0147013Y0033661D01*
X0147013Y0036463D02*
X0147714Y0037164D01*
X0149115Y0037164D01*
X0149815Y0036463D01*
X0149815Y0033661D01*
X0131157Y0060460D02*
X0129055Y0060460D01*
X0128355Y0061161D01*
X0129055Y0061861D01*
X0130457Y0061861D01*
X0131157Y0062562D01*
X0130457Y0063262D01*
X0128355Y0063262D01*
X0143250Y0094060D02*
X0144750Y0095560D01*
X0152750Y0094060D02*
X0154250Y0095560D01*
X0160350Y0091460D02*
X0160350Y0088760D01*
X0157489Y0132960D02*
X0156087Y0132960D01*
X0156788Y0132960D02*
X0156788Y0137164D01*
X0157489Y0137164D02*
X0156087Y0137164D01*
X0154419Y0136463D02*
X0153719Y0137164D01*
X0152317Y0137164D01*
X0151617Y0136463D01*
X0151617Y0135762D01*
X0154419Y0132960D01*
X0151617Y0132960D01*
X0149815Y0133661D02*
X0149115Y0132960D01*
X0147714Y0132960D01*
X0147013Y0133661D01*
X0147013Y0136463D02*
X0147714Y0137164D01*
X0149115Y0137164D01*
X0149815Y0136463D01*
X0149815Y0133661D01*
X0161850Y0150460D02*
X0161850Y0151161D01*
X0159048Y0153963D01*
X0159048Y0154664D01*
X0161850Y0154664D01*
X0157246Y0153963D02*
X0156545Y0154664D01*
X0243250Y0194060D02*
X0244750Y0195560D01*
D13*
X0239250Y0175060D02*
X0232250Y0175060D01*
X0227250Y0180060D01*
X0265250Y0175060D02*
X0272250Y0175060D01*
X0277250Y0180060D01*
X0272250Y0135060D02*
X0259250Y0135060D01*
X0272250Y0135060D02*
X0277250Y0130060D01*
X0244750Y0135060D02*
X0232250Y0135060D01*
X0227250Y0130060D01*
X0177250Y0130060D02*
X0172250Y0135060D01*
X0159250Y0135060D01*
X0144750Y0135060D02*
X0132250Y0135060D01*
X0127250Y0130060D01*
X0132250Y0175060D02*
X0127250Y0180060D01*
X0132250Y0175060D02*
X0139250Y0175060D01*
X0165250Y0175060D02*
X0172250Y0175060D01*
X0177250Y0180060D01*
X0177250Y0230060D02*
X0172250Y0235060D01*
X0159250Y0235060D01*
X0144750Y0235060D02*
X0132250Y0235060D01*
X0127250Y0230060D01*
X0132250Y0275060D02*
X0127250Y0280060D01*
X0132250Y0275060D02*
X0139250Y0275060D01*
X0165250Y0275060D02*
X0172250Y0275060D01*
X0177250Y0280060D01*
X0227250Y0280060D02*
X0232250Y0275060D01*
X0239250Y0275060D01*
X0265250Y0275060D02*
X0272250Y0275060D01*
X0277250Y0280060D01*
X0272250Y0235060D02*
X0259250Y0235060D01*
X0272250Y0235060D02*
X0277250Y0230060D01*
X0244750Y0235060D02*
X0232250Y0235060D01*
X0227250Y0230060D01*
X0227250Y0080060D02*
X0232250Y0075060D01*
X0239250Y0075060D01*
X0265250Y0075060D02*
X0272250Y0075060D01*
X0277250Y0080060D01*
X0272250Y0035060D02*
X0259250Y0035060D01*
X0272250Y0035060D02*
X0277250Y0030060D01*
X0244750Y0035060D02*
X0232250Y0035060D01*
X0227250Y0030060D01*
X0177250Y0030060D02*
X0172250Y0035060D01*
X0159250Y0035060D01*
X0144750Y0035060D02*
X0132250Y0035060D01*
X0127250Y0030060D01*
X0132250Y0075060D02*
X0127250Y0080060D01*
X0132250Y0075060D02*
X0139250Y0075060D01*
X0165250Y0075060D02*
X0172250Y0075060D01*
X0177250Y0080060D01*
X0077250Y0080060D02*
X0072250Y0075060D01*
X0065250Y0075060D01*
X0039250Y0075060D02*
X0032250Y0075060D01*
X0027250Y0080060D01*
X0032250Y0035060D02*
X0027250Y0030060D01*
X0032250Y0035060D02*
X0044750Y0035060D01*
X0059250Y0035060D02*
X0072250Y0035060D01*
X0077250Y0030060D01*
X0077250Y0130060D02*
X0072250Y0135060D01*
X0059250Y0135060D01*
X0044750Y0135060D02*
X0032250Y0135060D01*
X0027250Y0130060D01*
X0032250Y0175060D02*
X0027250Y0180060D01*
X0032250Y0175060D02*
X0039250Y0175060D01*
X0065250Y0175060D02*
X0072250Y0175060D01*
X0077250Y0180060D01*
X0077250Y0230060D02*
X0072250Y0235060D01*
X0059250Y0235060D01*
X0044750Y0235060D02*
X0032250Y0235060D01*
X0027250Y0230060D01*
X0032250Y0275060D02*
X0027250Y0280060D01*
X0032250Y0275060D02*
X0039250Y0275060D01*
X0065250Y0275060D02*
X0072250Y0275060D01*
X0077250Y0280060D01*
D14*
X0068250Y0262560D03*
X0068250Y0252560D03*
X0068250Y0162560D03*
X0068250Y0152560D03*
X0068250Y0062560D03*
X0068250Y0052560D03*
X0168250Y0052560D03*
X0168250Y0062560D03*
X0168250Y0152560D03*
X0168250Y0162560D03*
X0168250Y0252560D03*
X0168250Y0262560D03*
X0268250Y0262560D03*
X0268250Y0252560D03*
X0268250Y0162560D03*
X0268250Y0152560D03*
X0268250Y0062560D03*
X0268250Y0052560D03*
D15*
X0216904Y0076424D02*
X0215886Y0075406D01*
X0214402Y0076617D01*
X0213804Y0076309D01*
X0212956Y0078355D01*
X0213335Y0078567D01*
X0213653Y0078861D01*
X0213895Y0079222D01*
X0214045Y0079629D01*
X0214096Y0080060D01*
X0214043Y0080499D01*
X0213887Y0080912D01*
X0213638Y0081277D01*
X0213309Y0081571D01*
X0212919Y0081780D01*
X0212491Y0081889D01*
X0212049Y0081894D01*
X0211619Y0081794D01*
X0211225Y0081594D01*
X0210890Y0081306D01*
X0210632Y0080947D01*
X0210468Y0080537D01*
X0210405Y0080100D01*
X0210449Y0079660D01*
X0210595Y0079244D01*
X0210836Y0078874D01*
X0211159Y0078572D01*
X0211544Y0078355D01*
X0210696Y0076309D01*
X0210098Y0076617D01*
X0208614Y0075406D01*
X0207596Y0076424D01*
X0208807Y0077908D01*
X0208499Y0078506D01*
X0208294Y0079147D01*
X0206389Y0079340D01*
X0206389Y0080780D01*
X0208294Y0080973D01*
X0208499Y0081614D01*
X0208807Y0082212D01*
X0207596Y0083696D01*
X0208614Y0084714D01*
X0210098Y0083503D01*
X0210696Y0083811D01*
X0211337Y0084016D01*
X0211530Y0085921D01*
X0212970Y0085921D01*
X0213163Y0084016D01*
X0213804Y0083811D01*
X0214402Y0083503D01*
X0215886Y0084714D01*
X0216904Y0083696D01*
X0215693Y0082212D01*
X0216001Y0081614D01*
X0216206Y0080973D01*
X0218111Y0080780D01*
X0218111Y0079340D01*
X0216206Y0079147D01*
X0216001Y0078506D01*
X0215693Y0077908D01*
X0216904Y0076424D01*
X0216816Y0076337D02*
X0214745Y0076337D01*
X0213858Y0076337D02*
X0213792Y0076337D01*
X0213548Y0076926D02*
X0216495Y0076926D01*
X0216014Y0077515D02*
X0213304Y0077515D01*
X0213060Y0078104D02*
X0215794Y0078104D01*
X0216061Y0078693D02*
X0213471Y0078693D01*
X0213917Y0079282D02*
X0217537Y0079282D01*
X0218111Y0079871D02*
X0214073Y0079871D01*
X0214047Y0080460D02*
X0218111Y0080460D01*
X0216182Y0081049D02*
X0213793Y0081049D01*
X0213184Y0081638D02*
X0215989Y0081638D01*
X0215706Y0082227D02*
X0208794Y0082227D01*
X0208511Y0081638D02*
X0211312Y0081638D01*
X0210705Y0081049D02*
X0208318Y0081049D01*
X0208314Y0082816D02*
X0216186Y0082816D01*
X0216667Y0083405D02*
X0207833Y0083405D01*
X0207895Y0083994D02*
X0209496Y0083994D01*
X0208774Y0084583D02*
X0208484Y0084583D01*
X0211268Y0083994D02*
X0213232Y0083994D01*
X0213106Y0084583D02*
X0211394Y0084583D01*
X0211454Y0085172D02*
X0213046Y0085172D01*
X0212986Y0085762D02*
X0211514Y0085762D01*
X0215004Y0083994D02*
X0216605Y0083994D01*
X0216016Y0084583D02*
X0215726Y0084583D01*
X0210457Y0080460D02*
X0206389Y0080460D01*
X0206389Y0079871D02*
X0210428Y0079871D01*
X0210582Y0079282D02*
X0206963Y0079282D01*
X0208439Y0078693D02*
X0211029Y0078693D01*
X0211440Y0078104D02*
X0208706Y0078104D01*
X0208486Y0077515D02*
X0211196Y0077515D01*
X0210952Y0076926D02*
X0208005Y0076926D01*
X0207684Y0076337D02*
X0209755Y0076337D01*
X0210642Y0076337D02*
X0210708Y0076337D01*
X0209032Y0075747D02*
X0208273Y0075747D01*
X0215468Y0075747D02*
X0216227Y0075747D01*
X0215886Y0175406D02*
X0214402Y0176617D01*
X0213804Y0176309D01*
X0212956Y0178355D01*
X0213335Y0178567D01*
X0213653Y0178861D01*
X0213895Y0179222D01*
X0214045Y0179629D01*
X0214096Y0180060D01*
X0214043Y0180499D01*
X0213887Y0180912D01*
X0213638Y0181277D01*
X0213309Y0181571D01*
X0212919Y0181780D01*
X0212491Y0181889D01*
X0212049Y0181894D01*
X0211619Y0181794D01*
X0211225Y0181594D01*
X0210890Y0181306D01*
X0210632Y0180947D01*
X0210468Y0180537D01*
X0210405Y0180100D01*
X0210449Y0179660D01*
X0210595Y0179244D01*
X0210836Y0178874D01*
X0211159Y0178572D01*
X0211544Y0178355D01*
X0210696Y0176309D01*
X0210098Y0176617D01*
X0208614Y0175406D01*
X0207596Y0176424D01*
X0208807Y0177908D01*
X0208499Y0178506D01*
X0208294Y0179147D01*
X0206389Y0179340D01*
X0206389Y0180780D01*
X0208294Y0180973D01*
X0208499Y0181614D01*
X0208807Y0182212D01*
X0207596Y0183696D01*
X0208614Y0184714D01*
X0210098Y0183503D01*
X0210696Y0183811D01*
X0211337Y0184016D01*
X0211530Y0185921D01*
X0212970Y0185921D01*
X0213163Y0184016D01*
X0213804Y0183811D01*
X0214402Y0183503D01*
X0215886Y0184714D01*
X0216904Y0183696D01*
X0215693Y0182212D01*
X0216001Y0181614D01*
X0216206Y0180973D01*
X0218111Y0180780D01*
X0218111Y0179340D01*
X0216206Y0179147D01*
X0216001Y0178506D01*
X0215693Y0177908D01*
X0216904Y0176424D01*
X0215886Y0175406D01*
X0216367Y0175888D02*
X0215295Y0175888D01*
X0214573Y0176477D02*
X0216860Y0176477D01*
X0216380Y0177066D02*
X0213490Y0177066D01*
X0213734Y0176477D02*
X0214131Y0176477D01*
X0213246Y0177655D02*
X0215900Y0177655D01*
X0215866Y0178244D02*
X0213002Y0178244D01*
X0213623Y0178833D02*
X0216106Y0178833D01*
X0218111Y0179422D02*
X0213968Y0179422D01*
X0214090Y0180012D02*
X0218111Y0180012D01*
X0218111Y0180601D02*
X0214004Y0180601D01*
X0213697Y0181190D02*
X0216137Y0181190D01*
X0215916Y0181779D02*
X0212921Y0181779D01*
X0211590Y0181779D02*
X0208584Y0181779D01*
X0208679Y0182368D02*
X0215821Y0182368D01*
X0216301Y0182957D02*
X0208199Y0182957D01*
X0207719Y0183546D02*
X0210046Y0183546D01*
X0210181Y0183546D02*
X0214319Y0183546D01*
X0214454Y0183546D02*
X0216781Y0183546D01*
X0216464Y0184135D02*
X0215176Y0184135D01*
X0213151Y0184135D02*
X0211349Y0184135D01*
X0211409Y0184724D02*
X0213091Y0184724D01*
X0213032Y0185313D02*
X0211468Y0185313D01*
X0211528Y0185902D02*
X0212972Y0185902D01*
X0209324Y0184135D02*
X0208036Y0184135D01*
X0208363Y0181190D02*
X0210806Y0181190D01*
X0210493Y0180601D02*
X0206389Y0180601D01*
X0206389Y0180012D02*
X0210414Y0180012D01*
X0210532Y0179422D02*
X0206389Y0179422D01*
X0208394Y0178833D02*
X0210879Y0178833D01*
X0211498Y0178244D02*
X0208634Y0178244D01*
X0208600Y0177655D02*
X0211254Y0177655D01*
X0211010Y0177066D02*
X0208120Y0177066D01*
X0207640Y0176477D02*
X0209927Y0176477D01*
X0210369Y0176477D02*
X0210766Y0176477D01*
X0209205Y0175888D02*
X0208133Y0175888D01*
X0118111Y0179340D02*
X0116206Y0179147D01*
X0116001Y0178506D01*
X0115693Y0177908D01*
X0116904Y0176424D01*
X0115886Y0175406D01*
X0114402Y0176617D01*
X0113804Y0176309D01*
X0112956Y0178355D01*
X0113335Y0178567D01*
X0113653Y0178861D01*
X0113895Y0179222D01*
X0114045Y0179629D01*
X0114096Y0180060D01*
X0114043Y0180499D01*
X0113887Y0180912D01*
X0113638Y0181277D01*
X0113309Y0181571D01*
X0112919Y0181780D01*
X0112491Y0181889D01*
X0112049Y0181894D01*
X0111619Y0181794D01*
X0111225Y0181594D01*
X0110890Y0181306D01*
X0110632Y0180947D01*
X0110468Y0180537D01*
X0110405Y0180100D01*
X0110449Y0179660D01*
X0110595Y0179244D01*
X0110836Y0178874D01*
X0111159Y0178572D01*
X0111544Y0178355D01*
X0110696Y0176309D01*
X0110098Y0176617D01*
X0108614Y0175406D01*
X0107596Y0176424D01*
X0108807Y0177908D01*
X0108499Y0178506D01*
X0108294Y0179147D01*
X0106389Y0179340D01*
X0106389Y0180780D01*
X0108294Y0180973D01*
X0108499Y0181614D01*
X0108807Y0182212D01*
X0107596Y0183696D01*
X0108614Y0184714D01*
X0110098Y0183503D01*
X0110696Y0183811D01*
X0111337Y0184016D01*
X0111530Y0185921D01*
X0112970Y0185921D01*
X0113163Y0184016D01*
X0113804Y0183811D01*
X0114402Y0183503D01*
X0115886Y0184714D01*
X0116904Y0183696D01*
X0115693Y0182212D01*
X0116001Y0181614D01*
X0116206Y0180973D01*
X0118111Y0180780D01*
X0118111Y0179340D01*
X0118111Y0179422D02*
X0113968Y0179422D01*
X0114090Y0180012D02*
X0118111Y0180012D01*
X0118111Y0180601D02*
X0114004Y0180601D01*
X0113697Y0181190D02*
X0116137Y0181190D01*
X0115916Y0181779D02*
X0112921Y0181779D01*
X0111590Y0181779D02*
X0108584Y0181779D01*
X0108679Y0182368D02*
X0115821Y0182368D01*
X0116301Y0182957D02*
X0108199Y0182957D01*
X0107719Y0183546D02*
X0110046Y0183546D01*
X0110181Y0183546D02*
X0114319Y0183546D01*
X0114454Y0183546D02*
X0116781Y0183546D01*
X0116464Y0184135D02*
X0115176Y0184135D01*
X0113151Y0184135D02*
X0111349Y0184135D01*
X0111409Y0184724D02*
X0113091Y0184724D01*
X0113032Y0185313D02*
X0111468Y0185313D01*
X0111528Y0185902D02*
X0112972Y0185902D01*
X0110806Y0181190D02*
X0108363Y0181190D01*
X0106389Y0180601D02*
X0110493Y0180601D01*
X0110414Y0180012D02*
X0106389Y0180012D01*
X0106389Y0179422D02*
X0110532Y0179422D01*
X0110879Y0178833D02*
X0108394Y0178833D01*
X0108634Y0178244D02*
X0111498Y0178244D01*
X0111254Y0177655D02*
X0108600Y0177655D01*
X0108120Y0177066D02*
X0111010Y0177066D01*
X0110766Y0176477D02*
X0110369Y0176477D01*
X0109927Y0176477D02*
X0107640Y0176477D01*
X0108133Y0175888D02*
X0109205Y0175888D01*
X0113246Y0177655D02*
X0115900Y0177655D01*
X0115866Y0178244D02*
X0113002Y0178244D01*
X0113623Y0178833D02*
X0116106Y0178833D01*
X0116380Y0177066D02*
X0113490Y0177066D01*
X0113734Y0176477D02*
X0114131Y0176477D01*
X0114573Y0176477D02*
X0116860Y0176477D01*
X0116367Y0175888D02*
X0115295Y0175888D01*
X0109324Y0184135D02*
X0108036Y0184135D01*
X0108614Y0275406D02*
X0107596Y0276424D01*
X0108807Y0277908D01*
X0108499Y0278506D01*
X0108294Y0279147D01*
X0106389Y0279340D01*
X0106389Y0280780D01*
X0108294Y0280973D01*
X0108499Y0281614D01*
X0108807Y0282212D01*
X0107596Y0283696D01*
X0108614Y0284714D01*
X0110098Y0283503D01*
X0110696Y0283811D01*
X0111337Y0284016D01*
X0111530Y0285921D01*
X0112970Y0285921D01*
X0113163Y0284016D01*
X0113804Y0283811D01*
X0114402Y0283503D01*
X0115886Y0284714D01*
X0116904Y0283696D01*
X0115693Y0282212D01*
X0116001Y0281614D01*
X0116206Y0280973D01*
X0118111Y0280780D01*
X0118111Y0279340D01*
X0116206Y0279147D01*
X0116001Y0278506D01*
X0115693Y0277908D01*
X0116904Y0276424D01*
X0115886Y0275406D01*
X0114402Y0276617D01*
X0113804Y0276309D01*
X0112956Y0278355D01*
X0113335Y0278567D01*
X0113653Y0278861D01*
X0113895Y0279222D01*
X0114045Y0279629D01*
X0114096Y0280060D01*
X0114043Y0280499D01*
X0113887Y0280912D01*
X0113638Y0281277D01*
X0113309Y0281571D01*
X0112919Y0281780D01*
X0112491Y0281889D01*
X0112049Y0281894D01*
X0111619Y0281794D01*
X0111225Y0281594D01*
X0110890Y0281306D01*
X0110632Y0280947D01*
X0110468Y0280537D01*
X0110405Y0280100D01*
X0110449Y0279660D01*
X0110595Y0279244D01*
X0110836Y0278874D01*
X0111159Y0278572D01*
X0111544Y0278355D01*
X0110696Y0276309D01*
X0110098Y0276617D01*
X0108614Y0275406D01*
X0108581Y0275440D02*
X0108655Y0275440D01*
X0107992Y0276029D02*
X0109377Y0276029D01*
X0110824Y0276618D02*
X0107754Y0276618D01*
X0108235Y0277207D02*
X0111068Y0277207D01*
X0111312Y0277796D02*
X0108715Y0277796D01*
X0108561Y0278385D02*
X0111490Y0278385D01*
X0110771Y0278974D02*
X0108349Y0278974D01*
X0106389Y0279563D02*
X0110483Y0279563D01*
X0110413Y0280152D02*
X0106389Y0280152D01*
X0106389Y0280741D02*
X0110550Y0280741D01*
X0110918Y0281330D02*
X0108408Y0281330D01*
X0108656Y0281919D02*
X0115844Y0281919D01*
X0115935Y0282508D02*
X0108565Y0282508D01*
X0108084Y0283097D02*
X0116416Y0283097D01*
X0116896Y0283687D02*
X0114626Y0283687D01*
X0114046Y0283687D02*
X0110454Y0283687D01*
X0109874Y0283687D02*
X0107604Y0283687D01*
X0108176Y0284276D02*
X0109151Y0284276D01*
X0111363Y0284276D02*
X0113137Y0284276D01*
X0113077Y0284865D02*
X0111423Y0284865D01*
X0111483Y0285454D02*
X0113017Y0285454D01*
X0115349Y0284276D02*
X0116324Y0284276D01*
X0116092Y0281330D02*
X0113578Y0281330D01*
X0113951Y0280741D02*
X0118111Y0280741D01*
X0118111Y0280152D02*
X0114085Y0280152D01*
X0114020Y0279563D02*
X0118111Y0279563D01*
X0116151Y0278974D02*
X0113729Y0278974D01*
X0113010Y0278385D02*
X0115939Y0278385D01*
X0115785Y0277796D02*
X0113188Y0277796D01*
X0113432Y0277207D02*
X0116265Y0277207D01*
X0116746Y0276618D02*
X0113676Y0276618D01*
X0115123Y0276029D02*
X0116508Y0276029D01*
X0115919Y0275440D02*
X0115845Y0275440D01*
X0206389Y0279340D02*
X0206389Y0280780D01*
X0208294Y0280973D01*
X0208499Y0281614D01*
X0208807Y0282212D01*
X0207596Y0283696D01*
X0208614Y0284714D01*
X0210098Y0283503D01*
X0210696Y0283811D01*
X0211337Y0284016D01*
X0211530Y0285921D01*
X0212970Y0285921D01*
X0213163Y0284016D01*
X0213804Y0283811D01*
X0214402Y0283503D01*
X0215886Y0284714D01*
X0216904Y0283696D01*
X0215693Y0282212D01*
X0216001Y0281614D01*
X0216206Y0280973D01*
X0218111Y0280780D01*
X0218111Y0279340D01*
X0216206Y0279147D01*
X0216001Y0278506D01*
X0215693Y0277908D01*
X0216904Y0276424D01*
X0215886Y0275406D01*
X0214402Y0276617D01*
X0213804Y0276309D01*
X0212956Y0278355D01*
X0213335Y0278567D01*
X0213653Y0278861D01*
X0213895Y0279222D01*
X0214045Y0279629D01*
X0214096Y0280060D01*
X0214043Y0280499D01*
X0213887Y0280912D01*
X0213638Y0281277D01*
X0213309Y0281571D01*
X0212919Y0281780D01*
X0212491Y0281889D01*
X0212049Y0281894D01*
X0211619Y0281794D01*
X0211225Y0281594D01*
X0210890Y0281306D01*
X0210632Y0280947D01*
X0210468Y0280537D01*
X0210405Y0280100D01*
X0210449Y0279660D01*
X0210595Y0279244D01*
X0210836Y0278874D01*
X0211159Y0278572D01*
X0211544Y0278355D01*
X0210696Y0276309D01*
X0210098Y0276617D01*
X0208614Y0275406D01*
X0207596Y0276424D01*
X0208807Y0277908D01*
X0208499Y0278506D01*
X0208294Y0279147D01*
X0206389Y0279340D01*
X0206389Y0279563D02*
X0210483Y0279563D01*
X0210413Y0280152D02*
X0206389Y0280152D01*
X0206389Y0280741D02*
X0210550Y0280741D01*
X0210918Y0281330D02*
X0208408Y0281330D01*
X0208656Y0281919D02*
X0215844Y0281919D01*
X0215935Y0282508D02*
X0208565Y0282508D01*
X0208084Y0283097D02*
X0216416Y0283097D01*
X0216896Y0283687D02*
X0214626Y0283687D01*
X0214046Y0283687D02*
X0210454Y0283687D01*
X0209874Y0283687D02*
X0207604Y0283687D01*
X0208176Y0284276D02*
X0209151Y0284276D01*
X0211363Y0284276D02*
X0213137Y0284276D01*
X0213077Y0284865D02*
X0211423Y0284865D01*
X0211483Y0285454D02*
X0213017Y0285454D01*
X0215349Y0284276D02*
X0216324Y0284276D01*
X0216092Y0281330D02*
X0213578Y0281330D01*
X0213951Y0280741D02*
X0218111Y0280741D01*
X0218111Y0280152D02*
X0214085Y0280152D01*
X0214020Y0279563D02*
X0218111Y0279563D01*
X0216151Y0278974D02*
X0213729Y0278974D01*
X0213010Y0278385D02*
X0215939Y0278385D01*
X0215785Y0277796D02*
X0213188Y0277796D01*
X0213432Y0277207D02*
X0216265Y0277207D01*
X0216746Y0276618D02*
X0213676Y0276618D01*
X0215123Y0276029D02*
X0216508Y0276029D01*
X0215919Y0275440D02*
X0215845Y0275440D01*
X0211068Y0277207D02*
X0208235Y0277207D01*
X0208715Y0277796D02*
X0211312Y0277796D01*
X0211490Y0278385D02*
X0208561Y0278385D01*
X0208349Y0278974D02*
X0210771Y0278974D01*
X0210824Y0276618D02*
X0207754Y0276618D01*
X0207992Y0276029D02*
X0209377Y0276029D01*
X0208655Y0275440D02*
X0208581Y0275440D01*
X0115886Y0084714D02*
X0116904Y0083696D01*
X0115693Y0082212D01*
X0116001Y0081614D01*
X0116206Y0080973D01*
X0118111Y0080780D01*
X0118111Y0079340D01*
X0116206Y0079147D01*
X0116001Y0078506D01*
X0115693Y0077908D01*
X0116904Y0076424D01*
X0115886Y0075406D01*
X0114402Y0076617D01*
X0113804Y0076309D01*
X0112956Y0078355D01*
X0113335Y0078567D01*
X0113653Y0078861D01*
X0113895Y0079222D01*
X0114045Y0079629D01*
X0114096Y0080060D01*
X0114043Y0080499D01*
X0113887Y0080912D01*
X0113638Y0081277D01*
X0113309Y0081571D01*
X0112919Y0081780D01*
X0112491Y0081889D01*
X0112049Y0081894D01*
X0111619Y0081794D01*
X0111225Y0081594D01*
X0110890Y0081306D01*
X0110632Y0080947D01*
X0110468Y0080537D01*
X0110405Y0080100D01*
X0110449Y0079660D01*
X0110595Y0079244D01*
X0110836Y0078874D01*
X0111159Y0078572D01*
X0111544Y0078355D01*
X0110696Y0076309D01*
X0110098Y0076617D01*
X0108614Y0075406D01*
X0107596Y0076424D01*
X0108807Y0077908D01*
X0108499Y0078506D01*
X0108294Y0079147D01*
X0106389Y0079340D01*
X0106389Y0080780D01*
X0108294Y0080973D01*
X0108499Y0081614D01*
X0108807Y0082212D01*
X0107596Y0083696D01*
X0108614Y0084714D01*
X0110098Y0083503D01*
X0110696Y0083811D01*
X0111337Y0084016D01*
X0111530Y0085921D01*
X0112970Y0085921D01*
X0113163Y0084016D01*
X0113804Y0083811D01*
X0114402Y0083503D01*
X0115886Y0084714D01*
X0116016Y0084583D02*
X0115726Y0084583D01*
X0115004Y0083994D02*
X0116605Y0083994D01*
X0116667Y0083405D02*
X0107833Y0083405D01*
X0107895Y0083994D02*
X0109496Y0083994D01*
X0108774Y0084583D02*
X0108484Y0084583D01*
X0108314Y0082816D02*
X0116186Y0082816D01*
X0115706Y0082227D02*
X0108794Y0082227D01*
X0108511Y0081638D02*
X0111312Y0081638D01*
X0110705Y0081049D02*
X0108318Y0081049D01*
X0106389Y0080460D02*
X0110457Y0080460D01*
X0110428Y0079871D02*
X0106389Y0079871D01*
X0106963Y0079282D02*
X0110582Y0079282D01*
X0111029Y0078693D02*
X0108439Y0078693D01*
X0108706Y0078104D02*
X0111440Y0078104D01*
X0111196Y0077515D02*
X0108486Y0077515D01*
X0108005Y0076926D02*
X0110952Y0076926D01*
X0110708Y0076337D02*
X0110642Y0076337D01*
X0109755Y0076337D02*
X0107684Y0076337D01*
X0108273Y0075747D02*
X0109032Y0075747D01*
X0113304Y0077515D02*
X0116014Y0077515D01*
X0115794Y0078104D02*
X0113060Y0078104D01*
X0113471Y0078693D02*
X0116061Y0078693D01*
X0117537Y0079282D02*
X0113917Y0079282D01*
X0114073Y0079871D02*
X0118111Y0079871D01*
X0118111Y0080460D02*
X0114047Y0080460D01*
X0113793Y0081049D02*
X0116182Y0081049D01*
X0115989Y0081638D02*
X0113184Y0081638D01*
X0113232Y0083994D02*
X0111268Y0083994D01*
X0111394Y0084583D02*
X0113106Y0084583D01*
X0113046Y0085172D02*
X0111454Y0085172D01*
X0111514Y0085762D02*
X0112986Y0085762D01*
X0113548Y0076926D02*
X0116495Y0076926D01*
X0116816Y0076337D02*
X0114745Y0076337D01*
X0113858Y0076337D02*
X0113792Y0076337D01*
X0115468Y0075747D02*
X0116227Y0075747D01*
X0018111Y0079340D02*
X0016206Y0079147D01*
X0016001Y0078506D01*
X0015693Y0077908D01*
X0016904Y0076424D01*
X0015886Y0075406D01*
X0014402Y0076617D01*
X0013804Y0076309D01*
X0012956Y0078355D01*
X0013335Y0078567D01*
X0013653Y0078861D01*
X0013895Y0079222D01*
X0014045Y0079629D01*
X0014096Y0080060D01*
X0014043Y0080499D01*
X0013887Y0080912D01*
X0013638Y0081277D01*
X0013309Y0081571D01*
X0012919Y0081780D01*
X0012491Y0081889D01*
X0012049Y0081894D01*
X0011619Y0081794D01*
X0011225Y0081594D01*
X0010890Y0081306D01*
X0010632Y0080947D01*
X0010468Y0080537D01*
X0010405Y0080100D01*
X0010449Y0079660D01*
X0010595Y0079244D01*
X0010836Y0078874D01*
X0011159Y0078572D01*
X0011544Y0078355D01*
X0010696Y0076309D01*
X0010098Y0076617D01*
X0008614Y0075406D01*
X0007596Y0076424D01*
X0008807Y0077908D01*
X0008499Y0078506D01*
X0008294Y0079147D01*
X0006389Y0079340D01*
X0006389Y0080780D01*
X0008294Y0080973D01*
X0008499Y0081614D01*
X0008807Y0082212D01*
X0007596Y0083696D01*
X0008614Y0084714D01*
X0010098Y0083503D01*
X0010696Y0083811D01*
X0011337Y0084016D01*
X0011530Y0085921D01*
X0012970Y0085921D01*
X0013163Y0084016D01*
X0013804Y0083811D01*
X0014402Y0083503D01*
X0015886Y0084714D01*
X0016904Y0083696D01*
X0015693Y0082212D01*
X0016001Y0081614D01*
X0016206Y0080973D01*
X0018111Y0080780D01*
X0018111Y0079340D01*
X0018111Y0079871D02*
X0014073Y0079871D01*
X0014047Y0080460D02*
X0018111Y0080460D01*
X0017537Y0079282D02*
X0013917Y0079282D01*
X0013471Y0078693D02*
X0016061Y0078693D01*
X0015794Y0078104D02*
X0013060Y0078104D01*
X0013304Y0077515D02*
X0016014Y0077515D01*
X0016495Y0076926D02*
X0013548Y0076926D01*
X0013792Y0076337D02*
X0013858Y0076337D01*
X0014745Y0076337D02*
X0016816Y0076337D01*
X0016227Y0075747D02*
X0015468Y0075747D01*
X0011196Y0077515D02*
X0008486Y0077515D01*
X0008706Y0078104D02*
X0011440Y0078104D01*
X0011029Y0078693D02*
X0008439Y0078693D01*
X0006963Y0079282D02*
X0010582Y0079282D01*
X0010428Y0079871D02*
X0006389Y0079871D01*
X0006389Y0080460D02*
X0010457Y0080460D01*
X0010705Y0081049D02*
X0008318Y0081049D01*
X0008511Y0081638D02*
X0011312Y0081638D01*
X0013184Y0081638D02*
X0015989Y0081638D01*
X0016182Y0081049D02*
X0013793Y0081049D01*
X0015706Y0082227D02*
X0008794Y0082227D01*
X0008314Y0082816D02*
X0016186Y0082816D01*
X0016667Y0083405D02*
X0007833Y0083405D01*
X0007895Y0083994D02*
X0009496Y0083994D01*
X0008774Y0084583D02*
X0008484Y0084583D01*
X0011268Y0083994D02*
X0013232Y0083994D01*
X0013106Y0084583D02*
X0011394Y0084583D01*
X0011454Y0085172D02*
X0013046Y0085172D01*
X0012986Y0085762D02*
X0011514Y0085762D01*
X0015004Y0083994D02*
X0016605Y0083994D01*
X0016016Y0084583D02*
X0015726Y0084583D01*
X0010952Y0076926D02*
X0008005Y0076926D01*
X0007684Y0076337D02*
X0009755Y0076337D01*
X0010642Y0076337D02*
X0010708Y0076337D01*
X0009032Y0075747D02*
X0008273Y0075747D01*
X0008614Y0175406D02*
X0007596Y0176424D01*
X0008807Y0177908D01*
X0008499Y0178506D01*
X0008294Y0179147D01*
X0006389Y0179340D01*
X0006389Y0180780D01*
X0008294Y0180973D01*
X0008499Y0181614D01*
X0008807Y0182212D01*
X0007596Y0183696D01*
X0008614Y0184714D01*
X0010098Y0183503D01*
X0010696Y0183811D01*
X0011337Y0184016D01*
X0011530Y0185921D01*
X0012970Y0185921D01*
X0013163Y0184016D01*
X0013804Y0183811D01*
X0014402Y0183503D01*
X0015886Y0184714D01*
X0016904Y0183696D01*
X0015693Y0182212D01*
X0016001Y0181614D01*
X0016206Y0180973D01*
X0018111Y0180780D01*
X0018111Y0179340D01*
X0016206Y0179147D01*
X0016001Y0178506D01*
X0015693Y0177908D01*
X0016904Y0176424D01*
X0015886Y0175406D01*
X0014402Y0176617D01*
X0013804Y0176309D01*
X0012956Y0178355D01*
X0013335Y0178567D01*
X0013653Y0178861D01*
X0013895Y0179222D01*
X0014045Y0179629D01*
X0014096Y0180060D01*
X0014043Y0180499D01*
X0013887Y0180912D01*
X0013638Y0181277D01*
X0013309Y0181571D01*
X0012919Y0181780D01*
X0012491Y0181889D01*
X0012049Y0181894D01*
X0011619Y0181794D01*
X0011225Y0181594D01*
X0010890Y0181306D01*
X0010632Y0180947D01*
X0010468Y0180537D01*
X0010405Y0180100D01*
X0010449Y0179660D01*
X0010595Y0179244D01*
X0010836Y0178874D01*
X0011159Y0178572D01*
X0011544Y0178355D01*
X0010696Y0176309D01*
X0010098Y0176617D01*
X0008614Y0175406D01*
X0008133Y0175888D02*
X0009205Y0175888D01*
X0009927Y0176477D02*
X0007640Y0176477D01*
X0008120Y0177066D02*
X0011010Y0177066D01*
X0010766Y0176477D02*
X0010369Y0176477D01*
X0011254Y0177655D02*
X0008600Y0177655D01*
X0008634Y0178244D02*
X0011498Y0178244D01*
X0010879Y0178833D02*
X0008394Y0178833D01*
X0006389Y0179422D02*
X0010532Y0179422D01*
X0010414Y0180012D02*
X0006389Y0180012D01*
X0006389Y0180601D02*
X0010493Y0180601D01*
X0010806Y0181190D02*
X0008363Y0181190D01*
X0008584Y0181779D02*
X0011590Y0181779D01*
X0012921Y0181779D02*
X0015916Y0181779D01*
X0015821Y0182368D02*
X0008679Y0182368D01*
X0008199Y0182957D02*
X0016301Y0182957D01*
X0016781Y0183546D02*
X0014454Y0183546D01*
X0014319Y0183546D02*
X0010181Y0183546D01*
X0010046Y0183546D02*
X0007719Y0183546D01*
X0008036Y0184135D02*
X0009324Y0184135D01*
X0011349Y0184135D02*
X0013151Y0184135D01*
X0013091Y0184724D02*
X0011409Y0184724D01*
X0011468Y0185313D02*
X0013032Y0185313D01*
X0012972Y0185902D02*
X0011528Y0185902D01*
X0015176Y0184135D02*
X0016464Y0184135D01*
X0016137Y0181190D02*
X0013697Y0181190D01*
X0014004Y0180601D02*
X0018111Y0180601D01*
X0018111Y0180012D02*
X0014090Y0180012D01*
X0013968Y0179422D02*
X0018111Y0179422D01*
X0016106Y0178833D02*
X0013623Y0178833D01*
X0013002Y0178244D02*
X0015866Y0178244D01*
X0015900Y0177655D02*
X0013246Y0177655D01*
X0013490Y0177066D02*
X0016380Y0177066D01*
X0016860Y0176477D02*
X0014573Y0176477D01*
X0014131Y0176477D02*
X0013734Y0176477D01*
X0015295Y0175888D02*
X0016367Y0175888D01*
X0015886Y0275406D02*
X0014402Y0276617D01*
X0013804Y0276309D01*
X0012956Y0278355D01*
X0013335Y0278567D01*
X0013653Y0278861D01*
X0013895Y0279222D01*
X0014045Y0279629D01*
X0014096Y0280060D01*
X0014043Y0280499D01*
X0013887Y0280912D01*
X0013638Y0281277D01*
X0013309Y0281571D01*
X0012919Y0281780D01*
X0012491Y0281889D01*
X0012049Y0281894D01*
X0011619Y0281794D01*
X0011225Y0281594D01*
X0010890Y0281306D01*
X0010632Y0280947D01*
X0010468Y0280537D01*
X0010405Y0280100D01*
X0010449Y0279660D01*
X0010595Y0279244D01*
X0010836Y0278874D01*
X0011159Y0278572D01*
X0011544Y0278355D01*
X0010696Y0276309D01*
X0010098Y0276617D01*
X0008614Y0275406D01*
X0007596Y0276424D01*
X0008807Y0277908D01*
X0008499Y0278506D01*
X0008294Y0279147D01*
X0006389Y0279340D01*
X0006389Y0280780D01*
X0008294Y0280973D01*
X0008499Y0281614D01*
X0008807Y0282212D01*
X0007596Y0283696D01*
X0008614Y0284714D01*
X0010098Y0283503D01*
X0010696Y0283811D01*
X0011337Y0284016D01*
X0011530Y0285921D01*
X0012970Y0285921D01*
X0013163Y0284016D01*
X0013804Y0283811D01*
X0014402Y0283503D01*
X0015886Y0284714D01*
X0016904Y0283696D01*
X0015693Y0282212D01*
X0016001Y0281614D01*
X0016206Y0280973D01*
X0018111Y0280780D01*
X0018111Y0279340D01*
X0016206Y0279147D01*
X0016001Y0278506D01*
X0015693Y0277908D01*
X0016904Y0276424D01*
X0015886Y0275406D01*
X0015919Y0275440D02*
X0015845Y0275440D01*
X0016508Y0276029D02*
X0015123Y0276029D01*
X0013676Y0276618D02*
X0016746Y0276618D01*
X0016265Y0277207D02*
X0013432Y0277207D01*
X0013188Y0277796D02*
X0015785Y0277796D01*
X0015939Y0278385D02*
X0013010Y0278385D01*
X0013729Y0278974D02*
X0016151Y0278974D01*
X0018111Y0279563D02*
X0014020Y0279563D01*
X0014085Y0280152D02*
X0018111Y0280152D01*
X0018111Y0280741D02*
X0013951Y0280741D01*
X0013578Y0281330D02*
X0016092Y0281330D01*
X0015844Y0281919D02*
X0008656Y0281919D01*
X0008565Y0282508D02*
X0015935Y0282508D01*
X0016416Y0283097D02*
X0008084Y0283097D01*
X0007604Y0283687D02*
X0009874Y0283687D01*
X0010454Y0283687D02*
X0014046Y0283687D01*
X0014626Y0283687D02*
X0016896Y0283687D01*
X0016324Y0284276D02*
X0015349Y0284276D01*
X0013137Y0284276D02*
X0011363Y0284276D01*
X0011423Y0284865D02*
X0013077Y0284865D01*
X0013017Y0285454D02*
X0011483Y0285454D01*
X0009151Y0284276D02*
X0008176Y0284276D01*
X0008408Y0281330D02*
X0010918Y0281330D01*
X0010550Y0280741D02*
X0006389Y0280741D01*
X0006389Y0280152D02*
X0010413Y0280152D01*
X0010483Y0279563D02*
X0006389Y0279563D01*
X0008349Y0278974D02*
X0010771Y0278974D01*
X0011490Y0278385D02*
X0008561Y0278385D01*
X0008715Y0277796D02*
X0011312Y0277796D01*
X0011068Y0277207D02*
X0008235Y0277207D01*
X0007754Y0276618D02*
X0010824Y0276618D01*
X0009377Y0276029D02*
X0007992Y0276029D01*
X0008581Y0275440D02*
X0008655Y0275440D01*
M02*
