G75*
%MOIN*%
%OFA0B0*%
%FSLAX25Y25*%
%IPPOS*%
%LPD*%
%AMOC8*
5,1,8,0,0,1.08239X$1,22.5*
%
%ADD10C,0.08200*%
%ADD11R,0.05800X0.03300*%
%ADD12C,0.13800*%
%ADD13C,0.04808*%
D10*
X0027250Y0010060D03*
X0037250Y0010060D03*
X0047250Y0010060D03*
X0057250Y0010060D03*
X0067250Y0010060D03*
X0077250Y0010060D03*
X0127250Y0010060D03*
X0137250Y0010060D03*
X0147250Y0010060D03*
X0157250Y0010060D03*
X0167250Y0010060D03*
X0177250Y0010060D03*
X0227250Y0010060D03*
X0237250Y0010060D03*
X0247250Y0010060D03*
X0257250Y0010060D03*
X0267250Y0010060D03*
X0277250Y0010060D03*
X0284750Y0073060D03*
X0294750Y0073060D03*
X0277250Y0100060D03*
X0277250Y0110060D03*
X0267250Y0110060D03*
X0257250Y0110060D03*
X0247250Y0110060D03*
X0247250Y0100060D03*
X0257250Y0100060D03*
X0267250Y0100060D03*
X0237250Y0100060D03*
X0237250Y0110060D03*
X0227250Y0110060D03*
X0227250Y0100060D03*
X0194750Y0073060D03*
X0184750Y0073060D03*
X0177250Y0100060D03*
X0177250Y0110060D03*
X0167250Y0110060D03*
X0157250Y0110060D03*
X0147250Y0110060D03*
X0137250Y0110060D03*
X0137250Y0100060D03*
X0147250Y0100060D03*
X0157250Y0100060D03*
X0167250Y0100060D03*
X0127250Y0100060D03*
X0127250Y0110060D03*
X0094750Y0073060D03*
X0084750Y0073060D03*
X0077250Y0100060D03*
X0077250Y0110060D03*
X0067250Y0110060D03*
X0067250Y0100060D03*
X0057250Y0100060D03*
X0057250Y0110060D03*
X0047250Y0110060D03*
X0037250Y0110060D03*
X0037250Y0100060D03*
X0047250Y0100060D03*
X0027250Y0100060D03*
X0027250Y0110060D03*
X0084750Y0173060D03*
X0094750Y0173060D03*
X0077250Y0200060D03*
X0077250Y0210060D03*
X0067250Y0210060D03*
X0067250Y0200060D03*
X0057250Y0200060D03*
X0057250Y0210060D03*
X0047250Y0210060D03*
X0037250Y0210060D03*
X0037250Y0200060D03*
X0047250Y0200060D03*
X0027250Y0200060D03*
X0027250Y0210060D03*
X0084750Y0273060D03*
X0094750Y0273060D03*
X0077250Y0300060D03*
X0067250Y0300060D03*
X0057250Y0300060D03*
X0047250Y0300060D03*
X0037250Y0300060D03*
X0027250Y0300060D03*
X0127250Y0300060D03*
X0137250Y0300060D03*
X0147250Y0300060D03*
X0157250Y0300060D03*
X0167250Y0300060D03*
X0177250Y0300060D03*
X0184750Y0273060D03*
X0194750Y0273060D03*
X0227250Y0300060D03*
X0237250Y0300060D03*
X0247250Y0300060D03*
X0257250Y0300060D03*
X0267250Y0300060D03*
X0277250Y0300060D03*
X0284750Y0273060D03*
X0294750Y0273060D03*
X0277250Y0210060D03*
X0277250Y0200060D03*
X0267250Y0200060D03*
X0267250Y0210060D03*
X0257250Y0210060D03*
X0247250Y0210060D03*
X0247250Y0200060D03*
X0257250Y0200060D03*
X0237250Y0200060D03*
X0237250Y0210060D03*
X0227250Y0210060D03*
X0227250Y0200060D03*
X0194750Y0173060D03*
X0184750Y0173060D03*
X0177250Y0200060D03*
X0177250Y0210060D03*
X0167250Y0210060D03*
X0157250Y0210060D03*
X0147250Y0210060D03*
X0137250Y0210060D03*
X0137250Y0200060D03*
X0147250Y0200060D03*
X0157250Y0200060D03*
X0167250Y0200060D03*
X0127250Y0200060D03*
X0127250Y0210060D03*
X0284750Y0173060D03*
X0294750Y0173060D03*
D11*
X0232250Y0146660D03*
X0232250Y0143460D03*
X0232250Y0046660D03*
X0232250Y0043460D03*
X0132250Y0043460D03*
X0132250Y0046660D03*
X0132250Y0143460D03*
X0132250Y0146660D03*
X0132250Y0243460D03*
X0132250Y0246660D03*
X0032250Y0246660D03*
X0032250Y0243460D03*
X0032250Y0146660D03*
X0032250Y0143460D03*
X0032250Y0046660D03*
X0032250Y0043460D03*
X0232250Y0243460D03*
X0232250Y0246660D03*
D12*
X0212250Y0295060D03*
X0192250Y0295060D03*
X0112250Y0295060D03*
X0092250Y0295060D03*
X0012250Y0295060D03*
X0012250Y0195060D03*
X0092250Y0195060D03*
X0112250Y0195060D03*
X0192250Y0195060D03*
X0212250Y0195060D03*
X0292250Y0195060D03*
X0292250Y0295060D03*
X0292250Y0095060D03*
X0212250Y0095060D03*
X0192250Y0095060D03*
X0112250Y0095060D03*
X0092250Y0095060D03*
X0012250Y0095060D03*
D13*
X0047250Y0090060D03*
X0057250Y0090060D03*
X0057250Y0080060D03*
X0047250Y0080060D03*
X0047250Y0070060D03*
X0057250Y0070060D03*
X0147250Y0070060D03*
X0147250Y0080060D03*
X0147250Y0090060D03*
X0157250Y0090060D03*
X0157250Y0080060D03*
X0157250Y0070060D03*
X0247250Y0070060D03*
X0247250Y0080060D03*
X0247250Y0090060D03*
X0257250Y0090060D03*
X0257250Y0080060D03*
X0257250Y0070060D03*
X0257250Y0170060D03*
X0257250Y0180060D03*
X0247250Y0180060D03*
X0247250Y0170060D03*
X0247250Y0190060D03*
X0257250Y0190060D03*
X0257250Y0270060D03*
X0257250Y0280060D03*
X0247250Y0280060D03*
X0247250Y0270060D03*
X0247250Y0290060D03*
X0257250Y0290060D03*
X0157250Y0290060D03*
X0147250Y0290060D03*
X0147250Y0280060D03*
X0157250Y0280060D03*
X0157250Y0270060D03*
X0147250Y0270060D03*
X0147250Y0190060D03*
X0157250Y0190060D03*
X0157250Y0180060D03*
X0147250Y0180060D03*
X0147250Y0170060D03*
X0157250Y0170060D03*
X0057250Y0170060D03*
X0057250Y0180060D03*
X0047250Y0180060D03*
X0047250Y0170060D03*
X0047250Y0190060D03*
X0057250Y0190060D03*
X0057250Y0270060D03*
X0057250Y0280060D03*
X0047250Y0280060D03*
X0047250Y0270060D03*
X0047250Y0290060D03*
X0057250Y0290060D03*
M02*
