G75*
%MOIN*%
%OFA0B0*%
%FSLAX25Y25*%
%IPPOS*%
%LPD*%
%AMOC8*
5,1,8,0,0,1.08239X$1,22.5*
%
%ADD10R,0.04331X0.03937*%
%ADD11R,0.08800X0.13000*%
%ADD12R,0.01181X0.04331*%
%ADD13R,0.04331X0.01181*%
%ADD14R,0.03937X0.04331*%
%ADD15R,0.04724X0.02362*%
%ADD16R,0.07874X0.04724*%
%ADD17R,0.05315X0.02362*%
%ADD18C,0.01181*%
%ADD19R,0.02362X0.02362*%
%ADD20R,0.08800X0.09800*%
D10*
X0028904Y0030060D03*
X0028904Y0035060D03*
X0035596Y0035060D03*
X0035596Y0030060D03*
X0068904Y0030060D03*
X0068904Y0035060D03*
X0075596Y0035060D03*
X0075596Y0030060D03*
X0128904Y0030060D03*
X0128904Y0035060D03*
X0135596Y0035060D03*
X0135596Y0030060D03*
X0168904Y0030060D03*
X0168904Y0035060D03*
X0175596Y0035060D03*
X0175596Y0030060D03*
X0228904Y0030060D03*
X0228904Y0035060D03*
X0235596Y0035060D03*
X0235596Y0030060D03*
X0268904Y0030060D03*
X0268904Y0035060D03*
X0275596Y0035060D03*
X0275596Y0030060D03*
X0275596Y0130060D03*
X0275596Y0135060D03*
X0268904Y0135060D03*
X0268904Y0130060D03*
X0235596Y0130060D03*
X0235596Y0135060D03*
X0228904Y0135060D03*
X0228904Y0130060D03*
X0175596Y0130060D03*
X0175596Y0135060D03*
X0168904Y0135060D03*
X0168904Y0130060D03*
X0135596Y0130060D03*
X0135596Y0135060D03*
X0128904Y0135060D03*
X0128904Y0130060D03*
X0075596Y0130060D03*
X0075596Y0135060D03*
X0068904Y0135060D03*
X0068904Y0130060D03*
X0035596Y0130060D03*
X0035596Y0135060D03*
X0028904Y0135060D03*
X0028904Y0130060D03*
X0028904Y0230060D03*
X0028904Y0235060D03*
X0035596Y0235060D03*
X0035596Y0230060D03*
X0068904Y0230060D03*
X0068904Y0235060D03*
X0075596Y0235060D03*
X0075596Y0230060D03*
X0128904Y0230060D03*
X0128904Y0235060D03*
X0135596Y0235060D03*
X0135596Y0230060D03*
X0168904Y0230060D03*
X0168904Y0235060D03*
X0175596Y0235060D03*
X0175596Y0230060D03*
X0228904Y0230060D03*
X0228904Y0235060D03*
X0235596Y0235060D03*
X0235596Y0230060D03*
X0268904Y0230060D03*
X0268904Y0235060D03*
X0275596Y0235060D03*
X0275596Y0230060D03*
D11*
X0217250Y0232560D03*
X0217250Y0132560D03*
X0217250Y0032560D03*
X0117250Y0032560D03*
X0117250Y0132560D03*
X0117250Y0232560D03*
X0017250Y0232560D03*
X0017250Y0132560D03*
X0017250Y0032560D03*
D12*
X0047132Y0046399D03*
X0049691Y0046399D03*
X0052250Y0046399D03*
X0054809Y0046399D03*
X0057368Y0046399D03*
X0057368Y0063721D03*
X0054809Y0063721D03*
X0052250Y0063721D03*
X0049691Y0063721D03*
X0047132Y0063721D03*
X0047132Y0146399D03*
X0049691Y0146399D03*
X0052250Y0146399D03*
X0054809Y0146399D03*
X0057368Y0146399D03*
X0057368Y0163721D03*
X0054809Y0163721D03*
X0052250Y0163721D03*
X0049691Y0163721D03*
X0047132Y0163721D03*
X0047132Y0246399D03*
X0049691Y0246399D03*
X0052250Y0246399D03*
X0054809Y0246399D03*
X0057368Y0246399D03*
X0057368Y0263721D03*
X0054809Y0263721D03*
X0052250Y0263721D03*
X0049691Y0263721D03*
X0047132Y0263721D03*
X0147132Y0263721D03*
X0149691Y0263721D03*
X0152250Y0263721D03*
X0154809Y0263721D03*
X0157368Y0263721D03*
X0157368Y0246399D03*
X0154809Y0246399D03*
X0152250Y0246399D03*
X0149691Y0246399D03*
X0147132Y0246399D03*
X0147132Y0163721D03*
X0149691Y0163721D03*
X0152250Y0163721D03*
X0154809Y0163721D03*
X0157368Y0163721D03*
X0157368Y0146399D03*
X0154809Y0146399D03*
X0152250Y0146399D03*
X0149691Y0146399D03*
X0147132Y0146399D03*
X0147132Y0063721D03*
X0149691Y0063721D03*
X0152250Y0063721D03*
X0154809Y0063721D03*
X0157368Y0063721D03*
X0157368Y0046399D03*
X0154809Y0046399D03*
X0152250Y0046399D03*
X0149691Y0046399D03*
X0147132Y0046399D03*
X0247132Y0046399D03*
X0249691Y0046399D03*
X0252250Y0046399D03*
X0254809Y0046399D03*
X0257368Y0046399D03*
X0257368Y0063721D03*
X0254809Y0063721D03*
X0252250Y0063721D03*
X0249691Y0063721D03*
X0247132Y0063721D03*
X0247132Y0146399D03*
X0249691Y0146399D03*
X0252250Y0146399D03*
X0254809Y0146399D03*
X0257368Y0146399D03*
X0257368Y0163721D03*
X0254809Y0163721D03*
X0252250Y0163721D03*
X0249691Y0163721D03*
X0247132Y0163721D03*
X0247132Y0246399D03*
X0249691Y0246399D03*
X0252250Y0246399D03*
X0254809Y0246399D03*
X0257368Y0246399D03*
X0257368Y0263721D03*
X0254809Y0263721D03*
X0252250Y0263721D03*
X0249691Y0263721D03*
X0247132Y0263721D03*
D13*
X0243589Y0260178D03*
X0243589Y0257619D03*
X0243589Y0255060D03*
X0243589Y0252501D03*
X0243589Y0249942D03*
X0261305Y0249942D03*
X0261305Y0252501D03*
X0261305Y0255060D03*
X0261305Y0257619D03*
X0261305Y0260178D03*
X0261305Y0160178D03*
X0261305Y0157619D03*
X0261305Y0155060D03*
X0261305Y0152501D03*
X0261305Y0149942D03*
X0243589Y0149942D03*
X0243589Y0152501D03*
X0243589Y0155060D03*
X0243589Y0157619D03*
X0243589Y0160178D03*
X0161305Y0160178D03*
X0161305Y0157619D03*
X0161305Y0155060D03*
X0161305Y0152501D03*
X0161305Y0149942D03*
X0143589Y0149942D03*
X0143589Y0152501D03*
X0143589Y0155060D03*
X0143589Y0157619D03*
X0143589Y0160178D03*
X0061305Y0160178D03*
X0061305Y0157619D03*
X0061305Y0155060D03*
X0061305Y0152501D03*
X0061305Y0149942D03*
X0043589Y0149942D03*
X0043589Y0152501D03*
X0043589Y0155060D03*
X0043589Y0157619D03*
X0043589Y0160178D03*
X0043589Y0249942D03*
X0043589Y0252501D03*
X0043589Y0255060D03*
X0043589Y0257619D03*
X0043589Y0260178D03*
X0061305Y0260178D03*
X0061305Y0257619D03*
X0061305Y0255060D03*
X0061305Y0252501D03*
X0061305Y0249942D03*
X0143589Y0249942D03*
X0143589Y0252501D03*
X0143589Y0255060D03*
X0143589Y0257619D03*
X0143589Y0260178D03*
X0161305Y0260178D03*
X0161305Y0257619D03*
X0161305Y0255060D03*
X0161305Y0252501D03*
X0161305Y0249942D03*
X0161305Y0060178D03*
X0161305Y0057619D03*
X0161305Y0055060D03*
X0161305Y0052501D03*
X0161305Y0049942D03*
X0143589Y0049942D03*
X0143589Y0052501D03*
X0143589Y0055060D03*
X0143589Y0057619D03*
X0143589Y0060178D03*
X0061305Y0060178D03*
X0061305Y0057619D03*
X0061305Y0055060D03*
X0061305Y0052501D03*
X0061305Y0049942D03*
X0043589Y0049942D03*
X0043589Y0052501D03*
X0043589Y0055060D03*
X0043589Y0057619D03*
X0043589Y0060178D03*
X0243589Y0060178D03*
X0243589Y0057619D03*
X0243589Y0055060D03*
X0243589Y0052501D03*
X0243589Y0049942D03*
X0261305Y0049942D03*
X0261305Y0052501D03*
X0261305Y0055060D03*
X0261305Y0057619D03*
X0261305Y0060178D03*
D14*
X0272250Y0076714D03*
X0272250Y0083406D03*
X0232250Y0083406D03*
X0232250Y0076714D03*
X0232250Y0063406D03*
X0232250Y0056714D03*
X0172250Y0076714D03*
X0172250Y0083406D03*
X0132250Y0083406D03*
X0132250Y0076714D03*
X0132250Y0063406D03*
X0132250Y0056714D03*
X0072250Y0076714D03*
X0072250Y0083406D03*
X0032250Y0083406D03*
X0032250Y0076714D03*
X0032250Y0063406D03*
X0032250Y0056714D03*
X0032250Y0156714D03*
X0032250Y0163406D03*
X0032250Y0176714D03*
X0032250Y0183406D03*
X0072250Y0183406D03*
X0072250Y0176714D03*
X0132250Y0176714D03*
X0132250Y0183406D03*
X0132250Y0163406D03*
X0132250Y0156714D03*
X0172250Y0176714D03*
X0172250Y0183406D03*
X0232250Y0183406D03*
X0232250Y0176714D03*
X0232250Y0163406D03*
X0232250Y0156714D03*
X0272250Y0176714D03*
X0272250Y0183406D03*
X0232250Y0256714D03*
X0232250Y0263406D03*
X0232250Y0276714D03*
X0232250Y0283406D03*
X0272250Y0283406D03*
X0272250Y0276714D03*
X0172250Y0276714D03*
X0172250Y0283406D03*
X0132250Y0283406D03*
X0132250Y0276714D03*
X0132250Y0263406D03*
X0132250Y0256714D03*
X0072250Y0276714D03*
X0072250Y0283406D03*
X0032250Y0283406D03*
X0032250Y0276714D03*
X0032250Y0263406D03*
X0032250Y0256714D03*
D15*
X0041226Y0272560D03*
X0041226Y0277560D03*
X0041226Y0282560D03*
X0041226Y0287560D03*
X0063274Y0287560D03*
X0063274Y0282560D03*
X0063274Y0277560D03*
X0063274Y0272560D03*
X0141226Y0272560D03*
X0141226Y0277560D03*
X0141226Y0282560D03*
X0141226Y0287560D03*
X0163274Y0287560D03*
X0163274Y0282560D03*
X0163274Y0277560D03*
X0163274Y0272560D03*
X0241226Y0272560D03*
X0241226Y0277560D03*
X0241226Y0282560D03*
X0241226Y0287560D03*
X0263274Y0287560D03*
X0263274Y0282560D03*
X0263274Y0277560D03*
X0263274Y0272560D03*
X0263274Y0187560D03*
X0263274Y0182560D03*
X0263274Y0177560D03*
X0263274Y0172560D03*
X0241226Y0172560D03*
X0241226Y0177560D03*
X0241226Y0182560D03*
X0241226Y0187560D03*
X0163274Y0187560D03*
X0163274Y0182560D03*
X0163274Y0177560D03*
X0163274Y0172560D03*
X0141226Y0172560D03*
X0141226Y0177560D03*
X0141226Y0182560D03*
X0141226Y0187560D03*
X0063274Y0187560D03*
X0063274Y0182560D03*
X0063274Y0177560D03*
X0063274Y0172560D03*
X0041226Y0172560D03*
X0041226Y0177560D03*
X0041226Y0182560D03*
X0041226Y0187560D03*
X0041226Y0087560D03*
X0041226Y0082560D03*
X0041226Y0077560D03*
X0041226Y0072560D03*
X0063274Y0072560D03*
X0063274Y0077560D03*
X0063274Y0082560D03*
X0063274Y0087560D03*
X0141226Y0087560D03*
X0141226Y0082560D03*
X0141226Y0077560D03*
X0141226Y0072560D03*
X0163274Y0072560D03*
X0163274Y0077560D03*
X0163274Y0082560D03*
X0163274Y0087560D03*
X0241226Y0087560D03*
X0241226Y0082560D03*
X0241226Y0077560D03*
X0241226Y0072560D03*
X0263274Y0072560D03*
X0263274Y0077560D03*
X0263274Y0082560D03*
X0263274Y0087560D03*
D16*
X0296719Y0066084D03*
X0296719Y0044036D03*
X0207781Y0044036D03*
X0196719Y0044036D03*
X0196719Y0066084D03*
X0207781Y0066084D03*
X0207781Y0144036D03*
X0196719Y0144036D03*
X0196719Y0166084D03*
X0207781Y0166084D03*
X0207781Y0244036D03*
X0196719Y0244036D03*
X0196719Y0266084D03*
X0207781Y0266084D03*
X0296719Y0266084D03*
X0296719Y0244036D03*
X0296719Y0166084D03*
X0296719Y0144036D03*
X0107781Y0144036D03*
X0096719Y0144036D03*
X0096719Y0166084D03*
X0107781Y0166084D03*
X0107781Y0244036D03*
X0096719Y0244036D03*
X0096719Y0266084D03*
X0107781Y0266084D03*
X0007781Y0266084D03*
X0007781Y0244036D03*
X0007781Y0166084D03*
X0007781Y0144036D03*
X0007781Y0066084D03*
X0007781Y0044036D03*
X0096719Y0044036D03*
X0107781Y0044036D03*
X0107781Y0066084D03*
X0096719Y0066084D03*
D17*
X0082250Y0060966D03*
X0082250Y0057028D03*
X0082250Y0053091D03*
X0082250Y0049154D03*
X0122250Y0049154D03*
X0122250Y0053091D03*
X0122250Y0057028D03*
X0122250Y0060966D03*
X0182250Y0060966D03*
X0182250Y0057028D03*
X0182250Y0053091D03*
X0182250Y0049154D03*
X0222250Y0049154D03*
X0222250Y0053091D03*
X0222250Y0057028D03*
X0222250Y0060966D03*
X0282250Y0060966D03*
X0282250Y0057028D03*
X0282250Y0053091D03*
X0282250Y0049154D03*
X0282250Y0149154D03*
X0282250Y0153091D03*
X0282250Y0157028D03*
X0282250Y0160966D03*
X0222250Y0160966D03*
X0222250Y0157028D03*
X0222250Y0153091D03*
X0222250Y0149154D03*
X0182250Y0149154D03*
X0182250Y0153091D03*
X0182250Y0157028D03*
X0182250Y0160966D03*
X0122250Y0160966D03*
X0122250Y0157028D03*
X0122250Y0153091D03*
X0122250Y0149154D03*
X0082250Y0149154D03*
X0082250Y0153091D03*
X0082250Y0157028D03*
X0082250Y0160966D03*
X0022250Y0160966D03*
X0022250Y0157028D03*
X0022250Y0153091D03*
X0022250Y0149154D03*
X0022250Y0060966D03*
X0022250Y0057028D03*
X0022250Y0053091D03*
X0022250Y0049154D03*
X0022250Y0249154D03*
X0022250Y0253091D03*
X0022250Y0257028D03*
X0022250Y0260966D03*
X0082250Y0260966D03*
X0082250Y0257028D03*
X0082250Y0253091D03*
X0082250Y0249154D03*
X0122250Y0249154D03*
X0122250Y0253091D03*
X0122250Y0257028D03*
X0122250Y0260966D03*
X0182250Y0260966D03*
X0182250Y0257028D03*
X0182250Y0253091D03*
X0182250Y0249154D03*
X0222250Y0249154D03*
X0222250Y0253091D03*
X0222250Y0257028D03*
X0222250Y0260966D03*
X0282250Y0260966D03*
X0282250Y0257028D03*
X0282250Y0253091D03*
X0282250Y0249154D03*
D18*
X0277128Y0250229D02*
X0274372Y0250229D01*
X0274372Y0252985D01*
X0277128Y0252985D01*
X0277128Y0250229D01*
X0277128Y0251409D02*
X0274372Y0251409D01*
X0274372Y0252589D02*
X0277128Y0252589D01*
X0277128Y0257135D02*
X0274372Y0257135D01*
X0274372Y0259891D01*
X0277128Y0259891D01*
X0277128Y0257135D01*
X0277128Y0258315D02*
X0274372Y0258315D01*
X0274372Y0259495D02*
X0277128Y0259495D01*
X0277128Y0157135D02*
X0274372Y0157135D01*
X0274372Y0159891D01*
X0277128Y0159891D01*
X0277128Y0157135D01*
X0277128Y0158315D02*
X0274372Y0158315D01*
X0274372Y0159495D02*
X0277128Y0159495D01*
X0277128Y0150229D02*
X0274372Y0150229D01*
X0274372Y0152985D01*
X0277128Y0152985D01*
X0277128Y0150229D01*
X0277128Y0151409D02*
X0274372Y0151409D01*
X0274372Y0152589D02*
X0277128Y0152589D01*
X0277128Y0057135D02*
X0274372Y0057135D01*
X0274372Y0059891D01*
X0277128Y0059891D01*
X0277128Y0057135D01*
X0277128Y0058315D02*
X0274372Y0058315D01*
X0274372Y0059495D02*
X0277128Y0059495D01*
X0277128Y0050229D02*
X0274372Y0050229D01*
X0274372Y0052985D01*
X0277128Y0052985D01*
X0277128Y0050229D01*
X0277128Y0051409D02*
X0274372Y0051409D01*
X0274372Y0052589D02*
X0277128Y0052589D01*
X0177128Y0050229D02*
X0174372Y0050229D01*
X0174372Y0052985D01*
X0177128Y0052985D01*
X0177128Y0050229D01*
X0177128Y0051409D02*
X0174372Y0051409D01*
X0174372Y0052589D02*
X0177128Y0052589D01*
X0177128Y0057135D02*
X0174372Y0057135D01*
X0174372Y0059891D01*
X0177128Y0059891D01*
X0177128Y0057135D01*
X0177128Y0058315D02*
X0174372Y0058315D01*
X0174372Y0059495D02*
X0177128Y0059495D01*
X0177128Y0150229D02*
X0174372Y0150229D01*
X0174372Y0152985D01*
X0177128Y0152985D01*
X0177128Y0150229D01*
X0177128Y0151409D02*
X0174372Y0151409D01*
X0174372Y0152589D02*
X0177128Y0152589D01*
X0177128Y0157135D02*
X0174372Y0157135D01*
X0174372Y0159891D01*
X0177128Y0159891D01*
X0177128Y0157135D01*
X0177128Y0158315D02*
X0174372Y0158315D01*
X0174372Y0159495D02*
X0177128Y0159495D01*
X0177128Y0250229D02*
X0174372Y0250229D01*
X0174372Y0252985D01*
X0177128Y0252985D01*
X0177128Y0250229D01*
X0177128Y0251409D02*
X0174372Y0251409D01*
X0174372Y0252589D02*
X0177128Y0252589D01*
X0177128Y0257135D02*
X0174372Y0257135D01*
X0174372Y0259891D01*
X0177128Y0259891D01*
X0177128Y0257135D01*
X0177128Y0258315D02*
X0174372Y0258315D01*
X0174372Y0259495D02*
X0177128Y0259495D01*
X0077128Y0257135D02*
X0074372Y0257135D01*
X0074372Y0259891D01*
X0077128Y0259891D01*
X0077128Y0257135D01*
X0077128Y0258315D02*
X0074372Y0258315D01*
X0074372Y0259495D02*
X0077128Y0259495D01*
X0077128Y0250229D02*
X0074372Y0250229D01*
X0074372Y0252985D01*
X0077128Y0252985D01*
X0077128Y0250229D01*
X0077128Y0251409D02*
X0074372Y0251409D01*
X0074372Y0252589D02*
X0077128Y0252589D01*
X0077128Y0157135D02*
X0074372Y0157135D01*
X0074372Y0159891D01*
X0077128Y0159891D01*
X0077128Y0157135D01*
X0077128Y0158315D02*
X0074372Y0158315D01*
X0074372Y0159495D02*
X0077128Y0159495D01*
X0077128Y0150229D02*
X0074372Y0150229D01*
X0074372Y0152985D01*
X0077128Y0152985D01*
X0077128Y0150229D01*
X0077128Y0151409D02*
X0074372Y0151409D01*
X0074372Y0152589D02*
X0077128Y0152589D01*
X0077128Y0057135D02*
X0074372Y0057135D01*
X0074372Y0059891D01*
X0077128Y0059891D01*
X0077128Y0057135D01*
X0077128Y0058315D02*
X0074372Y0058315D01*
X0074372Y0059495D02*
X0077128Y0059495D01*
X0077128Y0050229D02*
X0074372Y0050229D01*
X0074372Y0052985D01*
X0077128Y0052985D01*
X0077128Y0050229D01*
X0077128Y0051409D02*
X0074372Y0051409D01*
X0074372Y0052589D02*
X0077128Y0052589D01*
D19*
X0068750Y0050336D03*
X0068750Y0056241D03*
X0068750Y0060178D03*
X0068750Y0150336D03*
X0068750Y0156241D03*
X0068750Y0160178D03*
X0068750Y0250336D03*
X0068750Y0256241D03*
X0068750Y0260178D03*
X0168750Y0260178D03*
X0168750Y0256241D03*
X0168750Y0250336D03*
X0168750Y0160178D03*
X0168750Y0156241D03*
X0168750Y0150336D03*
X0168750Y0060178D03*
X0168750Y0056241D03*
X0168750Y0050336D03*
X0268750Y0050336D03*
X0268750Y0056241D03*
X0268750Y0060178D03*
X0268750Y0150336D03*
X0268750Y0156241D03*
X0268750Y0160178D03*
X0268750Y0250336D03*
X0268750Y0256241D03*
X0268750Y0260178D03*
D20*
X0268750Y0243560D03*
X0268750Y0143560D03*
X0168750Y0143560D03*
X0168750Y0243560D03*
X0068750Y0243560D03*
X0068750Y0143560D03*
X0068750Y0043560D03*
X0168750Y0043560D03*
X0268750Y0043560D03*
M02*
