%
M48
M72
T01C0.0150
T02C0.0200
T03C0.0320
T04C0.0400
T05C0.1300
%
T01
X7833Y8833
X10333Y8533
X10833Y9333
X10833Y10083
X12483Y11633
X11083Y12533
X13333Y10183
X13933Y9933
X15333Y9833
X16083Y11083
X16583Y9333
X16833Y8833
X15833Y7833
X18033Y8833
X20533Y8533
X21033Y9333
X21033Y10083
X22683Y11633
X24083Y11333
X23533Y10183
X24133Y9933
X25533Y9833
X26783Y9333
X27033Y8833
X26033Y7833
X28233Y8833
X26283Y11083
X23633Y7933
X23183Y7483
X21983Y7333
X21983Y6333
X22533Y5833
X24533Y5833
X30733Y8533
X31233Y9333
X31233Y10083
X32883Y11633
X34283Y11333
X33733Y10183
X34333Y9933
X35733Y9833
X36983Y9333
X37233Y8833
X36233Y7833
X33833Y7933
X33383Y7483
X32183Y7333
X32183Y6333
X32733Y5833
X34733Y5833
X36483Y11083
X31483Y12533
X32733Y16033
X32183Y16533
X32183Y17533
X33383Y17683
X33833Y18133
X34333Y20133
X33733Y20383
X34283Y21533
X32883Y21833
X31483Y22733
X31233Y20283
X31233Y19533
X30733Y18733
X28233Y19033
X27033Y19033
X26783Y19533
X25533Y20033
X26283Y21283
X24083Y21533
X23533Y20383
X24133Y20133
X23633Y18133
X23183Y17683
X21983Y17533
X21983Y16533
X22533Y16033
X24533Y16033
X26033Y18033
X22683Y21833
X21283Y22733
X21033Y20283
X21033Y19533
X20533Y18733
X18033Y19033
X16833Y19033
X16583Y19533
X15333Y20033
X13933Y20133
X13333Y20383
X13883Y21533
X12483Y21833
X11083Y22733
X10833Y20283
X10833Y19533
X10333Y18733
X11783Y17533
X11783Y16533
X12333Y16033
X12983Y17683
X13433Y18133
X14333Y16033
X15833Y18033
X16083Y21283
X14333Y26233
X12333Y26233
X11783Y26733
X11783Y27733
X12983Y27883
X13433Y28333
X15333Y30233
X13933Y30333
X13333Y30583
X13883Y31733
X12483Y32033
X11083Y32933
X10833Y30483
X10833Y29733
X10333Y28933
X7833Y29233
X15833Y28233
X16833Y29233
X16583Y29733
X18033Y29233
X20533Y28933
X21033Y29733
X21033Y30483
X22683Y32033
X24083Y31733
X23533Y30583
X24133Y30333
X25533Y30233
X26783Y29733
X27033Y29233
X28233Y29233
X26033Y28233
X23633Y28333
X23183Y27883
X21983Y27733
X21983Y26733
X22533Y26233
X24533Y26233
X26283Y31483
X30733Y28933
X31233Y29733
X31233Y30483
X32883Y32033
X34283Y31733
X33733Y30583
X34333Y30333
X35733Y30233
X36983Y29733
X37233Y29233
X36233Y28233
X33833Y28333
X33383Y27883
X32183Y27733
X32183Y26733
X32733Y26233
X34733Y26233
X36483Y21283
X35733Y20033
X36983Y19533
X37233Y19033
X36233Y18033
X34733Y16033
X21283Y12533
X13883Y11333
X13433Y7933
X12983Y7483
X11783Y7333
X11783Y6333
X12333Y5833
X14333Y5833
X7833Y19033
X16083Y31483
X21283Y32933
X31483Y32933
X36483Y31483
T02
X33233Y31733
X33233Y30733
X32233Y30733
X32233Y31733
X32233Y32733
X33233Y32733
X23033Y32733
X23033Y31733
X23033Y30733
X22033Y30733
X22033Y31733
X22033Y32733
X12833Y32733
X11833Y32733
X11833Y31733
X11833Y30733
X12833Y30733
X12833Y31733
X12833Y22533
X12833Y21533
X11833Y21533
X11833Y22533
X11833Y20533
X12833Y20533
X12833Y12333
X11833Y12333
X11833Y11333
X12833Y11333
X12833Y10333
X11833Y10333
X22033Y10333
X22033Y11333
X22033Y12333
X23033Y12333
X23033Y11333
X23033Y10333
X32233Y10333
X32233Y11333
X32233Y12333
X33233Y12333
X33233Y11333
X33233Y10333
X33233Y20533
X32233Y20533
X32233Y21533
X32233Y22533
X33233Y22533
X33233Y21533
X23033Y21533
X23033Y22533
X22033Y22533
X22033Y21533
X22033Y20533
X23033Y20533
T03
X25783Y20833
X26783Y20833
X35983Y20833
X36983Y20833
X36983Y31033
X35983Y31033
X26783Y31033
X25783Y31033
X16583Y31033
X15583Y31033
X15583Y20833
X16583Y20833
X16583Y10633
X15583Y10633
X25783Y10633
X26783Y10633
X35983Y10633
X36983Y10633
T04
X35233Y13333
X34233Y13333
X33233Y13333
X32233Y13333
X31233Y13333
X30233Y13333
X30233Y14533
X31233Y14533
X32233Y14533
X33233Y14533
X34233Y14533
X35233Y14533
X35233Y23533
X34233Y23533
X33233Y23533
X32233Y23533
X31233Y23533
X30233Y23533
X30233Y24733
X31233Y24733
X32233Y24733
X33233Y24733
X34233Y24733
X35233Y24733
X35233Y33733
X34233Y33733
X33233Y33733
X32233Y33733
X31233Y33733
X30233Y33733
X25033Y33733
X24033Y33733
X23033Y33733
X22033Y33733
X21033Y33733
X20033Y33733
X14833Y33733
X13833Y33733
X12833Y33733
X11833Y33733
X10833Y33733
X9833Y33733
X9833Y24733
X10833Y24733
X11833Y24733
X12833Y24733
X13833Y24733
X14833Y24733
X14833Y23533
X13833Y23533
X12833Y23533
X11833Y23533
X10833Y23533
X9833Y23533
X9833Y14533
X10833Y14533
X11833Y14533
X12833Y14533
X13833Y14533
X14833Y14533
X14833Y13333
X13833Y13333
X12833Y13333
X11833Y13333
X10833Y13333
X9833Y13333
X9833Y4333
X10833Y4333
X11833Y4333
X12833Y4333
X13833Y4333
X14833Y4333
X20033Y4333
X21033Y4333
X22033Y4333
X23033Y4333
X24033Y4333
X25033Y4333
X30233Y4333
X31233Y4333
X32233Y4333
X33233Y4333
X34233Y4333
X35233Y4333
X25033Y13333
X24033Y13333
X23033Y13333
X22033Y13333
X21033Y13333
X20033Y13333
X20033Y14533
X21033Y14533
X22033Y14533
X23033Y14533
X24033Y14533
X25033Y14533
X25033Y23533
X24033Y23533
X23033Y23533
X22033Y23533
X21033Y23533
X20033Y23533
X20033Y24733
X21033Y24733
X22033Y24733
X23033Y24733
X24033Y24733
X25033Y24733
T05
X26533Y23033
X28733Y23033
X36733Y23033
X36733Y33233
X28733Y33233
X26533Y33233
X18533Y33233
X16333Y33233
X8333Y33233
X8333Y23033
X16333Y23033
X18533Y23033
X18533Y12833
X16333Y12833
X8333Y12833
X26533Y12833
X28733Y12833
X36733Y12833
M30
